<?xml version="1.0" standalone="no"?>
<!DOCTYPE svg PUBLIC "-//W3C//DTD SVG 1.1//EN" "http://www.w3.org/Graphics/SVG/1.1/DTD/svg11.dtd" >
<svg>
<metadata>
Created by FontForge 20090622 at Sun Oct 23 09:23:27 2016
 By deploy user
Uyghur Computer Science Association. Free distributed and all rights reserved. http://www.ukij.org
</metadata>
<defs>
<font id="UKIJEkran" horiz-adv-x="1101" >
  <font-face 
    font-family="UKIJ Ekran"
    font-weight="400"
    font-stretch="normal"
    units-per-em="2048"
    panose-1="2 11 6 4 2 2 2 2 2 4"
    ascent="1638"
    descent="-410"
    x-height="1082"
    cap-height="1409"
    bbox="-894 -783 2250 1885"
    underline-thickness="150"
    underline-position="-625"
    unicode-range="U+0020-U+FEFF"
  />
<missing-glyph horiz-adv-x="748" 
d="M68 0v1365h544v-1365h-544zM136 68h408v1229h-408v-1229z" />
    <glyph glyph-name="uni0675" unicode="&#x674;&#xfe8d;" horiz-adv-x="850" 
d="M829 1177v-112l-439 -222v130l138 66q-88 41 -108 101q-11 32 -11 64q0 28 8 55q17 58 76.5 104t119.5 46q61 0 112.5 -23.5t92.5 -57.5v-63q-98 27 -159 27q-54 0 -78 -21q-39 -35 -39 -70q0 -12 5 -24q17 -48 67 -62q8 -3 19 -3q57 0 196 65zM292 1238q-20 0 -33 -31
q-5 -27 -5 -49v-933q0 -138 -171 -210l2 1066q0 64 -11 88q-14 28 -24 68q0 60 61 119l102 110h17q26 -104 62 -228z" />
    <glyph glyph-name="uni0676" unicode="&#x674;&#xfeed;" horiz-adv-x="1099" 
d="M1095 964v-112l-439 -222v130l138 66q-88 41 -108 101q-11 32 -11 64q0 28 8 55q17 58 76.5 104t119.5 46q61 0 112.5 -23.5t92.5 -57.5v-63q-98 27 -159 27q-54 0 -78 -21q-39 -35 -39 -70q0 -12 5 -24q17 -48 67 -62q8 -3 19 -3q57 0 196 65zM501 261q-48 159 -152 159
q-32 0 -53 -26t-21 -58q0 -69 44 -75h182zM540 42h-140q-136 0 -184 51.5t-48 140.5q0 117 46 227q58 150 178 150h15q76 0 140 -78q84 -100 118 -270q12 -72 14 -159h1v-51q0 -214 -106 -367q-94 -150 -274 -158q-178 17 -268 100q-13 13 -13 21q0 10 20 13q259 49 412 179
q92 78 92 166v13q0 9 -3 22z" />
    <glyph glyph-name="uni0677" unicode="&#x674;&#xfbd7;" horiz-adv-x="1099" 
d="M486 261q-48 159 -152 159q-32 0 -53 -26t-21 -58q0 -69 44 -75h182zM525 42h-140q-136 0 -184 51.5t-48 140.5q0 117 46 227q58 150 178 150h15q76 0 140 -78q84 -100 118 -270q12 -72 14 -159h1v-51q0 -214 -106 -367q-94 -150 -274 -158q-178 17 -268 100
q-13 13 -13 21q0 10 20 13q259 49 412 179q92 78 92 166v13q0 9 -3 22zM324 741l-23 42q74 46 91 76t17 65q0 20 -17 20l-20 -5q-49 0 -75.5 34t-26.5 84q0 46 35.5 80t85.5 34q61 0 104 -49t43 -122q0 -83 -51 -144t-163 -115zM1096 964v-112l-439 -222v130l138 66
q-88 41 -108 101q-11 32 -11 64q0 28 8 55q17 58 76.5 104t119.5 46q61 0 112.5 -23.5t92.5 -57.5v-63q-98 27 -159 27q-54 0 -78 -21q-39 -35 -39 -70q0 -12 5 -24q17 -48 67 -62q8 -3 19 -3q57 0 196 65z" />
    <glyph glyph-name="uni0678" unicode="&#x674;&#xfeef;" horiz-adv-x="1501" 
d="M1495 1218v-112l-439 -222v130l138 66q-88 41 -108 101q-11 32 -11 64q0 28 8 55q17 58 76.5 104t119.5 46q61 0 112.5 -23.5t92.5 -57.5v-63q-98 27 -159 27q-54 0 -78 -21q-39 -35 -39 -70q0 -12 5 -24q17 -48 67 -62q8 -3 19 -3q57 0 196 65zM1129 809
q-15 -95 -31 -157q-17 -33 -57 -36q-109 -22 -194 -68q-39 -34 -39 -65q0 -3 1 -6q5 -34 70 -42q58 -9 131 -35q89 -36 89 -129q0 -8 -1 -16q-10 -251 -197 -386.5t-473 -137.5q-418 20 -418 389v15q2 184 120 393q9 6 14 6q10 0 10 -18q0 -5 -1 -10q-45 -122 -55 -221
q17 -320 363 -340h55q164 2 303.5 60t150.5 148q-17 62 -140 67q-146 19 -146 156q14 322 422 441q8 5 12 5q10 0 11 -13z" />
    <glyph glyph-name="uniFBEA" unicode="&#xfe8b;&#xfe8e;" horiz-adv-x="1099" arabic-form="isolated" 
d="M986 964v-112l-439 -222v130l138 66q-88 41 -108 101q-11 32 -11 64q0 28 8 55q17 58 76.5 104t119.5 46q61 0 112.5 -23.5t92.5 -57.5v-63q-98 27 -159 27q-54 0 -78 -21q-39 -35 -39 -70q0 -12 5 -24q17 -48 67 -62q8 -3 19 -3q57 0 196 65zM1045 376v-20
q0 -59 -14 -124q-18 -78 -79 -139q-56 -50 -192 -50l-235 2v216h277q68 13 70 53v3q0 53 -61 164l-51 68l154 154q121 -161 131 -327zM525 42h-183q-92 6 -147.5 53t-56.5 139l2 895q-5 90 -44 139l185 182q12 12 18 12q8 0 8 -18l-1 -1050v-14q0 -119 96 -119h123v-219z
" />
    <glyph glyph-name="uniFBEB" unicode="&#xfe8c;&#xfe8e;" horiz-adv-x="1099" arabic-form="final" 
d="M1120 42h-90q-45 0 -106 32.5t-123 164.5q-43 -108 -98 -156q-46 -41 -112 -41h-101v219h98q40 0 68 13q31 15 60 69t64 180q4 20 16 20q10 0 17 -21q31 -122 62 -169.5t71 -70.5q36 -21 104 -21h70v-219zM1004 963v-111l-438 -223v130l138 66q-88 42 -108 103
q-11 32 -11 64q0 27 8 54q17 58 76 104t119 46q61 0 112.5 -23.5t91.5 -70.5l1 -49q-97 26 -157 26q-56 0 -80 -22q-38 -34 -38 -70q0 -12 4 -24q17 -48 68 -61q7 -3 18 -3q57 0 196 64zM505 42h-183q-92 6 -147.5 53t-56.5 139l2 895q-5 90 -44 139l185 182q12 12 18 12
q8 0 8 -18l-1 -1050v-14q0 -119 96 -119h123v-219z" />
    <glyph glyph-name="uniFBEC" unicode="&#xfe8b;&#xfeea;" horiz-adv-x="1400" arabic-form="isolated" 
d="M1295 964v-112l-439 -222v130l138 66q-88 41 -108 101q-11 32 -11 64q0 28 8 55q17 58 76.5 104t119.5 46q61 0 112.5 -23.5t92.5 -57.5v-63q-98 27 -159 27q-54 0 -78 -21q-39 -35 -39 -70q0 -12 5 -24q17 -48 67 -62q8 -3 19 -3q57 0 196 65zM1354 376v-20
q0 -59 -14 -124q-18 -78 -79 -139q-56 -50 -192 -50l-235 2v216h277q68 13 70 53v3q0 53 -61 164l-51 68l154 154q121 -161 131 -327zM834 42h-193q-152 8 -194 145q-89 -75 -197 -75q-66 0 -111 31q-55 35 -55 100q0 93 55 180.5t123 154.5q50 50 139 90v99l182 125v-530
q3 -101 125 -101h126v-219zM401 362v180q-46 -17 -108 -79.5t-65 -114.5v-6q0 -46 48 -51q3 -1 7 -1q49 0 118 72z" />
    <glyph glyph-name="uniFBED" unicode="&#xfe8c;&#xfeea;" horiz-adv-x="1444" arabic-form="final" 
d="M1457 42h-90q-45 0 -106 32.5t-123 164.5q-43 -108 -98 -156q-46 -41 -112 -41h-101v219h98q40 0 68 13q31 15 60 69t64 180q4 20 16 20q10 0 17 -21q31 -122 62 -169.5t71 -70.5q36 -21 104 -21h70v-219zM1341 963v-111l-438 -223v130l138 66q-88 42 -108 103
q-11 32 -11 64q0 27 8 54q17 58 76 104t119 46q61 0 112.5 -23.5t91.5 -70.5l1 -49q-97 26 -157 26q-56 0 -80 -22q-38 -34 -38 -70q0 -12 4 -24q17 -48 68 -61q7 -3 18 -3q57 0 196 64zM834 42h-193q-152 8 -194 145q-89 -75 -197 -75q-66 0 -111 31q-55 35 -55 100
q0 93 55 180.5t123 154.5q50 50 139 90v99l182 125v-530q3 -101 125 -101h126v-219zM401 362v180q-46 -17 -108 -79.5t-65 -114.5v-6q0 -46 48 -51q3 -1 7 -1q49 0 118 72z" />
    <glyph glyph-name="uniFBEE" unicode="&#xfe8b;&#xfeee;" horiz-adv-x="1399" arabic-form="isolated" 
d="M510 261q-48 159 -152 159q-32 0 -53 -26t-21 -58q0 -69 44 -75h182zM674 261h248v-219h-233q-3 -207 -106 -357q-94 -150 -274 -158q-178 17 -268 100q-13 13 -13 21q0 10 20 13q259 49 412 179q92 78 92 167v13q0 9 -3 22h-140q-136 0 -184 51.5t-48 140.5
q0 117 46 227q58 150 178 150h15q76 0 140 -78q84 -100 118 -270v-2zM1279 964v-112l-439 -222v130l138 66q-88 41 -108 101q-11 32 -11 64q0 28 8 55q17 58 76.5 104t119.5 46q61 0 112.5 -23.5t92.5 -57.5v-63q-98 27 -159 27q-54 0 -78 -21q-39 -35 -39 -70q0 -12 5 -24
q17 -48 67 -62q8 -3 19 -3q57 0 196 65zM1338 376v-20q0 -59 -14 -124q-18 -78 -79 -139q-56 -50 -192 -50l-235 2v216h277q68 13 70 53v3q0 53 -61 164l-51 68l154 154q121 -161 131 -327z" />
    <glyph glyph-name="uniFBEF" unicode="&#xfe8c;&#xfeee;" horiz-adv-x="1399" arabic-form="final" 
d="M490 261q-48 159 -152 159q-32 0 -53 -26t-21 -58q0 -69 44 -75h182zM654 261h248v-219h-233q-3 -207 -106 -357q-94 -150 -274 -158q-178 17 -268 100q-13 13 -13 21q0 10 20 13q259 49 412 179q92 78 92 167v13q0 9 -3 22h-140q-136 0 -184 51.5t-48 140.5
q0 117 46 227q58 150 178 150h15q76 0 140 -78q84 -100 118 -270v-2zM1427 42h-90q-45 0 -106 32.5t-123 164.5q-43 -108 -98 -156q-46 -41 -112 -41h-101v219h98q40 0 68 13q31 15 60 69t64 180q4 20 16 20q10 0 17 -21q31 -122 62 -169.5t71 -70.5q36 -21 104 -21h70v-219
zM1311 963v-111l-438 -223v130l138 66q-88 42 -108 103q-11 32 -11 64q0 27 8 54q17 58 76 104t119 46q61 0 112.5 -23.5t91.5 -70.5l1 -49q-97 26 -157 26q-56 0 -80 -22q-38 -34 -38 -70q0 -12 4 -24q17 -48 68 -61q7 -3 18 -3q57 0 196 64z" />
    <glyph glyph-name="uniFBF0" unicode="&#xfe8b;&#xfbd8;" horiz-adv-x="1399" arabic-form="isolated" 
d="M490 261q-48 159 -152 159q-32 0 -53 -26t-21 -58q0 -69 44 -75h182zM654 261h248v-219h-233q-3 -207 -106 -357q-94 -150 -274 -158q-178 17 -268 100q-13 13 -13 21q0 10 20 13q259 49 412 179q92 78 92 167v13q0 9 -3 22h-140q-136 0 -184 51.5t-48 140.5
q0 117 46 227q58 150 178 150h15q76 0 140 -78q84 -100 118 -270v-2zM312 741l-23 42q74 46 91 76t17 65q0 20 -17 20l-20 -5q-49 0 -75.5 34t-26.5 84q0 46 35.5 80t85.5 34q61 0 104 -49t43 -122q0 -83 -51 -144t-163 -115zM1276 964v-112l-439 -222v130l138 66
q-88 41 -108 101q-11 32 -11 64q0 28 8 55q17 58 76.5 104t119.5 46q61 0 112.5 -23.5t92.5 -57.5v-63q-98 27 -159 27q-54 0 -78 -21q-39 -35 -39 -70q0 -12 5 -24q17 -48 67 -62q8 -3 19 -3q57 0 196 65zM1335 376v-20q0 -59 -14 -124q-18 -78 -79 -139q-56 -50 -192 -50
l-235 2v216h277q68 13 70 53v3q0 53 -61 164l-51 68l154 154q121 -161 131 -327z" />
    <glyph glyph-name="uniFBF1" unicode="&#xfe8c;&#xfbd8;" horiz-adv-x="1399" arabic-form="final" 
d="M490 261q-48 159 -152 159q-32 0 -53 -26t-21 -58q0 -69 44 -75h182zM654 261h248v-219h-233q-3 -207 -106 -357q-94 -150 -274 -158q-178 17 -268 100q-13 13 -13 21q0 10 20 13q259 49 412 179q92 78 92 167v13q0 9 -3 22h-140q-136 0 -184 51.5t-48 140.5
q0 117 46 227q58 150 178 150h15q76 0 140 -78q84 -100 118 -270v-2zM312 741l-23 42q74 46 91 76t17 65q0 20 -17 20l-20 -5q-49 0 -75.5 34t-26.5 84q0 46 35.5 80t85.5 34q61 0 104 -49t43 -122q0 -83 -51 -144t-163 -115zM1427 42h-90q-45 0 -106 32.5t-123 164.5
q-43 -108 -98 -156q-46 -41 -112 -41h-101v219h98q40 0 68 13q31 15 60 69t64 180q4 20 16 20q10 0 17 -21q31 -122 62 -169.5t71 -70.5q36 -21 104 -21h70v-219zM1311 963v-111l-438 -223v130l138 66q-88 42 -108 103q-11 32 -11 64q0 27 8 54q17 58 76 104t119 46
q61 0 112.5 -23.5t91.5 -70.5l1 -49q-97 26 -157 26q-56 0 -80 -22q-38 -34 -38 -70q0 -12 4 -24q17 -48 68 -61q7 -3 18 -3q57 0 196 64z" />
    <glyph glyph-name="uniFBF2" unicode="&#xfe8b;&#xfbda;" horiz-adv-x="1399" arabic-form="isolated" 
d="M490 261q-48 159 -152 159q-32 0 -53 -26t-21 -58q0 -69 44 -75h182zM654 261h248v-219h-233q-3 -207 -106 -357q-94 -150 -274 -158q-178 17 -268 100q-13 13 -13 21q0 10 20 13q259 49 412 179q92 78 92 167v13q0 9 -3 22h-140q-136 0 -184 51.5t-48 140.5
q0 117 46 227q58 150 178 150h15q76 0 140 -78q84 -100 118 -270v-2zM645 1081q6 -6 6 -12q0 -5 -3 -9l-248 -312q-4 -5 -8 -5t-8 5l-250 307q-3 4 -3 9q0 6 6 12l66 67q5 5 10 5q6 0 12 -8l155 -192q6 -7 11 -7q6 0 11 7l158 194q6 8 12 8q5 0 10 -5zM1272 964v-112
l-439 -222v130l138 66q-88 41 -108 101q-11 32 -11 64q0 28 8 55q17 58 76.5 104t119.5 46q61 0 112.5 -23.5t92.5 -57.5v-63q-98 27 -159 27q-54 0 -78 -21q-39 -35 -39 -70q0 -12 5 -24q17 -48 67 -62q8 -3 19 -3q57 0 196 65zM1331 376v-20q0 -59 -14 -124
q-18 -78 -79 -139q-56 -50 -192 -50l-235 2v216h277q68 13 70 53v3q0 53 -61 164l-51 68l154 154q121 -161 131 -327z" />
    <glyph glyph-name="uniFBF3" unicode="&#xfe8c;&#xfbda;" horiz-adv-x="1399" arabic-form="final" 
d="M490 261q-48 159 -152 159q-32 0 -53 -26t-21 -58q0 -69 44 -75h182zM654 261h248v-219h-233q-3 -207 -106 -357q-94 -150 -274 -158q-178 17 -268 100q-13 13 -13 21q0 10 20 13q259 49 412 179q92 78 92 167v13q0 9 -3 22h-140q-136 0 -184 51.5t-48 140.5
q0 117 46 227q58 150 178 150h15q76 0 140 -78q84 -100 118 -270v-2zM645 1081q6 -6 6 -12q0 -5 -3 -9l-248 -312q-4 -5 -8 -5t-8 5l-250 307q-3 4 -3 9q0 6 6 12l66 67q5 5 10 5q6 0 12 -8l155 -192q6 -7 11 -7q6 0 11 7l158 194q6 8 12 8q5 0 10 -5zM1430 42h-90
q-45 0 -106 32.5t-123 164.5q-43 -108 -98 -156q-46 -41 -112 -41h-101v219h98q40 0 68 13q31 15 60 69t64 180q4 20 16 20q10 0 17 -21q31 -122 62 -169.5t71 -70.5q36 -21 104 -21h70v-219zM1314 963v-111l-438 -223v130l138 66q-88 42 -108 103q-11 32 -11 64q0 27 8 54
q17 58 76 104t119 46q61 0 112.5 -23.5t91.5 -70.5l1 -49q-97 26 -157 26q-56 0 -80 -22q-38 -34 -38 -70q0 -12 4 -24q17 -48 68 -61q7 -3 18 -3q57 0 196 64z" />
    <glyph glyph-name="uniFBF4" unicode="&#xfe8b;&#xfbdc;" horiz-adv-x="1399" arabic-form="isolated" 
d="M490 261q-48 159 -152 159q-32 0 -53 -26t-21 -58q0 -69 44 -75h182zM654 261h248v-219h-233q-3 -207 -106 -357q-94 -150 -274 -158q-178 17 -268 100q-13 13 -13 21q0 10 20 13q259 49 412 179q92 78 92 167v13q0 9 -3 22h-140q-136 0 -184 51.5t-48 140.5
q0 117 46 227q58 150 178 150h15q76 0 140 -78q84 -100 118 -270v-2zM436 795l-80 -57q-5 -4 -9 -4q-5 0 -5 8v375q0 12 14 22l80 57q5 4 8 4q5 0 5 -8v-375q0 -13 -13 -22zM1279 964v-112l-439 -222v130l138 66q-88 41 -108 101q-11 32 -11 64q0 28 8 55q17 58 76.5 104
t119.5 46q61 0 112.5 -23.5t92.5 -57.5v-63q-98 27 -159 27q-54 0 -78 -21q-39 -35 -39 -70q0 -12 5 -24q17 -48 67 -62q8 -3 19 -3q57 0 196 65zM1338 376v-20q0 -59 -14 -124q-18 -78 -79 -139q-56 -50 -192 -50l-235 2v216h277q68 13 70 53v3q0 53 -61 164l-51 68
l154 154q121 -161 131 -327z" />
    <glyph glyph-name="uniFBF5" unicode="&#xfe8c;&#xfbdc;" horiz-adv-x="1399" arabic-form="final" 
d="M490 261q-48 159 -152 159q-32 0 -53 -26t-21 -58q0 -69 44 -75h182zM654 261h248v-219h-233q-3 -207 -106 -357q-94 -150 -274 -158q-178 17 -268 100q-13 13 -13 21q0 10 20 13q259 49 412 179q92 78 92 167v13q0 9 -3 22h-140q-136 0 -184 51.5t-48 140.5
q0 117 46 227q58 150 178 150h15q76 0 140 -78q84 -100 118 -270v-2zM436 795l-80 -57q-5 -4 -9 -4q-5 0 -5 8v375q0 12 14 22l80 57q5 4 8 4q5 0 5 -8v-375q0 -13 -13 -22zM1427 42h-90q-45 0 -106 32.5t-123 164.5q-43 -108 -98 -156q-46 -41 -112 -41h-101v219h98
q40 0 68 13q31 15 60 69t64 180q4 20 16 20q10 0 17 -21q31 -122 62 -169.5t71 -70.5q36 -21 104 -21h70v-219zM1311 963v-111l-438 -223v130l138 66q-88 42 -108 103q-11 32 -11 64q0 27 8 54q17 58 76 104t119 46q61 0 112.5 -23.5t91.5 -70.5l1 -49q-97 26 -157 26
q-56 0 -80 -22q-38 -34 -38 -70q0 -12 4 -24q17 -48 68 -61q7 -3 18 -3q57 0 196 64z" />
    <glyph glyph-name="uniFBF6" unicode="&#xfe8b;&#xfbe5;" horiz-adv-x="1601" arabic-form="isolated" 
d="M536 -625l-95 75l98 77l102 -78l-95 -76l96 -75l-100 -81l-100 82zM812 10q-1 -4 -1 -7q0 -17 29 -28l124 -1q85 -3 85 -90q-9 -126 -107 -208.5t-194 -107.5q-84 -20 -155 -24q-30 -2 -60 -2q-45 0 -91 4q-80 6 -171.5 29.5t-175.5 115t-93 230.5v27q0 155 106 335
q4 2 10 2q8 0 8 -24q-33 -83 -36 -163q-4 -40 -4 -75q0 -97 53 -153q67 -69 155.5 -86.5t237.5 -18.5h34q122 0 174 7q58 7 91 15.5t88 32.5q4 12 4 21q0 25 -28 30h-103q-85 12 -97 94v8q0 99 61 188q63 92 204 100h153v-219h-252q-46 -10 -49 -32zM1518 964v-112
l-439 -222v130l138 66q-88 41 -108 101q-11 32 -11 64q0 28 8 55q17 58 76.5 104t119.5 46q61 0 112.5 -23.5t92.5 -57.5v-63q-98 27 -159 27q-54 0 -78 -21q-39 -35 -39 -70q0 -12 5 -24q17 -48 67 -62q8 -3 19 -3q57 0 196 65zM1577 376v-20q0 -59 -14 -124
q-18 -78 -79 -139q-56 -50 -192 -50l-235 2v216h277q68 13 70 53v3q0 53 -61 164l-51 68l154 154q121 -161 131 -327z" />
    <glyph glyph-name="uniFBF7" unicode="&#xfe8c;&#xfbe5;" horiz-adv-x="1701" arabic-form="final" 
d="M536 -625l-95 75l98 77l102 -78l-95 -76l96 -75l-100 -81l-100 82zM812 10q-1 -4 -1 -7q0 -17 29 -28l124 -1q85 -3 85 -90q-9 -126 -107 -208.5t-194 -107.5q-84 -20 -155 -24q-30 -2 -60 -2q-45 0 -91 4q-80 6 -171.5 29.5t-175.5 115t-93 230.5v27q0 155 106 335
q4 2 10 2q8 0 8 -24q-33 -83 -36 -163q-4 -40 -4 -75q0 -97 53 -153q67 -69 155.5 -86.5t237.5 -18.5h34q122 0 174 7q58 7 91 15.5t88 32.5q4 12 4 21q0 25 -28 30h-103q-85 12 -97 94v8q0 99 61 188q63 92 204 100h153v-219h-252q-46 -10 -49 -32zM1720 42h-90
q-45 0 -106 32.5t-123 164.5q-43 -108 -98 -156q-46 -41 -112 -41h-101v219h98q40 0 68 13q31 15 60 69t64 180q4 20 16 20q10 0 17 -21q31 -122 62 -169.5t71 -70.5q36 -21 104 -21h70v-219zM1604 963v-111l-438 -223v130l138 66q-88 42 -108 103q-11 32 -11 64q0 27 8 54
q17 58 76 104t119 46q61 0 112.5 -23.5t91.5 -70.5l1 -49q-97 26 -157 26q-56 0 -80 -22q-38 -34 -38 -70q0 -12 4 -24q17 -48 68 -61q7 -3 18 -3q57 0 196 64z" />
    <glyph glyph-name="uniFBF8" unicode="&#xfe8b;&#xfbe7;" horiz-adv-x="1200" arabic-form="initial" 
d="M1075 964v-112l-439 -222v130l138 66q-88 41 -108 101q-11 32 -11 64q0 28 8 55q17 58 76.5 104t119.5 46q61 0 112.5 -23.5t92.5 -57.5v-63q-98 27 -159 27q-54 0 -78 -21q-39 -35 -39 -70q0 -12 5 -24q17 -48 67 -62q8 -3 19 -3q57 0 196 65zM1134 376v-20
q0 -59 -14 -124q-18 -78 -79 -139q-56 -50 -192 -50l-235 2v216h277q68 13 70 53v3q0 53 -61 164l-51 68l154 154q121 -161 131 -327zM626 42h-90q-45 0 -106 32.5t-123 164.5q-43 -108 -98 -156q-46 -41 -112 -41h-101v219h98q40 0 68 13q31 15 60 69t64 180q4 20 16 20
q10 0 17 -21q31 -122 62 -169.5t71 -70.5q36 -21 104 -21h70v-219zM182 -222l127 127l129 -129l-126 -127zM186 -493l127 127l129 -129l-126 -127z" />
    <glyph glyph-name="uniFBF9" unicode="&#xfe8b;&#xfef0;" horiz-adv-x="1601" arabic-form="isolated" 
d="M782 0q-1 -4 -1 -7q0 -27 29 -38l84 -1q85 -3 85 -100q-7 -142 -81 -251.5t-180 -134.5q-84 -20 -149 -20l-114 1q-69 0 -173 29q-108 38 -189 126q-91 105 -91 297v27q0 175 106 355q4 2 10 2q8 0 8 -24q-33 -83 -36 -163q-4 -40 -4 -75q0 -127 53 -203
q67 -99 155.5 -121.5t159.5 -24.5h80q107 0 162 12q62 13 95 36.5t58 67.5q4 12 4 21q0 25 -28 30h-63q-85 12 -97 104v8q0 119 61 208q63 92 204 100h193v-219h-292q-46 -10 -49 -42zM1515 964v-112l-439 -222v130l138 66q-88 41 -108 101q-11 32 -11 64q0 28 8 55
q17 58 76.5 104t119.5 46q61 0 112.5 -23.5t92.5 -57.5v-63q-98 27 -159 27q-54 0 -78 -21q-39 -35 -39 -70q0 -12 5 -24q17 -48 67 -62q8 -3 19 -3q57 0 196 65zM1574 376v-20q0 -59 -14 -124q-18 -78 -79 -139q-56 -50 -192 -50l-235 2v216h277q68 13 70 53v3
q0 53 -61 164l-51 68l154 154q121 -161 131 -327z" />
    <glyph glyph-name="uniFBFA" unicode="&#xfe8c;&#xfef0;" horiz-adv-x="1701" arabic-form="final" 
d="M782 0q-1 -4 -1 -7q0 -27 29 -38l84 -1q85 -3 85 -100q-7 -142 -81 -251.5t-180 -134.5q-84 -20 -149 -20l-114 1q-69 0 -173 29q-108 38 -189 126q-91 105 -91 297v27q0 175 106 355q4 2 10 2q8 0 8 -24q-33 -83 -36 -163q-4 -40 -4 -75q0 -127 53 -203
q67 -99 155.5 -121.5t159.5 -24.5h80q107 0 162 12q62 13 95 36.5t58 67.5q4 12 4 21q0 25 -28 30h-63q-85 12 -97 104v8q0 119 61 208q63 92 204 100h193v-219h-292q-46 -10 -49 -42zM1731 42h-90q-45 0 -106 32.5t-123 164.5q-43 -108 -98 -156q-46 -41 -112 -41h-101v219
h98q40 0 68 13q31 15 60 69t64 180q4 20 16 20q10 0 17 -21q31 -122 62 -169.5t71 -70.5q36 -21 104 -21h70v-219zM1615 963v-111l-438 -223v130l138 66q-88 42 -108 103q-11 32 -11 64q0 27 8 54q17 58 76 104t119 46q61 0 112.5 -23.5t91.5 -70.5l1 -49q-97 26 -157 26
q-56 0 -80 -22q-38 -34 -38 -70q0 -12 4 -24q17 -48 68 -61q7 -3 18 -3q57 0 196 64z" />
    <glyph glyph-name="uniFBFB" unicode="&#xfe8b;&#xfbe9;" horiz-adv-x="1200" arabic-form="initial" 
d="M1068 964v-112l-439 -222v130l138 66q-88 41 -108 101q-11 32 -11 64q0 28 8 55q17 58 76.5 104t119.5 46q61 0 112.5 -23.5t92.5 -57.5v-63q-98 27 -159 27q-54 0 -78 -21q-39 -35 -39 -70q0 -12 5 -24q17 -48 67 -62q8 -3 19 -3q57 0 196 65zM1127 376v-20
q0 -59 -14 -124q-18 -78 -79 -139q-56 -50 -192 -50l-235 2v216h277q68 13 70 53v3q0 53 -61 164l-51 68l154 154q121 -161 131 -327zM626 42h-90q-45 0 -106 32.5t-123 164.5q-43 -108 -98 -156q-46 -41 -112 -41h-101v219h98q40 0 68 13q31 15 60 69t64 180q4 20 16 20
q10 0 17 -21q31 -122 62 -169.5t71 -70.5q36 -21 104 -21h70v-219z" />
    <glyph glyph-name="uniFEF5" unicode="&#xfedf;&#xfe82;" horiz-adv-x="1000" arabic-form="isolated" 
d="M952 1273q-4 -12 -32 -38q-14 -18 -14 -52q-1 -299 -11 -328q-4 -48 -28 -153q-46 -136 -127 -231l57 -152q15 -34 15 -88q0 -58 -65 -141q-95 -123 -321 -123q-59 0 -108 27q-55 28 -55 81q0 51 30.5 128t62.5 110q55 40 196 163q-20 83 -139 236q-110 136 -195 202
l-40 -19q-13 27 -81 98q-57 56 -57 100q17 55 41 111l49 108q6 3 16 3q102 -80 288 -345q110 -156 233 -374q46 32 70 121q17 56 17 171q0 53 -18.5 187.5t-18.5 188.5q0 98 148 192zM680 241q-3 51 -56 127l-108 -82q-76 -58 -84 -89q16 -27 72 -27q34 0 83 8q65 19 93 63z
M463 1492q-71 -81 -161 -81q-66 0 -131 26.5t-89 26.5q-21 0 -56 -15l-12 14q51 72 107 72q18 0 91.5 -26.5t119.5 -26.5q58 0 115 25z" />
    <glyph glyph-name="uniFEF6" unicode="&#xfee0;&#xfe82;" horiz-adv-x="1100" arabic-form="final" 
d="M1115 42h-72q-152 0 -217 50q-62 51 -85 156q-10 32 -23 178q-18 -143 -108 -266q-92 -127 -228 -170q-35 -4 -63 -4q-94 0 -148 34q-75 47 -90 69q100 14 218 81q137 78 137 206q0 95 -51 226q-96 232 -204 320l-55 -20q-30 91 -110 258q65 136 134 169
q129 -115 232 -312q103 -188 157 -378q29 -98 46 -209q109 178 121 364q7 103 7 456q0 65 64 133q61 63 125 78l-2 -920q0 -110 8 -137q8 -91 53 -119q35 -24 86 -24h68v-219zM464 1495q-71 -81 -161 -81q-66 0 -131 26.5t-89 26.5q-21 0 -56 -15l-12 14q51 72 107 72
q18 0 91.5 -26.5t119.5 -26.5q58 0 115 25z" />
    <glyph glyph-name="uniFEF7" unicode="&#xfedf;&#xfe84;" horiz-adv-x="1000" arabic-form="isolated" 
d="M952 1273q-4 -12 -32 -38q-14 -18 -14 -52q-1 -299 -11 -328q-4 -48 -28 -153q-46 -136 -127 -231l57 -152q15 -34 15 -88q0 -58 -65 -141q-95 -123 -321 -123q-59 0 -108 27q-55 28 -55 81q0 51 30.5 128t62.5 110q55 40 196 163q-20 83 -139 236q-110 136 -195 202
l-40 -19q-13 27 -81 98q-57 56 -57 100q17 55 41 111l49 108q6 3 16 3q102 -80 288 -345q110 -156 233 -374q46 32 70 121q17 56 17 171q0 53 -18.5 187.5t-18.5 188.5q0 98 148 192zM680 241q-3 51 -56 127l-108 -82q-76 -58 -84 -89q16 -27 72 -27q34 0 83 8q65 19 93 63z
M323 1547v-73l-288 -146v85l90 44q-58 27 -70 67q-7 21 -7 42q0 18 5 36q11 38 50 68t78 30q40 0 74 -15t60 -43l1 -36q-65 18 -105 18q-35 0 -51 -14q-25 -23 -25 -47q0 -8 3 -15q11 -32 44 -41q5 -2 12 -2q38 0 129 42z" />
    <glyph glyph-name="uniFEF8" unicode="&#xfee0;&#xfe84;" horiz-adv-x="1100" arabic-form="final" 
d="M1114 42h-72q-152 0 -217 50q-62 51 -85 156q-10 32 -23 178q-18 -143 -108 -266q-92 -127 -228 -170q-35 -4 -63 -4q-94 0 -148 34q-75 47 -90 69q100 14 218 81q137 78 137 206q0 95 -51 226q-96 232 -204 320l-55 -20q-30 91 -110 258q65 136 134 169
q129 -115 232 -312q103 -188 157 -378q29 -98 46 -209q109 178 121 364q7 103 7 456q0 65 64 133q61 63 125 78l-2 -920q0 -110 8 -137q8 -91 53 -119q35 -24 86 -24h68v-219zM323 1547v-73l-288 -146v85l90 44q-58 27 -70 67q-7 21 -7 42q0 18 5 36q11 38 50 68t78 30
q40 0 74 -15t60 -43l1 -36q-65 18 -105 18q-35 0 -51 -14q-25 -23 -25 -47q0 -8 3 -15q11 -32 44 -41q5 -2 12 -2q38 0 129 42z" />
    <glyph glyph-name="uniFEF9" unicode="&#xfedf;&#xfe88;" horiz-adv-x="1000" arabic-form="isolated" 
d="M952 1273q-4 -12 -32 -38q-14 -18 -14 -52q-1 -299 -11 -328q-4 -48 -28 -153q-46 -136 -127 -231l57 -152q15 -34 15 -88q0 -58 -65 -141q-95 -123 -321 -123q-59 0 -108 27q-55 28 -55 81q0 51 30.5 128t62.5 110q55 40 196 163q-20 83 -139 236q-110 136 -195 202
l-40 -19q-13 27 -81 98q-57 56 -57 100q17 55 41 111l49 108q6 3 16 3q102 -80 288 -345q110 -156 233 -374q46 32 70 121q17 56 17 171q0 53 -18.5 187.5t-18.5 188.5q0 98 148 192zM680 241q-3 51 -56 127l-108 -82q-76 -58 -84 -89q16 -27 72 -27q34 0 83 8q65 19 93 63z
M322 -216v-73l-288 -146v85l90 44q-58 27 -70 67q-7 21 -7 42q0 18 5 36q11 38 50 68t78 30q40 0 74 -15t60 -43l1 -36q-64 17 -104 17q-36 0 -52 -14q-25 -22 -25 -46q0 -8 3 -15q11 -32 44 -41q5 -2 12 -2q38 0 129 42z" />
    <glyph glyph-name="uniFEFA" unicode="&#xfee0;&#xfe88;" horiz-adv-x="1100" arabic-form="final" 
d="M1114 42h-72q-152 0 -217 50q-62 51 -85 156q-10 32 -23 178q-18 -143 -108 -266q-92 -127 -228 -170q-35 -4 -63 -4q-94 0 -148 34q-75 47 -90 69q100 14 218 81q137 78 137 206q0 95 -51 226q-96 232 -204 320l-55 -20q-30 91 -110 258q65 136 134 169
q129 -115 232 -312q103 -188 157 -378q29 -98 46 -209q109 178 121 364q7 103 7 456q0 65 64 133q61 63 125 78l-2 -920q0 -110 8 -137q8 -91 53 -119q35 -24 86 -24h68v-219zM322 -216v-73l-288 -146v85l90 44q-58 27 -70 67q-7 21 -7 42q0 18 5 36q11 38 50 68t78 30
q40 0 74 -15t60 -43l1 -36q-64 17 -104 17q-36 0 -52 -14q-25 -22 -25 -46q0 -8 3 -15q11 -32 44 -41q5 -2 12 -2q38 0 129 42z" />
    <glyph glyph-name="uniFEFB" unicode="&#xfedf;&#xfe8e;" horiz-adv-x="1000" arabic-form="isolated" 
d="M952 1273q-4 -12 -32 -38q-14 -18 -14 -52q-1 -299 -11 -328q-4 -48 -28 -153q-46 -136 -127 -231l57 -152q15 -34 15 -88q0 -58 -65 -141q-95 -123 -321 -123q-59 0 -108 27q-55 28 -55 81q0 51 30.5 128t62.5 110q55 40 196 163q-20 83 -139 236q-110 136 -195 202
l-40 -19q-13 27 -81 98q-57 56 -57 100q17 55 41 111l49 108q6 3 16 3q102 -80 288 -345q110 -156 233 -374q46 32 70 121q17 56 17 171q0 53 -18.5 187.5t-18.5 188.5q0 98 148 192zM680 241q-3 51 -56 127l-108 -82q-76 -58 -84 -89q16 -27 72 -27q34 0 83 8q65 19 93 63z
" />
    <glyph glyph-name="uniFEFC" unicode="&#xfee0;&#xfe8e;" horiz-adv-x="1100" arabic-form="final" 
d="M1114 42h-72q-152 0 -217 50q-62 51 -85 156q-10 32 -23 178q-18 -143 -108 -266q-92 -127 -228 -170q-35 -4 -63 -4q-94 0 -148 34q-75 47 -90 69q100 14 218 81q137 78 137 206q0 95 -51 226q-96 232 -204 320l-55 -20q-30 91 -110 258q65 136 134 169
q129 -115 232 -312q103 -188 157 -378q29 -98 46 -209q109 178 121 364q7 103 7 456q0 65 64 133q61 63 125 78l-2 -920q0 -110 8 -137q8 -91 53 -119q35 -24 86 -24h68v-219z" />
    <glyph glyph-name="uniFB56" unicode="&#x67e;" horiz-adv-x="1299" arabic-form="isolated" 
d="M344 -211l128 127l130 -129l-128 -127zM634 -211l127 127l130 -129l-128 -127zM494 -450l128 127l129 -129l-127 -126zM1204 539q19 -78 19 -134v-17q-3 -60 -15 -110q-80 -233 -259 -235h-605q-156 3 -245 83t-89 209q7 180 134 334h2q25 0 25 -27q-12 -43 -36 -141
q-6 -41 -6 -73q0 -93 48 -124q65 -42 188 -43h560q79 0 107 23q30 24 37 78v6q0 56 -119 207l173 127q57 -75 81 -163z" />
    <glyph glyph-name="uniFB57" unicode="&#x67e;" horiz-adv-x="1400" arabic-form="final" 
d="M1419 42h-108q-59 0 -115 34.5t-102 162.5q-57 -115 -126 -153.5t-141 -41.5h-477q-173 2 -258 85.5t-90 188.5q-1 10 -1 18q0 95 37 185q43 93 62 98h26q-28 -104 -28 -165t38.5 -126.5t190.5 -65.5h497q100 0 176 86q76 87 98 204q6 15 12 15q7 0 14 -14
q25 -126 85 -209t122 -83h88v-219zM325 -231l128 127l130 -129l-129 -126zM640 -232l126 128l131 -130l-129 -126zM488 -440l127 128l131 -130l-129 -127z" />
    <glyph glyph-name="uniFB58" unicode="&#x67e;" horiz-adv-x="699" arabic-form="initial" 
d="M600 375v-20q0 -59 -13 -124q-18 -78 -79 -139q-56 -50 -192 -50h-320v219h367q63 12 65 52v3q0 53 -61 163l-51 69l154 154q121 -161 130 -327zM53 -235l127 128l130 -130l-129 -127zM339 -235l126 128l131 -130l-129 -127zM198 -469l127 127l129 -129l-126 -127z" />
    <glyph glyph-name="uniFB59" unicode="&#x67e;" horiz-adv-x="599" arabic-form="medial" 
d="M616 42h-90q-45 0 -106 32.5t-123 164.5q-43 -108 -98 -156q-46 -41 -112 -41h-101v219h98q40 0 68 13q31 15 60 69t64 180q4 20 16 20q10 0 17 -21q31 -122 62 -169.5t71 -70.5q36 -21 104 -21h70v-219zM427 -474l-127 -127l-129 129l126 127zM615 -231l-127 -127
l-129 129l126 127zM238 -235l-127 -127l-129 129l126 127z" />
    <glyph glyph-name="uniFB6A" unicode="&#x6a4;" horiz-adv-x="1299" arabic-form="isolated" 
d="M1196 41q-13 -185 -138 -320q-183 -201 -496 -207l-120 3q-137 12 -234 78t-141 144.5t-48 176.5q-2 44 -2 82q0 43 2 77q5 61 38 149t90 166l36 -27l-17 -41q-38 -91 -38 -219q0 -20 1 -41q7 -155 138 -251q88 -53 268 -63q19 -2 38 -2q44 0 92 10q113 12 200 48
q198 85 198 214v24h-230q-141 12 -141 231v12q6 178 61 278q49 91 150 93h6q81 0 142 -55q108 -101 142 -293q11 -68 11 -131q0 -18 -1 -41zM1030 262q-6 59 -37 112q-40 68 -90 71q-10 1 -20 1q-74 0 -83 -92q5 -82 76 -92h154zM924 858l126 127l132 -129l-129 -127z
M619 858l126 127l132 -129l-129 -127zM775 1106l126 127l132 -129l-129 -127z" />
    <glyph glyph-name="uniFB6B" unicode="&#x6a4;" horiz-adv-x="1299" arabic-form="final" 
d="M627 928l127 127l130 -129l-129 -127zM927 928l127 127l131 -129l-129 -127zM1323 42h-130q-5 -81 -46 -183q-42 -105 -97 -156q-138 -126 -252 -156q-107 -29 -199 -29h-54q-93 0 -153 4q-110 12 -246 108q-57 55 -94 125q-18 51 -34 108q-13 47 -13 127q0 14 1 30
q2 100 20 160q40 137 76 149q14 -8 14 -30q0 -15 -6 -38q-18 -68 -18 -137q0 -193 122 -280q118 -82 273 -92q26 -3 58 -3q51 0 117 7q114 12 199 48q198 85 198 215v23h-228q-142 13 -142 232v12q6 178 61 278q49 91 149 93h6q83 0 142 -55q105 -98 141 -310q3 -12 5 -31
h130v-219zM1026 261q-6 61 -37 114q-40 68 -90 71q-10 1 -20 1q-74 0 -82 -92q4 -82 77 -94h152zM763 1179l127 127l129 -129l-126 -127z" />
    <glyph glyph-name="uniFB6C" unicode="&#x6a4;" horiz-adv-x="700" arabic-form="initial" 
d="M592 241q-17 -61 -60 -114q-74 -85 -255 -85h-281v219h328q121 0 121 75q0 44 -1 58h-172q-108 0 -151 36q-51 43 -51 134q4 165 90 288q60 87 149 87q12 0 25 -2q118 0 220 -201q42 -69 52 -224v-53q-3 -167 -14 -218zM432 549q-4 32 -35 97q-51 85 -105 85
q-78 0 -81 -95q-1 -6 -1 -12q0 -75 82 -75h140zM15 1210l128 128l131 -130l-129 -128zM327 1210l127 128l131 -130l-130 -128zM179 1457l127 127l129 -129l-126 -127z" />
    <glyph glyph-name="uniFB6D" unicode="&#x6a4;" horiz-adv-x="700" arabic-form="medial" 
d="M722 42h-175q-110 0 -195 101q-105 -101 -242 -101h-114v219h236q-28 29 -61 82q-26 37 -43.5 89t-17.5 119q2 55 21 100q20 37 31 55q73 103 200 108h3q90 0 152 -54q46 -34 55 -70q31 -59 33 -141v-19q0 -110 -53 -191q-25 -31 -60 -66q5 -12 41 -12h189v-219zM480 454
q-12 120 -140 120q-70 0 -81 -30q-1 -10 -1 -20q0 -56 38 -114q36 -52 91 -88q93 54 93 132zM74 1079l127 127l131 -129l-129 -128zM375 1079l127 127l131 -129l-130 -128zM223 1338l127 127l129 -129l-126 -127z" />
    <glyph glyph-name="uniFB7A" unicode="&#x686;" horiz-adv-x="1099" arabic-form="isolated" 
d="M1100 -329l28 -25q-8 -30 -85 -92q-96 -84 -231.5 -132.5t-229.5 -48.5q-26 -3 -61 -3q-90 0 -191 32q-155 45 -240 151t-88 280l-1 21q0 212 150 364q108 97 199 142.5t256 95.5l43 13l-155 69q-88 36 -177 41h-8q-86 0 -167 -105l-29 13q11 69 74 169.5t193 109.5h26
q88 0 183 -44q2 0 191 -97q132 -71 267 -94l-105 -172q-433 -53 -560 -139q-96 -60 -150 -128.5t-65 -131.5q-6 -36 -6 -65q0 -30 5.5 -59t33.5 -78.5t71 -84.5t129 -62t242 -27q285 0 458 87zM816 -214l-127 -127l-129 129l126 127zM1004 29l-127 -127l-129 129l126 127z
M627 25l-127 -127l-129 129l126 127z" />
    <glyph glyph-name="uniFB7B" unicode="&#x686;" horiz-adv-x="1099" arabic-form="final" 
d="M890 352q2 -34 20 -57q26 -34 69 -34h138v-219h-114q-74 0 -118.5 19t-80.5 84q-34 60 -34 188v2q-288 -47 -388 -115q-96 -60 -150 -128.5t-65 -131.5q-6 -36 -6 -65q0 -30 5.5 -59t33.5 -78.5t71 -84.5t129 -62t242 -27q285 0 458 87l28 -25q-8 -30 -85 -92
q-96 -84 -231.5 -132.5t-229.5 -48.5q-26 -3 -61 -3q-90 0 -191 32q-155 45 -240 153t-88 278l-1 21q0 212 150 364q108 97 199 142.5t256 95.5l43 13l-155 69q-88 36 -177 41h-8q-86 0 -167 -105l-29 13q11 69 74 169.5t193 109.5h26q88 0 183 -44q2 0 191 -97
q132 -71 267 -94l-105 -172q-26 -3 -52 -7zM263 -13l127 127l129 -129l-126 -127zM590 -16l127 127l129 -129l-126 -127zM426 -231l127 127l129 -129l-126 -127z" />
    <glyph glyph-name="uniFB7C" unicode="&#x686;" horiz-adv-x="1099" arabic-form="initial" 
d="M1031 472l-68 -204q-13 2 -26 2q-39 0 -73 -16q-30 -4 -136 -76q-96 -66 -180 -95q-102 -41 -392 -41h-160v219h323q98 0 163 22t182 91q-80 77 -225 146q-102 39 -182 39q-41 0 -70 -10q-32 -13 -85 -80l-24 18q114 275 250 278l25 1q125 -2 310 -135q184 -124 368 -159
zM641 -474l-127 -127l-129 129l126 127zM829 -231l-127 -127l-129 129l126 127zM452 -235l-127 -127l-129 129l126 127z" />
    <glyph glyph-name="uniFB7D" unicode="&#x686;" horiz-adv-x="1099" arabic-form="medial" 
d="M1122 42h-157q-7 -1 -14 -1q-69 0 -145 63q-84 68 -102 219q-50 -5 -97 -50l-123 -108q-140 -123 -416 -123h-72v219h68q178 0 318 60q146 63 234 124q-242 110 -297 124q-45 11 -75 11q-7 0 -12 -1q-33 -3 -71.5 -23.5t-75.5 -74.5l-27 8q18 87 94 179q84 98 172 98
q105 0 215 -49q102 -45 147 -72q227 -100 367 -122l-73 -151q-20 2 -41 2q-47 0 -87 -10q0 -41 27 -68.5t93 -34.5h150v-219zM728 -475l-127 -127l-129 129l126 127zM916 -232l-127 -127l-129 129l126 127zM539 -236l-127 -127l-129 129l126 127z" />
    <glyph glyph-name="uniFB8A" unicode="&#x698;" horiz-adv-x="800" arabic-form="isolated" 
d="M697 55q0 -216 -106 -369q-94 -150 -274 -158q-178 17 -268 100q-13 13 -13 21q0 10 20 13q259 49 412 179q92 78 92 168v13q-1 55 -112 237l-51 73l143 183q9 12 16 12q10 0 19 -18q111 -224 122 -393v-61zM309 1027l127 127l129 -129l-126 -127zM121 784l127 127
l129 -129l-126 -127zM498 788l127 127l129 -129l-126 -127z" />
    <glyph glyph-name="uniFB8B" unicode="&#x698;" horiz-adv-x="899" arabic-form="final" 
d="M926 42h-133q-93 0 -133 45q2 -33 2 -64q0 -183 -81 -299q-115 -169 -308 -186q-150 9 -274 96q-4 8 -4 14q0 10 16 15q282 51 444 181q69 73 69 161q0 9 -1 17q-33 139 -111 256l-49 70l152 176q8 7 14 7q7 0 12 -12q54 -146 107 -200q49 -58 126 -58h152v-219z
M281 1067l127 127l129 -129l-126 -127zM93 824l127 127l129 -129l-126 -127zM470 828l127 127l129 -129l-126 -127z" />
    <glyph glyph-name="uniFB8E" unicode="&#x6a9;" horiz-adv-x="1400" arabic-form="isolated" 
d="M1253 145q-41 -42 -61 -58q-84 -57 -170.5 -84t-217.5 -42q-122 -12 -239 -12q-61 0 -117 4q-72 6 -104 8q-344 18 -344 322q0 181 78 270h23q0 -103 -3 -153q7 -61 18 -88q29 -71 107 -98q67 -17 104 -24l34 -10q153 -10 266 -13q52 -2 97 -2q116 0 189 13
q265 42 265 105q0 35 -90 101q-61 46 -111 67q-62 37 -155 67q-41 21 -54 30q-17 14 -17 48q0 33 35.5 146t55.5 130q34 28 103 55q22 10 106 43l391 140q-14 -70 -54 -219q-101 -24 -466 -170q0 -5 9 -15q120 -51 177 -82q115 -62 158 -106q71 -71 71 -162v-5
q-4 -116 -84 -206z" />
    <glyph glyph-name="uniFB8F" unicode="&#x6a9;" horiz-adv-x="1601" arabic-form="final" 
d="M1177 231q-34 -133 -262 -211q-164 -58 -346 -61h-24q-109 0 -182 10q-187 17 -267 80q-96 77 -96 247v6q2 188 78 274h23q-4 -64 -4 -112q0 -23 1 -43q10 -96 55 -141q100 -103 386 -110q19 -1 37 -1q132 0 269 31q173 35 235 102q0 37 -55.5 103t-129.5 127.5
t-171 106.5q-41 23 -54 27q-17 18 -17 53q0 33 35.5 147.5t55.5 127.5l650 247l-54 -219l-516 -179q0 -7 9 -17q104 -53 185.5 -113t200.5 -195q95 -135 129 -167q76 -86 133 -90h152v-219h-146q-139 0 -310 189z" />
    <glyph glyph-name="uniFB90" unicode="&#x6a9;" horiz-adv-x="899" arabic-form="initial" 
d="M922 1323l-49 -231l-515 -225l211 -157q256 -177 259 -355q0 -177 -120 -263q-77 -37 -129 -45q-26 -5 -149 -5h-434v219h590q47 0 62 38q2 14 2 26q0 63 -181 199l-317 234q-19 16 -19 37q0 4 1 8q4 26 32 97.5t63 125.5z" />
    <glyph glyph-name="uniFB91" unicode="&#x6a9;" horiz-adv-x="1099" arabic-form="medial" 
d="M1115 42h-84q-80 0 -158 48q-43 26 -185 158q-23 -88 -141 -161q-70 -45 -281 -45h-270v219h429q52 0 97 19q68 22 68 65q0 16 -17 28q-40 44 -229 158l-138 83q-90 55 -90 117q0 32 62 253l705 351l-27 -218l-576 -291q282 -149 454 -329l189 -169.5t122 -65.5h70v-220z
" />
    <glyph glyph-name="uniFB92" unicode="&#x6af;" horiz-adv-x="1299" arabic-form="isolated" 
d="M1152 145q-41 -42 -61 -58q-84 -57 -139 -81t-148 -45q-223 -12 -262 -12q-38 0 -198 9q-344 21 -344 325q0 181 78 270h23q0 -103 -3 -153q7 -61 18 -88q29 -71 115 -106.5t295 -38.5q52 -2 97 -2q116 0 189 13q265 42 265 105q0 35 -90 101q-61 46 -111 67
q-62 37 -155 67q-41 21 -54 30q-17 14 -17 48q0 33 35.5 146t54.5 130q34 28 104 55q22 10 105 43l392 140q-14 -70 -54 -219q-101 -24 -466 -170q0 -5 8 -15q120 -51 178 -82q115 -62 158 -106q70 -70 70 -160v-7q-3 -116 -83 -206zM1401 1383l-56 -164l-577 -227
q6 33 58 175z" />
    <glyph glyph-name="uniFB93" unicode="&#x6af;" horiz-adv-x="1501" arabic-form="final" 
d="M1147 234q-44 -136 -242 -214q-164 -58 -349 -61h-25q-99 0 -168 10q-187 17 -267 80q-96 77 -96 247v6q2 188 78 274h23q-21 -70 -21 -128q0 -34 8 -64q20 -79 95 -144.5t343 -69.5q22 -1 43 -1q129 0 266 31q173 35 205 102q0 37 -60 105q-60 47 -111 67
q-62 36 -155 65q-41 23 -54 27q-17 18 -17 53q0 33 35.5 147.5t55.5 127.5q34 28 103 57l106 39l391 141q-14 -69 -54 -219q-101 -21 -466 -169q0 -7 9 -17q120 -47 178.5 -88.5t149.5 -131.5t152 -165.5t128 -79.5h92v-219h-86q-129 0 -290 192zM1395 1403
q-21 -57 -56 -165l-578 -225q7 34 58 175q192 68 576 215z" />
    <glyph glyph-name="uniFB94" unicode="&#x6af;" horiz-adv-x="899" arabic-form="initial" 
d="M855 1237l-616 -234l48 176l616 231zM880 1137l-53 -215l-494 -173l358 -202q65 -43 65 -155q0 -28 -4 -60q0 -174 -130 -242q-73 -48 -186 -48h-440v219h529q74 0 92 48q-1 36 -30.5 65.5t-71.5 46.5l-321 163q-22 12 -22 62q0 58 30.5 151.5t65.5 107.5z" />
    <glyph glyph-name="uniFB95" unicode="&#x6af;" horiz-adv-x="1099" arabic-form="medial" 
d="M855 1237l-616 -234l48 176l616 231zM877 336q70 -75 131 -75h117v-219h-118q-75 0 -128 25q-57 19 -144 145q-26 -81 -93 -122q-73 -48 -186 -48h-460v219h539q74 0 82 48q-4 27 -27 57q-33 38 -75 55l-321 163q-22 12 -22 62q0 58 30.5 151.5t65.5 107.5l612 232
l-53 -215l-494 -173q110 -55 346 -211q138 -111 198 -202z" />
    <glyph glyph-name="uniFBA4" unicode="&#x6c0;" horiz-adv-x="700" arabic-form="isolated" 
d="M596 390v-15q0 -160 -65 -258q-73 -101 -221 -101q-185 1 -192 178q-2 11 -2 25q0 168 79 300q89 157 158 199q95 -57 167.5 -135t75.5 -193zM475 279q4 14 4 29q0 25 -12 53q-20 45 -52.5 80t-82.5 64q-43 -22 -72 -78q-26 -49 -26 -104q0 -9 1 -18q5 -63 106 -63h9
q112 1 125 37zM488 999v-73l-288 -146v85l90 44q-58 27 -70 67q-7 21 -7 42q0 18 5 36q11 38 50 68t78 30q40 0 74 -15t60 -43l1 -36q-65 18 -105 18q-35 0 -51 -14q-25 -23 -25 -47q0 -8 3 -15q11 -32 44 -41q5 -2 12 -2q38 0 129 42z" />
    <glyph glyph-name="uniFBA5" unicode="&#x6c0;" horiz-adv-x="799" arabic-form="final" 
d="M825 42h-193q-152 8 -194 145q-89 -75 -197 -75q-66 0 -111 31q-55 35 -55 100q0 93 55 180.5t123 154.5q50 50 139 90v99l182 125v-530q3 -101 125 -101h126v-219zM392 362v180q-46 -17 -108 -79.5t-65 -114.5v-6q0 -46 48 -51q3 -1 7 -1q49 0 118 72zM573 1106v-73
l-288 -146v85l90 44q-58 27 -70 67q-7 21 -7 42q0 18 5 36q11 38 50 68t78 30q40 0 74 -15t60 -43l1 -36q-65 18 -105 18q-35 0 -51 -14q-25 -23 -25 -47q0 -8 3 -15q11 -32 44 -41q5 -2 12 -2q38 0 129 42z" />
    <glyph glyph-name="uniFBAA" unicode="&#x6be;" horiz-adv-x="1099" arabic-form="isolated" 
d="M-12 261h265q-31 20 -48 56q-9 31 -9 61q0 59 33 123q56 105 175 183q-27 20 -78 48l108 161q10 23 27 23q12 0 29 -14q67 -34 218 -135t203 -145q98 -85 98 -188v-9q0 -84 -24 -157q-40 -87 -84 -132q-51 -62 -124 -88q-42 -16 -104 -16q-12 0 -27 1q-63 4 -125 23
q-58 14 -92 40q-32 -22 -93 -39q-43 -15 -115 -15h-233v219zM863 353q0 41 -35 81q-33 31 -78 54q-2 -68 -26 -126q-32 -67 -87 -100q51 -11 85 -11q141 0 141 102zM590 411v10q0 55 -37 90q-42 37 -100 39h-5q-56 0 -91 -33q-37 -34 -37 -77t58 -86q64 -44 117 -53
q95 47 95 110z" />
    <glyph glyph-name="uniFBAB" unicode="&#x6be;" horiz-adv-x="899" arabic-form="final" 
d="M605 -144q0 126 -105 166q-58 20 -136 20h-23v-20q0 -66 34 -130q60 -107 154 -107q76 0 76 71zM-15 261h229l3 51q16 115 77 229q80 143 148 185q55 31 116 31q19 0 35 -4q150 -32 162 -189q-22 -188 -138 -303h306v-219h-195q27 -99 27 -143q0 -186 -150 -290
q-47 -33 -100 -33h-5q-132 6 -216 155q-67 123 -95 311h-204v219zM590 463v4q0 40 -19 63q-21 23 -58 23q-6 2 -12 2q-19 0 -45 -14q-71 -33 -111 -173q-17 -62 -17 -107h122q65 19 110 97q22 40 30 105z" />
    <glyph glyph-name="uniFBAC" unicode="&#x6be;" horiz-adv-x="1099" arabic-form="initial" 
d="M-12 261h265q-31 20 -48 56q-9 31 -9 61q0 59 33 123q56 105 175 183q-27 20 -78 48l108 161q10 23 27 23q12 0 29 -14q67 -34 218 -135t203 -145q98 -85 98 -188v-9q0 -84 -24 -157q-40 -87 -84 -132q-51 -62 -124 -88q-42 -16 -104 -16q-12 0 -27 1q-63 4 -125 23
q-58 14 -92 40q-32 -22 -93 -39q-43 -15 -115 -15h-233v219zM863 353q0 41 -35 81q-33 31 -78 54q-2 -68 -26 -126q-32 -67 -87 -100q51 -11 85 -11q141 0 141 102zM590 411v10q0 55 -37 90q-42 37 -100 39h-5q-56 0 -91 -33q-37 -34 -37 -77t58 -86q64 -44 117 -53
q95 47 95 110z" />
    <glyph glyph-name="uniFBAD" unicode="&#x6be;" horiz-adv-x="899" arabic-form="medial" 
d="M605 -144q0 126 -105 166q-58 20 -136 20h-23v-20q0 -66 34 -130q60 -107 154 -107q76 0 76 71zM-15 261h229l3 51q16 115 77 229q80 143 148 185q55 31 116 31q19 0 35 -4q150 -32 162 -189q-22 -188 -138 -303h306v-219h-195q27 -99 27 -143q0 -186 -150 -290
q-47 -33 -100 -33h-5q-132 6 -216 155q-67 123 -95 311h-204v219zM590 463v4q0 40 -19 63q-21 23 -58 23q-6 2 -12 2q-19 0 -45 -14q-71 -33 -111 -173q-17 -62 -17 -107h122q65 19 110 97q22 40 30 105z" />
    <glyph glyph-name="uniFBD3" unicode="&#x6ad;" horiz-adv-x="1299" arabic-form="isolated" 
d="M786 682q10 -18 10 -53q-35 -126 -90 -155q-42 -22 -85 -22h-297v3q0 73 83 98h139q98 0 126 33q6 11 6 19q0 36 -92 42q-42 7 -118 17q-147 22 -147 106q0 98 172 158q90 27 141 28h18q70 0 80 -28q7 -10 7 -16q0 -22 -15 -40q-22 -23 -72 -23q-9 0 -19 1h-22
q-64 0 -104 -15q-47 -18 -50 -35q-1 -2 -1 -5q0 -13 18 -20q20 -8 103 -24.5t138 -32.5t71 -36zM1005.5 95.5q-80.5 -53.5 -196.5 -54.5h-485q-149 1 -246 91q-71 68 -78 204v10q0 140 100 256l24 -11q-14 -68 -14 -115q-1 -12 -1 -24q0 -89 69 -138q73 -52 212 -52h423
q178 4 178 162l-1 730q0 83 -23 112q-8 10 -8 22q0 24 32 60l110 102q11 9 19 9q13 0 18 -22l61 -197l-30 -47l1 -775q-2 -97 -41 -180q-43 -89 -123.5 -142.5zM435 1365l127 127l129 -129l-126 -127zM247 1122l127 127l129 -129l-126 -127zM624 1126l127 127l129 -129
l-126 -127z" />
    <glyph glyph-name="uniFBD4" unicode="&#x6ad;" horiz-adv-x="1400" arabic-form="final" 
d="M1414 43h-92q-159 0 -232 182q-47 -82 -129 -130.5t-211 -53.5l-466 1q-141 9 -211 93q-59 62 -66 201v9q0 139 100 254l35 -18q-25 -58 -25 -117q0 -60 33 -114q57 -80 191 -89h494q192 22 197 187l2 882l137 124q8 7 13 7q7 0 7 -17l-1 -1036q8 -94 41 -120t84 -26h99
v-219zM740 707q54 -15 71 -35q10 -18 10 -53q-36 -107 -100 -144q-58 -33 -94 -33h-278v3q0 73 82 98h140q98 0 125 33q6 11 6 20q0 35 -91 41q-42 7 -118 17q-148 22 -148 106q0 98 160 155q102 30 154 31h18q70 0 80 -28q6 -10 6 -16q0 -22 -15 -40q-21 -23 -71 -23
q-9 0 -19 1h-22q-64 0 -104 -15q-48 -18 -51 -35q-1 -2 -1 -5q0 -13 18 -20q20 -8 120 -26q38 -12 122 -32zM464 1366l127 127l129 -129l-126 -127zM276 1123l127 127l129 -129l-126 -127zM653 1127l127 127l129 -129l-126 -127z" />
    <glyph glyph-name="uniFBD5" unicode="&#x6ad;" horiz-adv-x="799" arabic-form="initial" 
d="M479 1224l127 127l129 -129l-126 -127zM102 1220l127 127l129 -129l-126 -127zM290 1463l127 127l129 -129l-126 -127zM799 1116l-32 -194l-494 -173l358 -202q65 -43 65 -155q0 -28 -4 -60q0 -174 -130 -242q-73 -48 -186 -48h-390v219h479q74 0 92 48q-1 36 -30.5 65.5
t-71.5 46.5l-321 163q-22 12 -22 62q0 58 30.5 151.5t65.5 107.5z" />
    <glyph glyph-name="uniFBD6" unicode="&#x6ad;" horiz-adv-x="999" arabic-form="medial" 
d="M530 1227l127 127l129 -129l-126 -127zM195 1223l127 127l129 -129l-126 -127zM358 1429l127 127l129 -129l-126 -127zM827 336q70 -75 131 -75h67v-219h-68q-75 0 -128 25q-57 19 -144 145q-26 -81 -93 -122q-73 -48 -186 -48h-420v219h499q74 0 82 48q-4 27 -27 57
q-33 38 -75 55l-321 163q-22 12 -22 62q0 58 30.5 151.5t65.5 107.5l603 214l-44 -197l-494 -173q110 -55 346 -211q138 -111 198 -202z" />
    <glyph glyph-name="uniFBD7" unicode="&#x6c7;" horiz-adv-x="799" arabic-form="isolated" 
d="M516 261q-48 159 -152 159q-32 0 -53 -26t-21 -58q0 -69 44 -75h182zM555 42h-140q-136 0 -184 51.5t-48 140.5q0 117 46 227q58 150 178 150h15q76 0 140 -78q84 -100 118 -270q12 -72 14 -159h1v-51q0 -214 -106 -367q-94 -150 -274 -158q-178 17 -268 100
q-13 13 -13 21q0 10 20 13q259 49 412 179q92 78 92 166v13q0 9 -3 22zM354 741l-23 42q74 46 91 76t17 65q0 20 -17 20l-20 -5q-49 0 -75.5 34t-26.5 84q0 46 35.5 80t85.5 34q61 0 104 -49t43 -122q0 -83 -51 -144t-163 -115z" />
    <glyph glyph-name="uniFBD8" unicode="&#x6c7;" horiz-adv-x="899" arabic-form="final" 
d="M510 261q-48 159 -152 159q-32 0 -53 -26t-21 -58q0 -69 44 -75h182zM674 261h248v-219h-233q-3 -207 -106 -357q-94 -150 -274 -158q-178 17 -268 100q-13 13 -13 21q0 10 20 13q259 49 412 179q92 78 92 167v13q0 9 -3 22h-140q-136 0 -184 51.5t-48 140.5
q0 117 46 227q58 150 178 150h15q76 0 140 -78q84 -100 118 -270v-2zM332 741l-23 42q74 46 91 76t17 65q0 20 -17 20l-20 -5q-49 0 -75.5 34t-26.5 84q0 46 35.5 80t85.5 34q61 0 104 -49t43 -122q0 -83 -51 -144t-163 -115z" />
    <glyph glyph-name="uniFBD9" unicode="&#x6c6;" horiz-adv-x="799" arabic-form="isolated" 
d="M516 261q-48 159 -152 159q-32 0 -53 -26t-21 -58q0 -69 44 -75h182zM555 42h-140q-136 0 -184 51.5t-48 140.5q0 117 46 227q58 150 178 150h15q76 0 140 -78q84 -100 118 -270q12 -72 14 -159h1v-51q0 -214 -106 -367q-94 -150 -274 -158q-178 17 -268 100
q-13 13 -13 21q0 10 20 13q259 49 412 179q92 78 92 166v13q0 9 -3 22zM672 1083q6 -6 6 -12q0 -5 -3 -9l-248 -312q-4 -5 -8 -5t-8 5l-250 307q-3 4 -3 9q0 6 6 12l66 67q5 5 10 5q6 0 12 -8l155 -192q6 -7 11 -7q6 0 11 7l158 194q6 8 12 8q5 0 10 -5z" />
    <glyph glyph-name="uniFBDA" unicode="&#x6c6;" horiz-adv-x="899" arabic-form="final" 
d="M510 261q-48 159 -152 159q-32 0 -53 -26t-21 -58q0 -69 44 -75h182zM674 261h248v-219h-233q-3 -207 -106 -357q-94 -150 -274 -158q-178 17 -268 100q-13 13 -13 21q0 10 20 13q259 49 412 179q92 78 92 167v13q0 9 -3 22h-140q-136 0 -184 51.5t-48 140.5
q0 117 46 227q58 150 178 150h15q76 0 140 -78q84 -100 118 -270v-2zM665 1081q6 -6 6 -12q0 -5 -3 -9l-248 -312q-4 -5 -8 -5t-8 5l-250 307q-3 4 -3 9q0 6 6 12l66 67q5 5 10 5q6 0 12 -8l155 -192q6 -7 11 -7q6 0 11 7l158 194q6 8 12 8q5 0 10 -5z" />
    <glyph glyph-name="uniFBDB" unicode="&#x6c8;" horiz-adv-x="799" arabic-form="isolated" 
d="M516 261q-48 159 -152 159q-32 0 -53 -26t-21 -58q0 -69 44 -75h182zM555 42h-140q-136 0 -184 51.5t-48 140.5q0 117 46 227q58 150 178 150h15q76 0 140 -78q84 -100 118 -270q12 -72 14 -159h1v-51q0 -214 -106 -367q-94 -150 -274 -158q-178 17 -268 100
q-13 13 -13 21q0 10 20 13q259 49 412 179q92 78 92 166v13q0 9 -3 22zM462 791l-80 -57q-5 -4 -9 -4q-5 0 -5 8v375q0 12 14 22l80 57q5 4 8 4q5 0 5 -8v-375q0 -13 -13 -22z" />
    <glyph glyph-name="uniFBDC" unicode="&#x6c8;" horiz-adv-x="899" arabic-form="final" 
d="M510 261q-48 159 -152 159q-32 0 -53 -26t-21 -58q0 -69 44 -75h182zM674 261h248v-219h-233q-3 -207 -106 -357q-94 -150 -274 -158q-178 17 -268 100q-13 13 -13 21q0 10 20 13q259 49 412 179q92 78 92 167v13q0 9 -3 22h-140q-136 0 -184 51.5t-48 140.5
q0 117 46 227q58 150 178 150h15q76 0 140 -78q84 -100 118 -270v-2zM456 795l-80 -57q-5 -4 -9 -4q-5 0 -5 8v375q0 12 14 22l80 57q5 4 8 4q5 0 5 -8v-375q0 -13 -13 -22z" />
    <glyph glyph-name="uniFBDD" unicode="&#x677;" horiz-adv-x="1099" arabic-form="isolated" 
d="M486 261q-48 159 -152 159q-32 0 -53 -26t-21 -58q0 -69 44 -75h182zM525 42h-140q-136 0 -184 51.5t-48 140.5q0 117 46 227q58 150 178 150h15q76 0 140 -78q84 -100 118 -270q12 -72 14 -159h1v-51q0 -214 -106 -367q-94 -150 -274 -158q-178 17 -268 100
q-13 13 -13 21q0 10 20 13q259 49 412 179q92 78 92 166v13q0 9 -3 22zM324 741l-23 42q74 46 91 76t17 65q0 20 -17 20l-20 -5q-49 0 -75.5 34t-26.5 84q0 46 35.5 80t85.5 34q61 0 104 -49t43 -122q0 -83 -51 -144t-163 -115zM1096 964v-112l-439 -222v130l138 66
q-88 41 -108 101q-11 32 -11 64q0 28 8 55q17 58 76.5 104t119.5 46q61 0 112.5 -23.5t92.5 -57.5v-63q-98 27 -159 27q-54 0 -78 -21q-39 -35 -39 -70q0 -12 5 -24q17 -48 67 -62q8 -3 19 -3q57 0 196 65z" />
    <glyph glyph-name="uniFBDE" unicode="&#x6cb;" horiz-adv-x="799" arabic-form="isolated" 
d="M516 261q-48 159 -152 159q-32 0 -53 -26t-21 -58q0 -69 44 -75h182zM555 42h-140q-136 0 -184 51.5t-48 140.5q0 117 46 227q58 150 178 150h15q76 0 140 -78q84 -100 118 -270q12 -72 14 -159h1v-51q0 -214 -106 -367q-94 -150 -274 -158q-178 17 -268 100
q-13 13 -13 21q0 10 20 13q259 49 412 179q92 78 92 166v13q0 9 -3 22zM283 1067l127 127l129 -129l-126 -127zM95 824l127 127l129 -129l-126 -127zM472 828l127 127l129 -129l-126 -127z" />
    <glyph glyph-name="uniFBDF" unicode="&#x6cb;" horiz-adv-x="899" arabic-form="final" 
d="M510 261q-48 159 -152 159q-32 0 -53 -26t-21 -58q0 -69 44 -75h182zM674 261h248v-219h-233q-3 -207 -106 -357q-94 -150 -274 -158q-178 17 -268 100q-13 13 -13 21q0 10 20 13q259 49 412 179q92 78 92 167v13q0 9 -3 22h-140q-136 0 -184 51.5t-48 140.5
q0 117 46 227q58 150 178 150h15q76 0 140 -78q84 -100 118 -270v-2zM287 1071l127 127l129 -129l-126 -127zM99 828l127 127l129 -129l-126 -127zM476 832l127 127l129 -129l-126 -127z" />
    <glyph glyph-name="uniFBE0" unicode="&#x6c5;" horiz-adv-x="800" arabic-form="isolated" 
d="M156 -228q0 -31 16 -49q14 -16 60 -16h16q59 3 118.5 37.5t91.5 59.5q-88 50 -151 50t-107 -26t-44 -56zM579 -2v43h-148q-232 0 -232 189v3q0 117 44 227q60 150 195 150q76 0 138 -78q86 -103 120 -270q13 -76 13 -191v-30q0 -132 -47 -242q-74 -144 -185.5 -208
t-223.5 -64q-113 0 -178 66q-55 56 -55 140q0 17 2 35q0 36 21 86q60 86 167 95q22 5 45 5q25 0 50 -6q106 -13 214 -89q50 65 60 139zM532 260q-49 159 -155 159q-29 0 -50 -26q-21 -25 -21 -55v-3q0 -69 44 -75h182z" />
    <glyph glyph-name="uniFBE1" unicode="&#x6c5;" horiz-adv-x="799" arabic-form="final" 
d="M147 -228q0 -31 16 -49q14 -16 60 -16h16q59 3 118.5 37.5t91.5 59.5q-88 50 -151 50t-107 -26t-44 -56zM523 261q-49 159 -155 159q-29 0 -50 -26q-21 -25 -21 -55v-3q0 -69 44 -75h182zM700 42q0 -133 -47 -243q-74 -144 -185.5 -208t-223.5 -64q-113 0 -178 66
q-55 56 -55 140q0 17 2 35q0 36 21 86q60 87 167 96q22 5 45 5q25 0 50 -6q106 -14 214 -90q50 65 60 140v43h-148q-232 0 -232 189v3q0 117 44 227q60 150 195 150q76 0 138 -78q86 -103 120 -270v-2h135v-219h-122z" />
    <glyph glyph-name="uniFBE2" unicode="&#x6c9;" horiz-adv-x="799" arabic-form="isolated" 
d="M516 261q-48 159 -152 159q-32 0 -53 -26t-21 -58q0 -69 44 -75h182zM555 42h-140q-136 0 -184 51.5t-48 140.5q0 117 46 227q58 150 178 150h15q76 0 140 -78q84 -100 118 -270q12 -72 14 -159h1v-51q0 -214 -106 -367q-94 -150 -274 -158q-178 17 -268 100
q-13 13 -13 21q0 10 20 13q259 49 412 179q92 78 92 166v13q0 9 -3 22zM608 741q-5 -5 -10 -5q-6 0 -12 8l-158 194q-5 7 -11 7q-5 0 -11 -7l-155 -192q-6 -8 -12 -8q-5 0 -10 5l-66 67q-6 6 -6 12q0 5 3 9l250 307q4 5 8 5t8 -5l248 -312q3 -4 3 -9q0 -6 -6 -12z" />
    <glyph glyph-name="uniFBE3" unicode="&#x6c9;" horiz-adv-x="899" arabic-form="final" 
d="M510 261q-48 159 -152 159q-32 0 -53 -26t-21 -58q0 -69 44 -75h182zM674 261h248v-219h-233q-3 -207 -106 -357q-94 -150 -274 -158q-178 17 -268 100q-13 13 -13 21q0 10 20 13q259 49 412 179q92 78 92 167v13q0 9 -3 22h-140q-136 0 -184 51.5t-48 140.5
q0 117 46 227q58 150 178 150h15q76 0 140 -78q84 -100 118 -270v-2zM600 739q-5 -5 -10 -5q-6 0 -12 8l-158 194q-5 7 -11 7q-5 0 -11 -7l-155 -192q-6 -8 -12 -8q-5 0 -10 5l-66 67q-6 6 -6 12q0 5 3 9l250 307q4 5 8 5t8 -5l248 -312q3 -4 3 -9q0 -6 -6 -12z" />
    <glyph glyph-name="uniFBE4" unicode="&#x6d0;" horiz-adv-x="1200" arabic-form="isolated" 
d="M1122 809q-15 -95 -31 -157q-17 -33 -57 -36q-109 -22 -194 -68q-39 -34 -39 -65q0 -3 1 -6q5 -34 70 -42q58 -9 131 -35q89 -36 89 -129q0 -8 -1 -16q-10 -251 -197 -386.5t-473 -137.5q-418 20 -418 389v15q2 184 120 393q9 6 14 6q10 0 10 -18q0 -5 -1 -10
q-45 -122 -55 -221q17 -320 363 -340h55q164 2 303.5 60t150.5 148q-17 62 -140 67q-146 19 -146 156q14 322 422 441q8 5 12 5q10 0 11 -13zM430.807 -388.211l114.303 101.599l116.104 -103.198l-113.403 -101.599zM434.807 -615.211l114.303 101.599l116.104 -103.198
l-113.403 -101.599z" />
    <glyph glyph-name="uniFBE5" unicode="&#x6d0;" horiz-adv-x="1099" arabic-form="final" 
d="M536 -625l-95 75l98 77l102 -78l-95 -76l96 -75l-100 -81l-100 82zM812 10q-1 -4 -1 -7q0 -17 29 -28l124 -1q85 -3 85 -90q-9 -126 -107 -208.5t-194 -107.5q-84 -20 -155 -24q-30 -2 -60 -2q-45 0 -91 4q-80 6 -171.5 29.5t-175.5 115t-93 230.5v27q0 155 106 335
q4 2 10 2q8 0 8 -24q-33 -83 -36 -163q-4 -40 -4 -75q0 -97 53 -153q67 -69 155.5 -86.5t237.5 -18.5h34q122 0 174 7q58 7 91 15.5t88 32.5q4 12 4 21q0 25 -28 30h-103q-85 12 -97 94v8q0 99 61 188q63 92 204 100h153v-219h-252q-46 -10 -49 -32z" />
    <glyph glyph-name="uniFBE6" unicode="&#x6d0;" horiz-adv-x="600" arabic-form="initial" 
d="M516 376v-20q0 -59 -14 -124q-18 -78 -79 -139q-56 -50 -192 -50l-235 2v216h277q68 13 70 53v3q0 53 -61 164l-51 68l154 154q121 -161 131 -327zM137 -221l127 127l129 -129l-126 -127zM140 -488l127 127l129 -129l-126 -127z" />
    <glyph glyph-name="uniFBE7" unicode="&#x6d0;" horiz-adv-x="599" arabic-form="medial" 
d="M626 42h-90q-45 0 -106 32.5t-123 164.5q-43 -108 -98 -156q-46 -41 -112 -41h-101v219h98q40 0 68 13q31 15 60 69t64 180q4 20 16 20q10 0 17 -21q31 -122 62 -169.5t71 -70.5q36 -21 104 -21h70v-219zM182 -222l127 127l129 -129l-126 -127zM186 -493l127 127
l129 -129l-126 -127z" />
    <glyph glyph-name="uniFBE8" unicode="&#x649;" horiz-adv-x="600" arabic-form="initial" 
d="M516 376v-20q0 -59 -14 -124q-18 -78 -79 -139q-56 -50 -192 -50l-235 2v216h277q68 13 70 53v3q0 53 -61 164l-51 68l154 154q121 -161 131 -327z" />
    <glyph glyph-name="uniFBE9" unicode="&#x649;" horiz-adv-x="599" arabic-form="medial" 
d="M616 42h-90q-45 0 -106 32.5t-123 164.5q-43 -108 -98 -156q-46 -41 -112 -41h-101v219h98q40 0 68 13q31 15 60 69t64 180q4 20 16 20q10 0 17 -21q31 -122 62 -169.5t71 -70.5q36 -21 104 -21h70v-219z" />
    <glyph glyph-name="uniFBFC" unicode="&#x6cc;" horiz-adv-x="1199" arabic-form="isolated" 
d="M1122 809q-15 -95 -31 -157q-17 -33 -57 -36q-109 -22 -194 -68q-39 -34 -39 -65q0 -3 1 -6q5 -34 70 -42q58 -9 131 -35q89 -36 89 -129q0 -8 -1 -16q-10 -251 -197 -386.5t-473 -137.5q-418 20 -418 389v15q2 184 120 393q9 6 14 6q10 0 10 -18q0 -5 -1 -10
q-45 -122 -55 -221q17 -320 363 -340h55q164 2 303.5 60t150.5 148q-17 62 -140 67q-146 19 -146 156q14 322 422 441q8 5 12 5q10 0 11 -13z" />
    <glyph glyph-name="uniFBFD" unicode="&#x6cc;" horiz-adv-x="1099" arabic-form="final" 
d="M782 0q-1 -4 -1 -7q0 -27 29 -38l84 -1q85 -3 85 -100q-7 -142 -81 -251.5t-180 -134.5q-84 -20 -149 -20l-114 1q-69 0 -173 29q-108 38 -189 126q-91 105 -91 297v27q0 175 106 355q4 2 10 2q8 0 8 -24q-33 -83 -36 -163q-4 -40 -4 -75q0 -127 53 -203
q67 -99 155.5 -121.5t159.5 -24.5h80q107 0 162 12q62 13 95 36.5t58 67.5q4 12 4 21q0 25 -28 30h-63q-85 12 -97 104v8q0 119 61 208q63 92 204 100h193v-219h-292q-46 -10 -49 -42z" />
    <glyph glyph-name="uniFBFE" unicode="&#x6cc;" horiz-adv-x="700" arabic-form="initial" 
d="M598 375v-20q0 -59 -13 -124q-18 -78 -79 -139q-56 -50 -192 -50h-320v219h367q63 12 65 52v3q0 53 -61 163l-51 69l154 154q121 -161 130 -327zM51 -235l127 128l130 -130l-129 -127zM337 -235l126 128l131 -130l-129 -127z" />
    <glyph glyph-name="uniFBFF" unicode="&#x6cc;" horiz-adv-x="599" arabic-form="medial" 
d="M330 -228l127 127l129 -129l-126 -127zM34 -228l127 127l129 -129l-126 -127zM626 42h-90q-45 0 -106 32.5t-123 164.5q-43 -108 -98 -156q-46 -41 -112 -41h-101v219h98q40 0 68 13q31 15 60 69t64 180q4 20 16 20q10 0 17 -21q31 -122 62 -169.5t71 -70.5
q36 -21 104 -21h70v-219z" />
    <glyph glyph-name="uniFC5E" unicode="&#xfc5e;" horiz-adv-x="0" arabic-form="isolated" 
d="M486 1653q0 -41 -12.5 -76.5t-36.5 -72.5q16 -11 25.5 -24t9.5 -27q0 -52 -7 -97l-95 74q-51 -60 -114 -93q-78 -39 -174 -39q44 72 48 82q13 30 13 56q0 27 -11 47.5t-31 20.5q-22 0 -42 -27q-8 -11 -30 -49q8 77 20 111q22 60 72 60q38 0 59 -36t21 -83q0 -23 -5 -46
q-7 -32 -11 -48q76 22 145 74q-18 17 -36 36q-28 32 -28 67q0 52 42 103q48 58 106 58q30 0 51 -21t21 -50zM407 1588q0 26 -13 46.5t-35 20.5q-24 0 -24 -30q0 -20 20 -42q5 -7 38 -37q14 21 14 42zM465 1226q0 -83 -28 -136q-32 -59 -88 -59q-20 0 -36.5 6.5t-37.5 21.5
q-23 -40 -43 -60q-35 -35 -74 -35q-46 0 -69 31.5t-23 86.5q0 28 7.5 55.5t22.5 62.5l23 10q0 -8 -2.5 -28t-2.5 -33q0 -24 10 -43.5t30 -19.5q47 0 76 62q13 28 33 111l23 6q9 -54 14 -66q14 -34 44 -34q42 0 66 55q20 44 20 92l23 6q5 -21 8.5 -46.5t3.5 -45.5z" />
    <glyph glyph-name="uniFC5F" unicode="&#xfc5f;" horiz-adv-x="0" arabic-form="isolated" 
d="M429 1550q0 -83 -28 -136q-32 -59 -88 -59q-20 0 -36.5 6.5t-37.5 21.5q-23 -40 -43 -60q-35 -35 -74 -35q-46 0 -69 31.5t-23 86.5q0 28 7.5 55.5t22.5 62.5l23 10q0 -8 -2.5 -28t-2.5 -33q0 -24 10 -43.5t30 -19.5q47 0 76 62q13 28 33 111l23 6q9 -54 14 -66
q14 -34 44 -34q42 0 66 55q20 44 20 92l23 6q5 -21 8.5 -46.5t3.5 -45.5zM418 1315q0 -50 -56 -98l-320 -128q0 47 48 91zM418 1150q0 -53 -14.5 -65.5l-40.5 -34.5l-321 -129q0 48 48 92z" />
    <glyph glyph-name="uniFC60" unicode="&#xfc60;" horiz-adv-x="0" arabic-form="isolated" 
d="M431 1649q0 -51 -57 -100l-319 -128q0 48 48 92zM433 1361q0 -83 -28 -136q-32 -59 -88 -59q-20 0 -36.5 6.5t-37.5 21.5q-23 -40 -43 -60q-35 -35 -74 -35q-46 0 -69 31.5t-23 86.5q0 28 7.5 55.5t22.5 62.5l23 10q0 -8 -2.5 -28t-2.5 -33q0 -24 10 -43.5t30 -19.5
q47 0 76 62q13 28 33 111l23 6q9 -54 14 -66q14 -34 44 -34q42 0 66 55q20 44 20 92l23 6q5 -21 8.5 -46.5t3.5 -45.5z" />
    <glyph glyph-name="uniFC61" unicode="&#xfc61;" horiz-adv-x="0" arabic-form="isolated" 
d="M425 1422q0 -19 -3.5 -38.5t-6.5 -39.5l-91 55q-55 -60 -75 -80q-82 -79 -137 -79h-80q58 27 136 89q71 56 107 99q-34 21 -52 44q-22 28 -22 62q0 73 42.5 128.5t92.5 55.5q28 0 51 -31t23 -75q0 -20 -6 -43t-28 -83l37 -30q12 -12 12 -34zM342 1546q0 30 -21 55.5
t-40 25.5q-11 0 -17 -8t-6 -15q0 -25 27 -51l48 -37q9 22 9 30zM438 1193q0 -83 -28 -136q-32 -59 -88 -59q-20 0 -36.5 6.5t-37.5 21.5q-23 -40 -43 -60q-35 -35 -74 -35q-46 0 -69 31.5t-23 86.5q0 28 7.5 55.5t22.5 62.5l23 10q0 -8 -2.5 -28t-2.5 -33q0 -24 10 -43.5
t30 -19.5q47 0 76 62q13 28 33 111l23 6q9 -54 14 -66q14 -34 44 -34q42 0 66 55q20 44 20 92l23 6q5 -21 8.5 -46.5t3.5 -45.5z" />
    <glyph glyph-name="uniFC62" unicode="&#xfc62;" horiz-adv-x="0" arabic-form="isolated" 
d="M429 1550q0 -83 -28 -136q-32 -59 -88 -59q-20 0 -36.5 6.5t-37.5 21.5q-23 -40 -43 -60q-35 -35 -74 -35q-46 0 -69 31.5t-23 86.5q0 28 7.5 55.5t22.5 62.5l23 10q0 -8 -2.5 -28t-2.5 -33q0 -24 10 -43.5t30 -19.5q47 0 76 62q13 28 33 111l23 6q9 -54 14 -66
q14 -34 44 -34q42 0 66 55q20 44 20 92l23 6q5 -21 8.5 -46.5t3.5 -45.5zM431 1292q0 -51 -57 -100l-319 -128q0 48 48 92z" />
    <glyph glyph-name="$FDF2" unicode="&#xfdf2;" horiz-adv-x="2000" arabic-form="isolated" 
d="M357 362v180q-46 -17 -108 -79.5t-65 -114.5v-6q0 -46 48 -51q3 -1 7 -1q49 0 118 72zM907 1556q-7 24 -20 50.5t-35 52.5q-13 17 -60 65q13 17 38 17q12 0 28 -4q41 -13 55 -47q6 -24 12 -38.5t8 -20.5q4 -17 4 -37q0 -19 -4 -40zM784 261q99 24 99 258v141
q0 142 -12.5 240t-42.5 182q-2 2 -2 5q0 8 12 18q96 92 173 157q6 4 10 4q6 0 8 -4v-736q10 -265 191 -265h80q77 2 79 71v597q-9 215 -16 295q2 104 178 220q9 6 14 6q7 0 9 -6q0 -135 53 -254q-76 -15 -76 -161v-671q-6 -119 -79 -216t-189 -100h-71q-198 15 -280 178
q-76 -163 -232 -178h-93q-152 8 -194 145q-89 -75 -197 -75q-66 0 -111 31q-55 35 -55 100q0 93 55 180.5t123 154.5q50 50 139 90v119l182 125v-550q3 -101 125 -101h120zM1948 1238q-20 0 -33 -31q-5 -27 -5 -49v-933q0 -138 -171 -210l-1 672l-22 471q0 39 -10 79
q0 60 61 119l102 110h17q26 -104 62 -228zM1081 1371q-19 -14 -47 -14q-30 0 -49 5t-50 17q-14 -27 -45 -51q-41 -29 -77 -29q-48 0 -73 26.5t-25 67.5q0 21 3.5 41.5l5.5 32.5l41 10q0 -46 16 -63t51 -17q14 0 28 12.5t27 29.5t23.5 37t14.5 41l27 6q3 -18 8.5 -29.5
t8.5 -16.5q21 -19 65 -19q33 0 55 43q7 12 14 27.5t11 34.5l27 5l2 -19.5t1 -19.5q0 -34 -7 -66t-22 -55t-34 -37z" />
    <glyph glyph-name="uniFE80" unicode="&#x621;" horiz-adv-x="700" arabic-form="isolated" 
d="M568 369v-111l-438 -223v130l138 66q-88 42 -108 103q-11 32 -11 64q0 27 8 54q17 58 76 104t119 46q61 0 112.5 -23.5t91.5 -70.5l1 -49q-97 26 -157 26q-56 0 -80 -22q-38 -34 -38 -70q0 -12 4 -24q17 -48 68 -61q7 -3 18 -3q57 0 196 64z" />
    <glyph glyph-name="uniFE81" unicode="&#x622;" horiz-adv-x="401" arabic-form="isolated" 
d="M321 1238q-20 0 -33 -31q-5 -27 -5 -49v-933q0 -138 -171 -210l2 1066q0 64 -11 88q-14 28 -24 68q0 60 61 119l102 110h17q26 -104 62 -228zM423 1634q-71 -81 -161 -81q-66 0 -131 26.5t-89 26.5q-21 0 -56 -15l-12 14q51 72 107 72q18 0 91.5 -26.5t119.5 -26.5
q58 0 115 25z" />
    <glyph glyph-name="uniFE82" unicode="&#x622;" horiz-adv-x="500" arabic-form="final" 
d="M518 42h-183q-92 6 -147.5 53t-56.5 139l2 895q-5 90 -44 139l185 182q12 12 18 12q8 0 8 -18l-1 -1050v-14q0 -119 96 -119h123v-219zM423 1634q-71 -81 -161 -81q-66 0 -131 26.5t-89 26.5q-21 0 -56 -15l-12 14q51 72 107 72q18 0 91.5 -26.5t119.5 -26.5q58 0 115 25
z" />
    <glyph glyph-name="uniFE83" unicode="&#x623;" horiz-adv-x="401" arabic-form="isolated" 
d="M331 1238q-20 0 -33 -31q-5 -27 -5 -49v-933q0 -138 -171 -210l2 1066q0 64 -11 88q-14 28 -24 68q0 60 61 119l102 110h17q26 -104 62 -228zM336 1671v-73l-288 -146v85l90 44q-58 27 -70 67q-7 21 -7 42q0 18 5 36q11 38 50 68t78 30q40 0 74 -15t60 -43l1 -36
q-65 18 -105 18q-35 0 -51 -14q-25 -23 -25 -47q0 -8 3 -15q11 -32 44 -41q5 -2 12 -2q38 0 129 42z" />
    <glyph glyph-name="uniFE84" unicode="&#x623;" horiz-adv-x="500" arabic-form="final" 
d="M518 42h-183q-92 6 -147.5 53t-56.5 139l2 895q-5 90 -44 139l185 182q12 12 18 12q8 0 8 -18l-1 -1050v-14q0 -119 96 -119h123v-219zM323 1666v-73l-288 -146v85l90 44q-58 27 -70 67q-7 21 -7 42q0 18 5 36q11 38 50 68t78 30q40 0 74 -15t60 -43l1 -36
q-65 18 -105 18q-35 0 -51 -14q-25 -23 -25 -47q0 -8 3 -15q11 -32 44 -41q5 -2 12 -2q38 0 129 42z" />
    <glyph glyph-name="uniFE85" unicode="&#x624;" horiz-adv-x="799" arabic-form="isolated" 
d="M514 261q-48 159 -152 159q-32 0 -53 -26t-21 -58q0 -69 44 -75h182zM553 42h-140q-136 0 -184 51.5t-48 140.5q0 117 46 227q58 150 178 150h15q76 0 140 -78q84 -100 118 -270q12 -72 14 -159h1v-51q0 -214 -106 -367q-94 -150 -274 -158q-178 17 -268 100
q-13 13 -13 21q0 10 20 13q259 49 412 179q92 78 92 166v13q0 9 -3 22zM403.393 891.195v-88.7988l-350.395 -178.396v103.998l110.398 52.7988q-70.3984 33.5996 -86.3984 82.3994q-8.7998 25.5996 -8.7998 51.1992q0 21.5996 6.39941 43.1992
q13.6006 46.3994 60.7998 83.1982q47.1992 36.7998 95.1982 36.7998q48.7988 0 89.999 -18.7998q41.1992 -18.7998 73.1982 -56.3994l0.799805 -39.1992q-77.5986 20.7998 -125.598 20.7998q-44.7998 0 -63.999 -17.5996q-30.3994 -27.2002 -30.3994 -55.999
q0 -9.60059 3.2002 -19.2002q13.5996 -38.3994 54.3984 -48.7988q5.60059 -2.40039 14.4004 -2.40039q45.5986 0 156.797 51.1992z" />
    <glyph glyph-name="uniFE86" unicode="&#x624;" horiz-adv-x="899" arabic-form="final" 
d="M510 261q-48 159 -152 159q-32 0 -53 -26t-21 -58q0 -69 44 -75h182zM674 261h248v-219h-233q-3 -207 -106 -357q-94 -150 -274 -158q-178 17 -268 100q-13 13 -13 21q0 10 20 13q259 49 412 179q92 78 92 167v13q0 9 -3 22h-140q-136 0 -184 51.5t-48 140.5
q0 117 46 227q58 150 178 150h15q76 0 140 -78q84 -100 118 -270v-2zM402.393 892.195v-88.7988l-350.395 -178.396v103.998l110.398 52.7988q-70.3984 33.5996 -86.3984 82.3994q-8.7998 25.5996 -8.7998 51.1992q0 21.5996 6.39941 43.1992
q13.6006 46.3994 60.7998 83.1982q47.1992 36.7998 95.1982 36.7998q48.7988 0 89.999 -18.7998q41.1992 -18.7998 73.1982 -56.3994l0.799805 -39.1992q-77.5986 20.7998 -125.598 20.7998q-44.7998 0 -63.999 -17.5996q-30.3994 -27.2002 -30.3994 -55.999
q0 -9.60059 3.2002 -19.2002q13.5996 -38.3994 54.3984 -48.7988q5.60059 -2.40039 14.4004 -2.40039q45.5986 0 156.797 51.1992z" />
    <glyph glyph-name="uniFE87" unicode="&#x625;" horiz-adv-x="401" arabic-form="isolated" 
d="M324 1238q-20 0 -33 -31q-5 -27 -5 -49v-933q0 -138 -171 -210l2 1066q0 64 -11 88q-14 28 -24 68q0 60 61 119l102 110h17q26 -104 62 -228zM342 -243v-73l-288 -146v85l90 44q-58 27 -70 67q-7 21 -7 42q0 18 5 36q11 38 50 68t78 30q40 0 74 -15t60 -43l1 -36
q-64 17 -104 17q-36 0 -52 -14q-25 -22 -25 -46q0 -8 3 -15q11 -32 44 -41q5 -2 12 -2q38 0 129 42z" />
    <glyph glyph-name="uniFE88" unicode="&#x625;" horiz-adv-x="500" arabic-form="final" 
d="M518 42h-183q-92 6 -147.5 53t-56.5 139l2 895q-5 90 -44 139l185 182q12 12 18 12q8 0 8 -18l-1 -1050v-14q0 -119 96 -119h123v-219zM322 -213v-73l-288 -146v85l90 44q-58 27 -70 67q-7 21 -7 42q0 18 5 36q11 38 50 68t78 30q40 0 74 -15t60 -43l1 -36
q-64 17 -104 17q-36 0 -52 -14q-25 -22 -25 -46q0 -8 3 -15q11 -32 44 -41q5 -2 12 -2q38 0 129 42z" />
    <glyph glyph-name="uniFE89" unicode="&#x626;" horiz-adv-x="1200" arabic-form="isolated" 
d="M1122 809q-15 -95 -31 -157q-17 -33 -57 -36q-109 -22 -194 -68q-39 -34 -39 -65q0 -3 1 -6q5 -34 70 -42q58 -9 131 -35q89 -36 89 -129q0 -8 -1 -16q-10 -251 -197 -386.5t-473 -137.5q-418 20 -418 389v15q2 184 120 393q9 6 14 6q10 0 10 -18q0 -5 -1 -10
q-45 -122 -55 -221q17 -320 363 -340h55q164 2 303.5 60t150.5 148q-17 62 -140 67q-146 19 -146 156q14 322 422 441q8 5 12 5q10 0 11 -13zM738 957v-111l-438 -223v130l138 66q-88 42 -108 103q-11 32 -11 64q0 27 8 54q17 58 76 104t119 46q61 0 112.5 -23.5t91.5 -70.5
l1 -49q-97 26 -157 26q-56 0 -80 -22q-38 -34 -38 -70q0 -12 4 -24q17 -48 68 -61q7 -3 18 -3q57 0 196 64z" />
    <glyph glyph-name="uniFE8A" unicode="&#x626;" horiz-adv-x="1099" arabic-form="final" 
d="M783 0q-1 -4 -1 -7q0 -27 29 -38l84 -1q85 -3 85 -100q-7 -142 -81 -251.5t-180 -134.5q-84 -20 -149 -20l-114 1q-69 0 -173 29q-108 38 -189 126q-91 105 -91 297v27q0 175 106 355q4 2 10 2q8 0 8 -24q-33 -83 -36 -163q-4 -40 -4 -75q0 -127 53 -203
q67 -99 155.5 -121.5t159.5 -24.5h80q107 0 162 12q62 13 95 36.5t58 67.5q4 12 4 21q0 25 -28 30h-63q-85 12 -97 104v8q0 119 61 208q63 92 204 100h193v-219h-292q-46 -10 -49 -42zM641 730v-111l-438 -223v130l138 66q-88 42 -108 103q-11 32 -11 64q0 27 8 54
q17 58 76 104t119 46q61 0 112.5 -23.5t91.5 -70.5l1 -49q-97 26 -157 26q-56 0 -80 -22q-38 -34 -38 -70q0 -12 4 -24q17 -48 68 -61q7 -3 18 -3q57 0 196 64z" />
    <glyph glyph-name="uniFE8B" unicode="&#x626;" horiz-adv-x="599" arabic-form="initial" 
d="M457 964v-112l-439 -222v130l138 66q-88 41 -108 101q-11 32 -11 64q0 28 8 55q17 58 76.5 104t119.5 46q61 0 112.5 -23.5t92.5 -57.5v-63q-98 27 -159 27q-54 0 -78 -21q-39 -35 -39 -70q0 -12 5 -24q17 -48 67 -62q8 -3 19 -3q57 0 196 65zM516 376v-20
q0 -59 -14 -124q-18 -78 -79 -139q-56 -50 -192 -50l-235 2v216h277q68 13 70 53v3q0 53 -61 164l-51 68l154 154q121 -161 131 -327z" />
    <glyph glyph-name="uniFE8C" unicode="&#x626;" horiz-adv-x="599" arabic-form="medial" 
d="M626 42h-90q-45 0 -106 32.5t-123 164.5q-43 -108 -98 -156q-46 -41 -112 -41h-101v219h98q40 0 68 13q31 15 60 69t64 180q4 20 16 20q10 0 17 -21q31 -122 62 -169.5t71 -70.5q36 -21 104 -21h70v-219zM510 963v-111l-438 -223v130l138 66q-88 42 -108 103
q-11 32 -11 64q0 27 8 54q17 58 76 104t119 46q61 0 112.5 -23.5t91.5 -70.5l1 -49q-97 26 -157 26q-56 0 -80 -22q-38 -34 -38 -70q0 -12 4 -24q17 -48 68 -61q7 -3 18 -3q57 0 196 64z" />
    <glyph glyph-name="uniFE8D" unicode="&#x627;" horiz-adv-x="401" arabic-form="isolated" 
d="M322 1238q-20 0 -33 -31q-5 -27 -5 -49v-933q0 -138 -171 -210l2 1066q0 64 -11 88q-14 28 -24 68q0 60 61 119l102 110h17q26 -104 62 -228z" />
    <glyph glyph-name="uniFE8E" unicode="&#x627;" horiz-adv-x="500" arabic-form="final" 
d="M518 42h-183q-92 6 -147.5 53t-56.5 139l2 895q-5 90 -44 139l185 182q12 12 18 12q8 0 8 -18l-1 -1050v-14q0 -119 96 -119h123v-219z" />
    <glyph glyph-name="uniFE8F" unicode="&#x628;" horiz-adv-x="1300" arabic-form="isolated" 
d="M500 -244l128 127l130 -129l-128 -127zM1194 539q19 -78 19 -134v-17q-3 -60 -15 -110q-80 -233 -259 -235h-605q-156 3 -245 83t-89 209q7 180 134 334h2q25 0 25 -27q-12 -43 -36 -141q-6 -41 -6 -73q0 -93 48 -124q65 -42 188 -43h560q79 0 107 23q30 24 37 78v6
q0 56 -119 207l173 127q57 -75 81 -163z" />
    <glyph glyph-name="uniFE90" unicode="&#x628;" horiz-adv-x="1400" arabic-form="final" 
d="M1419 42h-108q-59 0 -115 34.5t-102 162.5q-57 -115 -126 -153.5t-141 -41.5h-477q-173 2 -258 85.5t-90 188.5q-1 10 -1 18q0 95 37 185q43 93 62 98h26q-28 -104 -28 -165t38.5 -126.5t190.5 -65.5h497q100 0 176 86q76 87 98 204q6 15 12 15q7 0 14 -14
q25 -126 85 -209t122 -83h88v-219zM473 -232l127 127l130 -129l-127 -127z" />
    <glyph glyph-name="uniFE91" unicode="&#x628;" horiz-adv-x="600" arabic-form="initial" 
d="M516 376v-20q0 -59 -14 -124q-18 -78 -79 -139q-56 -50 -192 -50l-235 2v216h277q68 13 70 53v3q0 53 -61 164l-51 68l154 154q121 -161 131 -327zM124 -244l127 127l129 -129l-126 -127z" />
    <glyph glyph-name="uniFE92" unicode="&#x628;" horiz-adv-x="600" arabic-form="medial" 
d="M626 42h-90q-45 0 -106 32.5t-123 164.5q-43 -108 -98 -156q-46 -41 -112 -41h-101v219h98q40 0 68 13q31 15 60 69t64 180q4 20 16 20q10 0 17 -21q31 -122 62 -169.5t71 -70.5q36 -21 104 -21h70v-219zM175 -223l127 127l129 -129l-126 -127z" />
    <glyph glyph-name="uniFE93" unicode="&#x629;" horiz-adv-x="700" arabic-form="isolated" 
d="M606 390v-15q0 -160 -65 -258q-73 -101 -221 -101q-185 1 -192 178q-2 11 -2 25q0 168 79 300q89 157 158 199q95 -57 167.5 -135t75.5 -193zM485 279q4 14 4 29q0 25 -12 53q-20 45 -52.5 80t-82.5 64q-43 -22 -72 -78q-26 -49 -26 -104q0 -9 1 -18q5 -63 106 -63h9
q112 1 125 37zM82 1009l127 127l129 -129l-126 -127zM407 1009l127 127l129 -129l-126 -127z" />
    <glyph glyph-name="uniFE94" unicode="&#x629;" horiz-adv-x="800" arabic-form="final" 
d="M824 42h-193q-152 8 -194 145q-89 -75 -197 -75q-66 0 -111 31q-55 35 -55 100q0 93 55 180.5t123 154.5q50 50 139 90v99l182 125v-530q3 -101 125 -101h126v-219zM391 362v180q-46 -17 -108 -79.5t-65 -114.5v-6q0 -46 48 -51q3 -1 7 -1q49 0 118 72zM476 1133l127 127
l129 -129l-126 -127zM164 1134l127 127l129 -129l-126 -127z" />
    <glyph glyph-name="uniFE95" unicode="&#x62a;" horiz-adv-x="1300" arabic-form="isolated" 
d="M324 829l128 127l130 -129l-128 -126zM654 829l127 127l130 -129l-128 -126zM1194 539q19 -78 19 -134v-17q-3 -60 -15 -110q-80 -233 -259 -235h-605q-156 3 -245 83t-89 209q7 180 134 334h2q25 0 25 -27q-12 -43 -36 -141q-6 -41 -6 -73q0 -93 48 -124q65 -42 188 -43
h560q79 0 107 23q30 24 37 78v6q0 56 -119 207l173 127q57 -75 81 -163z" />
    <glyph glyph-name="uniFE96" unicode="&#x62a;" horiz-adv-x="1400" arabic-form="final" 
d="M1419 42h-108q-59 0 -115 34.5t-102 162.5q-57 -115 -126 -153.5t-141 -41.5h-477q-173 2 -258 85.5t-90 188.5q-1 10 -1 18q0 95 37 185q43 93 62 98h26q-28 -104 -28 -165t38.5 -126.5t190.5 -65.5h497q100 0 176 86q76 87 98 204q6 15 12 15q7 0 14 -14
q25 -126 85 -209t122 -83h88v-219zM325 814l128 126l130 -128l-129 -127zM640 813l126 127l131 -129l-129 -127z" />
    <glyph glyph-name="uniFE97" unicode="&#x62a;" horiz-adv-x="700" arabic-form="initial" 
d="M610 375v-20q0 -59 -13 -124q-18 -78 -79 -139q-56 -50 -192 -50h-330v219h377q63 12 65 52v3q0 53 -61 163l-51 69l154 154q121 -161 130 -327zM62 1023l128 127l130 -129l-129 -127zM377 1022l127 128l130 -130l-129 -127z" />
    <glyph glyph-name="uniFE98" unicode="&#x62a;" horiz-adv-x="600" arabic-form="medial" 
d="M626 42h-90q-45 0 -106 32.5t-123 164.5q-43 -108 -98 -156q-46 -41 -112 -41h-101v219h98q40 0 68 13q31 15 60 69t64 180q4 20 16 20q10 0 17 -21q31 -122 62 -169.5t71 -70.5q36 -21 104 -21h70v-219zM27 835l127 127l129 -129l-126 -127zM321 835l127 127l129 -129
l-126 -127z" />
    <glyph glyph-name="uniFE99" unicode="&#x62b;" horiz-adv-x="1300" arabic-form="isolated" 
d="M306 829l128 127l130 -129l-128 -126zM1196 539q19 -78 19 -134v-17q-3 -60 -15 -110q-80 -233 -259 -235h-605q-156 3 -245 83t-89 209q7 180 134 334h2q25 0 25 -27q-12 -43 -36 -141q-6 -41 -6 -73q0 -93 48 -124q65 -42 188 -43h560q79 0 107 23q30 24 37 78v6
q0 56 -119 207l173 127q57 -75 81 -163zM656 829l127 127l130 -129l-128 -126zM483 1076l127 126l130 -128l-127 -127z" />
    <glyph glyph-name="uniFE9A" unicode="&#x62b;" horiz-adv-x="1400" arabic-form="final" 
d="M1419 42h-108q-59 0 -115 34.5t-102 162.5q-57 -115 -126 -153.5t-141 -41.5h-477q-173 2 -258 85.5t-90 188.5q-1 10 -1 18q0 95 37 185q43 93 62 98h26q-28 -104 -28 -165t38.5 -126.5t190.5 -65.5h497q100 0 176 86q76 87 98 204q6 15 12 15q7 0 14 -14
q25 -126 85 -209t122 -83h88v-219zM325 814l128 126l130 -128l-129 -127zM640 813l126 127l131 -129l-129 -127zM477 1074l127 127l129 -129l-126 -127z" />
    <glyph glyph-name="uniFE9B" unicode="&#x62b;" horiz-adv-x="700" arabic-form="initial" 
d="M610 375v-20q0 -59 -13 -124q-18 -78 -79 -139q-56 -50 -192 -50h-330v219h377q63 12 65 52v3q0 53 -61 163l-51 69l154 154q121 -161 130 -327zM62 1023l128 127l130 -129l-129 -127zM377 1022l127 128l130 -130l-129 -127zM223 1281l127 127l129 -129l-126 -127z" />
    <glyph glyph-name="uniFE9C" unicode="&#x62b;" horiz-adv-x="600" arabic-form="medial" 
d="M626 42h-90q-45 0 -106 32.5t-123 164.5q-43 -108 -98 -156q-46 -41 -112 -41h-101v219h98q40 0 68 13q31 15 60 69t64 180q4 20 16 20q10 0 17 -21q31 -122 62 -169.5t71 -70.5q36 -21 104 -21h70v-219zM27 835l127 127l129 -129l-126 -127zM321 835l127 127l129 -129
l-126 -127zM169 1104l127 127l129 -129l-126 -127z" />
    <glyph glyph-name="uniFE9D" unicode="&#x62c;" horiz-adv-x="1100" arabic-form="isolated" 
d="M1099 -329l28 -25q-8 -30 -85 -92q-96 -84 -231.5 -132.5t-229.5 -48.5q-26 -3 -61 -3q-90 0 -191 32q-155 45 -240 151t-88 280l-1 21q0 212 150 364q108 97 199 142.5t256 95.5l43 13l-155 69q-88 36 -177 41h-8q-86 0 -167 -105l-29 13q11 69 74 169.5t193 109.5h26
q88 0 183 -44q2 0 191 -97q132 -71 267 -94l-105 -172q-433 -53 -560 -139q-96 -60 -150 -128.5t-65 -131.5q-6 -36 -6 -65q0 -30 5.5 -59t33.5 -78.5t71 -84.5t129 -62t242 -27q285 0 458 87zM519 -63l127 127l129 -129l-126 -127z" />
    <glyph glyph-name="uniFE9E" unicode="&#x62c;" horiz-adv-x="1100" arabic-form="final" 
d="M890 352q2 -34 20 -57q26 -34 69 -34h138v-219h-114q-74 0 -118.5 19t-80.5 84q-34 60 -34 188v2q-288 -47 -388 -115q-96 -60 -150 -128.5t-65 -131.5q-6 -36 -6 -65q0 -30 5.5 -59t33.5 -78.5t71 -84.5t129 -62t242 -27q285 0 458 87l28 -25q-8 -30 -85 -92
q-96 -84 -231.5 -132.5t-229.5 -48.5q-26 -3 -61 -3q-90 0 -191 32q-155 45 -240 153t-88 278l-1 21q0 212 150 364q108 97 199 142.5t256 95.5l43 13l-155 69q-88 36 -177 41h-8q-86 0 -167 -105l-29 13q11 69 74 169.5t193 109.5h26q88 0 183 -44q2 0 191 -97
q132 -71 267 -94l-105 -172q-26 -3 -52 -7zM466 -61l127 127l129 -129l-126 -127z" />
    <glyph glyph-name="uniFE9F" unicode="&#x62c;" horiz-adv-x="1100" arabic-form="initial" 
d="M1031 472l-68 -204q-13 2 -26 2q-39 0 -73 -16q-30 -4 -136 -76q-96 -66 -180 -95q-102 -41 -392 -41h-160v219h323q98 0 163 22t182 91q-80 77 -225 146q-102 39 -182 39q-41 0 -70 -10q-32 -13 -85 -80l-24 18q114 275 250 278l25 1q125 -2 310 -135q184 -124 368 -159
zM372 -244l127 127l129 -129l-126 -127z" />
    <glyph glyph-name="uniFEA0" unicode="&#x62c;" horiz-adv-x="1100" arabic-form="medial" 
d="M1122 42h-157q-7 -1 -14 -1q-69 0 -145 63q-84 68 -102 219q-50 -5 -97 -50l-123 -108q-140 -123 -416 -123h-72v219h68q178 0 318 60q146 63 234 124q-242 110 -297 124q-45 11 -75 11q-7 0 -12 -1q-33 -3 -71.5 -23.5t-75.5 -74.5l-27 8q18 87 94 179q84 98 172 98
q105 0 215 -49q102 -45 147 -72q227 -100 367 -122l-73 -151q-20 2 -41 2q-47 0 -87 -10q0 -41 27 -68.5t93 -34.5h150v-219zM475 -241l127 127l129 -129l-126 -127z" />
    <glyph glyph-name="uniFEA1" unicode="&#x62d;" horiz-adv-x="1100" arabic-form="isolated" 
d="M1100 -329l28 -25q-8 -30 -85 -92q-96 -84 -231.5 -132.5t-229.5 -48.5q-26 -3 -61 -3q-90 0 -191 32q-155 45 -240 151t-88 280l-1 21q0 212 150 364q108 97 199 142.5t256 95.5l43 13l-155 69q-88 36 -177 41h-8q-86 0 -167 -105l-29 13q11 69 74 169.5t193 109.5h26
q88 0 183 -44q2 0 191 -97q132 -71 267 -94l-105 -172q-433 -53 -560 -139q-96 -60 -150 -128.5t-65 -131.5q-6 -36 -6 -65q0 -30 5.5 -59t33.5 -78.5t71 -84.5t129 -62t242 -27q285 0 458 87z" />
    <glyph glyph-name="uniFEA2" unicode="&#x62d;" horiz-adv-x="1100" arabic-form="final" 
d="M889 352q2 -34 20 -57q26 -34 69 -34h138v-219h-114q-74 0 -118.5 19t-80.5 84q-34 60 -34 188v2q-288 -47 -388 -115q-96 -60 -150 -128.5t-65 -131.5q-6 -36 -6 -65q0 -30 5.5 -59t33.5 -78.5t71 -84.5t129 -62t242 -27q285 0 458 87l28 -25q-8 -30 -85 -92
q-96 -84 -231.5 -132.5t-229.5 -48.5q-26 -3 -61 -3q-90 0 -191 32q-155 45 -240 153t-88 278l-1 21q0 212 150 364q108 97 199 142.5t256 95.5l43 13l-155 69q-88 36 -177 41h-8q-86 0 -167 -105l-29 13q11 69 74 169.5t193 109.5h26q88 0 183 -44q2 0 191 -97
q132 -71 267 -94l-105 -172q-26 -3 -52 -7z" />
    <glyph glyph-name="uniFEA3" unicode="&#x62d;" horiz-adv-x="1100" arabic-form="initial" 
d="M1031 472l-68 -204q-13 2 -26 2q-39 0 -73 -16q-30 -4 -136 -76q-96 -66 -180 -95q-102 -41 -392 -41h-160v219h323q98 0 163 22t182 91q-80 77 -225 146q-102 39 -182 39q-41 0 -70 -10q-32 -13 -85 -80l-24 18q114 275 250 278l25 1q125 -2 310 -135q184 -124 368 -159
z" />
    <glyph glyph-name="uniFEA4" unicode="&#x62d;" horiz-adv-x="1100" arabic-form="medial" 
d="M1122 42h-157q-7 -1 -14 -1q-69 0 -145 63q-84 68 -102 219q-50 -5 -97 -50l-123 -108q-140 -123 -416 -123h-72v219h68q178 0 318 60q146 63 234 124q-242 110 -297 124q-45 11 -75 11q-7 0 -12 -1q-33 -3 -71.5 -23.5t-75.5 -74.5l-27 8q18 87 94 179q84 98 172 98
q105 0 215 -49q102 -45 147 -72q227 -100 367 -122l-73 -151q-20 2 -41 2q-47 0 -87 -10q0 -41 27 -68.5t93 -34.5h150v-219z" />
    <glyph glyph-name="uniFEA5" unicode="&#x62e;" horiz-adv-x="1100" arabic-form="isolated" 
d="M1100 -329l28 -25q-8 -30 -85 -92q-96 -84 -231.5 -132.5t-229.5 -48.5q-26 -3 -61 -3q-90 0 -191 32q-155 45 -240 151t-88 280l-1 21q0 212 150 364q108 97 199 142.5t256 95.5l43 13l-155 69q-88 36 -177 41h-8q-86 0 -167 -105l-29 13q11 69 74 169.5t193 109.5h26
q88 0 183 -44q2 0 191 -97q132 -71 267 -94l-105 -172q-433 -53 -560 -139q-96 -60 -150 -128.5t-65 -131.5q-6 -36 -6 -65q0 -30 5.5 -59t33.5 -78.5t71 -84.5t129 -62t242 -27q285 0 458 87zM270 1025l127 127l129 -129l-126 -127z" />
    <glyph glyph-name="uniFEA6" unicode="&#x62e;" horiz-adv-x="1100" arabic-form="final" 
d="M890 352q2 -34 20 -57q26 -34 69 -34h138v-219h-114q-74 0 -118.5 19t-80.5 84q-34 60 -34 188v2q-288 -47 -388 -115q-96 -60 -150 -128.5t-65 -131.5q-6 -36 -6 -65q0 -30 5.5 -59t33.5 -78.5t71 -84.5t129 -62t242 -27q285 0 458 87l28 -25q-8 -30 -85 -92
q-96 -84 -231.5 -132.5t-229.5 -48.5q-26 -3 -61 -3q-90 0 -191 32q-155 45 -240 153t-88 278l-1 21q0 212 150 364q108 97 199 142.5t256 95.5l43 13l-155 69q-88 36 -177 41h-8q-86 0 -167 -105l-29 13q11 69 74 169.5t193 109.5h26q88 0 183 -44q2 0 191 -97
q132 -71 267 -94l-105 -172q-26 -3 -52 -7zM270 1027l127 127l129 -129l-126 -127z" />
    <glyph glyph-name="uniFEA7" unicode="&#x62e;" horiz-adv-x="1100" arabic-form="initial" 
d="M1031 472l-68 -204q-13 2 -26 2q-39 0 -73 -16q-30 -4 -136 -76q-96 -66 -180 -95q-102 -41 -392 -41h-160v219h323q98 0 163 22t182 91q-80 77 -225 146q-102 39 -182 39q-41 0 -70 -10q-32 -13 -85 -80l-24 18q114 275 250 278l25 1q125 -2 310 -135q184 -124 368 -159
zM269 1024l127 127l129 -129l-126 -127z" />
    <glyph glyph-name="uniFEA8" unicode="&#x62e;" horiz-adv-x="1100" arabic-form="medial" 
d="M1122 42h-157q-7 -1 -14 -1q-69 0 -145 63q-84 68 -102 219q-50 -5 -97 -50l-123 -108q-140 -123 -416 -123h-72v219h68q178 0 318 60q146 63 234 124q-242 110 -297 124q-45 11 -75 11q-7 0 -12 -1q-33 -3 -71.5 -23.5t-75.5 -74.5l-27 8q18 87 94 179q84 98 172 98
q105 0 215 -49q102 -45 147 -72q227 -100 367 -122l-73 -151q-20 2 -41 2q-47 0 -87 -10q0 -41 27 -68.5t93 -34.5h150v-219zM272 1027l127 127l129 -129l-126 -127z" />
    <glyph glyph-name="uniFEA9" unicode="&#x62f;" horiz-adv-x="900" arabic-form="isolated" 
d="M785 444v-60q0 -109 -39 -184q-73 -155 -160 -155h-308q-147 6 -156 171v17q4 70 45 154q8 6 14 6q9 0 16 -13v-9q0 -70 29 -90q26 -19 89 -19h226q95 6 104 72q0 32 -43.5 94.5t-222.5 237.5l112 198q168 -172 219.5 -248.5t74.5 -171.5z" />
    <glyph glyph-name="uniFEAA" unicode="&#x62f;" horiz-adv-x="1000" arabic-form="final" 
d="M1014 261v-219h-66q-195 0 -253 166h-5q-76 -163 -238 -163h-9l-152 -1h-8q-179 0 -196 191v11q0 128 63 199q4 1 7 1q11 0 13 -19q-7 -35 -7 -62q0 -46 20 -67q31 -35 87 -37h253q104 2 104 98q0 14 -2 31q-13 75 -62 147.5t-100 140.5l104 185q173 -190 242 -451
q26 -90 55.5 -120.5t86.5 -30.5h63z" />
    <glyph glyph-name="uniFEAB" unicode="&#x630;" horiz-adv-x="900" arabic-form="isolated" 
d="M785 444v-60q0 -109 -39 -184q-73 -155 -160 -155h-308q-147 6 -156 171v17q4 70 45 154q8 6 14 6q9 0 16 -13v-9q0 -70 29 -90q26 -19 89 -19h226q95 6 104 72q0 32 -43.5 94.5t-222.5 237.5l112 198q168 -172 219.5 -248.5t74.5 -171.5zM222 1126l127 127l129 -129
l-126 -127z" />
    <glyph glyph-name="uniFEAC" unicode="&#x630;" horiz-adv-x="1000" arabic-form="final" 
d="M1015 261v-219h-66q-195 0 -253 166h-5q-76 -163 -238 -163h-9l-152 -1h-8q-179 0 -196 191v11q0 128 63 199q4 1 7 1q11 0 13 -19q-7 -35 -7 -62q0 -46 20 -67q31 -35 87 -37h253q104 2 104 98q0 14 -2 31q-13 75 -62 147.5t-100 140.5l104 185q173 -190 242 -451
q26 -90 55.5 -120.5t86.5 -30.5h63zM363 1131l127 127l129 -129l-126 -127z" />
    <glyph glyph-name="uniFEAD" unicode="&#x631;" horiz-adv-x="800" arabic-form="isolated" 
d="M699 55q0 -216 -106 -369q-94 -150 -274 -158q-178 17 -268 100q-13 13 -13 21q0 10 20 13q259 49 412 179q92 78 92 168v13q-1 55 -112 237l-51 73l143 183q9 12 16 12q10 0 19 -18q111 -224 122 -393v-61z" />
    <glyph glyph-name="uniFEAE" unicode="&#x631;" horiz-adv-x="900" arabic-form="final" 
d="M926 42h-133q-93 0 -133 45q2 -33 2 -64q0 -183 -81 -299q-115 -169 -308 -186q-150 9 -274 96q-4 8 -4 14q0 10 16 15q282 51 444 181q69 73 69 161q0 9 -1 17q-33 139 -111 256l-49 70l152 176q8 7 14 7q7 0 12 -12q54 -146 107 -200q49 -58 126 -58h152v-219z" />
    <glyph glyph-name="uniFEAF" unicode="&#x632;" horiz-adv-x="800" arabic-form="isolated" 
d="M700 55q0 -216 -106 -369q-94 -150 -274 -158q-178 17 -268 100q-13 13 -13 21q0 10 20 13q259 49 412 179q92 78 92 168v13q-1 55 -112 237l-51 73l143 183q9 12 16 12q10 0 19 -18q111 -224 122 -393v-61zM272 833l127 127l129 -129l-126 -127z" />
    <glyph glyph-name="uniFEB0" unicode="&#x632;" horiz-adv-x="900" arabic-form="final" 
d="M926 42h-133q-93 0 -133 45q2 -33 2 -64q0 -183 -81 -299q-115 -169 -308 -186q-150 9 -274 96q-4 8 -4 14q0 10 16 15q282 51 444 181q69 73 69 161q0 9 -1 17q-33 139 -111 256l-49 70l152 176q8 7 14 7q7 0 12 -12q54 -146 107 -200q49 -58 126 -58h152v-219zM272 825
l127 127l129 -129l-126 -127z" />
    <glyph glyph-name="uniFEB1" unicode="&#x633;" horiz-adv-x="1700" arabic-form="isolated" 
d="M1636 320q0 -13 -1 -24q-8 -65 -27 -121q-53 -138 -198 -138q-20 0 -41 2q-140 4 -195 148q-25 -86 -65.5 -117t-79.5 -31t-70 8v-26q0 -248 -143 -401q-151 -161 -381 -161h-3q-416 0 -430 437q12 253 146 436l40 4q-69 -216 -69 -281q0 -290 185 -352q83 -25 146 -25
q89 0 178 25q108 33 176 121q37 47 37 130v13q-3 93 -47 194t-88 157l121 139q37 -82 63.5 -125.5t57.5 -58.5q30 -15 80 -15q2 0 4 1q52 0 84.5 38.5t45.5 175.5q7 8 15 8q6 0 13 -5q37 -121 56.5 -149.5t52.5 -53.5t83 -25q99 0 99 61q0 76 -111 223l158 159
q105 -202 108 -371z" />
    <glyph glyph-name="uniFEB2" unicode="&#x633;" horiz-adv-x="1700" arabic-form="final" 
d="M1719 42h-91q-108 1 -180 168q-28 -97 -67 -138q-31 -33 -84 -33q-15 0 -32 3q-108 5 -155 155q-50 -155 -186 -155q-8 0 -17 1l-16 2v-25q0 -349 -223 -478q-52 -24 -114 -43q-61 -14 -143 -14h-33q-145 7 -257.5 104.5t-120.5 283.5q-2 18 -2 34q0 108 31 216
q42 144 127 245l30 8l2 -25q-80 -163 -80 -326t94 -241q106 -84 231 -84q27 0 55 3q279 26 283 246v8q0 54 -33 161q-35 103 -84 193l129 170h2q22 -68 50.5 -120t58.5 -67.5t82 -16.5h2q50 0 88 39q38 40 67 192q6 8 10 8q6 0 11 -10q20 -123 44 -163q40 -70 103 -70h5
q47 0 77 29q36 33 60 208q7 12 13 12t14 -12q15 -90 28 -127q63 -122 128 -122h93v-219z" />
    <glyph glyph-name="uniFEB3" unicode="&#x633;" horiz-adv-x="1300" arabic-form="initial" 
d="M970 37h-10q-102 0 -167.5 45t-96.5 152q-24 -89 -80 -157q-38 -39 -83 -39h-38q-140 0 -193 199q-66 -195 -205 -195h-101v219h92q127 12 168.5 93t48.5 189q7 10 13 10q7 0 13 -10q10 -110 65 -192q49 -81 99 -81h50q115 0 154 266q5 7 11 7t12 -4q15 -84 40 -145.5
t70.5 -92.5t121.5 -31q86 0 106 20q19 18 19 36v3q-2 20 -89 182l102 172q8 13 15 13q8 0 15 -13q104 -179 104 -317v-15q0 -154 -62.5 -232t-193.5 -82z" />
    <glyph glyph-name="uniFEB4" unicode="&#x633;" horiz-adv-x="1400" arabic-form="medial" 
d="M1428 42h-127q-64 2 -117 33q-63 33 -103 150q-65 -188 -214 -188q-112 0 -187 183q-17 -66 -36.5 -98t-53.5 -57q-31 -23 -73 -23h-40q-81 0 -132 70q-29 33 -47 103q-45 -128 -139 -160q-41 -13 -95 -13h-68v219h124q52 1 94.5 36t79.5 191l8 51q6 9 14 9q7 0 12 -6
q29 -146 61 -198.5t61 -64t74 -11.5q118 0 164 277q7 9 14 9q8 0 16 -9q39 -159 61 -192q55 -86 114 -86q97 0 150 84q38 61 56 189q5 10 12 10q5 0 11 -7q64 -221 114 -253q43 -29 118 -29h74v-219z" />
    <glyph glyph-name="uniFEB5" unicode="&#x634;" horiz-adv-x="1700" arabic-form="isolated" 
d="M1635 320q0 -13 -1 -24q-8 -65 -27 -121q-53 -138 -198 -138q-20 0 -41 2q-140 4 -195 148q-25 -86 -65.5 -117t-79.5 -31t-70 8v-26q0 -248 -143 -401q-151 -161 -381 -161h-3q-416 0 -430 437q12 253 146 436l40 4q-69 -216 -69 -281q0 -290 185 -352q83 -25 146 -25
q89 0 178 25q108 33 176 121q37 47 37 130v13q-3 93 -47 194t-88 157l121 139q37 -82 63.5 -125.5t57.5 -58.5q30 -15 80 -15q2 0 4 1q52 0 84.5 38.5t45.5 175.5q7 8 15 8q6 0 13 -5q37 -121 56.5 -149.5t52.5 -53.5t83 -25q99 0 99 61q0 76 -111 223l158 159
q105 -202 108 -371zM1001 1075l127 127l129 -129l-126 -127zM813 832l127 127l129 -129l-126 -127zM1190 836l127 127l129 -129l-126 -127z" />
    <glyph glyph-name="uniFEB6" unicode="&#x634;" horiz-adv-x="1700" arabic-form="final" 
d="M1719 42h-91q-108 1 -180 168q-28 -97 -67 -138q-31 -33 -84 -33q-15 0 -32 3q-108 5 -155 155q-50 -155 -186 -155q-8 0 -17 1l-16 2v-25q0 -349 -223 -478q-52 -24 -114 -43q-61 -14 -143 -14h-33q-145 7 -257.5 104.5t-120.5 283.5q-2 18 -2 34q0 108 31 216
q42 144 127 245l30 8l2 -25q-80 -163 -80 -326t94 -241q106 -84 231 -84q27 0 55 3q279 26 283 246v8q0 54 -33 161q-35 103 -84 193l129 170h2q22 -68 50.5 -120t58.5 -67.5t82 -16.5h2q50 0 88 39q38 40 67 192q6 8 10 8q6 0 11 -10q20 -123 44 -163q40 -70 103 -70h5
q47 0 77 29q36 33 60 208q7 12 13 12t14 -12q15 -90 28 -127q63 -122 128 -122h93v-219zM1011 1071l127 127l129 -129l-126 -127zM823 828l127 127l129 -129l-126 -127zM1200 832l127 127l129 -129l-126 -127z" />
    <glyph glyph-name="uniFEB7" unicode="&#x634;" horiz-adv-x="1300" arabic-form="initial" 
d="M970 37h-10q-102 0 -167.5 45t-96.5 152q-24 -89 -80 -157q-38 -39 -83 -39h-38q-140 0 -193 199q-66 -195 -205 -195h-101v219h92q127 12 168.5 93t48.5 189q7 10 13 10q7 0 13 -10q10 -110 65 -192q49 -81 99 -81h50q115 0 154 266q5 7 11 7t12 -4q15 -84 40 -145.5
t70.5 -92.5t121.5 -31q86 0 106 20q19 18 19 36v3q-2 20 -89 182l102 172q8 13 15 13q8 0 15 -13q104 -179 104 -317v-15q0 -154 -62.5 -232t-193.5 -82zM574 1067l127 127l129 -129l-126 -127zM386 824l127 127l129 -129l-126 -127zM763 828l127 127l129 -129l-126 -127z
" />
    <glyph glyph-name="uniFEB8" unicode="&#x634;" horiz-adv-x="1400" arabic-form="medial" 
d="M1428 42h-127q-64 2 -117 33q-63 33 -103 150q-65 -188 -214 -188q-112 0 -187 183q-17 -66 -36.5 -98t-53.5 -57q-31 -23 -73 -23h-40q-81 0 -132 70q-29 33 -47 103q-45 -128 -139 -160q-41 -13 -95 -13h-68v219h124q52 1 94.5 36t79.5 191l8 51q6 9 14 9q7 0 12 -6
q29 -146 61 -198.5t61 -64t74 -11.5q118 0 164 277q7 9 14 9q8 0 16 -9q39 -159 61 -192q55 -86 114 -86q97 0 150 84q38 61 56 189q5 10 12 10q5 0 11 -7q64 -221 114 -253q43 -29 118 -29h74v-219zM570 1067l127 127l129 -129l-126 -127zM382 824l127 127l129 -129
l-126 -127zM759 828l127 127l129 -129l-126 -127z" />
    <glyph glyph-name="uniFEB9" unicode="&#x635;" horiz-adv-x="1800" arabic-form="isolated" 
d="M1424 434q-6 1 -11 1q-127 0 -251 -174h286q99 0 105 81v6q0 79 -129 86zM988 43q-47 6 -78 17q-10 -569 -512 -569q-394 0 -394 411q0 205 121 422l20 1q-47 -223 -47 -275q0 -270 195 -334q36 -9 142 -9q24 -1 47 -1q28 0 56 2q52 3 84 11q65 13 120 65q54 49 54 143
q0 130 -99 331l79 185l20 -9q72 -170 181 -173h63q175 309 344 350q37 6 56.5 8.5t49.5 2.5q108 0 171 -73q59 -65 63 -185v-16q0 -110 -46 -177q-104 -128 -210 -130h-400q-33 -29 -63 -101h-30q-1 10 -1 20q0 43 14 83z" />
    <glyph glyph-name="uniFEBA" unicode="&#x635;" horiz-adv-x="1900" arabic-form="final" 
d="M1424 434q-6 1 -11 1q-127 0 -253 -174h286q101 0 107 81v6q0 79 -129 86zM1715 261h205v-219h-72q-104 5 -168 125l-2 4q-104 -129 -210 -129h-400q-33 -30 -63 -102h-30q-1 10 -1 20q0 43 14 84q-47 5 -78 16q-10 -569 -512 -569q-394 0 -394 411q0 205 121 422l20 1
q-47 -223 -47 -275q0 -270 195 -334q36 -9 142 -9q24 -1 47 -1q28 0 56 2q52 3 84 11q65 13 120 65q54 49 54 143q0 130 -99 331l79 185l20 -9q72 -170 179 -173h63q177 309 346 350q37 6 56.5 8.5t49.5 2.5q108 0 171 -73q59 -65 63 -185v-16q0 -48 -9 -87z" />
    <glyph glyph-name="uniFEBB" unicode="&#x635;" horiz-adv-x="1400" arabic-form="initial" 
d="M997 434q-6 1 -11 1q-127 0 -253 -174h286q101 0 107 81v6q0 79 -129 86zM564 261q0 1 1 1v-1h46q177 309 346 350q37 6 56.5 8.5t49.5 2.5q108 0 171 -73q59 -65 63 -185v-16q0 -110 -46 -177q-104 -128 -212 -129h-400q-31 -30 -61 -102h-30q-1 10 -1 20q0 42 11 82
q-72 2 -129 30q-58 28 -93 105q-72 -134 -198 -135h-150v219h113q54 0 119 31q70 33 121 211h17q80 -235 206 -242z" />
    <glyph glyph-name="uniFEBC" unicode="&#x635;" horiz-adv-x="1400" arabic-form="medial" 
d="M975 434q-6 1 -11 1q-127 0 -253 -174h286q101 0 107 81v6q0 79 -129 86zM544 261h45q177 309 346 350q37 6 56.5 8.5t49.5 2.5q108 0 171 -73q59 -65 63 -185v-16q0 -48 -9 -87h158v-219h-63q-116 5 -168 89q-86 -88 -174 -88h-400q-33 -31 -63 -103h-30q-1 10 -1 20
q0 42 13 83q-73 1 -129 29q-58 28 -93 105q-72 -134 -198 -135h-130v219h102q50 0 110 31q70 33 121 211h17q80 -238 206 -242z" />
    <glyph glyph-name="uniFEBD" unicode="&#x636;" horiz-adv-x="1800" arabic-form="isolated" 
d="M1424 434q-6 1 -11 1q-127 0 -251 -174h286q99 0 105 81v6q0 79 -129 86zM988 43q-47 6 -78 17q-10 -569 -512 -569q-394 0 -394 411q0 205 121 422l20 1q-47 -223 -47 -275q0 -270 195 -334q36 -9 142 -9q24 -1 47 -1q28 0 56 2q52 3 84 11q65 13 120 65q54 49 54 143
q0 130 -99 331l79 185l20 -9q72 -170 181 -173h63q175 309 344 350q37 6 56.5 8.5t49.5 2.5q108 0 171 -73q59 -65 63 -185v-16q0 -110 -46 -177q-104 -128 -210 -130h-400q-33 -29 -63 -101h-30q-1 10 -1 20q0 43 14 83zM1169 871l127 127l129 -129l-126 -127z" />
    <glyph glyph-name="uniFEBE" unicode="&#x636;" horiz-adv-x="1900" arabic-form="final" 
d="M1424 434q-6 1 -11 1q-127 0 -253 -174h286q101 0 107 81v6q0 79 -129 86zM1715 261h205v-219h-72q-104 5 -168 125l-2 4q-104 -129 -210 -129h-400q-33 -30 -63 -102h-30q-1 10 -1 20q0 43 14 84q-47 5 -78 16q-10 -569 -512 -569q-394 0 -394 411q0 205 121 422l20 1
q-47 -223 -47 -275q0 -270 195 -334q36 -9 142 -9q24 -1 47 -1q28 0 56 2q52 3 84 11q65 13 120 65q54 49 54 143q0 130 -99 331l79 185l20 -9q72 -170 179 -173h63q177 309 346 350q37 6 56.5 8.5t49.5 2.5q108 0 171 -73q59 -65 63 -185v-16q0 -48 -9 -87zM1172 871
l127 127l129 -129l-126 -127z" />
    <glyph glyph-name="uniFEBF" unicode="&#x636;" horiz-adv-x="1400" arabic-form="initial" 
d="M997 434q-6 1 -11 1q-127 0 -253 -174h286q101 0 107 81v6q0 79 -129 86zM564 261q0 1 1 1v-1h46q177 309 346 350q37 6 56.5 8.5t49.5 2.5q108 0 171 -73q59 -65 63 -185v-16q0 -110 -46 -177q-104 -128 -212 -129h-400q-31 -30 -61 -102h-30q-1 10 -1 20q0 42 11 82
q-72 2 -129 30q-58 28 -93 105q-72 -134 -198 -135h-150v219h113q54 0 119 31q70 33 121 211h17q80 -235 206 -242zM771 871l127 127l129 -129l-126 -127z" />
    <glyph glyph-name="uniFEC0" unicode="&#x636;" horiz-adv-x="1400" arabic-form="medial" 
d="M975 434q-6 1 -11 1q-127 0 -253 -174h286q101 0 107 81v6q0 79 -129 86zM544 261h45q177 309 346 350q37 6 56.5 8.5t49.5 2.5q108 0 171 -73q59 -65 63 -185v-16q0 -48 -9 -87h158v-219h-63q-116 5 -168 89q-86 -88 -174 -88h-400q-33 -31 -63 -103h-30q-1 10 -1 20
q0 42 13 83q-73 1 -129 29q-58 28 -93 105q-72 -134 -198 -135h-130v219h102q50 0 110 31q70 33 121 211h17q80 -238 206 -242zM770 871l127 127l129 -129l-126 -127z" />
    <glyph glyph-name="uniFEC1" unicode="&#x637;" horiz-adv-x="1300" arabic-form="isolated" 
d="M916 434q-6 1 -12 1q-111 0 -287 -173h330q103 0 107 80v5q0 80 -138 87zM578 326q40 78 90 128t105 94t124 63q34 6 65 8.5t58 2.5q69 0 133 -60q75 -62 75 -157v-6q2 -17 2 -34q0 -72 -35 -136q-34 -67 -120 -129q-80 -59 -166 -59h-387q-29 -26 -39 -85h-36
q-2 18 -2 36q0 26 4 49h-103q-344 2 -344 297q0 34 6 71l26 15q59 -163 330 -163q70 0 91 1l-71 896q0 39 -10 79q0 60 61 119l102 110h17q26 -104 62 -228q-20 0 -33 -31q-5 -27 -5 -49v-832z" />
    <glyph glyph-name="uniFEC2" unicode="&#x637;" horiz-adv-x="1400" arabic-form="final" 
d="M936 434q-6 1 -12 1q-111 0 -286 -174h328q104 0 108 81v5q0 80 -138 87zM1225 263h199v-221h-71q-129 17 -187 118q-37 -35 -71 -60q-79 -58 -164 -58h-390q-28 -27 -38 -86h-36q-2 18 -2 36q0 26 5 50h-133q-335 1 -335 296q0 34 6 71l26 15q59 -163 320 -163
q100 0 121 1l-71 886q0 39 -10 79q0 60 61 119l102 110h17q26 -104 62 -228q-20 0 -33 -31q-5 -27 -5 -49v-822q40 78 90 128t105 94t124 63q34 6 65 8.5t58 2.5q69 0 133 -60q75 -62 75 -157v-6q2 -17 2 -34q0 -47 -25 -102z" />
    <glyph glyph-name="uniFEC3" unicode="&#x637;" horiz-adv-x="1100" arabic-form="initial" 
d="M690 434q-6 1 -12 1q-111 0 -287 -174h328q105 0 109 81v5q0 80 -138 87zM-22 261h251l-71 887q0 39 -10 79q0 60 61 119l102 110h17q26 -104 62 -228q-20 0 -33 -31q-5 -27 -5 -49v-822q40 78 90 128t105 94t124 63q34 6 65 8.5t58 2.5q69 0 133 -60q75 -62 75 -157v-6
q2 -17 2 -34q0 -72 -35 -136q-34 -67 -120 -129q-79 -58 -165 -58h-390q-27 -27 -37 -86h-36q-2 18 -2 36q0 26 4 50h-245v219z" />
    <glyph glyph-name="uniFEC4" unicode="&#x637;" horiz-adv-x="1100" arabic-form="medial" 
d="M690 434q-6 1 -12 1q-111 0 -287 -174h328q105 0 109 81v5q0 80 -138 87zM977 263h142v-221h-58q-94 16 -134 126q-32 -35 -78 -68q-79 -58 -164 -58h-390q-28 -27 -38 -86h-36q-2 18 -2 36q0 26 4 50h-245v219h251l-71 887q0 39 -10 79q0 60 61 119l102 110h17
q26 -104 62 -228q-20 0 -33 -31q-5 -27 -5 -49v-822q40 78 90 128t105 94t124 63q34 6 65 8.5t58 2.5q69 0 133 -60q75 -62 75 -157v-6q2 -17 2 -34q0 -46 -27 -102z" />
    <glyph glyph-name="uniFEC5" unicode="&#x638;" horiz-adv-x="1300" arabic-form="isolated" 
d="M916 434q-6 1 -12 1q-111 0 -287 -173h330q103 0 107 80v5q0 80 -138 87zM578 326q40 78 90 128t105 94t124 63q34 6 65 8.5t58 2.5q69 0 133 -60q75 -62 75 -157v-6q2 -17 2 -34q0 -72 -35 -136q-34 -67 -120 -129q-80 -59 -166 -59h-387q-29 -26 -39 -85h-36
q-2 18 -2 36q0 26 4 49h-103q-344 2 -344 297q0 34 6 71l26 15q59 -163 330 -163q70 0 91 1l-71 896q0 39 -10 79q0 60 61 119l102 110h17q26 -104 62 -228q-20 0 -33 -31q-5 -27 -5 -49v-832zM771 871l127 127l129 -129l-126 -127z" />
    <glyph glyph-name="uniFEC6" unicode="&#x638;" horiz-adv-x="1400" arabic-form="final" 
d="M936 434q-6 1 -12 1q-111 0 -286 -174h328q104 0 108 81v5q0 80 -138 87zM1225 263h199v-221h-71q-129 17 -187 118q-37 -35 -71 -60q-79 -58 -164 -58h-390q-28 -27 -38 -86h-36q-2 18 -2 36q0 26 5 50h-133q-335 1 -335 296q0 34 6 71l26 15q59 -163 320 -163
q100 0 121 1l-71 886q0 39 -10 79q0 60 61 119l102 110h17q26 -104 62 -228q-20 0 -33 -31q-5 -27 -5 -49v-822q40 78 90 128t105 94t124 63q34 6 65 8.5t58 2.5q69 0 133 -60q75 -62 75 -157v-6q2 -17 2 -34q0 -47 -25 -102zM770 871l127 127l129 -129l-126 -127z" />
    <glyph glyph-name="uniFEC7" unicode="&#x638;" horiz-adv-x="1100" arabic-form="initial" 
d="M694 434q-6 1 -12 1q-111 0 -287 -174h328q105 0 109 81v5q0 80 -138 87zM-18 261h251l-71 887q0 39 -10 79q0 60 61 119l102 110h17q26 -104 62 -228q-20 0 -33 -31q-5 -27 -5 -49v-822q40 78 90 128t105 94t124 63q34 6 65 8.5t58 2.5q69 0 133 -60q75 -62 75 -157v-6
q2 -17 2 -34q0 -72 -35 -136q-34 -67 -120 -129q-79 -58 -165 -58h-390q-27 -27 -37 -86h-36q-2 18 -2 36q0 26 4 50h-245v219zM479 871l127 127l129 -129l-126 -127z" />
    <glyph glyph-name="uniFEC8" unicode="&#x638;" horiz-adv-x="1100" arabic-form="medial" 
d="M694 434q-6 1 -12 1q-111 0 -287 -174h328q105 0 109 81v5q0 80 -138 87zM981 263h142v-221h-58q-94 16 -134 126q-32 -35 -78 -68q-79 -58 -164 -58h-390q-28 -27 -38 -86h-36q-2 18 -2 36q0 26 4 50h-245v219h251l-71 887q0 39 -10 79q0 60 61 119l102 110h17
q26 -104 62 -228q-20 0 -33 -31q-5 -27 -5 -49v-822q40 78 90 128t105 94t124 63q34 6 65 8.5t58 2.5q69 0 133 -60q75 -62 75 -157v-6q2 -17 2 -34q0 -46 -27 -102zM527 871l127 127l129 -129l-126 -127z" />
    <glyph glyph-name="uniFEC9" unicode="&#x639;" horiz-adv-x="1100" arabic-form="isolated" 
d="M1112 -353l-49 -70q-59 -57 -98 -80q-189 -122 -411 -122h-14q-271 1 -402 151q-73 80 -99 166q-17 56 -17 108q0 27 5 53q14 74 41 139t95.5 136t170.5 129q-26 38 -46.5 82.5t-20.5 97.5q0 194 135 312q40 38 98 60q54 22 122 30h8q56 0 116 -23.5t104 -61t59 -55.5
q10 -15 10 -40q0 -7 -2 -18h-287q-85 0 -138 -22q-69 -23 -85 -77q15 -81 157 -131q62 -19 120 -19h15q13 0 278 52q6 1 10 1q26 0 26 -19q0 -6 -2 -13q-12 -37 -92 -158q-8 -8 -78 -20q-516 -76 -617 -283q-19 -39 -19 -91v-15q3 -116 86 -187.5t238 -97.5q35 -7 90 -7
q42 0 96 4q96 0 200.5 35.5t160.5 87.5q6 2 10 2q24 0 26 -36z" />
    <glyph glyph-name="uniFECA" unicode="&#x639;" horiz-adv-x="1100" arabic-form="final" 
d="M1126 42h-217q-223 0 -378 225q-47 -26 -138.5 -94.5t-145 -146.5t-57.5 -169q-1 -6 -1 -12q0 -84 57 -154q61 -75 168 -92q135 -18 257 -18h25q136 0 209.5 14t191.5 73q35 -3 35 -22q0 -10 -8 -23q-222 -249 -516 -249q-39 -3 -77 -3q-269 0 -430 184q-71 91 -84 186
q-6 38 -6 75q0 58 13 115q21 95 115 211q145 143 271 226q-54 95 -231 138v15q9 28 80 206q81 16 169 69q124 33 158 36q20 1 53 1h43q62 -2 183 -39q138 -51 140 -98q0 -41 -14 -104q-18 -74 -48 -86l-132 -56q-69 -34 -127 -82q84 -107 202 -107h240v-219zM789 596
q-22 15 -97 30q-78 13 -120 13q-110 0 -144 -33l149 -132l208 102q4 5 4 20z" />
    <glyph glyph-name="uniFECB" unicode="&#x639;" horiz-adv-x="1000" arabic-form="initial" 
d="M905 336l-83 -209h-88q-119 -12 -201 -48t-216 -37h-321v219h244q-29 24 -46 107q-6 45 -6 108q11 185 160 301q87 60 204 60q129 0 208 -88q38 -67 38 -111q0 -22 -9 -44q-11 18 -91 35l-105 17h-12q-62 0 -111 -10q-96 -28 -134 -74q-21 -25 -21 -52q0 -34 17 -59
q34 -55 130 -80t205 -35h238z" />
    <glyph glyph-name="uniFECC" unicode="&#x639;" horiz-adv-x="1000" arabic-form="medial" 
d="M1015 42h-338q-115 0 -201 135q-38 -53 -95 -97q-51 -39 -125 -39q-10 0 -20 1h-250v219h441q-33 65 -179 163q-38 23 -154 74q16 146 69 189q106 141 359 149h29q209 0 319 -122q22 -23 26 -56q2 -15 2 -34q0 -24 -3 -55q-5 -67 -45 -95q-33 -27 -58 -38
q-135 -73 -169 -120q9 -26 29 -40.5t71 -14.5h292v-219zM707 558q-22 70 -136 75q-12 1 -24 1q-101 0 -198 -38q119 -56 210 -198z" />
    <glyph glyph-name="uniFECD" unicode="&#x63a;" horiz-adv-x="1100" arabic-form="isolated" 
d="M1112 -353l-49 -70q-59 -57 -98 -80q-189 -122 -411 -122h-14q-271 1 -402 151q-73 80 -99 166q-17 56 -17 108q0 27 5 53q14 74 41 139t95.5 136t170.5 129q-26 38 -46.5 82.5t-20.5 97.5q0 194 135 312q40 38 98 60q54 22 122 30h8q56 0 116 -23.5t104 -61t59 -55.5
q10 -15 10 -40q0 -7 -2 -18h-287q-85 0 -138 -22q-69 -23 -85 -77q15 -81 157 -131q62 -19 120 -19h15q13 0 278 52q6 1 10 1q26 0 26 -19q0 -6 -2 -13q-12 -37 -92 -158q-8 -8 -78 -20q-516 -76 -617 -283q-19 -39 -19 -91v-15q3 -116 86 -187.5t238 -97.5q35 -7 90 -7
q42 0 96 4q96 0 200.5 35.5t160.5 87.5q6 2 10 2q24 0 26 -36zM502 1123l127 127l129 -129l-126 -127z" />
    <glyph glyph-name="uniFECE" unicode="&#x63a;" horiz-adv-x="1100" arabic-form="final" 
d="M1125 42h-217q-223 0 -378 225q-47 -26 -138.5 -94.5t-145 -146.5t-57.5 -169q-1 -6 -1 -12q0 -84 57 -154q61 -75 168 -92q135 -18 257 -18h25q136 0 209.5 14t191.5 73q35 -3 35 -22q0 -10 -8 -23q-222 -249 -516 -249q-39 -3 -77 -3q-269 0 -430 184q-71 91 -84 186
q-6 38 -6 75q0 58 13 115q21 95 115 211q145 143 271 226q-54 95 -231 138v15q9 28 80 206q81 16 169 69q124 33 158 36q20 1 53 1h43q62 -2 183 -39q138 -51 140 -98q0 -41 -14 -104q-18 -74 -48 -86l-132 -56q-69 -34 -127 -82q84 -107 202 -107h240v-219zM788 596
q-22 15 -97 30q-78 13 -120 13q-110 0 -144 -33l149 -132l208 102q4 5 4 20zM509 1123l127 127l129 -129l-126 -127z" />
    <glyph glyph-name="uniFECF" unicode="&#x63a;" horiz-adv-x="1000" arabic-form="initial" 
d="M905 336l-83 -209h-88q-119 -12 -201 -48t-216 -37h-321v219h244q-29 24 -46 107q-6 45 -6 108q11 185 160 301q87 60 204 60q129 0 208 -88q38 -67 38 -111q0 -22 -9 -44q-11 18 -91 35l-105 17h-12q-62 0 -111 -10q-96 -28 -134 -74q-21 -25 -21 -52q0 -34 17 -59
q34 -55 130 -80t205 -35h238zM414 1122l127 127l129 -129l-126 -127z" />
    <glyph glyph-name="uniFED0" unicode="&#x63a;" horiz-adv-x="1000" arabic-form="medial" 
d="M1015 42h-338q-115 0 -201 135q-38 -53 -95 -97q-51 -39 -125 -39q-10 0 -20 1h-250v219h441q-33 65 -179 163q-38 23 -154 74q16 146 69 189q106 141 359 149h29q209 0 319 -122q22 -23 26 -56q2 -15 2 -34q0 -24 -3 -55q-5 -67 -45 -95q-33 -27 -58 -38
q-135 -73 -169 -120q9 -26 29 -40.5t71 -14.5h292v-219zM707 558q-22 70 -136 75q-12 1 -24 1q-101 0 -198 -38q119 -56 210 -198zM415 1122l127 127l129 -129l-126 -127z" />
    <glyph glyph-name="uniFED1" unicode="&#x641;" horiz-adv-x="1300" arabic-form="isolated" 
d="M1199 41q-16 -185 -141 -320q-183 -201 -496 -207l-120 3q-137 12 -234 78t-141 144.5t-48 176.5q-2 44 -2 82q0 43 2 77q5 61 38 149t90 166l36 -27l-17 -41q-38 -91 -38 -219q0 -20 1 -41q7 -155 138 -251q88 -53 268 -63q19 -2 38 -2q44 0 92 10q113 12 200 48
q198 85 198 214v23h-230q-141 13 -141 232v12q6 178 61 278q49 91 150 93h6q81 0 142 -55q108 -101 142 -293q11 -68 11 -131q0 -18 -1 -41zM1030 261q-6 60 -37 113q-40 68 -90 71q-10 1 -20 1q-74 0 -83 -92q5 -82 76 -93h154zM779 935l126 127l132 -129l-129 -127z" />
    <glyph glyph-name="uniFED2" unicode="&#x641;" horiz-adv-x="1300" arabic-form="final" 
d="M1317 42h-127q-5 -81 -46 -183q-42 -105 -97 -156q-138 -126 -252 -156q-107 -29 -199 -29h-54q-93 0 -153 4q-110 12 -246 108q-57 55 -94 125q-18 51 -34 108q-13 47 -13 127q0 14 1 30q2 100 20 160q40 137 76 149q14 -8 14 -30q0 -15 -6 -38q-18 -68 -18 -137
q0 -193 122 -280q118 -82 273 -92q26 -3 58 -3q51 0 117 7q114 12 199 48q198 85 198 215v23h-228q-142 13 -142 232v12q6 178 61 278q49 91 149 93h6q83 0 142 -55q105 -98 141 -310q3 -12 5 -31h127v-219zM1023 261q-6 61 -37 114q-40 68 -90 71q-10 1 -20 1
q-74 0 -82 -92q4 -82 77 -94h152zM772 938l127 127l130 -129l-129 -127z" />
    <glyph glyph-name="uniFED3" unicode="&#x641;" horiz-adv-x="700" arabic-form="initial" 
d="M178 1215l127 128l131 -130l-129 -128zM592 241q-17 -61 -60 -114q-74 -85 -255 -85h-281v219h328q121 0 121 75q0 44 -1 58h-172q-108 0 -151 36q-51 43 -51 134q4 165 90 288q60 87 149 87q12 0 25 -2q118 0 220 -201q42 -69 52 -224v-53q-3 -167 -14 -218zM432 549
q-4 32 -35 97q-51 85 -105 85q-78 0 -81 -95q-1 -6 -1 -12q0 -75 82 -75h140z" />
    <glyph glyph-name="uniFED4" unicode="&#x641;" horiz-adv-x="700" arabic-form="medial" 
d="M243 1116l127 127l131 -129l-130 -128zM722 42h-175q-110 0 -195 101q-105 -101 -242 -101h-114v219h236q-28 29 -61 82q-26 37 -43.5 89t-17.5 119q2 55 21 100q20 37 31 55q73 103 200 108h3q90 0 152 -54q46 -34 55 -70q31 -59 33 -141v-19q0 -110 -53 -191
q-25 -31 -60 -66q5 -12 41 -12h189v-219zM480 454q-12 120 -140 120q-70 0 -81 -30q-1 -10 -1 -20q0 -56 38 -114q36 -52 91 -88q93 54 93 132z" />
    <glyph glyph-name="uniFED5" unicode="&#x642;" horiz-adv-x="1300" arabic-form="isolated" 
d="M1198 46q-15 -190 -140 -325q-183 -201 -496 -207l-120 3q-137 12 -234 78t-141 144.5t-48 176.5q-2 44 -2 82q0 43 2 77q5 61 38 149t90 166l36 -27l-17 -41q-38 -91 -38 -219q0 -20 1 -41q7 -155 138 -251q88 -53 268 -63q19 -2 38 -2q44 0 92 10q113 12 200 48
q198 85 198 214v23h-230q-141 13 -141 232v12q6 178 61 278q49 91 150 93h6q81 0 142 -55q108 -101 142 -293q11 -68 11 -131q0 -18 -1 -41zM1029 261q-5 60 -36 113q-40 68 -90 71q-10 1 -20 1q-74 0 -83 -92q5 -82 75 -93h154zM924 938l126 127l132 -129l-129 -127z
M619 938l126 127l132 -129l-129 -127z" />
    <glyph glyph-name="uniFED6" unicode="&#x642;" horiz-adv-x="1300" arabic-form="final" 
d="M627 928l127 127l130 -129l-129 -127zM927 928l127 127l131 -129l-129 -127zM1323 42h-130q-5 -81 -46 -183q-42 -105 -97 -156q-138 -126 -252 -156q-107 -29 -199 -29h-54q-93 0 -153 4q-110 12 -246 108q-57 55 -94 125q-18 51 -34 108q-13 47 -13 127q0 14 1 30
q2 100 20 160q40 137 76 149q14 -8 14 -30q0 -15 -6 -38q-18 -68 -18 -137q0 -193 122 -280q118 -82 273 -92q26 -3 58 -3q51 0 117 7q114 12 199 48q198 85 198 215v23h-228q-142 13 -142 232v12q6 178 61 278q49 91 149 93h6q83 0 142 -55q105 -98 141 -310q3 -12 5 -31
h130v-219zM1026 261q-6 61 -37 114q-40 68 -90 71q-10 1 -20 1q-74 0 -82 -92q4 -82 77 -94h152z" />
    <glyph glyph-name="uniFED7" unicode="&#x642;" horiz-adv-x="700" arabic-form="initial" 
d="M592 241q-17 -61 -60 -114q-74 -85 -255 -85h-281v219h328q121 0 121 75q0 44 -1 58h-172q-108 0 -151 36q-51 43 -51 134q4 165 90 288q60 87 149 87q12 0 25 -2q118 0 220 -201q42 -69 52 -224v-53q-3 -167 -14 -218zM432 549q-4 32 -35 97q-51 85 -105 85
q-78 0 -81 -95q-1 -6 -1 -12q0 -75 82 -75h140zM15 1210l128 128l131 -130l-129 -128zM327 1210l127 128l131 -130l-130 -128z" />
    <glyph glyph-name="uniFED8" unicode="&#x642;" horiz-adv-x="700" arabic-form="medial" 
d="M722 42h-175q-110 0 -195 101q-105 -101 -242 -101h-114v219h236q-28 29 -61 82q-26 37 -43.5 89t-17.5 119q2 55 21 100q20 37 31 55q73 103 200 108h3q90 0 152 -54q46 -34 55 -70q31 -59 33 -141v-19q0 -110 -53 -191q-25 -31 -60 -66q5 -12 41 -12h189v-219zM480 454
q-12 120 -140 120q-70 0 -81 -30q-1 -10 -1 -20q0 -56 38 -114q36 -52 91 -88q93 54 93 132zM74 1079l127 127l131 -129l-129 -128zM375 1079l127 127l131 -129l-130 -128z" />
    <glyph glyph-name="uniFED9" unicode="&#x643;" horiz-adv-x="1300" arabic-form="isolated" 
d="M790 682q10 -18 10 -53q-35 -126 -90 -155q-42 -22 -85 -22h-297v3q0 73 83 98h139q98 0 126 33q6 11 6 19q0 36 -92 42q-42 7 -118 17q-147 22 -147 106q0 98 172 158q90 27 141 28h18q70 0 80 -28q7 -10 7 -16q0 -22 -15 -40q-22 -23 -72 -23q-9 0 -19 1h-22
q-64 0 -104 -15q-47 -18 -50 -35q-1 -2 -1 -5q0 -13 18 -20q20 -8 103 -24.5t138 -32.5t71 -36zM1009.5 95.5q-80.5 -53.5 -196.5 -54.5h-485q-149 1 -246 91q-71 68 -78 204v10q0 140 100 256l24 -11q-14 -68 -14 -115q-1 -12 -1 -24q0 -89 69 -138q73 -52 212 -52h423
q178 4 178 162l-1 730q0 83 -23 112q-8 10 -8 22q0 24 32 60l110 102q11 9 19 9q13 0 18 -22l61 -197l-30 -47l1 -775q-2 -97 -41 -180q-43 -89 -123.5 -142.5z" />
    <glyph glyph-name="uniFEDA" unicode="&#x643;" horiz-adv-x="1400" arabic-form="final" 
d="M1414 43h-92q-159 0 -232 182q-47 -82 -129 -130.5t-211 -53.5l-466 1q-141 9 -211 93q-59 62 -66 201v9q0 139 100 254l35 -18q-25 -58 -25 -117q0 -60 33 -114q57 -80 191 -89h494q192 22 197 187l2 882l137 124q8 7 13 7q7 0 7 -17l-1 -1036q8 -94 41 -120t84 -26h99
v-219zM740 707q54 -15 71 -35q10 -18 10 -53q-36 -107 -100 -144q-58 -33 -94 -33h-278v3q0 73 82 98h140q98 0 125 33q6 11 6 20q0 35 -91 41q-42 7 -118 17q-148 22 -148 106q0 98 160 155q102 30 154 31h18q70 0 80 -28q6 -10 6 -16q0 -22 -15 -40q-21 -23 -71 -23
q-9 0 -19 1h-22q-64 0 -104 -15q-48 -18 -51 -35q-1 -2 -1 -5q0 -13 18 -20q20 -8 120 -26q38 -12 122 -32z" />
    <glyph glyph-name="uniFEDB" unicode="&#x643;" horiz-adv-x="900" arabic-form="initial" 
d="M922 1323l-49 -231l-515 -225l211 -157q256 -177 259 -355q0 -177 -120 -263q-77 -37 -129 -45q-26 -5 -149 -5h-434v219h590q47 0 62 38q2 14 2 26q0 63 -181 199l-317 234q-19 16 -19 37q0 4 1 8q4 26 32 97.5t63 125.5z" />
    <glyph glyph-name="uniFEDC" unicode="&#x643;" horiz-adv-x="1100" arabic-form="medial" 
d="M1115 42h-84q-80 0 -158 48q-43 26 -185 158q-23 -88 -141 -161q-70 -45 -281 -45h-270v219h429q52 0 97 19q68 22 68 65q0 16 -17 28q-40 44 -229 158l-138 83q-90 55 -90 117q0 32 62 253l705 351l-27 -218l-576 -291q282 -149 454 -329l189 -169.5t122 -65.5h70v-220z
" />
    <glyph glyph-name="uniFEDD" unicode="&#x644;" horiz-adv-x="1000" arabic-form="isolated" 
d="M956 1217q-38 -40 -43 -90v-960q0 -356 -199 -535q-117 -74 -237 -74h-27q-18 -1 -41 -1q-45 0 -104 15q-129 32 -216 142q-81 112 -86 261q-2 19 -2 37q10 119 22.5 177.5t28 96t33 72.5t35.5 35q22 0 22 -25q0 -12 -13 -67t-15 -103.5t-2 -81.5q6 -180 99 -266
q89 -82 251 -82h15q74 6 170 61q95 60 117 193q4 49 4 100q0 50 -4 102l-57 957q-1 14 -1 27q0 81 27 107q9 8 145 141l22 -71z" />
    <glyph glyph-name="uniFEDE" unicode="&#x644;" horiz-adv-x="1200" arabic-form="final" 
d="M914 395q14 -44 43 -73q58 -58 133 -61h130v-219h-104q-131 0 -202 113q-3 -347 -199 -523q-117 -74 -237 -74h-27q-18 -1 -41 -1q-45 0 -104 15q-129 32 -216 142q-81 112 -86 261q-2 19 -2 37q10 119 22.5 177.5t28 96t33 72.5t35.5 35q22 0 22 -25q0 -12 -13 -67
t-15 -103.5t-2 -81.5q6 -180 99 -266q89 -82 251 -82h15q74 6 170 61q95 60 117 193q4 49 4 100q0 50 -4 102l-29 1086l143 146q10 9 18 9q11 0 17 -18v-1052z" />
    <glyph glyph-name="uniFEDF" unicode="&#x644;" horiz-adv-x="500" arabic-form="initial" 
d="M422 1228q-10 -38 -22 -55q-8 -42 -8 -77v-760q0 -68 -35 -135q-71 -159 -263 -159h-98v219h145q32 0 57 19q22 16 22 43v759l-22 161v5q0 56 78 122q65 61 108 89l14 -140q4 -43 24 -91z" />
    <glyph glyph-name="uniFEE0" unicode="&#x644;" horiz-adv-x="600" arabic-form="medial" 
d="M626 42h-85q-66 0 -134 39q-85 62 -107 143q-54 -132 -173 -169q-39 -13 -59 -13h-72v219h39q87 0 137.5 28.5t57.5 114.5l-1 795v13q0 54 -23 109l149 126q15 13 24 13q15 0 17 -29l1 -1034q3 -90 48 -114q40 -22 82 -22h99v-219z" />
    <glyph glyph-name="uniFEE1" unicode="&#x645;" horiz-adv-x="1000" arabic-form="isolated" 
d="M921 247q-15 -84 -50 -137q-28 -41 -87 -69q-50 -25 -95 -25q-8 0 -16 1q-108 8 -171 55q-42 33 -80 111q-50 -66 -110 -80q-38 -11 -86 -11q-72 0 -72 -87v-12l21 -423q-24 -180 -155 -208v801q11 96 90 134q48 14 85 14h48q114 7 202 122q90 118 165 140q45 15 90 15
q30 0 61 -5q74 -15 127 -100q38 -60 38 -153q0 -39 -5 -83zM800 264q1 8 1 16q0 81 -152 109q-101 -3 -119 -37q12 -54 86 -101q66 -43 120 -43h11q50 9 53 56z" />
    <glyph glyph-name="uniFEE2" unicode="&#x645;" horiz-adv-x="1100" arabic-form="final" 
d="M1123 42h-107q-111 0 -161 50q-7 -67 -26.5 -99t-76.5 -75q-38 -29 -107 -31h-8q-106 0 -195 103q-51 52 -55 143q-29 -46 -65.5 -68t-65.5 -23q-72 0 -72 -87v-12l21 -383q-24 -185 -155 -195v748q0 84 63 118q53 30 146 30q63 0 110 48q7 9 75 117q80 118 170 123
q10 2 21 2q75 0 128 -45q46 -40 98 -131q37 -63 54 -79q35 -35 83 -35h125v-219zM765 137q0 51 -26 111q-56 94 -155 97q-84 -9 -84 -92q0 -63 81 -106q62 -34 129 -34h4q51 0 51 21v3z" />
    <glyph glyph-name="uniFEE3" unicode="&#x645;" horiz-adv-x="900" arabic-form="initial" 
d="M802 302v-12q0 -33 -6 -82q-17 -82 -82 -149q-66 -65 -144 -73q-16 -4 -30 -4q-78 0 -141 37q-74 24 -131 124q-63 -101 -184 -101h-88v219h63q134 0 183 62l76 112q46 66 90 98q54 31 98 31q88 0 151.5 -36t100.5 -91q15 -25 29 -54q12 -38 15 -81zM659 241
q-4 39 -55 77q-47 33 -108 40q-24 4 -42 4q-56 0 -69 -37q36 -107 199 -145q75 0 75 61z" />
    <glyph glyph-name="uniFEE4" unicode="&#x645;" horiz-adv-x="1000" arabic-form="medial" 
d="M1019 42h-101q-118 0 -165 50q-16 -98 -33 -121q-23 -51 -74.5 -91.5t-121.5 -40.5h-4q-149 0 -219 140q-34 63 -40 154q-53 -66 -115 -80q-40 -11 -120 -11h-30v219h128q70 0 119 48q4 7 79 117q80 118 178 123q12 2 20 2q78 0 134 -43q47 -37 101 -133q40 -63 57 -80
q35 -34 88 -34h119v-219zM655 127q0 50 -29 108q-59 94 -159 101q-86 -11 -86 -95q0 -66 76 -121q74 -50 142 -50h3q53 2 53 53v4z" />
    <glyph glyph-name="uniFEE5" unicode="&#x646;" horiz-adv-x="1100" arabic-form="isolated" 
d="M1028 113v-31q0 -154 -45 -243q-94 -174 -278 -234q-104 -33 -216 -38h-34q-254 0 -367 166q-67 96 -82 249q-3 37 -3 67q0 118 41 234q49 128 112 190q7 1 12 1q22 0 22 -22q0 -4 -1 -9q-66 -175 -68 -265v-8q0 -178 86 -279q74 -87 229 -98q28 -4 61 -4q122 0 221 37
q83 30 124 74.5t41 111.5q-4 141 -60 246l-60 102q0 31 62 118q38 81 62 81t55 -67q79 -176 86 -379zM372 672l126 128l131 -130l-130 -127z" />
    <glyph glyph-name="uniFEE6" unicode="&#x646;" horiz-adv-x="1200" arabic-form="final" 
d="M1161 42q-89 0 -154 50q13 -37 13 -82q0 -67 -14 -171q-61 -231 -290 -327q-97 -30 -222 -32h-16q-16 -1 -32 -1q-258 0 -380 187q-64 118 -64 279q0 75 17 162q16 134 132 266l36 -17q-67 -155 -71 -225q-1 -19 -1 -39q0 -54 8 -113q11 -81 48.5 -139.5t111.5 -97.5
t200 -42h89q99 3 197 61t131 163q-6 206 -117 366q14 65 98 202h21q45 -127 121 -190q55 -41 134 -41h73v-219h-69zM371 672l126 128l131 -130l-130 -127z" />
    <glyph glyph-name="uniFEE7" unicode="&#x646;" horiz-adv-x="600" arabic-form="initial" 
d="M516 376v-20q0 -59 -14 -124q-18 -78 -79 -139q-56 -50 -192 -50l-235 2v216h277q68 13 70 53v3q0 53 -61 164l-51 68l154 154q121 -161 131 -327zM127 1017l127 127l129 -129l-126 -127z" />
    <glyph glyph-name="uniFEE8" unicode="&#x646;" horiz-adv-x="600" arabic-form="medial" 
d="M626 42h-90q-45 0 -106 32.5t-123 164.5q-43 -108 -98 -156q-46 -41 -112 -41h-101v219h98q40 0 68 13q31 15 60 69t64 180q4 20 16 20q10 0 17 -21q31 -122 62 -169.5t71 -70.5q36 -21 104 -21h70v-219zM165 867l127 127l129 -129l-126 -127z" />
    <glyph glyph-name="uniFEE9" unicode="&#x647;" horiz-adv-x="700" arabic-form="isolated" 
d="M596 390v-15q0 -160 -65 -258q-73 -101 -221 -101q-185 1 -192 178q-2 11 -2 25q0 168 79 300q89 157 158 199q95 -57 167.5 -135t75.5 -193zM475 279q4 14 4 29q0 25 -12 53q-20 45 -52.5 80t-82.5 64q-43 -22 -72 -78q-26 -49 -26 -104q0 -9 1 -18q5 -63 106 -63h9
q112 1 125 37z" />
    <glyph glyph-name="uniFEEA" unicode="&#x647;" horiz-adv-x="800" arabic-form="final" 
d="M824 42h-193q-152 8 -194 145q-89 -75 -197 -75q-66 0 -111 31q-55 35 -55 100q0 93 55 180.5t123 154.5q50 50 139 90v99l182 125v-530q3 -101 125 -101h126v-219zM391 362v180q-46 -17 -108 -79.5t-65 -114.5v-6q0 -46 48 -51q3 -1 7 -1q49 0 118 72z" />
    <glyph glyph-name="uniFEEB" unicode="&#x647;" horiz-adv-x="1100" arabic-form="initial" 
d="M-12 261h265q-31 20 -48 56q-9 31 -9 61q0 59 33 123q56 105 175 183q-27 20 -78 48l108 161q10 23 27 23q12 0 29 -14q67 -34 218 -135t203 -145q98 -85 98 -188v-9q0 -84 -24 -157q-40 -87 -84 -132q-51 -62 -124 -88q-42 -16 -104 -16q-12 0 -27 1q-63 4 -125 23
q-58 14 -92 40q-32 -22 -93 -39q-43 -15 -115 -15h-233v219zM863 353q0 41 -35 81q-33 31 -78 54q-2 -68 -26 -126q-32 -67 -87 -100q51 -11 85 -11q141 0 141 102zM590 411v10q0 55 -37 90q-42 37 -100 39h-5q-56 0 -91 -33q-37 -34 -37 -77t58 -86q64 -44 117 -53
q95 47 95 110z" />
    <glyph glyph-name="uniFEEC" unicode="&#x647;" horiz-adv-x="900" arabic-form="medial" 
d="M605 -144q0 126 -105 166q-58 20 -136 20h-23v-20q0 -66 34 -130q60 -107 154 -107q76 0 76 71zM-15 261h229l3 51q16 115 77 229q80 143 148 185q55 31 116 31q19 0 35 -4q150 -32 162 -189q-22 -188 -138 -303h306v-219h-195q27 -99 27 -143q0 -186 -150 -290
q-47 -33 -100 -33h-5q-132 6 -216 155q-67 123 -95 311h-204v219zM590 463v4q0 40 -19 63q-21 23 -58 23q-6 2 -12 2q-19 0 -45 -14q-71 -33 -111 -173q-17 -62 -17 -107h122q65 19 110 97q22 40 30 105z" />
    <glyph glyph-name="uniFEED" unicode="&#x648;" horiz-adv-x="800" arabic-form="isolated" 
d="M516 261q-48 159 -152 159q-32 0 -53 -26t-21 -58q0 -69 44 -75h182zM555 42h-140q-136 0 -184 51.5t-48 140.5q0 117 46 227q58 150 178 150h15q76 0 140 -78q84 -100 118 -270q12 -72 14 -159h1v-51q0 -214 -106 -367q-94 -150 -274 -158q-178 17 -268 100
q-13 13 -13 21q0 10 20 13q259 49 412 179q92 78 92 166v13q0 9 -3 22z" />
    <glyph glyph-name="uniFEEE" unicode="&#x648;" horiz-adv-x="900" arabic-form="final" 
d="M510 261q-48 159 -152 159q-32 0 -53 -26t-21 -58q0 -69 44 -75h182zM674 261h248v-219h-233q-3 -207 -106 -357q-94 -150 -274 -158q-178 17 -268 100q-13 13 -13 21q0 10 20 13q259 49 412 179q92 78 92 167v13q0 9 -3 22h-140q-136 0 -184 51.5t-48 140.5
q0 117 46 227q58 150 178 150h15q76 0 140 -78q84 -100 118 -270v-2z" />
    <glyph glyph-name="uniFEEF" unicode="&#x649;" horiz-adv-x="1200" arabic-form="isolated" 
d="M1122 809q-15 -95 -31 -157q-17 -33 -57 -36q-109 -22 -194 -68q-39 -34 -39 -65q0 -3 1 -6q5 -34 70 -42q58 -9 131 -35q89 -36 89 -129q0 -8 -1 -16q-10 -251 -197 -386.5t-473 -137.5q-418 20 -418 389v15q2 184 120 393q9 6 14 6q10 0 10 -18q0 -5 -1 -10
q-45 -122 -55 -221q17 -320 363 -340h55q164 2 303.5 60t150.5 148q-17 62 -140 67q-146 19 -146 156q14 322 422 441q8 5 12 5q10 0 11 -13z" />
    <glyph glyph-name="uniFEF0" unicode="&#x649;" horiz-adv-x="1100" arabic-form="final" 
d="M782 0q-1 -4 -1 -7q0 -27 29 -38l84 -1q85 -3 85 -100q-7 -142 -81 -251.5t-180 -134.5q-84 -20 -149 -20l-114 1q-69 0 -173 29q-108 38 -189 126q-91 105 -91 297v27q0 175 106 355q4 2 10 2q8 0 8 -24q-33 -83 -36 -163q-4 -40 -4 -75q0 -127 53 -203
q67 -99 155.5 -121.5t159.5 -24.5h80q107 0 162 12q62 13 95 36.5t58 67.5q4 12 4 21q0 25 -28 30h-63q-85 12 -97 104v8q0 119 61 208q63 92 204 100h193v-219h-292q-46 -10 -49 -42z" />
    <glyph glyph-name="uniFEF1" unicode="&#x64a;" horiz-adv-x="1200" arabic-form="isolated" 
d="M1122 809q-15 -95 -31 -157q-17 -33 -57 -36q-109 -22 -194 -68q-39 -34 -39 -65q0 -3 1 -6q5 -34 70 -42q58 -9 131 -35q89 -36 89 -129q0 -8 -1 -16q-10 -251 -197 -386.5t-473 -137.5q-418 20 -418 389v15q2 184 120 393q9 6 14 6q10 0 10 -18q0 -5 -1 -10
q-45 -122 -55 -221q17 -320 363 -340h55q164 2 303.5 60t150.5 148q-17 62 -140 67q-146 19 -146 156q14 322 422 441q8 5 12 5q10 0 11 -13zM272 -492l127 127l129 -129l-126 -127zM597 -492l127 127l129 -129l-126 -127z" />
    <glyph glyph-name="uniFEF2" unicode="&#x64a;" horiz-adv-x="1100" arabic-form="final" 
d="M812 0q-1 -4 -1 -7q0 -27 37 -39h86q85 -3 85 -100q-9 -156 -87 -233.5t-184 -102.5q-84 -20 -149 -20q-12 0 -51 1h-93q-69 0 -173 29q-108 38 -189 116q-91 95 -91 257v27q0 175 106 355q4 2 10 2q8 0 8 -24q-33 -83 -36 -163q-4 -40 -4 -75q0 -117 53 -183
q67 -79 155.5 -96.5t233.5 -19.5h36q117 0 175.5 7.5t91.5 16t58 42.5q4 12 4 21q0 25 -28 30h-73q-85 12 -97 104v8q0 119 61 208q63 92 204 100h163v-219h-262q-46 -10 -49 -42zM287 -655l127 112l130 -113l-129 -112zM573 -655l126 112l131 -113l-129 -112z" />
    <glyph glyph-name="uniFEF3" unicode="&#x64a;" horiz-adv-x="700" arabic-form="initial" 
d="M600 375v-20q0 -59 -13 -124q-18 -78 -79 -139q-56 -50 -192 -50h-320v219h367q63 12 65 52v3q0 53 -61 163l-51 69l154 154q121 -161 130 -327zM53 -235l127 128l130 -130l-129 -127zM339 -235l126 128l131 -130l-129 -127z" />
    <glyph glyph-name="uniFEF4" unicode="&#x64a;" horiz-adv-x="600" arabic-form="medial" 
d="M320 -228l127 127l129 -129l-126 -127zM24 -228l127 127l129 -129l-126 -127zM616 42h-90q-45 0 -106 32.5t-123 164.5q-43 -108 -98 -156q-46 -41 -112 -41h-101v219h98q40 0 68 13q31 15 60 69t64 180q4 20 16 20q10 0 17 -21q31 -122 62 -169.5t71 -70.5
q36 -21 104 -21h70v-219z" />
    <glyph glyph-name=".notdef" horiz-adv-x="748" 
d="M68 0v1365h544v-1365h-544zM136 68h408v1229h-408v-1229z" />
    <glyph glyph-name=".null" horiz-adv-x="0" 
 />
    <glyph glyph-name="nonmarkingreturn" horiz-adv-x="682" 
 />
    <glyph glyph-name="uni00A0" unicode=" " horiz-adv-x="569" 
 />
    <glyph glyph-name="uni00A0" unicode="&#xa0;" horiz-adv-x="569" 
 />
    <glyph glyph-name="exclam" unicode="!" horiz-adv-x="599" 
d="M379 397h-148l-24 1012h196zM205 0v201h194v-201h-194z" />
    <glyph glyph-name="quotedbl" unicode="&#x22;" horiz-adv-x="799" 
d="M658 966h-142l-20 443h184zM289 966h-141l-21 443h184z" />
    <glyph glyph-name="numbersign" unicode="#" horiz-adv-x="1200" 
d="M926 885l-78 -369h260v-108h-283l-88 -408h-110l86 408h-363l-84 -408h-110l84 408h-201v108h225l78 369h-252v108h274l89 408h110l-88 -408h363l88 408h110l-88 -408h211v-108h-233zM455 885l-80 -369h362l78 369h-360z" />
    <glyph glyph-name="dollar" unicode="$" 
d="M498 20q-217 9 -339.5 101.5t-156.5 257.5l170 37q11 -53 34 -96.5t62 -75.5t95.5 -51.5t134.5 -24.5v496l-20 5q-77 18 -151 43t-132 66.5t-93.5 105.5t-35.5 162q0 84 32 146t89.5 103.5t136.5 63.5t174 26v131h124v-131q100 -5 172.5 -27.5t123.5 -62.5t84 -97.5
t53 -132.5l-174 -33q-20 94 -81 146.5t-178 63.5v-445q59 -14 116 -29t108.5 -35.5t95.5 -48.5t76 -67.5t50 -94t18 -126.5q0 -77 -28 -142.5t-85 -115.5t-144.5 -81t-206.5 -37v-162h-124v162zM914 394q0 63 -23.5 103t-64 65.5t-93.5 41.5t-111 31v-468q65 4 119 19.5
t92.5 43.5t59.5 68.5t21 95.5zM238 1048q0 -54 20 -91t55 -62t82.5 -41.5t102.5 -30.5v421q-72 -4 -122 -20.5t-80.5 -42.5t-44 -60t-13.5 -73z" />
    <glyph glyph-name="percent" unicode="%" horiz-adv-x="1799" 
d="M1728 434q0 -125 -25.5 -210.5t-69 -138t-101.5 -75t-124 -22.5t-123.5 22.5t-100 74.5t-67 137.5t-24.5 211.5q0 133 24 220t67 138.5t101.5 72t126.5 20.5q66 0 123.5 -20.5t100 -72t67.5 -138.5t25 -220zM507 0h-155l922 1409h157zM374 1421q64 0 121 -20.5t100 -71.5
t67.5 -137t24.5 -217q0 -126 -25 -212t-67.5 -139.5t-100.5 -76.5t-124 -23q-67 0 -125 23t-100.5 76t-67 139t-24.5 213q0 131 24.5 217t67.5 137t102 71.5t127 20.5zM1580 434q0 99 -11 164.5t-32.5 104.5t-53 55t-71.5 16q-42 0 -74 -16.5t-54 -55.5t-33 -104.5
t-11 -163.5q0 -95 11.5 -159t33 -103.5t53 -56.5t72.5 -17q39 0 70.5 17t53.5 56.5t34 103.5t12 159zM540 975q0 98 -11 163t-32 104t-52 55t-71 16q-43 0 -75.5 -16.5t-54.5 -55.5t-33 -104t-11 -162q0 -95 11.5 -160t33 -104.5t53.5 -56.5t74 -17q38 0 69 17t53 56.5
t34 104.5t12 160z" />
    <glyph glyph-name="ampersand" unicode="&#x26;" horiz-adv-x="1299" 
d="M1153 -12q-96 0 -168 33t-130 94q-30 -26 -68 -50t-84.5 -43t-101 -30.5t-118.5 -11.5q-117 0 -202.5 30t-140.5 82.5t-81.5 124t-26.5 154.5q0 79 25.5 143.5t71 117t108.5 94t138 74.5q-18 34 -32.5 72.5t-25.5 77.5t-17 78t-6 74q0 66 20 123.5t62.5 100t109 67
t159.5 24.5q73 0 134.5 -19t106.5 -55t70 -89t25 -121q0 -75 -33 -133.5t-89 -104.5t-130 -83.5t-157 -70.5q62 -114 135 -214.5t158 -197.5q61 90 101.5 189.5t69.5 220.5l145 -43q-35 -139 -88.5 -252.5t-123.5 -216.5q53 -54 106 -76t102 -22q32 0 61.5 3.5t55.5 12.5
v-135q-28 -11 -65.5 -16.5t-75.5 -5.5zM829 1133q0 37 -13.5 67t-37.5 51.5t-58.5 33t-76.5 11.5q-96 0 -146 -51.5t-50 -142.5q0 -59 18.5 -123.5t46.5 -120.5q65 26 123 53.5t101 60t68 72t25 89.5zM755 217q-89 105 -171 220t-148 237q-113 -48 -174.5 -122t-61.5 -179
q0 -55 17.5 -102.5t53.5 -83t90.5 -56t127.5 -20.5q44 0 83.5 9.5t73.5 24.5t61.5 34t47.5 38z" />
    <glyph glyph-name="quotesingle" unicode="'" horiz-adv-x="501" 
d="M326 966h-141l-21 443h184z" />
    <glyph glyph-name="parenleft" unicode="(" horiz-adv-x="701" 
d="M107 532q0 139 21 266t66 244t115 227t167 215h174q-94 -105 -162.5 -215.5t-112.5 -228t-65.5 -244.5t-21.5 -266t21.5 -266t65.5 -245t112.5 -228t162.5 -215h-174q-97 105 -167 215t-115 227t-66 243.5t-21 266.5v4z" />
    <glyph glyph-name="parenright" unicode=")" horiz-adv-x="701" 
d="M605 528q0 -140 -21 -266.5t-66 -243.5t-115 -227t-167 -215h-174q94 105 162.5 215t112.5 228t65.5 245t21.5 266t-21.5 266t-65.5 244.5t-112.5 228t-162.5 215.5h174q97 -105 167 -215t115 -227t66 -244t21 -266v-4z" />
    <glyph glyph-name="asterisk" unicode="*" horiz-adv-x="799" 
d="M456 1114l264 103l45 -132l-282 -73l185 -250l-119 -72l-150 258l-156 -256l-119 72l189 248l-280 73l45 134l267 -107l-12 297h136z" />
    <glyph glyph-name="plus" unicode="+" horiz-adv-x="1200" 
d="M671 608v-428h-147v428h-424v146h424v428h147v-428h424v-146h-424z" />
    <glyph glyph-name="comma" unicode="," horiz-adv-x="569" 
d="M385 219v-168q0 -53 -4.5 -96.5t-14.5 -81t-24.5 -70.5t-34.5 -65h-123q45 65 69.5 131t24.5 131h-88v219h195z" />
    <glyph glyph-name="uni00AD" unicode="-" horiz-adv-x="1100" 
d="M214 142v160h661v-160h-661z" />
    <glyph glyph-name="uni00AD" unicode="&#xad;" horiz-adv-x="1100" 
d="M214 142v160h661v-160h-661z" />
    <glyph glyph-name="period" unicode="." horiz-adv-x="599" 
d="M187 0v219h195v-219h-195z" />
    <glyph glyph-name="slash" unicode="/" horiz-adv-x="599" 
d="M10 -20l411 1504h158l-407 -1504h-162z" />
    <glyph glyph-name="zero" unicode="0" 
d="M1039 705q0 -203 -38.5 -341.5t-105 -224t-156.5 -122.5t-192 -37q-103 0 -192 37t-154.5 122t-103 223.5t-37.5 342.5q0 213 37.5 352.5t103.5 222.5t156 116.5t196 33.5q101 0 189.5 -33.5t154.5 -116.5t104 -222.5t38 -352.5zM856 705q0 168 -20 279.5t-59 178
t-95.5 94t-128.5 27.5q-76 0 -134 -28t-97.5 -94.5t-59.5 -178t-20 -278.5q0 -162 20.5 -273t60 -178.5t96.5 -97t130 -29.5q71 0 128 29.5t96.5 97t61 178.5t21.5 273z" />
    <glyph glyph-name="one" unicode="1" horiz-adv-x="1000" 
d="M96 0v153h339v1084l-318 -227v170l333 229h166v-1256h313v-153h-833z" />
    <glyph glyph-name="two" unicode="2" 
d="M95 0v127q51 117 124.5 206.5t154.5 162t160.5 134.5t143.5 124t103.5 130t39.5 154q0 60 -18 105.5t-52 76.5t-81.5 46.5t-105.5 15.5q-54 0 -101.5 -15t-84.5 -45t-60.5 -74.5t-30.5 -103.5l-184 17q9 76 42 143t91 117.5t139.5 79.5t188.5 29q105 0 187 -25t138.5 -74
t86.5 -121t30 -166q0 -71 -25.5 -135t-68 -122t-98.5 -112t-117 -105.5l-123 -102t-116.5 -101.5t-97.5 -103.5t-67 -109.5h735v-153h-933z" />
    <glyph glyph-name="three" unicode="3" 
d="M1035 389q0 -97 -31.5 -173t-92 -128.5t-150 -80t-204.5 -27.5q-131 0 -220.5 32.5t-147.5 86t-87 122t-38 141.5l186 17q8 -56 29.5 -102t58.5 -79t91 -51t128 -18q136 0 213.5 67t77.5 199q0 78 -34.5 125.5t-86 74t-112 35.5t-111.5 9h-102v156h98q51 0 106 10.5
t100.5 38t75 74.5t29.5 120q0 113 -66.5 178.5t-197.5 65.5q-119 0 -192.5 -61t-85.5 -172l-181 14q11 93 51 162t101.5 114.5t140.5 68t168 22.5q118 0 203 -29.5t139 -80t79.5 -118.5t25.5 -145q0 -62 -17 -116t-53 -97t-91.5 -74t-133.5 -47v-4q85 -9 148 -38.5
t104 -73.5t61.5 -100t20.5 -118z" />
    <glyph glyph-name="four" unicode="4" 
d="M885 319v-319h-170v319h-664v140l645 950h189v-948h178v-142h-178zM715 1206q-2 -5 -10 -19.5l-18 -32.5l-20.5 -36.5t-18.5 -30.5l-361 -532q-5 -8 -14.5 -21l-19.5 -26.5l-20 -26.5t-16 -20h498v745z" />
    <glyph glyph-name="five" unicode="5" horiz-adv-x="1098" 
d="M1040 459q0 -106 -32 -194t-95 -151.5t-156.5 -98.5t-216.5 -35q-111 0 -193.5 26t-139.5 71.5t-90.5 106.5t-47.5 131l182 21q11 -40 31 -77.5t54.5 -67t85 -47t122.5 -17.5q70 0 127 21.5t97.5 63.5t62.5 103t22 140q0 65 -21 119.5t-60 94t-95.5 61.5t-128.5 22
q-45 0 -83 -8t-70.5 -22t-59 -32.5t-49.5 -38.5h-176l47 758h801v-153h-637l-27 -447q48 37 120 63.5t171 26.5q105 0 189 -32t143 -90.5t91 -139.5t32 -178z" />
    <glyph glyph-name="six" unicode="6" 
d="M1029 461q0 -106 -29.5 -194.5t-87 -152t-142.5 -99t-196 -35.5q-123 0 -215 47t-153 135.5t-91.5 217t-30.5 292.5q0 188 34.5 330t99.5 237t158.5 143t211.5 48q72 0 135 -15t114.5 -48.5t90.5 -88.5t62 -135l-172 -31q-28 91 -89.5 131.5t-142.5 40.5q-74 0 -134 -35
t-102 -104.5t-64.5 -174.5t-22.5 -245q49 91 138 138.5t204 47.5q96 0 174 -31t133.5 -89.5t86 -142t30.5 -187.5zM846 453q0 73 -18 132t-54 100.5t-89 64t-123 22.5q-49 0 -99 -14.5t-90.5 -47t-66 -85.5t-25.5 -129q0 -78 20 -145.5t57.5 -117.5t90.5 -79t119 -29
q65 0 116.5 22.5t87.5 65t55 103.5t19 137z" />
    <glyph glyph-name="seven" unicode="7" 
d="M1026 1263q-106 -162 -195 -311.5t-153 -301t-99.5 -311t-35.5 -339.5h-188q0 169 40 331.5t108 319t158 307.5t191 298h-757v153h931v-146z" />
    <glyph glyph-name="eight" unicode="8" 
d="M1030 393q0 -90 -28.5 -165.5t-87 -130.5t-149.5 -86t-215 -31t-214.5 31t-150 85.5t-88 130t-28.5 164.5q0 77 23.5 137t63 103.5t90 70t104.5 35.5v4q-59 14 -105.5 45t-78 74.5t-48 96.5t-16.5 112q0 74 28.5 139.5t84.5 115t139 78t192 28.5q115 0 199.5 -29
t140 -78.5t82.5 -115.5t27 -140q0 -58 -16.5 -111t-48 -96.5t-78 -74t-107.5 -42.5v-4q61 -10 113 -36.5t90 -70t60 -103.5t22 -136zM808 1057q0 53 -13.5 97t-44.5 75.5t-81 49t-123 17.5q-71 0 -120 -17.5t-80.5 -49t-45.5 -75.5t-14 -97q0 -42 11 -86t40 -80t80 -59
t131 -23q85 0 136.5 23t79 59t36 80t8.5 86zM843 410q0 51 -14 98.5t-48 84t-91.5 59t-143.5 22.5q-79 0 -134.5 -22.5t-90 -59.5t-50.5 -85.5t-16 -100.5q0 -65 16 -118.5t51 -92t92 -59.5t138 -21q82 0 138 21t90 59.5t48.5 93t14.5 121.5z" />
    <glyph glyph-name="nine" unicode="9" 
d="M1022 733q0 -188 -35.5 -329.5t-101.5 -235.5t-160.5 -141t-212.5 -47q-81 0 -146 16.5t-116 51.5t-87 91t-58 135l172 27q28 -91 87.5 -133.5t150.5 -42.5q73 0 133.5 34.5t103 103.5t66.5 173t26 244q-21 -47 -57.5 -84t-83 -62.5t-100.5 -39t-109 -13.5
q-96 0 -173.5 34.5t-131.5 96.5t-83.5 149.5t-29.5 194.5q0 109 31.5 197t91.5 149.5t147.5 94.5t198.5 33q235 0 356 -174t121 -523zM826 907q0 78 -18.5 147t-55 120t-90 80.5t-123.5 29.5q-65 0 -117 -23t-88 -65.5t-55.5 -103.5t-19.5 -136q0 -71 17.5 -132t52.5 -105.5
t87 -70t121 -25.5q50 0 101.5 17t93 52t68 88.5t26.5 126.5z" />
    <glyph glyph-name="colon" unicode=":" horiz-adv-x="599" 
d="M207 875v207h195v-207h-195zM207 0v207h195v-207h-195z" />
    <glyph glyph-name="uni037E" unicode=";" horiz-adv-x="599" 
d="M405 207v-156q0 -53 -4.5 -96.5t-14.5 -81t-24.5 -70.5t-34.5 -65h-123q45 65 69.5 131t24.5 131h-88v207h195zM210 875v207h195v-207h-195z" />
    <glyph glyph-name="uni037E" unicode="&#x37e;" horiz-adv-x="599" 
d="M405 207v-156q0 -53 -4.5 -96.5t-14.5 -81t-24.5 -70.5t-34.5 -65h-123q45 65 69.5 131t24.5 131h-88v207h195zM210 875v207h195v-207h-195z" />
    <glyph glyph-name="less" unicode="&#x3c;" horiz-adv-x="1200" 
d="M101 571v205l995 418v-154l-858 -366l858 -367v-153z" />
    <glyph glyph-name="equal" unicode="=" horiz-adv-x="1200" 
d="M100 856v148h995v-148h-995zM100 344v148h995v-148h-995z" />
    <glyph glyph-name="greater" unicode="&#x3e;" horiz-adv-x="1200" 
d="M101 154v153l858 367l-858 366v154l995 -418v-205z" />
    <glyph glyph-name="question" unicode="?" 
d="M1043 1032q0 -71 -18.5 -125t-49.5 -96.5t-70.5 -76t-80.5 -63.5l-80.5 -59t-71 -63t-51 -75.5t-20.5 -96.5h-175q2 69 21.5 121t50.5 92t70 71.5t79 60l78.5 57t68.5 63.5t48.5 79t18.5 103t-21 105t-59.5 77.5t-93 47.5t-121.5 16q-140 0 -222 -70t-96 -192l-184 12
q11 84 44.5 158.5t94 130.5t150 88.5t211.5 32.5q114 0 203 -28t150.5 -79.5t93.5 -125.5t32 -165zM418 0v201h195v-201h-195z" />
    <glyph glyph-name="at" unicode="@" horiz-adv-x="1999" 
d="M1872 755q0 -144 -33.5 -263.5t-92.5 -205.5t-141.5 -134t-179.5 -48q-56 0 -95.5 13.5t-64.5 37t-36 55.5t-11 70q0 15 1 36.5t2 33.5h-6q-24 -45 -58.5 -89.5t-81 -79t-105 -56t-129.5 -21.5q-84 0 -146.5 29t-103 80.5t-60.5 122t-20 153.5q0 120 35.5 230.5
t101.5 195t158.5 135.5t206.5 51q60 0 108 -13.5t84.5 -37.5t63.5 -57.5t45 -73.5h6l39 160h156l-116 -506q-19 -84 -28 -144t-9 -109q0 -48 21.5 -71t59.5 -23q62 0 115.5 40.5t93 111.5t62 167t22.5 208q0 129 -41.5 240t-122 192t-199.5 127t-275 46q-134 0 -247.5 -32
t-205.5 -90t-161.5 -138.5t-116.5 -176.5t-71 -205.5t-24 -224.5q0 -141 43 -260t125.5 -204.5t204 -133.5t279.5 -48q105 0 196 16.5t167 40.5t136 52.5t104 52.5l55 -112q-50 -30 -117.5 -61.5t-150.5 -57.5t-181 -42.5t-209 -16.5q-190 0 -337.5 57.5t-249 160.5
t-154 245t-52.5 311q0 139 31.5 267t90.5 238t144 200t192.5 154t235 99t271.5 35q201 0 347 -59t241.5 -159t141.5 -232t46 -279zM1266 747q0 50 -17 92t-48.5 72t-76 46.5t-100.5 16.5q-86 0 -151 -42.5t-108.5 -111.5t-66 -155.5t-22.5 -173.5q0 -120 47.5 -188
t146.5 -68q69 0 129 31t108 82t83 117t53 137q9 36 16 76t7 69z" />
    <glyph glyph-name="A" unicode="A" horiz-adv-x="1299" 
d="M1108 0l-153 412h-609l-154 -412h-188l546 1409h206l537 -1409h-185zM729 1026l-29 81t-24 74.5t-17.5 56t-8.5 27.5q-1 -5 -8 -28l-18 -57l-24.5 -75l-27.5 -81l-171 -463h500z" />
    <glyph glyph-name="B" unicode="B" horiz-adv-x="1299" 
d="M1198 397q0 -107 -42 -182.5t-113 -123t-165 -69.5t-198 -22h-572v1409h512q117 0 209 -19.5t156 -61.5t97.5 -106.5t33.5 -154.5q0 -59 -16.5 -111t-50 -94.5t-84 -73t-117.5 -45.5q85 -10 150.5 -39t109.5 -74t67 -104.5t23 -128.5zM924 1044q0 114 -78 163t-226 49
h-321v-446h321q84 0 142 16.5t94 47t52 73.5t16 97zM1005 412q0 67 -24.5 114t-70.5 77t-110.5 44t-144.5 14h-356v-508h371q73 0 134.5 12t106 42t69.5 80t25 125z" />
    <glyph glyph-name="C" unicode="C" horiz-adv-x="1401" 
d="M742 1274q-120 0 -212.5 -40t-155 -114t-94.5 -178t-32 -231t34.5 -232.5t99 -181.5t158 -118t210.5 -42q82 0 149.5 21.5t122 60.5t97.5 92.5t76 118.5l156 -78q-38 -79 -94 -147t-131.5 -118t-171 -78.5t-213.5 -28.5q-171 0 -299.5 54.5t-215 152t-129.5 231.5
t-43 293q0 165 45.5 298t133 226.5t215.5 144t292 50.5q225 0 376 -88t222 -261l-181 -60q-20 50 -54 95.5t-85 80.5t-119.5 56t-156.5 21z" />
    <glyph glyph-name="D" unicode="D" horiz-adv-x="1401" 
d="M1321 719q0 -176 -53 -310.5t-145 -225t-217.5 -137t-270.5 -46.5h-527v1409h466q163 0 300.5 -40.5t236.5 -125t154.5 -214.5t55.5 -310zM1129 719q0 143 -41 244.5t-115 166.5t-177 95.5t-226 30.5h-271v-1103h314q111 0 205.5 36t163.5 107t108 177t39 246z" />
    <glyph glyph-name="E" unicode="E" horiz-adv-x="1299" 
d="M128 0v1409h1069v-156h-878v-452h818v-154h-818v-491h919v-156h-1110z" />
    <glyph glyph-name="F" unicode="F" horiz-adv-x="1200" 
d="M309 1253v-524h786v-158h-786v-571h-191v1409h1001v-156h-810z" />
    <glyph glyph-name="G" unicode="G" horiz-adv-x="1499" 
d="M83 711q0 165 44.5 298t133 226.5t219.5 144t304 50.5q130 0 228 -23t170 -66t122 -104.5t85 -138.5l-182 -54q-26 52 -62.5 94.5t-88.5 72.5t-120.5 46.5t-156.5 16.5q-128 0 -222.5 -40t-156.5 -114t-92.5 -178t-30.5 -231t33 -232.5t98 -182t161.5 -119t223.5 -42.5
q83 0 153 14t126.5 36.5t99.5 50t72 55.5v254h-421v160h597v-486q-47 -48 -110.5 -91.5t-142.5 -76.5t-173 -52t-201 -19q-178 0 -311 54.5t-221.5 152t-133 231.5t-44.5 293z" />
    <glyph glyph-name="H" unicode="H" horiz-adv-x="1401" 
d="M1081 0v653h-762v-653h-191v1409h191v-596h762v596h191v-1409h-191z" />
    <glyph glyph-name="I" unicode="I" horiz-adv-x="569" 
d="M189 0v1409h191v-1409h-191z" />
    <glyph glyph-name="J" unicode="J" horiz-adv-x="1000" 
d="M482 -20q-171 0 -280.5 89t-144.5 281l187 31q10 -65 33 -111.5t55 -76.5t71 -44t80 -14q104 0 164 71.5t60 209.5v837h-271v156h461v-989q0 -101 -28 -182t-81.5 -138.5t-130.5 -88.5t-175 -31z" />
    <glyph glyph-name="K" unicode="K" horiz-adv-x="1299" 
d="M1066 0l-563 680l-184 -140v-540h-191v1409h191v-706l679 706h225l-600 -612l680 -797h-237z" />
    <glyph glyph-name="L" unicode="L" 
d="M148 0v1409h191v-1253h712v-156h-903z" />
    <glyph glyph-name="M" unicode="M" horiz-adv-x="1601" 
d="M1316 0v940q0 51 1 104t3 97q2 51 5 99l-29 -101l-28.5 -91.5t-30.5 -87.5l-364 -960h-134l-369 960q-6 15 -12.5 35l-14 42.5l-15 46l-14.5 46.5q-17 53 -33 110q1 -56 3 -111q2 -47 3 -98.5t1 -90.5v-940h-170v1409h251l375 -977q7 -20 17 -51.5t19 -64.5l16.5 -62.5
t10.5 -45.5q3 16 11 46t18.5 63l20.5 64t18 51l368 977h245v-1409h-172z" />
    <glyph glyph-name="N" unicode="N" horiz-adv-x="1401" 
d="M1042 0l-754 1200q2 -49 5 -97q2 -41 3.5 -86.5t1.5 -80.5v-936h-170v1409h222l762 -1208l-6 98q-2 42 -4 91.5t-2 94.5v924h172v-1409h-230z" />
    <glyph glyph-name="O" unicode="O" horiz-adv-x="1499" 
d="M749 1273q-207 0 -329 -154.5t-122 -420.5q0 -265 122 -419.5t329 -154.5t328 154.5t121 419.5q0 266 -121 420.5t-328 154.5zM749 1427q295 0 472 -198t177 -531q0 -332 -177 -530t-472 -198q-296 0 -473.5 197.5t-177.5 530.5t177.5 531t473.5 198z" />
    <glyph glyph-name="P" unicode="P" horiz-adv-x="1299" 
d="M1208 985q0 -92 -30.5 -171.5t-91 -138t-151.5 -92.5t-212 -34h-414v-549h-191v1409h593q125 0 218 -30.5t155 -86t93 -134t31 -173.5zM1016 983q0 134 -82 203.5t-246 69.5h-379v-556h387q165 0 242.5 73t77.5 210z" />
    <glyph glyph-name="Q" unicode="Q" horiz-adv-x="1499" 
d="M1445 711q0 -149 -38.5 -272.5t-111 -216.5t-178 -151.5t-239.5 -76.5q21 -64 47.5 -109t60.5 -73.5t75.5 -42t92.5 -13.5q28 0 60 4t55 9v-134q-38 -9 -83.5 -15.5t-94.5 -6.5q-86 0 -150 25.5t-112.5 73t-83.5 116.5t-62 156q-158 8 -277.5 65.5t-199 154t-119.5 226
t-40 281.5q0 165 46 298t135 226.5t219.5 144t299.5 50.5q168 0 298.5 -51t219 -145t134.5 -227t46 -296zM1250 711q0 127 -32.5 231t-96 178t-157.5 114t-217 40q-126 0 -221 -40t-158.5 -114t-95 -178t-31.5 -231t32.5 -232.5t96 -182t158 -119t217.5 -42.5
q132 0 227.5 43t157 119.5t91 182.5t29.5 231z" />
    <glyph glyph-name="R" unicode="R" horiz-adv-x="1401" 
d="M1134 0l-366 585h-439v-585h-191v1409h663q120 0 212.5 -27.5t155.5 -79.5t96 -127t33 -169q0 -67 -19.5 -132t-61.5 -119t-107 -93t-156 -55l400 -607h-220zM1106 1004q0 64 -22 111t-64 78.5t-102 47t-136 15.5h-453v-520h461q82 0 142 20.5t98.5 56.5t57 85t18.5 106z
" />
    <glyph glyph-name="S" unicode="S" horiz-adv-x="1299" 
d="M1232 389q0 -89 -34.5 -164t-106.5 -129.5t-181.5 -85t-259.5 -30.5q-263 0 -410 92t-187 266l185 37q14 -55 43 -100t78.5 -77.5t122.5 -50.5t175 -18q85 0 156 14.5t122 44.5t79.5 77.5t28.5 113.5q0 69 -31.5 112t-88.5 71t-136 47l-175 41q-59 13 -118.5 28.5
t-114 37t-102.5 50.5t-83 69.5t-55 94t-20 123.5q0 100 40.5 171.5t112.5 117.5t170 67t212 21q131 0 224 -20.5t157 -61.5t102.5 -101.5t61.5 -140.5l-188 -33q-14 51 -40.5 91t-69.5 67t-104.5 41t-144.5 14q-98 0 -164.5 -17.5t-107 -47.5t-58 -70.5t-17.5 -87.5
q0 -63 31.5 -103.5t85.5 -67.5t125 -45t151 -36l129.5 -30.5t123.5 -37t110.5 -50.5t89.5 -71t59.5 -99t21.5 -134z" />
    <glyph glyph-name="T" unicode="T" horiz-adv-x="1251" 
d="M720 1253v-1253h-190v1253h-484v156h1158v-156h-484z" />
    <glyph glyph-name="U" unicode="U" horiz-adv-x="1401" 
d="M691 -20q-116 0 -220 31t-182.5 96.5t-124.5 166t-46 238.5v897h191v-881q0 -107 28.5 -181.5t79.5 -121.5t120.5 -68.5t152.5 -21.5q82 0 155 22t128 70t86.5 125.5t31.5 188.5v868h190v-879q0 -141 -46.5 -244.5t-126.5 -171.5t-187.5 -101t-229.5 -33z" />
    <glyph glyph-name="V" unicode="V" horiz-adv-x="1299" 
d="M749 0h-190l-550 1409h212l354 -972l28.5 -89.5l25.5 -79.5q14 -41 26 -80q11 37 25 78l25 79l30 92l352 972h212z" />
    <glyph glyph-name="W" unicode="W" horiz-adv-x="1799" 
d="M1411 0h-228l-214 895q-11 38 -23.5 90t-22.5 99l-24 112l-25 -113l-23 -99t-23 -89l-216 -895h-228l-395 1409h199l233 -895l32.5 -125t26.5 -111l24 -110l31 136q7 28 14 59t14.5 61l15 57.5l13.5 50.5l215 877h183l215 -877l13.5 -50.5l15 -57t14.5 -60.5t14 -59
q16 -67 31 -137q1 0 9 34.5l20 86.5l26.5 112.5t29.5 112.5l229 895h199z" />
    <glyph glyph-name="X" unicode="X" horiz-adv-x="1299" 
d="M1072 0l-423 616l-432 -616h-211l536 732l-495 677h211l392 -553l381 553h211l-482 -670l523 -739h-211z" />
    <glyph glyph-name="Y" unicode="Y" horiz-adv-x="1299" 
d="M747 584v-584h-190v584l-542 825h210l429 -671l427 671h210z" />
    <glyph glyph-name="Z" unicode="Z" horiz-adv-x="1200" 
d="M1167 0h-1122v143l858 1110h-785v156h1002v-139l-858 -1114h905v-156z" />
    <glyph glyph-name="bracketleft" unicode="[" horiz-adv-x="599" 
d="M96 -425v1909h407v-129h-233v-1651h233v-129h-407z" />
    <glyph glyph-name="backslash" unicode="\" horiz-adv-x="599" 
d="M417 -20l-407 1504h158l411 -1504h-162z" />
    <glyph glyph-name="bracketright" unicode="]" horiz-adv-x="599" 
d="M96 -425v129h233v1651h-233v129h407v-1909h-407z" />
    <glyph glyph-name="asciicircum" unicode="^" horiz-adv-x="901" 
d="M738 710l-293 601l-291 -601h-154l350 699h192l352 -699h-156z" />
    <glyph glyph-name="underscore" unicode="_" horiz-adv-x="1200" 
d="M99 3v130h1005v-130h-1005z" />
    <glyph glyph-name="grave" unicode="`" horiz-adv-x="682" 
d="M436 1201l-330 278v29h207l217 -287v-20h-94z" />
    <glyph glyph-name="a" unicode="a" horiz-adv-x="1139" 
d="M414 -20q-163 0 -245 86t-82 236q0 107 40.5 175.5t106 107.5t149.5 54t171 17l243 4v59q0 67 -14 114t-43 76t-72.5 42.5t-102.5 13.5q-52 0 -94 -7.5t-73 -27t-50 -53t-25 -84.5l-188 17q10 64 38 117.5t79.5 92.5t129 60.5t187.5 21.5q204 0 307 -93.5t103 -270.5
v-466q0 -80 21 -120.5t80 -40.5q15 0 30 2t29 5v-112q-34 -8 -67.5 -12t-71.5 -4q-51 0 -87.5 13.5t-59.5 41t-35 68t-15 94.5h-6q-29 -52 -63.5 -94t-80.5 -71.5t-104.5 -45.5t-134.5 -16zM455 115q86 0 150.5 31.5t107 80.5t63.5 107t21 111v89l-197 -4
q-66 -1 -125.5 -9.5t-104.5 -33.5t-71.5 -70t-26.5 -118q0 -88 47.5 -136t135.5 -48z" />
    <glyph glyph-name="b" unicode="b" 
d="M1023 546q0 -566 -398 -566q-123 0 -204.5 44.5t-132.5 143.5h-2q0 -26 -1.5 -54t-3 -52t-3 -41t-2.5 -21h-174q1 9 2 30.5t2 51.5t1.5 66t0.5 75v1261h180v-423q0 -30 -0.5 -57.5t-1.5 -48.5q-1 -25 -2 -47h4q50 104 132.5 149t204.5 45q205 0 301.5 -138t96.5 -418z
M834 540q0 112 -14 192t-45 131.5t-79 75.5t-117 24q-71 0 -125.5 -23t-91 -74t-55.5 -134t-19 -203q0 -116 19 -195t55.5 -128.5t90.5 -71t124 -21.5q66 0 114 23t80 74t47.5 132.5t15.5 197.5z" />
    <glyph glyph-name="c" unicode="c" horiz-adv-x="1000" 
d="M255 546q0 -93 13.5 -171t45.5 -134.5t84.5 -87.5t129.5 -31q96 0 160.5 52t79.5 160l182 -12q-9 -67 -39 -129t-81.5 -109t-125.5 -75.5t-171 -28.5q-127 0 -216 43t-144.5 118.5t-80.5 178t-25 222.5q0 109 18 192.5t50.5 146t76.5 105t95.5 68t108.5 37t115 11.5
q91 0 162 -25t122.5 -68.5t83.5 -102.5t45 -127l-185 -14q-14 90 -71 143t-162 53q-77 0 -128.5 -25.5t-83.5 -77t-45.5 -129.5t-13.5 -183z" />
    <glyph glyph-name="d" unicode="d" 
d="M821 174q-50 -104 -132.5 -149t-204.5 -45q-205 0 -301.5 138t-96.5 418q0 566 398 566q123 0 205 -45t132 -143h2q0 10 -0.5 31.5l-1 45t-0.5 44.5v449h180v-1261q0 -39 0.5 -75t1.5 -66t2 -51.5t2 -30.5h-172q-2 10 -3.5 28.5t-3 42.5t-2.5 50.5t-1 52.5h-4zM275 542
q0 -112 14 -192t45 -131.5t79 -75.5t117 -24q71 0 125.5 23t91 74.5t55.5 134.5t19 203q0 115 -19 194.5t-56 128.5t-90.5 70.5t-123.5 21.5q-66 0 -114 -23t-80 -74t-47.5 -132.5t-15.5 -197.5z" />
    <glyph glyph-name="e" unicode="e" 
d="M266 503q0 -85 17.5 -156.5t54 -123t93.5 -80t137 -28.5q117 0 187.5 47t95.5 119l158 -45q-17 -45 -47.5 -90.5t-81.5 -82t-127.5 -60t-184.5 -23.5q-240 0 -365.5 143t-125.5 425q0 152 38 257.5t104 171.5t154 95.5t188 29.5q136 0 227.5 -44t147 -121.5t79 -182.5
t23.5 -227v-24h-772zM852 641q-15 171 -87 249.5t-207 78.5q-45 0 -94.5 -14.5t-91.5 -51.5t-71 -100.5t-33 -161.5h584z" />
    <glyph glyph-name="f" unicode="f" horiz-adv-x="599" 
d="M361 951v-951h-180v951h-152v131h152v122q0 59 11 109.5t40.5 88t80.5 59t132 21.5q32 0 66.5 -3t60.5 -9v-137q-17 3 -39.5 5.5t-40.5 2.5q-40 0 -65.5 -11t-40 -31.5t-20 -50.5t-5.5 -69v-97h211v-131h-211z" />
    <glyph glyph-name="g" unicode="g" 
d="M548 -425q-93 0 -165 19t-123 54.5t-83 84.5t-46 109l181 26q18 -75 79.5 -115.5t161.5 -40.5q61 0 111 17t85 54.5t54 97.5t19 146v174h-2q-20 -41 -49.5 -78.5t-72 -66.5t-98.5 -46.5t-128 -17.5q-103 0 -176.5 34.5t-120 103.5t-68 171.5t-21.5 237.5q0 130 21.5 234
t70 176.5t126 111t188.5 38.5q115 0 199.5 -52.5t130.5 -149.5h2q0 25 1.5 56t3 58.5t3.5 47.5t4 23h171q-1 -9 -2 -30.5t-2 -51.5t-1.5 -66.5t-0.5 -75.5v-827q0 -227 -111.5 -341.5t-341.5 -114.5zM822 541q0 113 -24.5 193.5t-64.5 131.5t-91.5 75t-105.5 24
q-69 0 -118.5 -24t-82 -75.5t-48 -132t-15.5 -192.5q0 -117 15.5 -196.5t47.5 -128.5t81 -70t117 -21q54 0 105.5 23t92.5 73t66 129t25 191z" />
    <glyph glyph-name="h" unicode="h" 
d="M297 897q30 55 65 93.5t77 63.5t92 36.5t112 11.5q104 0 170.5 -28t105 -78.5t53 -120.5t14.5 -154v-721h-181v686q0 69 -8.5 121t-32.5 86.5t-68 52t-114 17.5q-64 0 -115.5 -23t-88 -65t-56.5 -102t-20 -135v-638h-180v1484h180v-386q0 -33 -1 -66t-2.5 -61l-2.5 -47.5
t-2 -26.5h3z" />
    <glyph glyph-name="i" unicode="i" horiz-adv-x="455" 
d="M137 1312v172h180v-172h-180zM137 0v1082h180v-1082h-180z" />
    <glyph glyph-name="j" unicode="j" horiz-adv-x="455" 
d="M137 1312v172h180v-172h-180zM317 -134q0 -62 -10.5 -115t-37.5 -92t-73.5 -61.5t-118.5 -22.5q-34 0 -66.5 2t-60.5 7v139q13 -2 31 -4t31 -2q38 0 62.5 10t38.5 31.5t19 55t5 79.5v1189h180v-1216z" />
    <glyph glyph-name="k" unicode="k" horiz-adv-x="1000" 
d="M796 0l-366 494l-132 -109v-385h-180v1484h180v-927l475 525h211l-439 -465l462 -617h-211z" />
    <glyph glyph-name="l" unicode="l" horiz-adv-x="455" 
d="M138 0v1484h180v-1484h-180z" />
    <glyph glyph-name="m" unicode="m" horiz-adv-x="1499" 
d="M658 0v686q0 79 -10 132t-28.5 85.5t-46.5 46t-73 13.5q-57 0 -98 -22.5t-73.5 -65t-50 -105t-17.5 -143.5v-627h-179v851q0 34 -0.5 71.5t-1.5 71t-2 57.5t-2 31h170q1 -5 2 -27t2.5 -50.5t2.5 -58t1 -49.5h3q24 47 52 85t60.5 64.5t81 41t102.5 14.5q93 0 164.5 -49
t99.5 -156h3q24 47 54 85t65 64.5t85 41t104 14.5q62 0 116.5 -22t92.5 -68t56 -118.5t18 -172.5v-721h-178v686q0 79 -10 132t-28.5 85.5t-46.5 46t-73 13.5q-57 0 -98 -21.5t-73.5 -63.5t-50 -105t-17.5 -146v-627h-178z" />
    <glyph glyph-name="n" unicode="n" 
d="M805 0v686q0 79 -11.5 132t-37.5 85.5t-68.5 46t-105.5 13.5q-64 0 -115.5 -22.5t-88 -65t-56.5 -105t-20 -143.5v-627h-180v851q0 34 -0.5 71.5t-1.5 71t-2 57.5t-2 31h170q1 -5 2 -27t2.5 -50.5t2.5 -58t1 -49.5h3q26 47 57 85t72 64.5t94 41t123 14.5q90 0 155 -22
t107 -68t61.5 -118.5t19.5 -172.5v-721h-181z" />
    <glyph glyph-name="o" unicode="o" 
d="M1033 542q0 -284 -125 -423t-363 -139q-113 0 -202 34t-150.5 104t-94 175.5t-32.5 248.5q0 560 485 560q126 0 217.5 -35t150 -105t86.5 -175t28 -245zM844 542q0 126 -19.5 208t-57 131t-91.5 68.5t-122 19.5q-69 0 -124.5 -20.5t-94.5 -70t-59.5 -131.5t-20.5 -205
q0 -126 22 -208.5t60.5 -131.5t91 -69t114.5 -20q69 0 125 19.5t95 68.5t60 132t21 209z" />
    <glyph glyph-name="p" unicode="p" 
d="M1023 546q0 -123 -20 -227t-66.5 -179t-123 -117.5t-188.5 -42.5q-116 0 -203 44t-133 144h-5q1 -2 1.5 -18t1 -40t1 -53.5t0.5 -58.5v-423h-180v1286q0 39 -0.5 75t-1.5 65.5t-2 50.5t-2 30h174q1 -3 2.5 -21t3 -43.5t3 -54.5t1.5 -55h4q25 52 57 88.5t73 60t91.5 34
t113.5 10.5q112 0 188.5 -40t123 -112.5t66.5 -175t20 -227.5zM834 542q0 100 -12 178t-41.5 132t-78.5 82t-123 28q-60 0 -113 -17t-92.5 -65t-62.5 -132.5t-23 -219.5q0 -115 19 -194.5t55.5 -128.5t90.5 -70.5t124 -21.5q75 0 124.5 29t79 84t41.5 134.5t12 181.5z" />
    <glyph glyph-name="q" unicode="q" 
d="M484 -20q-206 0 -302 139t-96 417q0 282 98.5 424t299.5 142q67 0 118.5 -12t92 -35.5t71 -58.5t55.5 -82h2q0 25 1.5 55.5t3 57.5t3.5 46.5t4 22.5h173q-2 -17 -4.5 -89t-2.5 -206v-1226h-180v439q0 26 0.5 54t1.5 53l2 57h-2q-26 -51 -57.5 -88.5t-72.5 -62t-92.5 -36
t-116.5 -11.5zM821 554q0 118 -20.5 198t-58 128t-91 68.5t-119.5 20.5q-69 0 -118 -25.5t-79.5 -78t-45 -133t-14.5 -190.5q0 -108 13.5 -188t44 -132t79 -77.5t118.5 -25.5q60 0 113 18.5t92.5 67t62.5 133t23 216.5z" />
    <glyph glyph-name="r" unicode="r" horiz-adv-x="701" 
d="M112 0v830q0 34 -0.5 69.5t-1.5 68.5t-2 62t-2 52h170q1 -23 2.5 -52.5l3 -60.5t2 -59.5t0.5 -48.5h4q19 62 40.5 107.5t50.5 75t69 44t97 14.5q22 0 42 -3.5t31 -6.5v-165q-18 5 -42 7.5t-54 2.5q-62 0 -105.5 -28t-71 -77.5t-40.5 -118t-13 -149.5v-564h-180z" />
    <glyph glyph-name="s" unicode="s" horiz-adv-x="1000" 
d="M940 299q0 -76 -29.5 -135.5t-85.5 -100t-137.5 -62t-186.5 -21.5q-94 0 -169.5 14.5t-132.5 46.5t-95.5 84.5t-56.5 128.5l159 31q23 -87 95 -127.5t200 -40.5q58 0 106.5 8t83.5 27.5t54.5 52t19.5 80.5q0 49 -23 80.5t-64 52.5t-99.5 36.5l-128.5 34.5q-65 17 -129 38
t-115.5 55.5t-83.5 85.5t-32 128q0 148 105.5 225.5t307.5 77.5q179 0 284.5 -63t133.5 -202l-162 -20q-9 42 -33 70.5t-58 46t-76.5 25t-88.5 7.5q-122 0 -180 -37t-58 -112q0 -44 21.5 -72.5t60 -48t92.5 -34l119 -30.5l88 -23.5t87.5 -30t80 -41t65.5 -56.5t44.5 -77
t16.5 -102z" />
    <glyph glyph-name="t" unicode="t" horiz-adv-x="599" 
d="M554 8q-41 -11 -83.5 -17.5t-98.5 -6.5q-216 0 -216 245v722h-125v131h132l53 242h120v-242h200v-131h-200v-683q0 -78 25.5 -109.5t88.5 -31.5q26 0 50.5 4t53.5 10v-133z" />
    <glyph glyph-name="u" unicode="u" 
d="M294 1082v-686q0 -79 11.5 -132t37.5 -85.5t68.5 -46t105.5 -13.5q64 0 115.5 22.5t88 65t56.5 105t20 143.5v627h180v-851q0 -34 0.5 -71.5t1.5 -71t2 -57.5t2 -31h-170q-1 5 -2 27t-2.5 50.5t-2.5 58t-1 49.5h-3q-26 -47 -57 -85t-72 -64.5t-94 -41t-123 -14.5
q-90 0 -155 22t-107 68t-61.5 118t-19.5 173v721h181z" />
    <glyph glyph-name="v" unicode="v" horiz-adv-x="1000" 
d="M603 0h-213l-393 1082h192l238 -704l16.5 -53.5l19.5 -65.5l18.5 -65.5l14.5 -52.5l15.5 52.5l19.5 64.5l20.5 64.5l18.5 53.5l246 706h191z" />
    <glyph glyph-name="w" unicode="w" horiz-adv-x="1499" 
d="M1184 0h-209l-173 698q-8 27 -16.5 67l-16.5 78q-10 44 -19 91q-9 -45 -19 -89q-8 -38 -17.5 -79t-17.5 -72l-178 -694h-208l-303 1082h178l183 -735q7 -23 14 -56.5l14 -65.5l15 -76q8 38 17 74l16 63t14 53l196 743h193l189 -743q7 -26 15 -59l15 -62l16 -69l16 74
l14.5 64.5t14.5 59.5l191 735h176z" />
    <glyph glyph-name="x" unicode="x" horiz-adv-x="1000" 
d="M791 0l-291 444l-293 -444h-194l385 556l-367 526h199l270 -421l268 421h201l-367 -524l390 -558h-201z" />
    <glyph glyph-name="y" unicode="y" horiz-adv-x="1000" 
d="M594 0q-38 -98 -77.5 -176.5t-88.5 -134t-109 -85t-138 -29.5q-34 0 -63 2t-61 9v135q19 -3 43 -4.5t41 -1.5q79 0 147 59t119 188l17 43l-429 1077h192l228 -598l25.5 -72l31 -90l27.5 -81t14 -45q3 11 14.5 43.5l26 72.5l29.5 81t25 71l212 618h190z" />
    <glyph glyph-name="z" unicode="z" horiz-adv-x="1000" 
d="M49 0v137l661 806h-621v139h824v-137l-662 -806h699v-139h-901z" />
    <glyph glyph-name="braceleft" unicode="{" horiz-adv-x="700" 
d="M513 -425q-65 0 -114.5 20.5t-82.5 58.5t-50 92t-17 122v361q0 63 -14.5 107t-42 72t-67.5 42t-91 16v127q51 2 91 16t67.5 42t42 72t14.5 106v362q0 141 66.5 217t197.5 76h135v-129h-63q-91 0 -129.5 -53.5t-38.5 -161.5v-356q0 -50 -15 -92t-41 -74t-61.5 -54
t-76.5 -32v-2q43 -10 78.5 -32t61 -54.5t40 -74.5t14.5 -93v-357q0 -106 38.5 -160.5t129.5 -54.5h63v-129h-135z" />
    <glyph glyph-name="bar" unicode="|" horiz-adv-x="532" 
d="M183 -434v1918h166v-1918h-166z" />
    <glyph glyph-name="braceright" unicode="}" horiz-adv-x="700" 
d="M94 -296q91 0 130.5 54.5t39.5 160.5v357q0 51 14 93t39.5 74.5t61 54.5t78.5 32v2q-42 10 -77 32t-61 54t-40.5 74t-14.5 92v356q0 108 -39.5 161.5t-130.5 53.5h-60v129h132q131 0 197.5 -76t66.5 -217v-362q0 -62 14.5 -106t42 -72t68 -42t92.5 -16v-127
q-52 -2 -92.5 -16t-68 -42t-42 -72t-14.5 -107v-361q0 -68 -17 -122t-50 -92t-82.5 -58.5t-114.5 -20.5h-132v129h60z" />
    <glyph glyph-name="asciitilde" unicode="~" horiz-adv-x="1200" 
d="M844 553q-69 0 -141.5 22t-145.5 48q-129 45 -217 45q-38 0 -70.5 -6t-62.5 -17.5t-58 -27.5t-57 -37v143q50 38 116 61t147 23q40 0 80 -6.5t78.5 -16.5t76 -23l74.5 -26q21 -8 46 -15.5l50.5 -14.5t51 -11t48.5 -4q69 0 130.5 25t113.5 67v-149q-32 -23 -61.5 -38
t-60 -24.5t-64.5 -13.5t-74 -4z" />
    <glyph glyph-name="cent" unicode="&#xa2;" 
d="M566 277q96 0 160.5 52t79.5 160l182 -12q-8 -62 -33.5 -120t-69.5 -104t-107 -77t-146 -39v-168h-124v168q-111 10 -188 56.5t-124.5 121t-69 172t-21.5 210.5q0 150 33 253t88.5 168.5t128.5 97t153 38.5v155h124v-155q78 -8 138 -35.5t103 -70t70 -97t39 -117.5
l-185 -14q-14 90 -71 143t-162 53q-77 0 -128.5 -25.5t-83.5 -77t-45.5 -129.5t-13.5 -183q0 -93 13.5 -171t45.5 -134.5t84.5 -87.5t129.5 -31z" />
    <glyph glyph-name="sterling" unicode="&#xa3;" 
d="M1074 311q-9 -80 -37.5 -138.5t-73 -97t-102 -57t-124.5 -18.5h-698v154q89 46 132 126t43 201v144h-186v129h186v280q0 92 24 165.5t73.5 124.5t125.5 78.5t179 27.5q70 0 131.5 -14.5t111 -43.5t85 -72t53.5 -100l-174 -57q-10 31 -29.5 57t-46 44t-59 28t-68.5 10
q-114 0 -170 -57.5t-56 -182.5v-288h408v-129h-408v-126q0 -56 -11 -109t-33 -99t-53.5 -81.5t-71.5 -56.5h483q38 0 71.5 9.5t60 30.5t45 54.5t26.5 81.5z" />
    <glyph glyph-name="yen" unicode="&#xa5;" 
d="M700 709h321v-125h-383v-154h383v-127h-383v-303h-178v303h-381v127h381l2 154h-383v125h320l-421 700h199l371 -647l375 647h199z" />
    <glyph glyph-name="brokenbar" unicode="&#xa6;" horiz-adv-x="532" 
d="M183 706v778h166v-778h-166zM183 -434v779h166v-779h-166z" />
    <glyph glyph-name="section" unicode="&#xa7;" horiz-adv-x="900" 
d="M463 1218q58 0 108.5 -11t90 -34t66.5 -59t38 -87l-118 -15q-6 33 -23 54.5t-42 34t-56 17t-64 4.5q-92 0 -139.5 -29t-47.5 -81q0 -33 18.5 -56.5t49 -40.5t70.5 -28.5t83 -21.5q50 -12 101 -29t92.5 -44t67 -66t25.5 -94q0 -33 -10.5 -65t-30.5 -59t-50 -47t-70 -30
q36 -15 65 -34t49.5 -42.5t31.5 -53.5t11 -67q0 -54 -21.5 -97t-62.5 -73.5t-101.5 -46.5t-138.5 -16q-69 0 -125.5 10t-99.5 33.5t-72 61.5t-43 95l118 23q9 -41 29 -65.5t48.5 -38t65.5 -18.5t79 -5t79.5 7t65.5 21.5t44.5 38.5t16.5 58q0 40 -21 66.5t-56 45t-80 32
t-93 25.5q-48 11 -96 27.5t-86 43.5t-62 65.5t-24 93.5q0 33 11.5 63.5t33.5 56.5t53 45.5t69 30.5q-30 10 -58 27t-48.5 40.5t-33 53t-12.5 64.5q0 102 77.5 159t227.5 57zM667 615q0 35 -19.5 60.5t-52 44t-74 31.5t-86.5 23q-42 -2 -75 -14t-55 -31.5t-33 -44.5t-11 -54
q0 -34 18 -58t48 -41.5t69.5 -30t83.5 -23.5q40 0 74 9t59 26t39.5 43t14.5 60z" />
    <glyph glyph-name="dieresis" unicode="&#xa8;" horiz-adv-x="682" 
d="M459 1219v184h163v-184h-163zM65 1219v184h165v-184h-165z" />
    <glyph glyph-name="copyright" unicode="&#xa9;" horiz-adv-x="1499" 
d="M1477 707q0 -100 -26 -192.5t-73 -173t-112.5 -146t-146 -112.5t-173 -73t-192.5 -26q-99 0 -191.5 26t-172.5 73t-146.5 112.5t-113.5 146t-73 173t-26 192.5t26 192t73 172.5t113 146.5t146.5 113t172.5 73t192 26q150 0 281.5 -57t230 -155t155 -229.5t56.5 -281.5z
M1385 707q0 86 -22.5 166.5t-63.5 150t-99 127t-128 98.5t-150.5 63.5t-167.5 22.5q-130 0 -244 -49.5t-199.5 -135t-135 -199.5t-49.5 -244q0 -131 49.5 -245.5t135 -200t199.5 -134.5t244 -49q87 0 167.5 22.5t150.5 63t128 98t99 127.5t63.5 150.5t22.5 167.5zM498 709
q0 -72 16.5 -132t50 -103t83.5 -67t117 -24q49 0 86.5 13.5t65.5 36t47.5 50t33.5 56.5l115 -35q-22 -43 -51 -83.5t-70 -72t-96.5 -50.5t-130.5 -19q-101 0 -175.5 32t-123.5 89t-73 136t-24 173q0 97 24 175.5t72.5 134t121.5 85t171 29.5q75 0 131 -18t96 -47.5t67.5 -67
t45.5 -76.5l-114 -33q-12 26 -31 51t-46.5 44t-63.5 30.5t-83 11.5q-69 0 -118.5 -23t-81.5 -64.5t-47 -100.5t-15 -131z" />
    <glyph glyph-name="guillemotleft" unicode="&#xab;" horiz-adv-x="1139" 
d="M886 141l-338 365v63l338 371h168v-31l-338 -372l340 -367v-29h-170zM419 141l-336 365v63l336 371h167v-31l-335 -372l337 -367v-29h-169z" />
    <glyph glyph-name="registered" unicode="&#xae;" horiz-adv-x="1499" 
d="M1477 707q0 -100 -26 -192.5t-73 -173t-112.5 -146t-146 -112.5t-173 -73t-192.5 -26q-99 0 -191.5 26t-172.5 73t-146.5 112.5t-113.5 146t-73 173t-26 192.5t26 192t73 172.5t113 146.5t146.5 113t172.5 73t192 26q150 0 281.5 -57t230 -155t155 -229.5t56.5 -281.5z
M1385 707q0 86 -22.5 166.5t-63.5 150t-99 127t-128 98.5t-150.5 63.5t-167.5 22.5q-130 0 -244 -49.5t-199.5 -135t-135 -199.5t-49.5 -244q0 -131 49.5 -245.5t135 -200t199.5 -134.5t244 -49q87 0 167.5 22.5t150.5 63t128 98t99 127.5t63.5 150.5t22.5 167.5zM955 289
l-199 336h-161v-336h-127v831h307q142 0 217.5 -63t75.5 -174q0 -102 -52 -163.5t-137 -80.5l221 -350h-145zM941 881q0 69 -47.5 105t-128.5 36h-170v-301h182q80 0 122 42.5t42 117.5z" />
    <glyph glyph-name="macron" unicode="&#xaf;" horiz-adv-x="1131" 
d="M1148 1452h-1165v94h1165v-94z" />
    <glyph glyph-name="degree" unicode="&#xb0;" horiz-adv-x="799" 
d="M128 1214q0 115 81.5 196t195.5 81q116 0 197 -81t81 -196t-81.5 -196.5t-196.5 -81.5q-114 0 -195.5 81t-81.5 197zM237 1214q0 -70 49.5 -119.5t119.5 -49.5q69 0 118.5 49.5t49.5 119.5t-49.5 119.5t-118.5 49.5q-70 0 -119.5 -49.5t-49.5 -119.5z" />
    <glyph glyph-name="plusminus" unicode="&#xb1;" 
d="M626 680v-395h-147v395h-424v145h424v394h147v-394h424v-145h-424zM55 0v145h995v-145h-995z" />
    <glyph glyph-name="acute" unicode="&#xb4;" horiz-adv-x="682" 
d="M223 1201v20l217 287h207v-29l-330 -278h-94z" />
    <glyph glyph-name="uni00B5" unicode="&#xb5;" 
d="M100 -425v1507h181v-686q0 -78 16 -131t45 -85.5t71 -46.5t94 -14q128 0 201 87t73 249v627h180v-816q0 -44 5.5 -72t15.5 -44t24.5 -22.5t32.5 -6.5q11 0 27 2.5t27 5.5v-129q-26 -8 -51.5 -14t-61.5 -6q-54 0 -89.5 15t-57.5 41t-32 61.5t-12 76.5h-3
q-52 -95 -125.5 -144.5t-173.5 -49.5q-67 0 -121.5 20.5t-85.5 58.5v-484h-180z" />
    <glyph glyph-name="paragraph" unicode="&#xb6;" horiz-adv-x="1100" 
d="M884 1307v-1571h-112v1571h-217v-1571h-113v958q-80 0 -146.5 22.5t-114.5 66.5t-74.5 110.5t-26.5 155.5q0 84 25 150.5t72.5 113t116.5 71.5t156 25h563v-102h-129z" />
    <glyph glyph-name="uni2219" unicode="&#xb7;" horiz-adv-x="682" 
d="M187 446v220h195v-220h-195z" />
    <glyph glyph-name="uni2219" unicode="&#x2219;" horiz-adv-x="682" 
d="M187 446v220h195v-220h-195z" />
    <glyph glyph-name="guillemotright" unicode="&#xbb;" horiz-adv-x="1139" 
d="M718 141h-168v29l338 367l-336 372v31h166l338 -371v-63zM253 141h-170v29l338 367l-336 372v31h168l335 -371v-63z" />
    <glyph glyph-name="onequarter" unicode="&#xbc;" horiz-adv-x="1700" 
d="M56 563v107h211v620l-202 -138v120l210 137h123v-739h215v-107h-557zM493 0h-148l881 1409h145zM1503 180v-178h-131v178h-406v111l386 557h151v-555h111v-113h-111zM1374 715q-7 -13 -18 -31.5l-23 -38l-23 -37l-18 -28.5l-199 -287h279v360q0 19 0.5 36t1.5 26z" />
    <glyph glyph-name="onehalf" unicode="&#xbd;" horiz-adv-x="1700" 
d="M56 563v107h211v620l-202 -138v120l210 137h123v-739h215v-107h-557zM493 0h-148l881 1409h145zM1053 2l-2 103q27 61 71 109t94 88.5t101.5 76.5t92.5 72.5t67 76.5t26 89q0 62 -35.5 99.5t-109.5 37.5q-68 0 -112 -36.5t-52 -104.5l-133 8q6 51 29 94.5t61 75.5
t91.5 50.5t121.5 18.5q65 0 116.5 -16.5t87 -46.5t54 -73t18.5 -97q0 -62 -27 -112t-68.5 -93t-92.5 -80.5l-98.5 -74t-86.5 -73.5t-57 -79h443v-113h-600z" />
    <glyph glyph-name="threequarters" unicode="&#xbe;" horiz-adv-x="1700" 
d="M513 0h-148l881 1409h145zM1503 180v-178h-131v178h-406v111l386 557h151v-555h111v-113h-111zM1374 715q-7 -13 -18 -31.5l-23 -38l-23 -37l-18 -28.5l-199 -287h279v360q0 19 0.5 36t1.5 26zM688 795q0 -116 -77.5 -180t-219.5 -64q-87 0 -145 19.5t-94.5 51.5
t-54.5 72.5t-24 83.5l136 13q9 -67 53 -101.5t129 -34.5q77 0 118.5 36t41.5 112q0 45 -18.5 72t-46.5 41.5t-61.5 19t-62.5 4.5h-61v109h57q29 0 59.5 6.5t55.5 22t41 42t16 66.5q0 60 -37 94.5t-108 34.5q-68 0 -110 -35t-48 -100l-135 12q7 58 32 101t64.5 71.5
t90.5 42.5t110 14q69 0 121 -16.5t87 -46t52.5 -69t17.5 -85.5q0 -75 -43 -130t-133 -75v-2q52 -5 89.5 -23.5t61.5 -45.5t35 -61.5t11 -71.5z" />
    <glyph glyph-name="Agrave" unicode="&#xc0;" horiz-adv-x="1299" 
d="M1111 0l-153 412h-609l-154 -412h-188l546 1409h206l537 -1409h-185zM732 1026l-29 81t-24 74.5t-17.5 56t-8.5 27.5q-1 -5 -8 -28l-18 -57l-24.5 -75l-27.5 -81l-171 -463h500zM742 1554l-330 278v29h207l217 -287v-20h-94z" />
    <glyph glyph-name="Aacute" unicode="&#xc1;" horiz-adv-x="1299" 
d="M1111 0l-153 412h-609l-154 -412h-188l546 1409h206l537 -1409h-185zM732 1026l-29 81t-24 74.5t-17.5 56t-8.5 27.5q-1 -5 -8 -28l-18 -57l-24.5 -75l-27.5 -81l-171 -463h500zM434 1555v20l217 287h207v-29l-330 -278h-94z" />
    <glyph glyph-name="Acircumflex" unicode="&#xc2;" horiz-adv-x="1299" 
d="M1111 0l-153 412h-609l-154 -412h-188l546 1409h206l537 -1409h-185zM732 1026l-29 81t-24 74.5t-17.5 56t-8.5 27.5q-1 -5 -8 -28l-18 -57l-24.5 -75l-27.5 -81l-171 -463h500zM973 1571v-20h-105l-219 169h-2l-232 -169h-104v20l234 270h204z" />
    <glyph glyph-name="Atilde" unicode="&#xc3;" horiz-adv-x="1299" 
d="M1111 0l-153 412h-609l-154 -412h-188l546 1409h206l537 -1409h-185zM732 1026l-29 81t-24 74.5t-17.5 56t-8.5 27.5q-1 -5 -8 -28l-18 -57l-24.5 -75l-27.5 -81l-171 -463h500zM801 1549q-42 0 -84 18.5t-81 41t-74.5 41t-66.5 18.5q-55 0 -82 -31t-36 -88h-91
q5 45 15 92.5t32.5 86.5t59.5 64t96 25q44 0 86 -18.5t81 -41l73.5 -41t64.5 -18.5q54 0 81.5 31.5t35.5 87.5h92q-5 -44 -15 -91.5t-31.5 -86.5t-58.5 -64.5t-97 -25.5z" />
    <glyph glyph-name="Adieresis" unicode="&#xc4;" horiz-adv-x="1299" 
d="M1111 0l-153 412h-609l-154 -412h-188l546 1409h206l537 -1409h-185zM732 1026l-29 81t-24 74.5t-17.5 56t-8.5 27.5q-1 -5 -8 -28l-18 -57l-24.5 -75l-27.5 -81l-171 -463h500zM761 1539v184h163v-184h-163zM367 1539v184h165v-184h-165z" />
    <glyph glyph-name="Aring" unicode="&#xc5;" horiz-adv-x="1299" 
d="M1111 0l-153 412h-609l-154 -412h-188l546 1409h206l537 -1409h-185zM732 1026l-29 81t-24 74.5t-17.5 56t-8.5 27.5q-1 -5 -8 -28l-18 -57l-24.5 -75l-27.5 -81l-171 -463h500zM466 1669q0 73 53.5 126t126.5 53q74 0 127 -53.5t53 -129.5q0 -77 -53 -130t-126 -53
q-75 0 -128 53.5t-53 133.5zM542 1668q0 -47 31.5 -79t74.5 -32t74.5 32t31.5 77t-31 77t-75 32q-43 0 -74.5 -31.5t-31.5 -75.5z" />
    <glyph glyph-name="AE" unicode="&#xc6;" horiz-adv-x="1999" 
d="M969 0v412h-548l-198 -412h-199l686 1409h1209v-156h-759v-452h699v-154h-699v-491h800v-156h-991zM969 1262h-151q-1 -3 -9 -20.5l-19 -42.5l-24.5 -54l-25.5 -54.5l-21 -44.5t-11 -24l-217 -461h478v701z" />
    <glyph glyph-name="Ccedilla" unicode="&#xc7;" horiz-adv-x="1401" 
d="M680 -18q-133 8 -238 53q-129 54 -215.5 151.5t-129.5 231.5t-43 293q0 165 45.5 298t133 226.5t215.5 144t292 50.5q225 0 376 -88t222 -261l-181 -60q-20 50 -54 95.5t-85 80.5t-119.5 56t-156.5 21q-120 0 -212.5 -40t-155 -114t-94.5 -178t-32 -231t34.5 -232.5
t99 -181.5t158 -118t210.5 -42q82 0 149.5 21.5t122 60.5t97.5 92.5t76 118.5l156 -78q-38 -79 -94 -147t-131.5 -118t-170.5 -78q-77 -23 -168 -28l-32 -81q94 -3 141 -43.5t47 -109.5q0 -41 -15 -74.5t-47.5 -57.5t-84.5 -36.5t-127 -12.5q-20 0 -42.5 0.5t-47.5 3.5v98
q49 -6 86 -6q41 0 69 6t45.5 16.5t25 25.5t7.5 33q0 37 -30.5 57t-102.5 20h-28q-15 0 -29 -2z" />
    <glyph glyph-name="Egrave" unicode="&#xc8;" horiz-adv-x="1299" 
d="M122 0v1409h1069v-156h-878v-452h818v-154h-818v-491h919v-156h-1110zM796 1557l-330 278v29h207l217 -287v-20h-94z" />
    <glyph glyph-name="Eacute" unicode="&#xc9;" horiz-adv-x="1299" 
d="M122 0v1409h1069v-156h-878v-452h818v-154h-818v-491h919v-156h-1110zM511 1558v20l217 287h207v-29l-330 -278h-94z" />
    <glyph glyph-name="Ecircumflex" unicode="&#xca;" horiz-adv-x="1299" 
d="M122 0v1409h1069v-156h-878v-452h818v-154h-818v-491h919v-156h-1110zM1019 1571v-20h-105l-219 169h-2l-232 -169h-104v20l234 270h204z" />
    <glyph glyph-name="Edieresis" unicode="&#xcb;" horiz-adv-x="1299" 
d="M122 0v1409h1069v-156h-878v-452h818v-154h-818v-491h919v-156h-1110zM806 1558v184h163v-184h-163zM412 1558v184h165v-184h-165z" />
    <glyph glyph-name="Igrave" unicode="&#xcc;" horiz-adv-x="569" 
d="M172 0v1409h191v-1409h-191zM375 1554l-330 278v29h207l217 -287v-20h-94z" />
    <glyph glyph-name="Iacute" unicode="&#xcd;" horiz-adv-x="569" 
d="M188 0v1409h191v-1409h-191zM65 1554v20l217 287h207v-29l-330 -278h-94z" />
    <glyph glyph-name="Icircumflex" unicode="&#xce;" horiz-adv-x="569" 
d="M188 0v1409h191v-1409h-191zM619 1571v-20h-105l-219 169h-2l-232 -169h-104v20l234 270h204z" />
    <glyph glyph-name="Idieresis" unicode="&#xcf;" horiz-adv-x="569" 
d="M185 0v1409h191v-1409h-191zM397 1526v184h163v-184h-163zM3 1526v184h165v-184h-165z" />
    <glyph glyph-name="Idieresis" unicode="&#x3aa;" horiz-adv-x="569" 
d="M185 0v1409h191v-1409h-191zM397 1526v184h163v-184h-163zM3 1526v184h165v-184h-165z" />
    <glyph glyph-name="Eth" unicode="&#xd0;" horiz-adv-x="1499" 
d="M34 801h154v608h466q163 0 300.5 -40.5t236.5 -125t154.5 -214.5t55.5 -310q0 -176 -53 -310.5t-145 -225t-217.5 -137t-270.5 -46.5h-527v647h-154v154zM1209 719q0 143 -41 244.5t-115 166.5t-177 95.5t-226 30.5h-271v-455h406v-154h-406v-494h314q111 0 205.5 36
t163.5 107t108 177t39 246z" />
    <glyph glyph-name="Ntilde" unicode="&#xd1;" horiz-adv-x="1401" 
d="M1040 0l-754 1200q2 -49 5 -97q2 -41 3.5 -86.5t1.5 -80.5v-936h-170v1409h222l762 -1208l-6 98q-2 42 -4 91.5t-2 94.5v924h172v-1409h-230zM887 1558q-42 0 -84 18.5t-81 41t-74.5 41t-66.5 18.5q-55 0 -82 -31t-36 -88h-91q5 45 15 92.5t32.5 86.5t59.5 64t96 25
q44 0 86 -18.5t81 -41l73.5 -41t64.5 -18.5q54 0 81.5 31.5t35.5 87.5h92q-5 -44 -15 -91.5t-31.5 -86.5t-58.5 -64.5t-97 -25.5z" />
    <glyph glyph-name="Ograve" unicode="&#xd2;" horiz-adv-x="1499" 
d="M751 1273q-207 0 -329 -154.5t-122 -420.5q0 -265 122 -419.5t329 -154.5t328 154.5t121 419.5q0 266 -121 420.5t-328 154.5zM751 1427q295 0 472 -198t177 -531q0 -332 -177 -530t-472 -198q-296 0 -473.5 197.5t-177.5 530.5t177.5 531t473.5 198zM841 1554l-330 278
v29h207l217 -287v-20h-94z" />
    <glyph glyph-name="Oacute" unicode="&#xd3;" horiz-adv-x="1499" 
d="M751 1273q-207 0 -329 -154.5t-122 -420.5q0 -265 122 -419.5t329 -154.5t328 154.5t121 419.5q0 266 -121 420.5t-328 154.5zM751 1427q295 0 472 -198t177 -531q0 -332 -177 -530t-472 -198q-296 0 -473.5 197.5t-177.5 530.5t177.5 531t473.5 198zM542 1554v20
l217 287h207v-29l-330 -278h-94z" />
    <glyph glyph-name="Ocircumflex" unicode="&#xd4;" horiz-adv-x="1499" 
d="M751 1273q-207 0 -329 -154.5t-122 -420.5q0 -265 122 -419.5t329 -154.5t328 154.5t121 419.5q0 266 -121 420.5t-328 154.5zM751 1427q295 0 472 -198t177 -531q0 -332 -177 -530t-472 -198q-296 0 -473.5 197.5t-177.5 530.5t177.5 531t473.5 198zM1086 1572v-20h-105
l-219 169h-2l-232 -169h-104v20l234 270h204z" />
    <glyph glyph-name="Otilde" unicode="&#xd5;" horiz-adv-x="1499" 
d="M751 1273q-207 0 -329 -154.5t-122 -420.5q0 -265 122 -419.5t329 -154.5t328 154.5t121 419.5q0 266 -121 420.5t-328 154.5zM751 1427q295 0 472 -198t177 -531q0 -332 -177 -530t-472 -198q-296 0 -473.5 197.5t-177.5 530.5t177.5 531t473.5 198zM908 1539
q-42 0 -84 18.5t-81 41t-74.5 41t-66.5 18.5q-55 0 -82 -31t-36 -88h-91q5 45 15 92.5t32.5 86.5t59.5 64t96 25q44 0 86 -18.5t81 -41l73.5 -41t64.5 -18.5q54 0 81.5 31.5t35.5 87.5h92q-5 -44 -15 -91.5t-31.5 -86.5t-58.5 -64.5t-97 -25.5z" />
    <glyph glyph-name="Odieresis" unicode="&#xd6;" horiz-adv-x="1499" 
d="M751 1273q-207 0 -329 -154.5t-122 -420.5q0 -265 122 -419.5t329 -154.5t328 154.5t121 419.5q0 266 -121 420.5t-328 154.5zM751 1427q295 0 472 -198t177 -531q0 -332 -177 -530t-472 -198q-296 0 -473.5 197.5t-177.5 530.5t177.5 531t473.5 198zM864 1555v184h163
v-184h-163zM470 1555v184h165v-184h-165z" />
    <glyph glyph-name="multiply" unicode="&#xd7;" horiz-adv-x="1200" 
d="M142 330l354 354l-352 352l104 103l350 -353l350 351l105 -105l-350 -348l352 -352l-102 -105l-353 353l-356 -355z" />
    <glyph glyph-name="Oslash" unicode="&#xd8;" horiz-adv-x="1601" 
d="M1495 711q0 -165 -47.5 -300t-137.5 -231t-220 -148t-295 -52q-127 0 -230 29t-184 83l-120 -145h-190l200 241q-88 97 -131 230t-43 293q0 165 46 298t135 226.5t219.5 144t299.5 50.5q125 0 228.5 -28t185.5 -82l121 146h192l-201 -242q85 -94 128.5 -223.5
t43.5 -289.5zM1300 711q0 112 -24.5 204t-73.5 164l-709 -853q59 -44 134 -67.5t168 -23.5q132 0 227.5 43t157 119.5t91 182.5t29.5 231zM291 711q0 -113 25 -208t76 -170l707 853q-59 42 -134.5 65t-167.5 23q-126 0 -221 -40t-158.5 -114t-95 -178t-31.5 -231z" />
    <glyph glyph-name="Ugrave" unicode="&#xd9;" horiz-adv-x="1401" 
d="M694 -20q-116 0 -220 31t-182.5 96.5t-124.5 166t-46 238.5v897h191v-881q0 -107 28.5 -181.5t79.5 -121.5t120.5 -68.5t152.5 -21.5q82 0 155 22t128 70t86.5 125.5t31.5 188.5v868h190v-879q0 -141 -46.5 -244.5t-126.5 -171.5t-187.5 -101t-229.5 -33zM828 1555
l-330 278v29h207l217 -287v-20h-94z" />
    <glyph glyph-name="Uacute" unicode="&#xda;" horiz-adv-x="1401" 
d="M694 -20q-116 0 -220 31t-182.5 96.5t-124.5 166t-46 238.5v897h191v-881q0 -107 28.5 -181.5t79.5 -121.5t120.5 -68.5t152.5 -21.5q82 0 155 22t128 70t86.5 125.5t31.5 188.5v868h190v-879q0 -141 -46.5 -244.5t-126.5 -171.5t-187.5 -101t-229.5 -33zM605 1554v20
l217 287h207v-29l-330 -278h-94z" />
    <glyph glyph-name="Ucircumflex" unicode="&#xdb;" horiz-adv-x="1401" 
d="M694 -20q-116 0 -220 31t-182.5 96.5t-124.5 166t-46 238.5v897h191v-881q0 -107 28.5 -181.5t79.5 -121.5t120.5 -68.5t152.5 -21.5q82 0 155 22t128 70t86.5 125.5t31.5 188.5v868h190v-879q0 -141 -46.5 -244.5t-126.5 -171.5t-187.5 -101t-229.5 -33zM1089 1571v-20
h-105l-219 169h-2l-232 -169h-104v20l234 270h204z" />
    <glyph glyph-name="Udieresis" unicode="&#xdc;" horiz-adv-x="1401" 
d="M694 -20q-116 0 -220 31t-182.5 96.5t-124.5 166t-46 238.5v897h191v-881q0 -107 28.5 -181.5t79.5 -121.5t120.5 -68.5t152.5 -21.5q82 0 155 22t128 70t86.5 125.5t31.5 188.5v868h190v-879q0 -141 -46.5 -244.5t-126.5 -171.5t-187.5 -101t-229.5 -33zM857 1555v184
h163v-184h-163zM463 1555v184h165v-184h-165z" />
    <glyph glyph-name="Yacute" unicode="&#xdd;" horiz-adv-x="1299" 
d="M738 584v-584h-190v584l-542 825h210l429 -671l427 671h210zM512 1554v20l217 287h207v-29l-330 -278h-94z" />
    <glyph glyph-name="Thorn" unicode="&#xde;" horiz-adv-x="1299" 
d="M1198 735q0 -88 -29.5 -167.5t-90 -139.5t-151.5 -95.5t-214 -35.5h-414v-297h-191v1409h191v-252h402q125 0 218 -30t155 -85.5t93 -133.5t31 -173zM1006 731q0 134 -82 208.5t-246 74.5h-379v-576h387q82 0 142.5 22t100 61.5t58.5 93t19 116.5z" />
    <glyph glyph-name="germandbls" unicode="&#xdf;" horiz-adv-x="1200" 
d="M1127 295q0 -66 -20.5 -123.5t-64 -100t-111.5 -67t-162 -24.5q-80 0 -154 12.5t-129 36.5l-2 164q25 -14 58.5 -26.5t70.5 -22t76 -15t76 -5.5q92 0 141 43t49 122q0 56 -27 94.5t-67.5 69.5t-88 59.5t-88 65t-67.5 85.5t-27 122q0 51 16.5 87.5t41 65.5t53.5 53
t53.5 50t41 57.5t16.5 74.5q0 37 -16.5 68t-48 53.5t-76.5 35.5t-102 13q-68 0 -121.5 -17.5t-90 -56t-56 -99.5t-19.5 -149v-1021h-180v1027q0 118 31.5 204.5t91.5 142.5t147 83t197 27q102 0 179.5 -23t130 -63t79 -94.5t26.5 -116.5q0 -61 -16.5 -106t-42 -79.5
t-54.5 -61l-54.5 -50t-42 -47.5t-16.5 -52q0 -38 27.5 -67.5t68.5 -58l88.5 -60.5t88.5 -74.5t68.5 -99.5t27.5 -136z" />
    <glyph glyph-name="agrave" unicode="&#xe0;" horiz-adv-x="1137" 
d="M401 -20q-163 0 -245 86t-82 236q0 107 40.5 175.5t106 107.5t149.5 54t171 17l243 4v59q0 67 -14 114t-43 76t-72.5 42.5t-102.5 13.5q-52 0 -94 -7.5t-73 -27t-50 -53t-25 -84.5l-188 17q10 64 38 117.5t79.5 92.5t129 60.5t187.5 21.5q204 0 307 -93.5t103 -270.5
v-466q0 -80 21 -120.5t80 -40.5q15 0 30 2t29 5v-112q-34 -8 -67.5 -12t-71.5 -4q-51 0 -87.5 13.5t-59.5 41t-35 68t-15 94.5h-6q-29 -52 -63.5 -94t-80.5 -71.5t-104.5 -45.5t-134.5 -16zM442 115q86 0 150.5 31.5t107 80.5t63.5 107t21 111v89l-197 -4
q-66 -1 -125.5 -9.5t-104.5 -33.5t-71.5 -70t-26.5 -118q0 -88 47.5 -136t135.5 -48zM651 1201l-330 278v29h207l217 -287v-20h-94z" />
    <glyph glyph-name="aacute" unicode="&#xe1;" horiz-adv-x="1137" 
d="M401 -20q-163 0 -245 86t-82 236q0 107 40.5 175.5t106 107.5t149.5 54t171 17l243 4v59q0 67 -14 114t-43 76t-72.5 42.5t-102.5 13.5q-52 0 -94 -7.5t-73 -27t-50 -53t-25 -84.5l-188 17q10 64 38 117.5t79.5 92.5t129 60.5t187.5 21.5q204 0 307 -93.5t103 -270.5
v-466q0 -80 21 -120.5t80 -40.5q15 0 30 2t29 5v-112q-34 -8 -67.5 -12t-71.5 -4q-51 0 -87.5 13.5t-59.5 41t-35 68t-15 94.5h-6q-29 -52 -63.5 -94t-80.5 -71.5t-104.5 -45.5t-134.5 -16zM442 115q86 0 150.5 31.5t107 80.5t63.5 107t21 111v89l-197 -4
q-66 -1 -125.5 -9.5t-104.5 -33.5t-71.5 -70t-26.5 -118q0 -88 47.5 -136t135.5 -48zM445 1201v20l217 287h207v-29l-330 -278h-94z" />
    <glyph glyph-name="acircumflex" unicode="&#xe2;" horiz-adv-x="1138" 
d="M401 -20q-163 0 -245 86t-82 236q0 107 40.5 175.5t106 107.5t149.5 54t171 17l243 4v59q0 67 -14 114t-43 76t-72.5 42.5t-102.5 13.5q-52 0 -94 -7.5t-73 -27t-50 -53t-25 -84.5l-188 17q10 64 38 117.5t79.5 92.5t129 60.5t187.5 21.5q204 0 307 -93.5t103 -270.5
v-466q0 -80 21 -120.5t80 -40.5q15 0 30 2t29 5v-112q-34 -8 -67.5 -12t-71.5 -4q-51 0 -87.5 13.5t-59.5 41t-35 68t-15 94.5h-6q-29 -52 -63.5 -94t-80.5 -71.5t-104.5 -45.5t-134.5 -16zM442 115q86 0 150.5 31.5t107 80.5t63.5 107t21 111v89l-197 -4
q-66 -1 -125.5 -9.5t-104.5 -33.5t-71.5 -70t-26.5 -118q0 -88 47.5 -136t135.5 -48zM887 1218v-20h-105l-219 169h-2l-232 -169h-104v20l234 270h204z" />
    <glyph glyph-name="atilde" unicode="&#xe3;" horiz-adv-x="1138" 
d="M401 -20q-163 0 -245 86t-82 236q0 107 40.5 175.5t106 107.5t149.5 54t171 17l243 4v59q0 67 -14 114t-43 76t-72.5 42.5t-102.5 13.5q-52 0 -94 -7.5t-73 -27t-50 -53t-25 -84.5l-188 17q10 64 38 117.5t79.5 92.5t129 60.5t187.5 21.5q204 0 307 -93.5t103 -270.5
v-466q0 -80 21 -120.5t80 -40.5q15 0 30 2t29 5v-112q-34 -8 -67.5 -12t-71.5 -4q-51 0 -87.5 13.5t-59.5 41t-35 68t-15 94.5h-6q-29 -52 -63.5 -94t-80.5 -71.5t-104.5 -45.5t-134.5 -16zM442 115q86 0 150.5 31.5t107 80.5t63.5 107t21 111v89l-197 -4
q-66 -1 -125.5 -9.5t-104.5 -33.5t-71.5 -70t-26.5 -118q0 -88 47.5 -136t135.5 -48zM726 1201q-42 0 -84 18.5t-81 41t-74.5 41t-66.5 18.5q-55 0 -82 -31t-36 -88h-91q5 45 15 92.5t32.5 86.5t59.5 64t96 25q44 0 86 -18.5t81 -41l73.5 -41t64.5 -18.5q54 0 81.5 31.5
t35.5 87.5h92q-5 -44 -15 -91.5t-31.5 -86.5t-58.5 -64.5t-97 -25.5z" />
    <glyph glyph-name="adieresis" unicode="&#xe4;" horiz-adv-x="1138" 
d="M401 -20q-163 0 -245 86t-82 236q0 107 40.5 175.5t106 107.5t149.5 54t171 17l243 4v59q0 67 -14 114t-43 76t-72.5 42.5t-102.5 13.5q-52 0 -94 -7.5t-73 -27t-50 -53t-25 -84.5l-188 17q10 64 38 117.5t79.5 92.5t129 60.5t187.5 21.5q204 0 307 -93.5t103 -270.5
v-466q0 -80 21 -120.5t80 -40.5q15 0 30 2t29 5v-112q-34 -8 -67.5 -12t-71.5 -4q-51 0 -87.5 13.5t-59.5 41t-35 68t-15 94.5h-6q-29 -52 -63.5 -94t-80.5 -71.5t-104.5 -45.5t-134.5 -16zM442 115q86 0 150.5 31.5t107 80.5t63.5 107t21 111v89l-197 -4
q-66 -1 -125.5 -9.5t-104.5 -33.5t-71.5 -70t-26.5 -118q0 -88 47.5 -136t135.5 -48zM668 1219v184h163v-184h-163zM274 1219v184h165v-184h-165z" />
    <glyph glyph-name="aring" unicode="&#xe5;" horiz-adv-x="1139" 
d="M401 -20q-163 0 -245 86t-82 236q0 107 40.5 175.5t106 107.5t149.5 54t171 17l243 4v59q0 67 -14 114t-43 76t-72.5 42.5t-102.5 13.5q-52 0 -94 -7.5t-73 -27t-50 -53t-25 -84.5l-188 17q10 64 38 117.5t79.5 92.5t129 60.5t187.5 21.5q204 0 307 -93.5t103 -270.5
v-466q0 -80 21 -120.5t80 -40.5q15 0 30 2t29 5v-112q-34 -8 -67.5 -12t-71.5 -4q-51 0 -87.5 13.5t-59.5 41t-35 68t-15 94.5h-6q-29 -52 -63.5 -94t-80.5 -71.5t-104.5 -45.5t-134.5 -16zM442 115q86 0 150.5 31.5t107 80.5t63.5 107t21 111v89l-197 -4
q-66 -1 -125.5 -9.5t-104.5 -33.5t-71.5 -70t-26.5 -118q0 -88 47.5 -136t135.5 -48zM368 1338q0 73 53.5 126t126.5 53q74 0 127 -53.5t53 -129.5q0 -77 -53 -130t-126 -53q-75 0 -128 53.5t-53 133.5zM444 1337q0 -47 31.5 -79t74.5 -32t74.5 32t31.5 77t-31 77t-75 32
q-43 0 -74.5 -31.5t-31.5 -75.5z" />
    <glyph glyph-name="ae" unicode="&#xe6;" horiz-adv-x="1799" 
d="M968 503v-17q1 -82 18 -150t52 -117t89.5 -76.5t132.5 -27.5q117 0 187.5 47t95.5 119l158 -45q-17 -45 -47.5 -90.5t-81.5 -82t-127.5 -60t-184.5 -23.5q-321 0 -423 257q-29 -51 -66 -97.5t-88 -82t-119.5 -56.5t-161.5 -21q-167 0 -251.5 86t-84.5 236q0 71 19 125
t52.5 93t79 64.5t99 41.5t112 22.5t118.5 7.5l240 4v59q0 67 -13 114t-41.5 76t-72.5 42.5t-105 13.5q-54 0 -98 -7.5t-76 -27t-51.5 -53t-26.5 -84.5l-188 17q10 64 39 117.5t81.5 92.5t132 60.5t191.5 21.5q128 0 214 -35t135 -104q63 74 151.5 106.5t194.5 32.5
q136 0 227.5 -44t147 -121.5t79 -182.5t23.5 -227v-24h-762zM786 534l-195 -4q-40 -1 -80.5 -4t-78.5 -12t-71 -24.5t-57.5 -41t-38.5 -62t-14 -87.5q0 -87 50 -135.5t143 -48.5q90 0 154.5 31.5t106 80.5t61.5 107t20 111v89zM1544 641q-15 171 -87 249.5t-207 78.5
q-45 0 -93 -14.5t-88.5 -51.5t-67.5 -100.5t-31 -161.5h574z" />
    <glyph glyph-name="ccedilla" unicode="&#xe7;" horiz-adv-x="1000" 
d="M459 -17q-86 8 -152 40q-89 43 -144.5 118.5t-80.5 178t-25 222.5q0 109 18 192.5t50.5 146t76.5 105t95.5 68t108.5 37t115 11.5q91 0 162 -25t122.5 -68.5t83.5 -102.5t45 -127l-185 -14q-14 90 -71 143t-162 53q-77 0 -128.5 -25.5t-83.5 -77t-45.5 -129.5t-13.5 -183
q0 -93 13.5 -171t45.5 -134.5t84.5 -87.5t129.5 -31q96 0 160.5 52t79.5 160l182 -12q-9 -67 -39 -129t-81.5 -109t-125.5 -75q-58 -23 -129 -28l-32 -81q94 -3 141 -43.5t47 -109.5q0 -41 -15 -74.5t-47.5 -57.5t-84.5 -36.5t-127 -12.5q-20 0 -42.5 0.5t-47.5 3.5v98
q49 -6 86 -6q41 0 69 6t45.5 16.5t25 25.5t7.5 33q0 37 -30.5 57t-102.5 20h-28q-15 0 -29 -2z" />
    <glyph glyph-name="egrave" unicode="&#xe8;" 
d="M254 503q0 -85 17.5 -156.5t54 -123t93.5 -80t137 -28.5q117 0 187.5 47t95.5 119l158 -45q-17 -45 -47.5 -90.5t-81.5 -82t-127.5 -60t-184.5 -23.5q-240 0 -365.5 143t-125.5 425q0 152 38 257.5t104 171.5t154 95.5t188 29.5q136 0 227.5 -44t147 -121.5t79 -182.5
t23.5 -227v-24h-772zM840 641q-15 171 -87 249.5t-207 78.5q-45 0 -94.5 -14.5t-91.5 -51.5t-71 -100.5t-33 -161.5h584zM643 1201l-330 278v29h207l217 -287v-20h-94z" />
    <glyph glyph-name="eacute" unicode="&#xe9;" 
d="M254 503q0 -85 17.5 -156.5t54 -123t93.5 -80t137 -28.5q117 0 187.5 47t95.5 119l158 -45q-17 -45 -47.5 -90.5t-81.5 -82t-127.5 -60t-184.5 -23.5q-240 0 -365.5 143t-125.5 425q0 152 38 257.5t104 171.5t154 95.5t188 29.5q136 0 227.5 -44t147 -121.5t79 -182.5
t23.5 -227v-24h-772zM840 641q-15 171 -87 249.5t-207 78.5q-45 0 -94.5 -14.5t-91.5 -51.5t-71 -100.5t-33 -161.5h584zM389 1201v20l217 287h207v-29l-330 -278h-94z" />
    <glyph glyph-name="ecircumflex" unicode="&#xea;" 
d="M254 503q0 -85 17.5 -156.5t54 -123t93.5 -80t137 -28.5q117 0 187.5 47t95.5 119l158 -45q-17 -45 -47.5 -90.5t-81.5 -82t-127.5 -60t-184.5 -23.5q-240 0 -365.5 143t-125.5 425q0 152 38 257.5t104 171.5t154 95.5t188 29.5q136 0 227.5 -44t147 -121.5t79 -182.5
t23.5 -227v-24h-772zM840 641q-15 171 -87 249.5t-207 78.5q-45 0 -94.5 -14.5t-91.5 -51.5t-71 -100.5t-33 -161.5h584zM875 1218v-20h-105l-219 169h-2l-232 -169h-104v20l234 270h204z" />
    <glyph glyph-name="edieresis" unicode="&#xeb;" 
d="M254 503q0 -85 17.5 -156.5t54 -123t93.5 -80t137 -28.5q117 0 187.5 47t95.5 119l158 -45q-17 -45 -47.5 -90.5t-81.5 -82t-127.5 -60t-184.5 -23.5q-240 0 -365.5 143t-125.5 425q0 152 38 257.5t104 171.5t154 95.5t188 29.5q136 0 227.5 -44t147 -121.5t79 -182.5
t23.5 -227v-24h-772zM840 641q-15 171 -87 249.5t-207 78.5q-45 0 -94.5 -14.5t-91.5 -51.5t-71 -100.5t-33 -161.5h584zM652 1219v184h163v-184h-163zM258 1219v184h165v-184h-165z" />
    <glyph glyph-name="igrave" unicode="&#xec;" horiz-adv-x="569" 
d="M181 0v1062h180v-1062h-180zM368 1201l-330 278v29h207l217 -287v-20h-94z" />
    <glyph glyph-name="iacute" unicode="&#xed;" horiz-adv-x="569" 
d="M197 0v1062h180v-1062h-180zM76 1201v20l217 287h207v-29l-330 -278h-94z" />
    <glyph glyph-name="icircumflex" unicode="&#xee;" horiz-adv-x="569" 
d="M198 0v1062h180v-1062h-180zM630 1218v-20h-105l-219 169h-2l-232 -169h-104v20l234 270h204z" />
    <glyph glyph-name="idieresis" unicode="&#xef;" horiz-adv-x="569" 
d="M194 0v1062h180v-1062h-180zM398 1219v184h163v-184h-163zM4 1219v184h165v-184h-165z" />
    <glyph glyph-name="eth" unicode="&#xf0;" 
d="M546 -20q-125 0 -215.5 36.5t-149.5 102.5t-87 158.5t-28 203.5q0 107 26 198t84 158t151 104.5t226 37.5q71 0 129.5 -16t101.5 -43q-43 86 -100.5 174t-133.5 157l-301 -133v114l218 94q-56 45 -116 84t-126 74h209q45 -20 86.5 -45.5t83.5 -56.5l306 132l-1 -112
l-211 -92q81 -74 145.5 -162t108.5 -188t67.5 -211.5t23.5 -232.5v-6q0 -122 -28.5 -220t-88.5 -167t-154 -106t-226 -37zM854 481q0 94 -16.5 162.5t-52 113.5t-92 67t-136.5 22q-81 0 -138.5 -22.5t-94 -68.5t-53 -114.5t-16.5 -159.5q0 -190 72 -279t217 -89q81 0 140 22
t96.5 67t55.5 114.5t18 164.5z" />
    <glyph glyph-name="ntilde" unicode="&#xf1;" 
d="M804 0v686q0 79 -11.5 132t-37.5 85.5t-68.5 46t-105.5 13.5q-64 0 -115.5 -22.5t-88 -65t-56.5 -105t-20 -143.5v-627h-180v851q0 34 -0.5 71.5t-1.5 71t-2 57.5t-2 31h170q1 -5 2 -27t2.5 -50.5t2.5 -58t1 -49.5h3q26 47 57 85t72 64.5t94 41t123 14.5q90 0 155 -22
t107 -68t61.5 -118.5t19.5 -172.5v-721h-181zM737 1201q-42 0 -84 18.5t-81 41t-74.5 41t-66.5 18.5q-55 0 -82 -31t-36 -88h-91q5 45 15 92.5t32.5 86.5t59.5 64t96 25q44 0 86 -18.5t81 -41l73.5 -41t64.5 -18.5q54 0 81.5 31.5t35.5 87.5h92q-5 -44 -15 -91.5
t-31.5 -86.5t-58.5 -64.5t-97 -25.5z" />
    <glyph glyph-name="ograve" unicode="&#xf2;" 
d="M1025 542q0 -284 -125 -423t-363 -139q-113 0 -202 34t-150.5 104t-94 175.5t-32.5 248.5q0 560 485 560q126 0 217.5 -35t150 -105t86.5 -175t28 -245zM836 542q0 126 -19.5 208t-57 131t-91.5 68.5t-122 19.5q-69 0 -124.5 -20.5t-94.5 -70t-59.5 -131.5t-20.5 -205
q0 -126 22 -208.5t60.5 -131.5t91 -69t114.5 -20q69 0 125 19.5t95 68.5t60 132t21 209zM620 1201l-330 278v29h207l217 -287v-20h-94z" />
    <glyph glyph-name="oacute" unicode="&#xf3;" 
d="M1025 542q0 -284 -125 -423t-363 -139q-113 0 -202 34t-150.5 104t-94 175.5t-32.5 248.5q0 560 485 560q126 0 217.5 -35t150 -105t86.5 -175t28 -245zM836 542q0 126 -19.5 208t-57 131t-91.5 68.5t-122 19.5q-69 0 -124.5 -20.5t-94.5 -70t-59.5 -131.5t-20.5 -205
q0 -126 22 -208.5t60.5 -131.5t91 -69t114.5 -20q69 0 125 19.5t95 68.5t60 132t21 209zM367 1201v20l217 287h207v-29l-330 -278h-94z" />
    <glyph glyph-name="ocircumflex" unicode="&#xf4;" 
d="M1025 542q0 -284 -125 -423t-363 -139q-113 0 -202 34t-150.5 104t-94 175.5t-32.5 248.5q0 560 485 560q126 0 217.5 -35t150 -105t86.5 -175t28 -245zM836 542q0 126 -19.5 208t-57 131t-91.5 68.5t-122 19.5q-69 0 -124.5 -20.5t-94.5 -70t-59.5 -131.5t-20.5 -205
q0 -126 22 -208.5t60.5 -131.5t91 -69t114.5 -20q69 0 125 19.5t95 68.5t60 132t21 209zM876 1218v-20h-105l-219 169h-2l-232 -169h-104v20l234 270h204z" />
    <glyph glyph-name="otilde" unicode="&#xf5;" 
d="M1025 542q0 -284 -125 -423t-363 -139q-113 0 -202 34t-150.5 104t-94 175.5t-32.5 248.5q0 560 485 560q126 0 217.5 -35t150 -105t86.5 -175t28 -245zM836 542q0 126 -19.5 208t-57 131t-91.5 68.5t-122 19.5q-69 0 -124.5 -20.5t-94.5 -70t-59.5 -131.5t-20.5 -205
q0 -126 22 -208.5t60.5 -131.5t91 -69t114.5 -20q69 0 125 19.5t95 68.5t60 132t21 209zM687 1201q-42 0 -84 18.5t-81 41t-74.5 41t-66.5 18.5q-55 0 -82 -31t-36 -88h-91q5 45 15 92.5t32.5 86.5t59.5 64t96 25q44 0 86 -18.5t81 -41l73.5 -41t64.5 -18.5q54 0 81.5 31.5
t35.5 87.5h92q-5 -44 -15 -91.5t-31.5 -86.5t-58.5 -64.5t-97 -25.5z" />
    <glyph glyph-name="odieresis" unicode="&#xf6;" 
d="M1025 542q0 -284 -125 -423t-363 -139q-113 0 -202 34t-150.5 104t-94 175.5t-32.5 248.5q0 560 485 560q126 0 217.5 -35t150 -105t86.5 -175t28 -245zM836 542q0 126 -19.5 208t-57 131t-91.5 68.5t-122 19.5q-69 0 -124.5 -20.5t-94.5 -70t-59.5 -131.5t-20.5 -205
q0 -126 22 -208.5t60.5 -131.5t91 -69t114.5 -20q69 0 125 19.5t95 68.5t60 132t21 209zM663 1219v184h163v-184h-163zM269 1219v184h165v-184h-165z" />
    <glyph glyph-name="divide" unicode="&#xf7;" horiz-adv-x="1124" 
d="M478 958v183h168v-183h-168zM65 608v146h995v-146h-995zM478 223v183h168v-183h-168z" />
    <glyph glyph-name="oslash" unicode="&#xf8;" horiz-adv-x="1200" 
d="M1082 542q0 -284 -125 -423t-363 -139q-97 0 -175 24t-138 74l-100 -116h-167l184 214q-41 68 -62 159t-21 207q0 560 485 560q103 0 181 -23t135 -68l91 105h167l-173 -201q42 -69 61.5 -161.5t19.5 -211.5zM893 542q0 68 -6 122.5t-17 98.5l-483 -562
q38 -49 90.5 -68.5t114.5 -19.5q69 0 125 19.5t95 68.5t60 132t21 209zM304 542q0 -130 24 -215l482 561q-37 45 -89 63t-118 18q-69 0 -124.5 -20.5t-94.5 -70t-59.5 -131.5t-20.5 -205z" />
    <glyph glyph-name="ugrave" unicode="&#xf9;" 
d="M302 1082v-686q0 -79 11.5 -132t37.5 -85.5t68.5 -46t105.5 -13.5q64 0 115.5 22.5t88 65t56.5 105t20 143.5v627h180v-851q0 -34 0.5 -71.5t1.5 -71t2 -57.5t2 -31h-170q-1 5 -2 27t-2.5 50.5t-2.5 58t-1 49.5h-3q-26 -47 -57 -85t-72 -64.5t-94 -41t-123 -14.5
q-90 0 -155 22t-107 68t-61.5 118t-19.5 173v721h181zM675 1201l-330 278v29h207l217 -287v-20h-94z" />
    <glyph glyph-name="uacute" unicode="&#xfa;" 
d="M302 1082v-686q0 -79 11.5 -132t37.5 -85.5t68.5 -46t105.5 -13.5q64 0 115.5 22.5t88 65t56.5 105t20 143.5v627h180v-851q0 -34 0.5 -71.5t1.5 -71t2 -57.5t2 -31h-170q-1 5 -2 27t-2.5 50.5t-2.5 58t-1 49.5h-3q-26 -47 -57 -85t-72 -64.5t-94 -41t-123 -14.5
q-90 0 -155 22t-107 68t-61.5 118t-19.5 173v721h181zM413 1201v20l217 287h207v-29l-330 -278h-94z" />
    <glyph glyph-name="ucircumflex" unicode="&#xfb;" 
d="M302 1082v-686q0 -79 11.5 -132t37.5 -85.5t68.5 -46t105.5 -13.5q64 0 115.5 22.5t88 65t56.5 105t20 143.5v627h180v-851q0 -34 0.5 -71.5t1.5 -71t2 -57.5t2 -31h-170q-1 5 -2 27t-2.5 50.5t-2.5 58t-1 49.5h-3q-26 -47 -57 -85t-72 -64.5t-94 -41t-123 -14.5
q-90 0 -155 22t-107 68t-61.5 118t-19.5 173v721h181zM872 1218v-20h-105l-219 169h-2l-232 -169h-104v20l234 270h204z" />
    <glyph glyph-name="udieresis" unicode="&#xfc;" 
d="M302 1082v-686q0 -79 11.5 -132t37.5 -85.5t68.5 -46t105.5 -13.5q64 0 115.5 22.5t88 65t56.5 105t20 143.5v627h180v-851q0 -34 0.5 -71.5t1.5 -71t2 -57.5t2 -31h-170q-1 5 -2 27t-2.5 50.5t-2.5 58t-1 49.5h-3q-26 -47 -57 -85t-72 -64.5t-94 -41t-123 -14.5
q-90 0 -155 22t-107 68t-61.5 118t-19.5 173v721h181zM669 1219v184h163v-184h-163zM275 1219v184h165v-184h-165z" />
    <glyph glyph-name="yacute" unicode="&#xfd;" horiz-adv-x="1000" 
d="M592 0q-38 -98 -77.5 -176.5t-88.5 -134t-109 -85t-138 -29.5q-34 0 -63 2t-61 9v135q19 -3 43 -4.5t41 -1.5q79 0 147 59t119 188l17 43l-429 1077h192l228 -598l25.5 -72l31 -90l27.5 -81t14 -45q3 11 14.5 43.5l26 72.5l29.5 81t25 71l212 618h190zM420 1201v20
l217 287h207v-29l-330 -278h-94z" />
    <glyph glyph-name="thorn" unicode="&#xfe;" 
d="M98 1484h180v-423q0 -30 -0.5 -57.5t-1.5 -48.5q-1 -25 -2 -47h6q25 52 57 88.5t73 60t91.5 34t113.5 10.5q112 0 188.5 -40t123 -112.5t66.5 -175t20 -227.5q0 -123 -20 -227t-66.5 -179t-123 -117.5t-188.5 -42.5q-116 0 -203 44t-133 144h-5q1 -2 1.5 -18t1 -40
t1 -53.5t0.5 -58.5v-423h-180v1909zM824 542q0 100 -12 178t-41.5 132t-78.5 82t-123 28q-60 0 -113 -17t-92.5 -65t-62.5 -132.5t-23 -219.5q0 -115 19 -194.5t55.5 -128.5t90.5 -70.5t124 -21.5q75 0 124.5 29t79 84t41.5 134.5t12 181.5z" />
    <glyph glyph-name="ydieresis" unicode="&#xff;" horiz-adv-x="1000" 
d="M592 0q-38 -98 -77.5 -176.5t-88.5 -134t-109 -85t-138 -29.5q-34 0 -63 2t-61 9v135q19 -3 43 -4.5t41 -1.5q79 0 147 59t119 188l17 43l-429 1077h192l228 -598l25.5 -72l31 -90l27.5 -81t14 -45q3 11 14.5 43.5l26 72.5l29.5 81t25 71l212 618h190zM643 1219v184h163
v-184h-163zM249 1219v184h165v-184h-165z" />
    <glyph glyph-name="Amacron" unicode="&#x100;" horiz-adv-x="1299" 
d="M1111 0l-153 412h-609l-154 -412h-188l546 1409h206l537 -1409h-185zM732 1026l-29 81t-24 74.5t-17.5 56t-8.5 27.5q-1 -5 -8 -28l-18 -57l-24.5 -75l-27.5 -81l-171 -463h500zM953 1589h-621v127h621v-127z" />
    <glyph glyph-name="amacron" unicode="&#x101;" horiz-adv-x="1138" 
d="M401 -20q-163 0 -245 86t-82 236q0 107 40.5 175.5t106 107.5t149.5 54t171 17l243 4v59q0 67 -14 114t-43 76t-72.5 42.5t-102.5 13.5q-52 0 -94 -7.5t-73 -27t-50 -53t-25 -84.5l-188 17q10 64 38 117.5t79.5 92.5t129 60.5t187.5 21.5q204 0 307 -93.5t103 -270.5
v-466q0 -80 21 -120.5t80 -40.5q15 0 30 2t29 5v-112q-34 -8 -67.5 -12t-71.5 -4q-51 0 -87.5 13.5t-59.5 41t-35 68t-15 94.5h-6q-29 -52 -63.5 -94t-80.5 -71.5t-104.5 -45.5t-134.5 -16zM442 115q86 0 150.5 31.5t107 80.5t63.5 107t21 111v89l-197 -4
q-66 -1 -125.5 -9.5t-104.5 -33.5t-71.5 -70t-26.5 -118q0 -88 47.5 -136t135.5 -48zM884 1236h-621v127h621v-127z" />
    <glyph glyph-name="Cacute" unicode="&#x106;" horiz-adv-x="1401" 
d="M740 1274q-120 0 -212.5 -40t-155 -114t-94.5 -178t-32 -231t34.5 -232.5t99 -181.5t158 -118t210.5 -42q82 0 149.5 21.5t122 60.5t97.5 92.5t76 118.5l156 -78q-38 -79 -94 -147t-131.5 -118t-171 -78.5t-213.5 -28.5q-171 0 -299.5 54.5t-215 152t-129.5 231.5
t-43 293q0 165 45.5 298t133 226.5t215.5 144t292 50.5q225 0 376 -88t222 -261l-181 -60q-20 50 -54 95.5t-85 80.5t-119.5 56t-156.5 21zM581 1565v20l217 287h207v-29l-330 -278h-94z" />
    <glyph glyph-name="cacute" unicode="&#x107;" horiz-adv-x="1000" 
d="M248 546q0 -93 13.5 -171t45.5 -134.5t84.5 -87.5t129.5 -31q96 0 160.5 52t79.5 160l182 -12q-9 -67 -39 -129t-81.5 -109t-125.5 -75.5t-171 -28.5q-127 0 -216 43t-144.5 118.5t-80.5 178t-25 222.5q0 109 18 192.5t50.5 146t76.5 105t95.5 68t108.5 37t115 11.5
q91 0 162 -25t122.5 -68.5t83.5 -102.5t45 -127l-185 -14q-14 90 -71 143t-162 53q-77 0 -128.5 -25.5t-83.5 -77t-45.5 -129.5t-13.5 -183zM392 1201v20l217 287h207v-29l-330 -278h-94z" />
    <glyph glyph-name="Ccircumflex" unicode="&#x108;" horiz-adv-x="1401" 
d="M740 1274q-120 0 -212.5 -40t-155 -114t-94.5 -178t-32 -231t34.5 -232.5t99 -181.5t158 -118t210.5 -42q82 0 149.5 21.5t122 60.5t97.5 92.5t76 118.5l156 -78q-38 -79 -94 -147t-131.5 -118t-171 -78.5t-213.5 -28.5q-171 0 -299.5 54.5t-215 152t-129.5 231.5
t-43 293q0 165 45.5 298t133 226.5t215.5 144t292 50.5q225 0 376 -88t222 -261l-181 -60q-20 50 -54 95.5t-85 80.5t-119.5 56t-156.5 21zM1066 1575v-20h-105l-219 169h-2l-232 -169h-104v20l234 270h204z" />
    <glyph glyph-name="ccircumflex" unicode="&#x109;" horiz-adv-x="1000" 
d="M248 546q0 -93 13.5 -171t45.5 -134.5t84.5 -87.5t129.5 -31q96 0 160.5 52t79.5 160l182 -12q-9 -67 -39 -129t-81.5 -109t-125.5 -75.5t-171 -28.5q-127 0 -216 43t-144.5 118.5t-80.5 178t-25 222.5q0 109 18 192.5t50.5 146t76.5 105t95.5 68t108.5 37t115 11.5
q91 0 162 -25t122.5 -68.5t83.5 -102.5t45 -127l-185 -14q-14 90 -71 143t-162 53q-77 0 -128.5 -25.5t-83.5 -77t-45.5 -129.5t-13.5 -183zM860 1218v-20h-105l-219 169h-2l-232 -169h-104v20l234 270h204z" />
    <glyph glyph-name="Ccaron" unicode="&#x10c;" horiz-adv-x="1401" 
d="M740 1274q-120 0 -212.5 -40t-155 -114t-94.5 -178t-32 -231t34.5 -232.5t99 -181.5t158 -118t210.5 -42q82 0 149.5 21.5t122 60.5t97.5 92.5t76 118.5l156 -78q-38 -79 -94 -147t-131.5 -118t-171 -78.5t-213.5 -28.5q-171 0 -299.5 54.5t-215 152t-129.5 231.5
t-43 293q0 165 45.5 298t133 226.5t215.5 144t292 50.5q225 0 376 -88t222 -261l-181 -60q-20 50 -54 95.5t-85 80.5t-119.5 56t-156.5 21zM841 1561h-204l-234 270v20h104l232 -169h2l219 169h105v-20z" />
    <glyph glyph-name="ccaron" unicode="&#x10d;" horiz-adv-x="1000" 
d="M248 546q0 -93 13.5 -171t45.5 -134.5t84.5 -87.5t129.5 -31q96 0 160.5 52t79.5 160l182 -12q-9 -67 -39 -129t-81.5 -109t-125.5 -75.5t-171 -28.5q-127 0 -216 43t-144.5 118.5t-80.5 178t-25 222.5q0 109 18 192.5t50.5 146t76.5 105t95.5 68t108.5 37t115 11.5
q91 0 162 -25t122.5 -68.5t83.5 -102.5t45 -127l-185 -14q-14 90 -71 143t-162 53q-77 0 -128.5 -25.5t-83.5 -77t-45.5 -129.5t-13.5 -183zM632 1201h-204l-234 270v20h104l232 -169h2l219 169h105v-20z" />
    <glyph glyph-name="Emacron" unicode="&#x112;" horiz-adv-x="1299" 
d="M122 0v1409h1069v-156h-878v-452h818v-154h-818v-491h919v-156h-1110zM992 1597h-621v127h621v-127z" />
    <glyph glyph-name="emacron" unicode="&#x113;" 
d="M254 503q0 -85 17.5 -156.5t54 -123t93.5 -80t137 -28.5q117 0 187.5 47t95.5 119l158 -45q-17 -45 -47.5 -90.5t-81.5 -82t-127.5 -60t-184.5 -23.5q-240 0 -365.5 143t-125.5 425q0 152 38 257.5t104 171.5t154 95.5t188 29.5q136 0 227.5 -44t147 -121.5t79 -182.5
t23.5 -227v-24h-772zM840 641q-15 171 -87 249.5t-207 78.5q-45 0 -94.5 -14.5t-91.5 -51.5t-71 -100.5t-33 -161.5h584zM848 1236h-621v127h621v-127z" />
    <glyph glyph-name="Ecaron" unicode="&#x11a;" horiz-adv-x="1299" 
d="M122 0v1409h1069v-156h-878v-452h818v-154h-818v-491h919v-156h-1110zM805 1528h-204l-234 270v20h104l232 -169h2l219 169h105v-20z" />
    <glyph glyph-name="ecaron" unicode="&#x11b;" 
d="M254 503q0 -85 17.5 -156.5t54 -123t93.5 -80t137 -28.5q117 0 187.5 47t95.5 119l158 -45q-17 -45 -47.5 -90.5t-81.5 -82t-127.5 -60t-184.5 -23.5q-240 0 -365.5 143t-125.5 425q0 152 38 257.5t104 171.5t154 95.5t188 29.5q136 0 227.5 -44t147 -121.5t79 -182.5
t23.5 -227v-24h-772zM840 641q-15 171 -87 249.5t-207 78.5q-45 0 -94.5 -14.5t-91.5 -51.5t-71 -100.5t-33 -161.5h584zM653 1201h-204l-234 270v20h104l232 -169h2l219 169h105v-20z" />
    <glyph glyph-name="Gcircumflex" unicode="&#x11c;" horiz-adv-x="1499" 
d="M89 711q0 165 44.5 298t133 226.5t219.5 144t304 50.5q130 0 228 -23t170 -66t122 -104.5t85 -138.5l-182 -54q-26 52 -62.5 94.5t-88.5 72.5t-120.5 46.5t-156.5 16.5q-128 0 -222.5 -40t-156.5 -114t-92.5 -178t-30.5 -231t33 -232.5t98 -182t161.5 -119t223.5 -42.5
q83 0 153 14t126.5 36.5t99.5 50t72 55.5v254h-421v160h597v-486q-47 -48 -110.5 -91.5t-142.5 -76.5t-173 -52t-201 -19q-178 0 -311 54.5t-221.5 152t-133 231.5t-44.5 293zM1125 1569v-20h-105l-219 169h-2l-232 -169h-104v20l234 270h204z" />
    <glyph glyph-name="gcircumflex" unicode="&#x11d;" 
d="M528 -425q-93 0 -165 19t-123 54.5t-83 84.5t-46 109l181 26q18 -75 79.5 -115.5t161.5 -40.5q61 0 111 17t85 54.5t54 97.5t19 146v174h-2q-20 -41 -49.5 -78.5t-72 -66.5t-98.5 -46.5t-128 -17.5q-103 0 -176.5 34.5t-120 103.5t-68 171.5t-21.5 237.5q0 130 21.5 234
t70 176.5t126 111t188.5 38.5q115 0 199.5 -52.5t130.5 -149.5h2q0 25 1.5 56t3 58.5t3.5 47.5t4 23h171q-1 -9 -2 -30.5t-2 -51.5t-1.5 -66.5t-0.5 -75.5v-827q0 -227 -111.5 -341.5t-341.5 -114.5zM802 541q0 113 -24.5 193.5t-64.5 131.5t-91.5 75t-105.5 24
q-69 0 -118.5 -24t-82 -75.5t-48 -132t-15.5 -192.5q0 -117 15.5 -196.5t47.5 -128.5t81 -70t117 -21q54 0 105.5 23t92.5 73t66 129t25 191zM861 1218v-20h-105l-219 169h-2l-232 -169h-104v20l234 270h204z" />
    <glyph glyph-name="Gbreve" unicode="&#x11e;" horiz-adv-x="1499" 
d="M89 711q0 165 44.5 298t133 226.5t219.5 144t304 50.5q130 0 228 -23t170 -66t122 -104.5t85 -138.5l-182 -54q-26 52 -62.5 94.5t-88.5 72.5t-120.5 46.5t-156.5 16.5q-128 0 -222.5 -40t-156.5 -114t-92.5 -178t-30.5 -231t33 -232.5t98 -182t161.5 -119t223.5 -42.5
q83 0 153 14t126.5 36.5t99.5 50t72 55.5v254h-421v160h597v-486q-47 -48 -110.5 -91.5t-142.5 -76.5t-173 -52t-201 -19q-178 0 -311 54.5t-221.5 152t-133 231.5t-44.5 293zM788 1548q-74 0 -132 25.5t-100 68t-67 98.5t-33 117h117q8 -43 27.5 -72.5t47.5 -47.5t64 -25.5
t78 -7.5t77.5 8t63.5 26t47 47.5t27 71.5h117q-9 -61 -34 -117t-66.5 -98.5t-99.5 -68t-134 -25.5z" />
    <glyph glyph-name="gbreve" unicode="&#x11f;" 
d="M528 -425q-93 0 -165 19t-123 54.5t-83 84.5t-46 109l181 26q18 -75 79.5 -115.5t161.5 -40.5q61 0 111 17t85 54.5t54 97.5t19 146v174h-2q-20 -41 -49.5 -78.5t-72 -66.5t-98.5 -46.5t-128 -17.5q-103 0 -176.5 34.5t-120 103.5t-68 171.5t-21.5 237.5q0 130 21.5 234
t70 176.5t126 111t188.5 38.5q115 0 199.5 -52.5t130.5 -149.5h2q0 25 1.5 56t3 58.5t3.5 47.5t4 23h171q-1 -9 -2 -30.5t-2 -51.5t-1.5 -66.5t-0.5 -75.5v-827q0 -227 -111.5 -341.5t-341.5 -114.5zM802 541q0 113 -24.5 193.5t-64.5 131.5t-91.5 75t-105.5 24
q-69 0 -118.5 -24t-82 -75.5t-48 -132t-15.5 -192.5q0 -117 15.5 -196.5t47.5 -128.5t81 -70t117 -21q54 0 105.5 23t92.5 73t66 129t25 191zM546 1201q-74 0 -132 25.5t-100 68t-67 98.5t-33 117h117q8 -43 27.5 -72.5t47.5 -47.5t64 -25.5t78 -7.5t77.5 8t63.5 26t47 47.5
t27 71.5h117q-9 -61 -34 -117t-66.5 -98.5t-99.5 -68t-134 -25.5z" />
    <glyph glyph-name="Gcommaaccent" unicode="&#x122;" horiz-adv-x="1499" 
d="M73 711q0 165 44.5 298t133 226.5t219.5 144t304 50.5q130 0 228 -23t170 -66t122 -104.5t85 -138.5l-182 -54q-26 52 -62.5 94.5t-88.5 72.5t-120.5 46.5t-156.5 16.5q-128 0 -222.5 -40t-156.5 -114t-92.5 -178t-30.5 -231t33 -232.5t98 -182t161.5 -119t223.5 -42.5
q83 0 153 14t126.5 36.5t99.5 50t72 55.5v254h-421v160h597v-486q-47 -48 -110.5 -91.5t-142.5 -76.5t-173 -52t-201 -19q-178 0 -311 54.5t-221.5 152t-133 231.5t-44.5 293zM888 -193q0 -87 -22 -140.5t-62 -100.5h-117q45 48 69.5 91t24.5 89h-88v156h195v-95z" />
    <glyph glyph-name="gcommaaccent" unicode="&#x123;" 
d="M528 -425q-93 0 -165 19t-123 54.5t-83 84.5t-46 109l181 26q18 -75 79.5 -115.5t161.5 -40.5q61 0 111 17t85 54.5t54 97.5t19 146v174h-2q-20 -41 -49.5 -78.5t-72 -66.5t-98.5 -46.5t-128 -17.5q-103 0 -176.5 34.5t-120 103.5t-68 171.5t-21.5 237.5q0 130 21.5 234
t70 176.5t126 111t188.5 38.5q115 0 199.5 -52.5t130.5 -149.5h2q0 25 1.5 56t3 58.5t3.5 47.5t4 23h171q-1 -9 -2 -30.5t-2 -51.5t-1.5 -66.5t-0.5 -75.5v-827q0 -227 -111.5 -341.5t-341.5 -114.5zM802 541q0 113 -24.5 193.5t-64.5 131.5t-91.5 75t-105.5 24
q-69 0 -118.5 -24t-82 -75.5t-48 -132t-15.5 -192.5q0 -117 15.5 -196.5t47.5 -128.5t81 -70t117 -21q54 0 105.5 23t92.5 73t66 129t25 191zM570 1100h-199v162l154 301h122l-77 -301v-162z" />
    <glyph glyph-name="Hcircumflex" unicode="&#x124;" horiz-adv-x="1401" 
d="M1077 0v653h-762v-653h-191v1409h191v-596h762v596h191v-1409h-191zM1031 1579v-20h-105l-219 169h-2l-232 -169h-104v20l234 270h204z" />
    <glyph glyph-name="hcircumflex" unicode="&#x125;" 
d="M310 897q30 55 65 93.5t77 63.5t92 36.5t112 11.5q104 0 170.5 -28t105 -78.5t53 -120.5t14.5 -154v-721h-181v686q0 69 -8.5 121t-32.5 86.5t-68 52t-114 17.5q-64 0 -115.5 -23t-88 -65t-56.5 -102t-20 -135v-638h-180v1484h180v-386q0 -33 -1 -66t-2.5 -61l-2.5 -47.5
t-2 -26.5h3zM990 1578v-20h-105l-219 169h-2l-232 -169h-104v20l234 270h204z" />
    <glyph glyph-name="Hbar" unicode="&#x126;" horiz-adv-x="1479" 
d="M1126 0v653h-767v-653h-191v1025h-154v154h154v230h191v-230h767v230h186v-230h153v-154h-153v-1025h-186zM1126 813v212h-767v-212h767z" />
    <glyph glyph-name="hbar" unicode="&#x127;" 
d="M317 857q30 55 65 93.5t77 63.5t92 36.5t112 11.5q104 0 170.5 -28t105 -78.5t53 -120.5t14.5 -154v-681h-181v646q0 69 -8.5 121t-32.5 86.5t-68 52t-114 17.5q-64 0 -115.5 -23t-88 -65t-56.5 -102t-20 -135v-598h-180v1206h-132v131h132v147h180v-147h300v-131h-300
v-148q0 -33 -1 -66t-2.5 -61l-2.5 -47.5t-2 -26.5h3z" />
    <glyph glyph-name="Itilde" unicode="&#x128;" horiz-adv-x="569" 
d="M210 0v1409h191v-1409h-191zM436 1558q-42 0 -84 18.5t-81 41t-74.5 41t-66.5 18.5q-55 0 -82 -31t-36 -88h-91q5 45 15 92.5t32.5 86.5t59.5 64t96 25q44 0 86 -18.5t81 -41l73.5 -41t64.5 -18.5q54 0 81.5 31.5t35.5 87.5h92q-5 -44 -15 -91.5t-31.5 -86.5t-58.5 -64.5
t-97 -25.5z" />
    <glyph glyph-name="itilde" unicode="&#x129;" horiz-adv-x="569" 
d="M199 0v1062h180v-1062h-180zM429 1201q-42 0 -84 18.5t-81 41t-74.5 41t-66.5 18.5q-55 0 -82 -31t-36 -88h-91q5 45 15 92.5t32.5 86.5t59.5 64t96 25q44 0 86 -18.5t81 -41l73.5 -41t64.5 -18.5q54 0 81.5 31.5t35.5 87.5h92q-5 -44 -15 -91.5t-31.5 -86.5t-58.5 -64.5
t-97 -25.5z" />
    <glyph glyph-name="Imacron" unicode="&#x12a;" horiz-adv-x="569" 
d="M187 0v1409h191v-1409h-191zM589 1573h-621v127h621v-127z" />
    <glyph glyph-name="imacron" unicode="&#x12b;" horiz-adv-x="569" 
d="M197 0v1062h180v-1062h-180zM590 1236h-621v127h621v-127z" />
    <glyph glyph-name="Idotaccent" unicode="&#x130;" horiz-adv-x="569" 
d="M191 0v1466h194v-1466h-194zM177 1556v224h223v-224h-223z" />
    <glyph glyph-name="dotlessi" unicode="&#x131;" horiz-adv-x="569" 
d="M198 0v1062h180v-1062h-180z" />
    <glyph glyph-name="Jcircumflex" unicode="&#x134;" horiz-adv-x="1000" 
d="M488 -20q-171 0 -280.5 89t-144.5 281l187 31q10 -65 33 -111.5t55 -76.5t71 -44t80 -14q104 0 164 71.5t60 209.5v837h-271v156h461v-989q0 -101 -28 -182t-81.5 -138.5t-130.5 -88.5t-175 -31zM1020 1578v-20h-105l-219 169h-2l-232 -169h-104v20l234 270h204z" />
    <glyph glyph-name="jcircumflex" unicode="&#x135;" horiz-adv-x="455" 
d="M77 -425q-34 0 -66.5 2t-60.5 7v139q13 -2 31 -4t31 -2q38 0 62.5 10t38.5 31.5t19 55t5 79.5v1189h180v-1216q0 -62 -10.5 -115t-37.5 -92t-73.5 -61.5t-118.5 -22.5zM559 1221v-20h-105l-219 169h-2l-232 -169h-104v20l234 270h204z" />
    <glyph glyph-name="Kcommaaccent" unicode="&#x136;" horiz-adv-x="1299" 
d="M1046 0l-563 680l-184 -140v-540h-191v1409h191v-706l679 706h225l-600 -612l680 -797h-237zM745 -193q0 -87 -22 -140.5t-62 -100.5h-117q45 48 69.5 91t24.5 89h-88v156h195v-95z" />
    <glyph glyph-name="kcommaaccent" unicode="&#x137;" horiz-adv-x="1000" 
d="M786 0l-366 494l-132 -109v-385h-180v1484h180v-927l475 525h211l-439 -465l462 -617h-211zM632 -193q0 -87 -22 -140.5t-62 -100.5h-117q45 48 69.5 91t24.5 89h-88v156h195v-95z" />
    <glyph glyph-name="Lslash" unicode="&#x141;" 
d="M606 797l-257 -149v-492h712v-156h-903v538l-148 -85v158l148 85v713h191v-603l257 148v-157z" />
    <glyph glyph-name="lslash" unicode="&#x142;" horiz-adv-x="455" 
d="M138 0v542l-122 -68v158l122 68v784h180v-680l124 72v-159l-124 -71v-646h-180z" />
    <glyph glyph-name="Nacute" unicode="&#x143;" horiz-adv-x="1401" 
d="M1040 0l-754 1200q2 -49 5 -97q2 -41 3.5 -86.5t1.5 -80.5v-936h-170v1409h222l762 -1208l-6 98q-2 42 -4 91.5t-2 94.5v924h172v-1409h-230zM535 1565v20l217 287h207v-29l-330 -278h-94z" />
    <glyph glyph-name="nacute" unicode="&#x144;" 
d="M804 0v686q0 79 -11.5 132t-37.5 85.5t-68.5 46t-105.5 13.5q-64 0 -115.5 -22.5t-88 -65t-56.5 -105t-20 -143.5v-627h-180v851q0 34 -0.5 71.5t-1.5 71t-2 57.5t-2 31h170q1 -5 2 -27t2.5 -50.5t2.5 -58t1 -49.5h3q26 47 57 85t72 64.5t94 41t123 14.5q90 0 155 -22
t107 -68t61.5 -118.5t19.5 -172.5v-721h-181zM424 1201v20l217 287h207v-29l-330 -278h-94z" />
    <glyph glyph-name="Ncaron" unicode="&#x147;" horiz-adv-x="1401" 
d="M1040 0l-754 1200q2 -49 5 -97q2 -41 3.5 -86.5t1.5 -80.5v-936h-170v1409h222l762 -1208l-6 98q-2 42 -4 91.5t-2 94.5v924h172v-1409h-230zM830 1562h-204l-234 270v20h104l232 -169h2l219 169h105v-20z" />
    <glyph glyph-name="ncaron" unicode="&#x148;" 
d="M804 0v686q0 79 -11.5 132t-37.5 85.5t-68.5 46t-105.5 13.5q-64 0 -115.5 -22.5t-88 -65t-56.5 -105t-20 -143.5v-627h-180v851q0 34 -0.5 71.5t-1.5 71t-2 57.5t-2 31h170q1 -5 2 -27t2.5 -50.5t2.5 -58t1 -49.5h3q26 47 57 85t72 64.5t94 41t123 14.5q90 0 155 -22
t107 -68t61.5 -118.5t19.5 -172.5v-721h-181zM697 1201h-204l-234 270v20h104l232 -169h2l219 169h105v-20z" />
    <glyph glyph-name="Eng" unicode="&#x14a;" horiz-adv-x="1401" 
d="M891 -20q-56 0 -104 12t-87.5 32t-71 47t-55.5 57l127 115q37 -45 87 -77.5t109 -32.5q64 0 103 29t59.5 82.5t27 130t6.5 171.5v322q0 108 -19.5 185t-60 126t-104 72t-150.5 23q-94 0 -175.5 -31t-142 -83.5t-95.5 -122t-35 -146.5v-891h-191v1092q0 37 -0.5 83l-1 91
t-1 83t-1.5 60h184l2.5 -53.5t2.5 -66t1.5 -69t0.5 -62.5h4q34 61 85.5 111.5t116.5 85.5t141.5 54.5t162.5 19.5q124 0 212.5 -32t144.5 -98.5t82.5 -168.5t26.5 -241v-347q0 -130 -15 -234t-58 -177t-119 -112t-199 -39z" />
    <glyph glyph-name="eng" unicode="&#x14b;" 
d="M739 -425q-34 0 -66.5 2t-60.5 7v139q13 -2 31 -4t31 -2q38 0 62.5 10t38.5 31.5t19 55t5 79.5v793q0 79 -11.5 132t-37.5 85.5t-68.5 46t-105.5 13.5q-64 0 -115.5 -22.5t-88 -65t-56.5 -105t-20 -143.5v-627h-180v851q0 34 -0.5 71.5t-1.5 71t-2 57.5t-2 31h170
q1 -5 2 -27t2.5 -50.5t2.5 -58t1 -49.5h3q26 47 57 85t72 64.5t94 41t123 14.5q90 0 155 -22t107 -68t61.5 -118.5t19.5 -172.5v-855q0 -62 -11 -115t-38 -92t-73.5 -61.5t-118.5 -22.5z" />
    <glyph glyph-name="Omacron" unicode="&#x14c;" horiz-adv-x="1499" 
d="M751 1273q-207 0 -329 -154.5t-122 -420.5q0 -265 122 -419.5t329 -154.5t328 154.5t121 419.5q0 266 -121 420.5t-328 154.5zM751 1427q295 0 472 -198t177 -531q0 -332 -177 -530t-472 -198q-296 0 -473.5 197.5t-177.5 530.5t177.5 531t473.5 198zM1060 1609h-621v127
h621v-127z" />
    <glyph glyph-name="omacron" unicode="&#x14d;" 
d="M1025 542q0 -284 -125 -423t-363 -139q-113 0 -202 34t-150.5 104t-94 175.5t-32.5 248.5q0 560 485 560q126 0 217.5 -35t150 -105t86.5 -175t28 -245zM836 542q0 126 -19.5 208t-57 131t-91.5 68.5t-122 19.5q-69 0 -124.5 -20.5t-94.5 -70t-59.5 -131.5t-20.5 -205
q0 -126 22 -208.5t60.5 -131.5t91 -69t114.5 -20q69 0 125 19.5t95 68.5t60 132t21 209zM839 1236h-621v127h621v-127z" />
    <glyph glyph-name="Ohungarumlaut" unicode="&#x150;" horiz-adv-x="1499" 
d="M751 1273q-207 0 -329 -154.5t-122 -420.5q0 -265 122 -419.5t329 -154.5t328 154.5t121 419.5q0 266 -121 420.5t-328 154.5zM751 1427q295 0 472 -198t177 -531q0 -332 -177 -530t-472 -198q-296 0 -473.5 197.5t-177.5 530.5t177.5 531t473.5 198zM426 1567v20
l217 287h207v-29l-330 -278h-94zM777 1567v20l217 287h207v-29l-330 -278h-94z" />
    <glyph glyph-name="ohungarumlaut" unicode="&#x151;" 
d="M1025 542q0 -284 -125 -423t-363 -139q-113 0 -202 34t-150.5 104t-94 175.5t-32.5 248.5q0 560 485 560q126 0 217.5 -35t150 -105t86.5 -175t28 -245zM836 542q0 126 -19.5 208t-57 131t-91.5 68.5t-122 19.5q-69 0 -124.5 -20.5t-94.5 -70t-59.5 -131.5t-20.5 -205
q0 -126 22 -208.5t60.5 -131.5t91 -69t114.5 -20q69 0 125 19.5t95 68.5t60 132t21 209zM240 1201v20l217 287h207v-29l-330 -278h-94zM597 1201v20l217 287h207v-29l-330 -278h-94z" />
    <glyph glyph-name="OE" unicode="&#x152;" horiz-adv-x="1999" 
d="M989 0q-20 -3 -45.5 -4.5t-54 -3t-57 -2t-53.5 -0.5q-169 0 -298.5 53t-217 148.5t-132 228t-44.5 291.5q0 165 47 296.5t136 223t218 140.5t293 49q26 0 55 -1t57.5 -2.5t54.5 -3.5t45 -4h914v-156h-803v-452h743v-154h-743v-491h844v-156h-959zM789 145q32 0 70 1t64 3
v1111q-11 1 -27 2t-34.5 1.5t-36.5 0.5h-34q-125 0 -218.5 -37t-156 -108t-94 -174t-31.5 -234q0 -129 32 -233.5t95 -178.5t156 -114t215 -40z" />
    <glyph glyph-name="oe" unicode="&#x153;" horiz-adv-x="1900" 
d="M1050 503q0 -85 17.5 -156.5t54 -123t93.5 -80t137 -28.5q117 0 187.5 47t95.5 119l158 -45q-17 -45 -47.5 -90.5t-81.5 -82t-127.5 -60t-184.5 -23.5q-137 0 -236 45.5t-160 137.5q-63 -93 -163.5 -138t-237.5 -45q-113 0 -203.5 34t-154 104t-97.5 175.5t-34 248.5
q0 279 126.5 419.5t368.5 140.5q281 0 398 -177q67 94 167 135.5t219 41.5q136 0 227.5 -44t147 -121.5t79 -182.5t23.5 -227v-24h-772zM861 542q0 126 -21 208t-59.5 131t-93.5 68.5t-123 19.5q-69 0 -126 -20.5t-97.5 -70t-63 -131.5t-22.5 -205q0 -126 23.5 -208.5
t64 -131.5t94.5 -69t116 -20q69 0 126 19.5t97.5 68.5t62.5 132t22 209zM1636 641q-15 171 -87 249.5t-207 78.5q-45 0 -94.5 -14.5t-91.5 -51.5t-71 -100.5t-33 -161.5h584z" />
    <glyph glyph-name="Sacute" unicode="&#x15a;" horiz-adv-x="1299" 
d="M1231 389q0 -89 -34.5 -164t-106.5 -129.5t-181.5 -85t-259.5 -30.5q-263 0 -410 92t-187 266l185 37q14 -55 43 -100t78.5 -77.5t122.5 -50.5t175 -18q85 0 156 14.5t122 44.5t79.5 77.5t28.5 113.5q0 69 -31.5 112t-88.5 71t-136 47l-175 41q-59 13 -118.5 28.5
t-114 37t-102.5 50.5t-83 69.5t-55 94t-20 123.5q0 100 40.5 171.5t112.5 117.5t170 67t212 21q131 0 224 -20.5t157 -61.5t102.5 -101.5t61.5 -140.5l-188 -33q-14 51 -40.5 91t-69.5 67t-104.5 41t-144.5 14q-98 0 -164.5 -17.5t-107 -47.5t-58 -70.5t-17.5 -87.5
q0 -63 31.5 -103.5t85.5 -67.5t125 -45t151 -36l129.5 -30.5t123.5 -37t110.5 -50.5t89.5 -71t59.5 -99t21.5 -134zM472 1564v20l217 287h207v-29l-330 -278h-94z" />
    <glyph glyph-name="sacute" unicode="&#x15b;" horiz-adv-x="1000" 
d="M946 299q0 -76 -29.5 -135.5t-85.5 -100t-137.5 -62t-186.5 -21.5q-94 0 -169.5 14.5t-132.5 46.5t-95.5 84.5t-56.5 128.5l159 31q23 -87 95 -127.5t200 -40.5q58 0 106.5 8t83.5 27.5t54.5 52t19.5 80.5q0 49 -23 80.5t-64 52.5t-99.5 36.5l-128.5 34.5q-65 17 -129 38
t-115.5 55.5t-83.5 85.5t-32 128q0 148 105.5 225.5t307.5 77.5q179 0 284.5 -63t133.5 -202l-162 -20q-9 42 -33 70.5t-58 46t-76.5 25t-88.5 7.5q-122 0 -180 -37t-58 -112q0 -44 21.5 -72.5t60 -48t92.5 -34l119 -30.5l88 -23.5t87.5 -30t80 -41t65.5 -56.5t44.5 -77
t16.5 -102zM329 1201v20l217 287h207v-29l-330 -278h-94z" />
    <glyph glyph-name="Scircumflex" unicode="&#x15c;" horiz-adv-x="1299" 
d="M1231 389q0 -89 -34.5 -164t-106.5 -129.5t-181.5 -85t-259.5 -30.5q-263 0 -410 92t-187 266l185 37q14 -55 43 -100t78.5 -77.5t122.5 -50.5t175 -18q85 0 156 14.5t122 44.5t79.5 77.5t28.5 113.5q0 69 -31.5 112t-88.5 71t-136 47l-175 41q-59 13 -118.5 28.5
t-114 37t-102.5 50.5t-83 69.5t-55 94t-20 123.5q0 100 40.5 171.5t112.5 117.5t170 67t212 21q131 0 224 -20.5t157 -61.5t102.5 -101.5t61.5 -140.5l-188 -33q-14 51 -40.5 91t-69.5 67t-104.5 41t-144.5 14q-98 0 -164.5 -17.5t-107 -47.5t-58 -70.5t-17.5 -87.5
q0 -63 31.5 -103.5t85.5 -67.5t125 -45t151 -36l129.5 -30.5t123.5 -37t110.5 -50.5t89.5 -71t59.5 -99t21.5 -134zM998 1585v-20h-105l-219 169h-2l-232 -169h-104v20l234 270h204z" />
    <glyph glyph-name="scircumflex" unicode="&#x15d;" horiz-adv-x="1000" 
d="M946 299q0 -76 -29.5 -135.5t-85.5 -100t-137.5 -62t-186.5 -21.5q-94 0 -169.5 14.5t-132.5 46.5t-95.5 84.5t-56.5 128.5l159 31q23 -87 95 -127.5t200 -40.5q58 0 106.5 8t83.5 27.5t54.5 52t19.5 80.5q0 49 -23 80.5t-64 52.5t-99.5 36.5l-128.5 34.5q-65 17 -129 38
t-115.5 55.5t-83.5 85.5t-32 128q0 148 105.5 225.5t307.5 77.5q179 0 284.5 -63t133.5 -202l-162 -20q-9 42 -33 70.5t-58 46t-76.5 25t-88.5 7.5q-122 0 -180 -37t-58 -112q0 -44 21.5 -72.5t60 -48t92.5 -34l119 -30.5l88 -23.5t87.5 -30t80 -41t65.5 -56.5t44.5 -77
t16.5 -102zM832 1218v-20h-105l-219 169h-2l-232 -169h-104v20l234 270h204z" />
    <glyph glyph-name="Scedilla" unicode="&#x15e;" horiz-adv-x="1299" 
d="M602 -19q-229 8 -362 91q-147 92 -187 266l185 37q14 -55 43 -100t78.5 -77.5t122.5 -50.5t175 -18q85 0 156 14.5t122 44.5t79.5 77.5t28.5 113.5q0 69 -31.5 112t-88.5 71t-136 47l-175 41q-59 13 -118.5 28.5t-114 37t-102.5 50.5t-83 69.5t-55 94t-20 123.5
q0 100 40.5 171.5t112.5 117.5t170 67t212 21q131 0 224 -20.5t157 -61.5t102.5 -101.5t61.5 -140.5l-188 -33q-14 51 -40.5 91t-69.5 67t-104.5 41t-144.5 14q-98 0 -164.5 -17.5t-107 -47.5t-58 -70.5t-17.5 -87.5q0 -63 31.5 -103.5t85.5 -67.5t125 -45t151 -36
l129.5 -30.5t123.5 -37t110.5 -50.5t89.5 -71t59.5 -99t21.5 -134q0 -89 -34.5 -164t-106.5 -129.5t-181 -84.5q-88 -25 -201 -30l-32 -81q94 -3 141 -43.5t47 -109.5q0 -41 -15 -74.5t-47.5 -57.5t-84.5 -36.5t-127 -12.5q-20 0 -42.5 0.5t-47.5 3.5v98q49 -6 86 -6
q41 0 69 6t45.5 16.5t25 25.5t7.5 33q0 37 -30.5 57t-102.5 20h-28q-15 0 -29 -2z" />
    </font>
</defs>
</svg>
