<svg xmlns="http://www.w3.org/2000/svg" xmlns:xlink="http://www.w3.org/1999/xlink" x="0px" y="0px" width="512px" height="512px" viewBox="0 0 512 512" xml:space="preserve">
	<path fill="#01478E" d="M178.906,357.093l-64.5,111.719C45.5,422.937,0,344.593,0,255.593C0,119.625,106.125,8.718,240,0.406v128.812   c-62.969,7.969-112,61.281-112,126.375C128,297.125,148.188,333.718,178.906,357.093z M357.5,178.5L469.219,114   C426.125,49.25,354.312,5.5,272,0.406v128.812C306.875,133.625,337.188,151.843,357.5,178.5z M485.062,141.812l-111.094,64.156   C380.406,221.218,384,238,384,255.593c0,70.594-57.406,128-128,128c-17.594,0-34.375-3.562-49.625-10.031l-64.156,111.095   c34.313,17.094,72.844,26.938,113.781,26.938c141.375,0,256-114.625,256-256C512,214.656,502.156,176.125,485.062,141.812z"/>
</svg>
