<?xml version="1.0" standalone="no"?><!DOCTYPE svg PUBLIC "-//W3C//DTD SVG 1.1//EN" "http://www.w3.org/Graphics/SVG/1.1/DTD/svg11.dtd"><svg t="1529126984207" class="icon" style="" viewBox="0 0 1024 1024" version="1.1" xmlns="http://www.w3.org/2000/svg" p-id="5396" xmlns:xlink="http://www.w3.org/1999/xlink" width="200" height="200"><defs><style type="text/css"></style></defs><path d="M511.999878 1023.999269a510.219583 510.219583 0 0 1-362.056712-149.942679A510.292726 510.292726 0 0 1 0.000488 511.999878 510.268345 510.268345 0 0 1 149.943166 149.943166 510.268345 510.268345 0 0 1 511.999878 0.000488a510.268345 510.268345 0 0 1 362.056712 149.942678A510.292726 510.292726 0 0 1 1023.999269 511.999878a510.268345 510.268345 0 0 1-149.942679 362.056712A510.268345 510.268345 0 0 1 511.999878 1023.999269z m0-976.992361C255.610088 47.006908 47.006908 255.585707 47.006908 511.999878S255.610088 976.992848 511.999878 976.992848c256.414171 0 464.99297-208.578799 464.99297-464.99297S768.414049 47.006908 511.999878 47.006908z m-56.393076 123.976995h112.786152V685.592052h-112.786152V170.983903z m0 569.245799h112.786152v112.786151h-112.786152v-112.786151z" fill="#EB4F38" p-id="5397"></path></svg>