<?xml version="1.0" standalone="no"?>
<!DOCTYPE svg PUBLIC "-//W3C//DTD SVG 1.1//EN" "http://www.w3.org/Graphics/SVG/1.1/DTD/svg11.dtd">
<svg xmlns="http://www.w3.org/2000/svg">
<metadata>Copyright (C) 2014 by original authors @ fontello.com</metadata>
<defs>
<font id="icon_set_1" horiz-adv-x="1000" >
<font-face font-family="icon_set_1" font-weight="400" font-stretch="normal" units-per-em="1000" ascent="850" descent="-150" />
<missing-glyph horiz-adv-x="1000" />
<glyph glyph-name="icon_1" unicode="&#x21;" d="m809-14c10 0 17 7 17 17s-7 17-17 17h-622c-10 0-17-7-17-17s7-17 17-17h622z m-467 363c-9 0-17-8-17-17v-208c0-9 8-17 17-17 10 0 18 8 18 17v208c0 9-8 17-18 17z m519-398h-726c-10 0-17-8-17-17 0-10 7-17 17-17h726c9 0 17 7 17 17 0 9-8 17-17 17z m90 321l-172 42c-2 0-3 0-4 0v52c0 2-1 4-2 6l12-5c2-1 5-1 7-1 7 0 13 4 16 11 3 9-1 19-10 22l-110 46v146c0 109-67 182-173 189 0 0 0 1 0 1v52c0 9-7 17-17 17s-17-8-17-17v-52c0 0 0-1 0-1-106-7-173-80-173-189v-146l-110-46c-9-3-13-13-10-22 4-9 14-13 23-10l12 5c-1-2-2-4-2-6v-53l-176-41c-8-2-14-9-14-17v-252c0-10 8-17 18-17h69c9 0 17 7 17 17s-8 17-17 17h-52v221l155 37v-206c0-9 8-17 18-17h518c10 0 18 8 18 17v207l155-38v-221h-52c-9 0-17-7-17-17s8-17 17-17h69c10 0 18 7 18 17v252c0 8-6 15-14 17z m-453 474c71 0 147-36 155-138h-310c8 102 84 138 155 138z m-156-172h312v-115l-149 61c-5 2-9 2-14 0l-149-61v115z m398-208v-276h-484v276c0 7-4 13-10 16l252 104 252-104c-6-3-10-9-10-16z m-294-17c-9 0-17-8-17-17v-208c0-9 8-17 17-17 10 0 17 8 17 17v208c0 9-7 17-17 17z m104-242c9 0 17 8 17 17v208c0 9-8 17-17 17s-17-8-17-17v-208c0-9 7-17 17-17z m104 0c9 0 17 8 17 17v208c0 9-8 17-17 17-10 0-18-8-18-17v-208c0-9 8-17 18-17z" horiz-adv-x="1000" />
<glyph glyph-name="icon_2" unicode="&#x22;" d="m813 298l-154 128c-18 15-50 27-73 27h-173c-22 0-54-12-72-27l-154-128c-19-16-33-46-33-70v-260c0-28 23-51 52-51h190c10 0 18 7 18 17v190c0 48 38 87 86 87 48 0 86-39 86-87v-190c0-10 8-17 18-17h190c28 0 52 23 52 51v260c0 24-15 54-33 70z m-2-330c0-9-8-17-17-17h-173v173c0 67-54 121-121 121-67 0-121-54-121-121v-173h-173c-9 0-17 8-17 17v260c0 14 9 34 20 43l154 129c12 9 35 18 50 18h173c15 0 39-9 50-18l155-129c10-9 20-29 20-43v-260z m-432 502h242c4 0 9 2 12 5 2 2 22 23 22 64 0 74-95 127-138 149v76h35c9 0 17 7 17 17 0 9-8 17-17 17h-35v35c0 9-8 17-17 17-10 0-17-8-17-17v-35h-35c-10 0-17-8-17-17 0-10 7-17 17-17h35v-76c-44-22-139-75-139-149 0-41 20-62 23-64 3-3 7-5 12-5z m121 188c80-41 121-81 121-119 0-17-5-29-9-35h-224c-4 6-9 18-9 35 0 38 41 78 121 119z" horiz-adv-x="1000" />
<glyph glyph-name="icon_3" unicode="&#x23;" d="m960 455c-5 8-14 12-24 12h-39c-6 50-23 100-48 144 10 5 18 14 21 25l9 36c2 10 0 20-6 27-6 7-15 12-25 12h-78c-53 48-119 81-189 96l1 5c3 9 1 19-5 26s-15 12-25 12h-104c-10 0-19-4-25-12s-8-17-5-27l1-4c-69-14-133-47-186-94-1-1-1-2-2-2h-79c-10 0-19-5-25-12-6-7-8-17-5-27l8-36c3-11 11-20 21-25-25-45-42-94-48-144h-38c-10 0-19-4-25-12-6-7-8-17-6-27l9-36c5-17 21-30 39-30h21c6-42 18-83 37-122h-6c-10 0-19-4-25-11-5-8-7-18-5-27l9-36c4-17 21-30 39-30h60c7-8 15-15 23-22l5-4c3-2 7-3 10-3 6 0 11 2 14 6 6 8 5 19-3 25l-4 3c-2 2-5 5-7 7 5 5 8 11 10 18l9 36c2 9 0 19-5 27-6 7-15 11-25 11h-61c-20 38-34 79-40 122h14c17 0 34 13 38 30l9 36c3 10 1 20-5 27-6 8-15 12-25 12h-31c7 50 24 96 50 139h51c17 0 34 13 38 30l9 36c3 10 1 20-5 27-1 2-3 3-5 5 45 34 96 58 152 69 5-16 20-27 37-27h70c17 0 32 11 38 27 55-11 106-35 151-69-2-2-3-3-5-5-6-7-8-17-5-27l9-36c4-17 21-30 38-30h51c26-42 43-90 50-139h-31c-10 0-19-4-25-12-5-7-7-17-5-27l9-36c4-17 21-30 39-30h13c-6-43-20-84-40-122h-61c-10 0-19-4-24-11-6-8-8-18-6-27l9-36c2-7 6-13 11-18-15-14-31-27-48-38l-132 254c10 14 16 32 16 50 0 49-39 88-87 88-48 0-87-39-87-88 0-18 6-36 16-50l-223-429c-5-9-1-19 7-24 3-1 6-2 8-2 7 0 13 4 16 9l74 143c35-19 73-32 113-40l3-12c4-17 21-30 38-30h70c18 0 34 13 38 30l3 12c24 5 47 11 69 20 9 3 13 13 10 22-4 9-14 14-23 10-16-6-32-11-49-15-1 5-3 10-6 14-6 7-15 11-25 11h-104c-10 0-19-4-25-11-3-4-5-9-6-14-31 8-61 19-90 34l129 248c13-8 28-13 44-13s31 5 44 13l219-421c3-6 9-10 16-10 2 0 5 1 8 2 8 5 12 15 7 24l-75 144c25 16 48 35 69 57h60c18 0 35 13 39 30l9 36c2 9 0 19-5 27-6 7-15 11-25 11h-5c19 39 31 80 36 122h21c18 0 34 13 39 30l9 36c2 10 0 20-6 27z m-726-250l-8-31c0-1-3-3-5-3h-69c-2 0-5 2-5 3l-8 31h95z m-70 227l-8-31c0-2-3-4-4-4h-70c-2 0-4 2-5 4l-8 31h95z m79 213c0-2-3-4-4-4h-70c-2 0-4 2-5 4l-8 31h95l-8-31z m297 139c-1-1-4-4-5-4h-70c-1 0-4 3-5 4l-7 31h94l-7-31z m296-139c-1-2-3-4-5-4h-70c-1 0-4 2-4 4l-8 31h95l-8-31z m-289-596l-7-32c-1-1-4-3-5-3h-70c-1 0-4 2-5 3l-7 32h94z m-47 313c-29 0-52 24-52 53s23 52 52 52c29 0 52-24 52-52s-23-53-52-53z m361-157l-8-31c0-1-3-3-5-3h-69c-2 0-5 2-5 3l-8 31h95z m62 196c0-2-3-4-5-4h-70c-1 0-4 2-4 4l-8 31h95l-8-31z" horiz-adv-x="1000" />
<glyph glyph-name="icon_4" unicode="&#x24;" d="m967 798c0 29-24 52-52 52h-830c-28 0-52-23-52-52v-17c0-13 6-25 14-35-8-9-14-21-14-34v-277c0-13 6-25 14-34-8-10-14-22-14-35v-17c0-14 6-26 14-35-8-9-14-21-14-34v-312c0-28 24-51 52-51h52c10 0 17 7 17 17v173c0 48 31 86 70 86 38 0 69-38 69-86v-173c0-10 7-17 17-17h104c9 0 17 7 17 17v173c0 48 31 86 69 86 38 0 69-38 69-86v-173c0-10 8-17 17-17h104c10 0 17 7 17 17v173c0 48 31 86 70 86 38 0 69-38 69-86v-173c0-10 7-17 17-17h52c28 0 52 23 52 51v312c0 13-5 25-14 34 9 9 14 21 14 35v17c0 13-5 25-14 35 9 9 14 21 14 34v277c0 13-5 25-14 34 9 10 14 22 14 35v17z m-35-830c0-9-8-17-17-17h-35v156c0 67-46 121-103 121-58 0-104-54-104-121v-156h-69v156c0 67-47 121-104 121-57 0-104-54-104-121v-156h-69v156c0 67-46 121-103 121-58 0-104-54-104-121v-156h-35c-9 0-17 8-17 17v312c0 9 8 17 17 17h830c9 0 17-8 17-17v-312z m0 381c0-10-8-17-17-17h-830c-9 0-17 7-17 17v17c0 10 8 17 17 17h830c9 0 17-7 17-17v-17z m-778 69v121c0 48 31 86 69 86 39 0 70-38 70-86v-121h-139z m277 0v121c0 48 31 86 69 86 38 0 69-38 69-86v-121h-138z m276 0v121c0 48 31 86 70 86 38 0 69-38 69-86v-121h-139z m225 17c0-9-8-17-17-17h-35v121c0 67-46 121-103 121-58 0-104-54-104-121v-121h-69v121c0 67-47 121-104 121-57 0-104-54-104-121v-121h-69v121c0 67-46 121-103 121-58 0-104-54-104-121v-121h-35c-9 0-17 8-17 17v277c0 9 8 17 17 17h830c9 0 17-8 17-17v-277z m0 346c0-10-8-17-17-17h-830c-9 0-17 7-17 17v17c0 10 8 17 17 17h830c9 0 17-7 17-17v-17z" horiz-adv-x="1000" />
<glyph glyph-name="icon_5" unicode="&#x25;" d="m627 264c-43 0-78-36-78-79s35-78 78-78 78 35 78 78-35 79-78 79z m0-123c-24 0-44 20-44 44s20 44 44 44 44-20 44-44-20-44-44-44z m-193 576c3-4 8-5 12-5s9 1 12 5c7 7 7 18 0 24l-37 38 53 40c7 6 9 17 3 24-5 8-16 9-24 4l-69-52c-4-3-7-8-7-13 0-5 2-10 5-13l52-52z m-121-736l-35-35c-6-7-6-18 0-24 4-4 8-5 13-5 4 0 8 1 12 5l34 34c7 7 7 18 0 25-6 6-17 6-24 0z m262 798l-37-38c-7-6-7-17 0-24 3-4 7-5 12-5 4 0 9 1 12 5l52 52c3 3 5 8 5 13 0 5-3 10-7 13l-69 52c-8 5-18 4-24-4-6-7-4-18 3-24l53-40z m108-798c-7 6-18 6-24 0-7-7-7-18 0-25l34-34c4-4 8-5 12-5s9 1 13 5c6 6 6 17 0 24l-35 35z m-314 283c-43 0-78-36-78-79s35-78 78-78 78 35 78 78-35 79-78 79z m0-123c-24 0-44 20-44 44s20 44 44 44 44-20 44-44-20-44-44-44z m313 538c-36 8-75 15-115 15h-138c-36 0-70-7-104-15l-11-2c-60-15-110-78-110-143v-361c0-65 50-129 111-144 74-16 128-26 184-26s109 10 184 26c60 15 109 79 109 144v361c0 66-49 130-110 145z m-360-36l11 2c33 8 64 15 96 15h138c37 0 73-8 107-15 35-8 66-41 78-79-1 1-2 1-4 1-220 33-277 33-499 0-2 0-3-1-5-1 12 37 43 69 78 77z m-68-110c218 32 273 32 489 0 5-1 12-9 14-13-3-52-31-80-77-124-16-15-33-33-52-53-5-5-18-11-27-11h-205c-8 0-22 6-26 11-19 20-37 37-52 52-46 46-75 73-77 125 1 4 8 12 13 13z m503-360c0-49-37-99-82-110-72-16-124-25-176-25-52 0-104 9-177 25-44 11-83 62-83 110v257c14-20 33-39 55-60 15-14 32-31 50-50 12-13 35-23 52-23h205c17 0 40 10 52 23 19 19 36 36 51 51 21 20 39 38 53 56v-254z" horiz-adv-x="1000" />
<glyph glyph-name="icon_6" unicode="&#x26;" d="m638 55h52c10 0 17 8 17 17 0 10-7 18-17 18h-34v34h34c10 0 17 8 17 17 0 10-7 18-17 18h-34v34h34c10 0 17 8 17 18 0 9-7 17-17 17h-52c-9 0-17-8-17-17v-139c0-9 8-17 17-17z m-138 138h17v-121c0-9 8-17 18-17s17 8 17 17v121h17c10 0 18 8 18 18 0 9-8 17-18 17h-69c-9 0-17-8-17-17 0-10 8-18 17-18z m277-138h51c10 0 18 8 18 17 0 10-8 18-18 18h-34v121c0 9-8 17-17 17-10 0-18-8-18-17v-139c0-9 8-17 18-17z m-381 0c35 0 69 30 69 86 0 60-35 87-69 87-33 0-69-27-69-87 0-56 35-86 69-86z m0 138c21 0 35-20 35-52 0-30-14-51-35-51-20 0-34 21-34 51 0 32 13 52 34 52z m-7 395l-27-10v30c0 10-8 17-18 17-9 0-17-7-17-17v-30l-27 10c-9 3-18-1-22-10-3-9 2-19 10-23l29-10-17-23c-6-8-4-18 3-24 3-2 7-4 11-4 5 0 10 3 13 7l17 23 17-22c4-5 9-7 14-7 4 0 7 1 11 3 7 6 9 17 3 24l-17 23 29 10c8 4 13 14 10 23-4 9-13 13-22 10z m-200-533c10 0 17 8 17 17v52h52v-52c0-9 8-17 17-17s18 8 18 17v139c0 9-8 17-18 17s-17-8-17-17v-52h-52v52c0 9-8 17-17 17-10 0-17-8-17-17v-139c0-9 7-17 17-17z m511 533l-27-10v30c0 10-8 17-17 17-10 0-18-7-18-17v-30l-27 10c-9 3-18-1-22-10-3-9 2-19 11-23l28-10-17-23c-6-8-4-18 3-24 3-2 7-4 11-4 5 0 10 3 13 7l18 23 16-22c4-5 9-7 14-7 4 0 8 1 11 3 7 6 9 17 3 24l-17 23 29 10c9 4 13 14 10 23-3 9-13 13-22 10z m180 210h-313c-8 30-35 52-67 52-32 0-59-22-67-52h-313c-48 0-87-39-87-86v-709c0-48 39-86 87-86h760c48 0 87 38 87 86v709c0 47-39 86-87 86z m-380 17c19 0 35-15 35-34s-16-35-35-35c-19 0-35 16-35 35s16 34 35 34z m432-812c0-29-23-52-52-52h-760c-29 0-52 23-52 52v329h864v-329z m0 363h-864v346c0 28 23 52 52 52h313c8-30 35-52 67-52 32 0 59 22 67 52h313c29 0 52-24 52-52v-346z m-77 187l-27-10v31c0 9-7 17-17 17-9 0-17-8-17-17v-31l-27 10c-9 4-19-1-22-10-3-9 1-19 10-22l28-10-17-24c-5-7-4-18 4-24 3-2 7-3 10-3 5 0 11 2 14 7l17 23 17-23c3-4 9-7 14-7 4 0 7 1 10 4 8 5 9 16 4 24l-17 23 28 10c9 3 14 13 10 22-3 9-13 14-22 10z m-311 52l-27-10v30c0 10-7 18-17 18s-17-8-17-18v-30l-27 10c-9 4-19-1-22-10-4-9 1-19 10-22l28-11-17-23c-5-7-4-18 4-24 3-2 6-3 10-3 5 0 11 2 14 7l17 23 17-23c3-5 9-7 14-7 3 0 7 1 10 3 8 6 9 17 4 25l-17 22 28 11c9 3 14 13 10 22-3 9-13 13-22 10z m-311-52l-27-10v31c0 9-8 17-17 17-10 0-17-8-17-17v-31l-27 10c-9 4-19-1-22-10-4-9 1-19 10-22l28-11-17-23c-6-7-4-18 4-24 3-2 6-3 10-3 5 0 10 2 14 7l17 23 17-23c3-5 8-7 14-7 3 0 7 1 10 4 8 5 9 16 4 24l-17 22 28 11c9 3 13 13 10 22-3 9-13 14-22 10z" horiz-adv-x="1000" />
<glyph glyph-name="icon_7" unicode="&#x27;" d="m420 320c-58 30-94 89-94 154 0 62 33 119 85 150 8 5 11 16 6 24-5 8-15 11-24 6-63-37-102-106-102-180 0-78 43-149 113-185 3-1 5-2 8-2 6 0 12 4 15 10 5 8 2 19-7 23z m-103-198c-132 68-214 203-214 352 0 141 75 273 197 344 8 5 11 15 6 23-5 9-16 12-24 7-132-78-214-221-214-374 0-162 89-309 233-383 3-2 6-2 8-2 7 0 13 3 16 9 4 9 1 19-8 24z m52 99c-96 49-155 146-155 253 0 101 54 196 141 247 8 5 11 15 6 24-5 8-15 11-23 6-98-58-158-164-158-277 0-120 66-229 173-284 2-1 5-2 8-2 6 0 12 3 15 9 5 9 1 19-7 24z m350 626c-8 5-19 2-24-6-5-8-2-19 6-24 121-71 196-202 196-343 0-149-82-284-215-352-8-5-11-15-7-24 3-6 9-9 15-9 3 0 6 0 8 2 145 74 234 221 234 384 0 152-82 295-213 372z m101-373c0 113-60 219-158 277-8 5-19 2-23-6-5-9-3-19 6-24 87-51 141-146 141-247 0-107-60-204-155-253-8-5-12-15-7-24 3-6 9-9 15-9 3 0 6 1 8 2 107 55 173 164 173 284z m-111 0c0 74-40 143-104 181-8 5-18 2-23-7-5-8-2-18 6-23 53-31 86-89 86-151 0-65-36-124-94-154-9-4-12-15-8-23 4-6 10-10 16-10 3 0 5 1 8 2 69 36 113 107 113 185z m-140-2c0 39-31 70-69 70-38 0-70-31-70-70 0-32 23-59 53-67v-454h-35c-10 0-18-7-18-17s8-17 18-17h104c10 0 17 7 17 17s-7 17-17 17h-35v454c30 8 52 35 52 67z m-69-34c-19 0-35 15-35 34s16 35 35 35c19 0 35-15 35-35s-16-34-35-34z" horiz-adv-x="1000" />
<glyph glyph-name="icon_8" unicode="&#x28;" d="m120 539h69c21 0 39 9 52 23 12-14 31-23 52-23h69c20 0 39 9 52 23 12-14 31-23 52-23h17v-156c0-9 8-17 17-17 10 0 17 8 17 17v156h18c20 0 39 9 52 23 12-14 31-23 51-23h70c20 0 39 9 51 23 13-14 32-23 52-23h69c39 0 70 31 70 69 0 7-5 13-11 16l-422 183v26c0 9-7 17-17 17-10 0-17-8-17-17v-26l-422-183c-6-3-10-9-10-16 0-38 31-69 69-69z m380 238l413-180c-4-13-17-23-33-23h-69c-19 0-34 15-34 34 0 10-8 17-18 17-9 0-17-7-17-17 0-19-15-34-35-34h-69c-19 0-34 15-34 34 0 10-8 17-18 17-9 0-17-7-17-17 0-19-15-34-34-34h-70c-19 0-34 15-34 34 0 10-8 17-17 17-10 0-18-7-18-17 0-19-15-34-34-34h-69c-19 0-35 15-35 34 0 10-8 17-17 17-10 0-18-7-18-17 0-19-15-34-34-34h-69c-16 0-29 10-33 23l413 180z m138-826c-41 0-103 78-103 173 0 83 73 155 93 173h79c10 0 18 8 18 17 0 10-8 18-18 18h-414c-10 0-18-8-18-18 0-9 8-17 18-17h80c19-17 92-90 92-173 0-95-62-173-103-173-10 0-18-7-18-17s8-17 18-17c62 0 138 95 138 207 0 73-46 137-79 173h158c-33-36-79-100-79-173 0-112 76-207 138-207 10 0 18 7 18 17s-8 17-18 17z m268 185l60 226c3 9-3 18-12 21-9 2-19-3-21-12l-60-226c-3-11-16-21-27-21h-121c-10 0-18 8-18 17s8 18 18 18h121c9 0 17 7 17 17s-8 17-17 17h-121c-29 0-52-23-52-52 0-22 15-41 35-48 0-1-1-2-1-3v-156c0-10 8-17 18-17 9 0 17 7 17 17v156h104c0 0 0 0 0 0 0-3 0-5 1-7l69-156c3-7 10-10 16-10 2 0 5 0 7 1 9 4 13 14 9 23l-69 156c-1 1-1 1-2 2 14 8 25 21 29 37z m-631 57h-121c-9 0-17-7-17-17s8-17 17-17h121c10 0 18-8 18-18s-8-17-18-17h-121c-11 0-24 10-26 21l-61 226c-2 9-11 14-21 12-9-3-14-12-12-21l60-226c4-16 15-29 29-37-1-1-1-1-2-2l-69-156c-4-9 0-19 9-23 2-1 5-1 7-1 7 0 13 3 16 10l69 156c1 2 1 7 1 7h104v-156c0-10 8-17 17-17 10 0 18 7 18 17v159c20 7 34 26 34 48 0 29-23 52-52 52z" horiz-adv-x="1000" />
<glyph glyph-name="icon_9" unicode="&#x29;" d="m734 471c-49 0-96-15-135-44l19 199h18c0 0 1 0 1 0 9 0 17 8 17 17 0 2 0 4-1 6l-17 117c-1 9-8 15-17 15h-54l-10 55c-1 8-9 14-17 14h-389c-8 0-16-6-17-14l-10-55h-54c-9 0-16-6-17-15l-17-120c-1-5 0-10 4-14 3-4 8-6 13-6h18l47-501c3-23 20-42 41-48l15-58c2-8 9-13 16-13h311c7 0 14 5 16 13l15 58c9 3 18 8 25 15 44-54 109-86 179-86 128 0 233 104 233 233 0 128-105 232-233 232z m-571 345h361l6-35h-373l6 35z m-80-69h521l12-86h-545l12 86z m402-707h-283l-9 35h301l-9-35z m51 88c-1-10-10-19-20-19h-345c-10 0-19 9-20 19l-13 136 79 0c23-32 57-51 92-51 38 0 71 18 92 51h148l-13-136z m16 171h-160c-7 0-12-4-15-9-16-28-39-43-68-43-27 0-51 16-68 43-3 6-8 9-14 9l-92 0-12 120h103c6 0 12 4 15 9 17 27 41 43 68 43 27 0 51-16 68-43 3-6 9-9 15-9h0l172 0-12-120z m-151 155c-23 32-56 52-92 52-35 0-69-20-92-52h-97l-16 172h479l-16-172h-166z m333-414c-64 0-124 32-161 84-1 0-2 1-2 2l20 212c3-3 7-5 11-5 4 0 9 2 12 5 7 7 7 18 0 25l-17 17c-1 0-1 1-2 1 2 1 3 2 4 3 37 34 85 53 135 53 109 0 198-89 198-198 0-110-89-199-198-199z m182 191c-4 8-15 12-23 8l-23-11c-8-4-12-14-8-23 3-6 9-10 16-10 2 0 4 1 7 2l22 11c9 4 13 14 9 23z m-44 114l-17 18c-7 6-17 6-24 0-7-7-7-18 0-25l17-17c4-3 8-5 12-5 5 0 9 2 12 5 7 7 7 18 0 24z m-167 40h35c9 0 17 8 17 17s-8 17-17 17h-35c-9 0-17-7-17-17s8-17 17-17z m-34-258h-35c-9 0-17-8-17-18 0-9 8-17 17-17h35c9 0 17 8 17 17 0 10-8 18-17 18z m145-2c-9 4-19 0-23-8l-10-23c-4-9-1-19 8-23 2-1 5-2 7-2 7 0 13 4 16 10l10 23c4 9 0 19-8 23z m-82 230c-64 0-116-52-116-116 0-65 52-117 116-117 64 0 117 52 117 117 0 64-53 116-117 116z m0-199c-45 0-82 37-82 83 0 45 37 82 82 82 45 0 82-37 82-82 0-46-37-83-82-83z" horiz-adv-x="1000" />
<glyph glyph-name="icon_78" unicode="&#x2a;" d="m946 328h-892c-12 0-21 9-21 20 0 11 9 21 21 21h892c12 0 21-10 21-21 0-11-9-20-21-20l0 0z" horiz-adv-x="1000" />
<glyph glyph-name="icon_77" unicode="&#x2b;" d="m946 404h-426v426c0 11-9 20-20 20s-20-9-20-20v-426h-426c-11 0-21-9-21-21 0-11 10-20 21-20h426v-426c0-11 9-20 20-20s20 9 20 20v426h426c12 0 21 9 21 20 0 12-9 21-21 21z" horiz-adv-x="1000" />
<glyph glyph-name="icon_10" unicode="&#x2c;" d="m293 470c47 0 86 39 86 86 0 48-39 87-86 87-48 0-87-39-87-87 0-47 39-86 87-86z m0 138c28 0 52-23 52-52 0-28-24-52-52-52s-52 24-52 52c0 29 23 52 52 52z m523-385l-74-74-74 74c-7 7-18 7-25 0-6-7-6-18 0-25l99-98 99 98c6 7 6 18 0 25-7 7-18 7-25 0z m-618 5c3 0 8-7 8-17v-52c0-29 23-52 52-52h69c29 0 52 23 52 52v52c0 10 6 17 9 17 24 0 43 23 43 52v121c0 28-23 52-52 52h-173c-28 0-52-24-52-52v-121c0-29 20-52 44-52z m-9 173c0 9 8 17 17 17h173c10 0 17-8 17-17v-121c0-11-5-18-8-18-24 0-43-23-43-51v-52c0-10-8-18-18-18h-17v87c0 9-8 17-17 17s-18-8-18-17v-87h-17c-9 0-17 8-17 18v52c0 28-20 51-43 51-3 0-9 7-9 18v121z m691 449h-760c-48 0-87-39-87-86v-761c0-48 39-86 87-86h760c48 0 87 38 87 86v761c0 47-39 86-87 86z m-363-899h-397c-29 0-52 23-52 52v761c0 28 23 51 52 51h397v-864z m415 52c0-29-23-52-52-52h-328v864h328c29 0 52-23 52-51v-761z m-190 647l-99-99c-6-7-6-18 0-24 7-7 18-7 25 0l74 74 74-74c4-4 8-5 12-5s9 1 13 5c6 6 6 17 0 24l-99 99z" horiz-adv-x="1000" />
<glyph glyph-name="icon_11" unicode="&#x2d;" d="m829 104l-69 188c-1 0-1 1-2 2l-2 4c-6 12-20 37-50 37h-162l-4 35 104 0c3 0 33-2 52 15 9 8 15 19 15 31 1 16-4 29-13 39-12 12-30 19-53 19h-117l-7 58c-5 34-18 59-38 74-28 20-62 15-74 13-19-4-36-14-47-30-11-15-15-34-12-53l36-252c5-28 28-71 71-71h184l82-174c1-3 14-30 41-41 6-2 13-3 20-3 10 0 20 2 30 7 19 9 27 23 30 33 5 19 0 42-15 69z m-19-59c-1-3-3-8-11-11-9-5-16-5-23-3-11 4-19 17-21 23l-87 184c-3 6-9 10-16 10h-195c-24 0-35 34-37 41l-35 253c-2 9 0 19 6 27 5 8 14 14 24 15 7 1 13 2 19 2 12 0 21-3 29-8 12-9 20-26 24-51l8-72c1-9 8-15 17-15l133 0c12-1 22-4 27-9 3-3 4-7 4-13 0-4-1-6-3-7-6-6-20-7-28-6h-174c-10 0-17-8-17-18s7-17 17-17h33l7-54c1-9 8-16 17-16h178c8 0 13-6 20-19 0-1 1-2 1-3l70-188c0-1 1-2 1-3 11-17 15-33 12-42z m-351 606c21 0 41 7 58 19 44 33 52 95 19 139-19 26-49 41-80 41-22 0-42-7-59-19-43-33-52-95-19-140 19-25 49-40 81-40z m-41 152c11 8 24 12 38 12 20 0 40-10 52-26 22-29 16-70-12-91-11-8-24-12-37-12-21 0-40 10-53 26-21 29-16 70 12 91z m242-750c-50-65-125-102-206-102-145 0-262 118-262 262 0 92 47 176 126 224 9 5 11 16 6 24-5 8-15 11-24 6-89-55-143-149-143-254 0-163 133-296 297-296 92 0 177 41 234 114 6 8 4 19-3 25-8 6-19 4-25-3z m-398 160c0 11 1 21 3 32 1 9-5 18-15 20-9 2-18-5-20-14-2-13-3-25-3-38 0-66 29-129 80-173 3-2 7-4 11-4 5 0 10 2 13 6 7 8 6 19-2 25-42 37-67 90-67 146z" horiz-adv-x="1000" />
<glyph glyph-name="icon_12" unicode="&#x2e;" d="m949 297h-898c-10 0-18-8-18-17s8-18 18-18h898c10 0 18 8 18 18s-8 17-18 17z m-571 340c-97-39-170-122-196-223-2-9 3-18 13-21 1 0 2 0 4 0 8 0 15 5 17 13 23 89 88 164 175 198 9 4 13 14 10 23s-14 13-23 10z m-275-323h795c9 0 17 8 17 18 0 1 0 2 0 3-2 208-157 379-358 407 8 11 12 25 12 39 0 38-31 69-69 69s-69-31-69-69c0-14 4-28 12-39-202-28-358-201-358-410 0-10 8-18 18-18z m397 501c19 0 35-15 35-34s-16-35-35-35-35 16-35 35 16 34 35 34z m0-103c204 0 371-162 380-363h-760c9 201 176 363 380 363z m368-492c-14 4-28 6-40 6-63 0-93-45-100-57-10-9-69-62-156-62h-3c-50 0-83 8-104 17h125c27 0 48 8 63 25 23 26 20 62 20 63-1 9-8 16-17 16h-329c-141 0-285-257-291-268-3-6-3-12 0-18s9-8 15-8h239c8 0 16 6 17 13 5 23 19 35 25 39h220c198 0 308 166 327 211 2 4 2 10 0 14-3 4-7 8-11 9z m-316-200h-225c-2 0-5 0-7-1-1-1-29-14-43-51h-196c49 81 157 225 246 225h310c-1-7-4-15-10-21-8-9-20-13-37-13h-176c-6 0-12-3-15-8-3-5-4-11-1-17 3-6 32-60 171-62h3c109 0 179 72 182 75 2 1 3 2 3 4 1 0 21 40 71 40 2 0 5 0 8 0-29-48-121-171-284-171z" horiz-adv-x="1000" />
<glyph glyph-name="icon_13" unicode="&#x2f;" d="m866 351c-18 0-36-5-53-14v67c0 28-23 52-52 52h-47l-11 64c-5 35-2 94 8 128 3 9 7 24 10 29 4 8 0 19-8 23-9 4-19 1-23-8-5-9-11-30-12-34-12-39-16-103-9-143l10-59h-214l90 94c28 30 61 86 74 124 3 8 9 29 9 40 0 10-8 20-17 20h0c-10 0-18-11-18-21 0-3-3-19-6-30-12-33-43-84-67-109l-104-109c-2-3-4-6-4-9h-183c-14 0-27-6-36-16-8-11-12-25-9-39l13-78c-18 15-42 28-72 28-9 0-17-7-17-17 0-10 8-17 17-17 42 0 72-44 73-45 2-3 5-5 9-7l52-300c4-27 30-48 57-48h348c28 0 55 21 60 48l35 196c25 4 44 25 44 51v82c13 11 31 23 53 23 9 0 17 7 17 17 0 10-8 17-17 17z m-167-380c-1-10-14-20-25-20h-348c-10 0-21 10-23 20l-75 436c-1 4 0 8 2 10 2 3 5 4 9 4h244c10 0 17-8 17-17v-192c0-28 24-52 52-52h181l-34-189z m80 241c0-9-8-17-18-17h-208c-10 0-18 8-18 17v192c0 6-1 12-3 17h229c10 0 18-8 18-17v-192z m-143 522l70-22 5-1c5 0 19 0 38 39l9 18c6 13 7 27 2 40-6 12-16 21-30 26l-46 14c-5 1-10 2-15 2-23 0-42-17-45-41l-3-20c-7-49 9-53 15-55z m19 51l3 20c1 8 8 12 16 10l46-15c4-1 6-3 8-6 1-3 1-7-1-11l-9-17c-4-8-8-14-10-18l-54 16c0 5 0 12 1 21z m-346-712c0-9 8-17 17-17h348c10 0 18 8 18 17 0 10-8 18-18 18h-348c-9 0-17-8-17-18z" horiz-adv-x="1000" />
<glyph glyph-name="icon_14" unicode="&#x30;" d="m534 3h-51c-10 0-17-8-17-17 0-10 7-17 17-17h51c10 0 17 7 17 17 0 9-7 17-17 17z m-69 151c-5 2-11 2-16-1-15 15-14 27-12 39 0 1 0 2 0 3 8 7 16 17 23 29 3 4 5 8 7 12 8 12 16 24 23 41 7 3 13 10 17 17 14 25 25 70 18 90-3 7-8 13-14 16-1 80-37 141-98 165-12 5-32 13-59 21-9 2-14 6-16 7-1 4-3 8-6 10-4 3-9 4-14 3-13-3-24-20-27-29-1-3-2-6-3-9-17-3-40-13-46-36-1-2-1-5-1-7-22-24-42-64-42-124-8-3-13-9-16-17-7-20 4-65 17-90 5-8 12-14 19-18 7-16 15-28 22-40 3-4 5-7 7-11 9-13 17-24 26-31 0-1 0-1 0-1 1-15 2-29-7-40-5 3-10 3-14 1-44-17-187-92-201-143-9-35-12-52-12-52-1-2-1-3-1-4 0-19 10-28 18-33 9-4 20-5 30-5l517 0c4 0 7 0 11 0 4 0 7 0 11 0 35 0 43 20 43 36 0 14-1 22-13 59-13 42-131 116-191 142z m-5-35c1-1 3-2 4-2l-47-79-35 30 78 51z m-190 135c-8 13-15 24-22 42-2 6-7 10-14 10-1 0-3 0-3 1-12 21-16 57-16 57h0c5 0 10 4 13 8 3 3 5 11 5 16-2 55 13 99 45 126 5 4 7 11 5 17 9 4 23 4 23 4l1 17 14 10c1-1 1-2 1-2 0 1 0 1 0 2 7-4 15-7 22-9 26-7 44-15 56-20 51-20 79-73 76-145 0-5 2-9 5-13 3-3 7-5 12-5 0-11-5-39-16-60-1-1-2-3-3-3-6-1-11-5-13-11-7-17-14-28-23-42-2-4-5-8-7-12-7-12-14-20-21-25-4-3-6-8-6-14 0-2-1-4-1-7-2-13-5-37 17-62l-66-43-59 43c17 22 15 48 13 62 0 2 0 4 0 6 0 6-3 11-8 14-8 6-15 14-22 26-3 5-5 8-8 12z m-13-135l74-53-40-31-51 76c6 3 11 6 17 8z m377-167c-2-1-9-1-18-1-4 0-8 0-12 0h-500c-3 0-6 0-9 0l-8 0c-10 0-13 1-13 1 0 0 0 0 0 2 1 5 5 21 12 48 5 20 65 62 123 94l64-96c3-4 7-7 12-7 1-1 2-1 2-1 4 0 8 2 11 4l60 48 51-46c4-3 9-5 14-4 5 1 10 4 12 8l60 99c61-35 123-83 128-99 11-37 11-40 11-49 0 0 0-1 0-1z m106 898c-118 0-215-81-216-181 0-62 23-106 76-144-1-13-8-34-37-61l-2-2c-5-5-7-13-4-20 3-6 9-10 16-10 0 0 1 0 1 0 58 5 117 45 132 56l1-1c9-1 27-3 33-3 119 0 216 83 216 183 0 100-97 183-216 183z m0-329c-6 0-26 2-30 2-2 0-4 0-6 0l-7-1c-3-1-6-2-8-4-1 0-32-24-69-39 11 19 16 37 14 55 0 1-1 3-1 4-1 2-2 6-9 12-1 1-1 1-2 2-45 31-64 66-63 116 1 81 82 148 181 148 100 0 182-66 182-148s-82-147-182-147z m-68 169h-35c-9 0-17-8-17-17s8-17 17-17h35c9 0 17 7 17 17s-8 17-17 17z m171 0h-34c-9 0-17-8-17-17s8-17 17-17h34c10 0 18 7 18 17s-8 17-18 17z m-85 0h-35c-9 0-17-8-17-17s8-17 17-17h35c9 0 17 7 17 17s-8 17-17 17z" horiz-adv-x="1000" />
<glyph glyph-name="icon_15" unicode="&#x31;" d="m759 680c-7 7-18 7-24 0l-48-45v163c0 29-23 52-52 52h-350c-24 0-54-13-70-31l-140-156c-16-18-28-49-28-72v-623c0-28 24-51 52-51h536c29 0 52 23 52 51v398c0 3-1 6-3 8l178 176c7 6 7 17 1 24l-104 106z m-658-40l140 156c6 7 19 14 31 17v-170c0-10-8-18-17-18h-164c3 6 6 11 10 15z m551-672c0-9-8-17-17-17h-536c-9 0-17 8-17 17v623h173c28 0 52 23 52 52v172h328c9 0 17-7 17-17v-190c0-2 1-3 1-5l-255-242c-2-2-3-4-4-7l-52-155c-2-6 0-13 4-18 3-3 8-5 12-5 2 0 4 0 5 1l164 46c3 1 6 2 8 4l117 116v-375z m-250 303c11-13 26-26 38-37l-55-15 17 52z m112-16l-33-9c-22 17-54 45-60 57-1 2-3 4-6 6l10 30 321 304 80-81-312-307z m332 526c-6 1-12-1-16-5l-52-52c-6-7-6-18 0-24s18-7 25 0l44 44c20-6 64-27 76-83l-45-45c-7-7-7-18 0-25 3-3 7-5 12-5 4 0 9 2 12 5l52 52c4 4 6 9 5 15-12 81-79 116-113 123z" horiz-adv-x="1000" />
<glyph glyph-name="icon_16" unicode="&#x32;" d="m930 383c21 16 35 41 35 70 0 47-39 86-87 86h-202c16 60 29 161 29 207 0 86-47 104-86 104-26 0-69-11-69-86 0-103-151-292-181-329h-30c-7 20-26 35-48 35h-208c-28 0-52-23-52-52v-398c0-28 24-52 52-52h208c25 0 46 18 50 42l28-14c31-15 107-28 172-28h251c47 0 86 35 86 78 0 17-5 33-15 46 38 9 67 43 67 84 0 22-9 42-22 57 33 12 57 44 57 81 0 29-14 54-35 69z m-622-363c0-9-8-17-17-17h-208c-9 0-17 8-17 17v398c0 9 8 17 17 17h208c9 0 17-7 17-17v-398z m570 242h-17c-2 0-4 0-6-1-4 1-7 1-11 1h-18c-9 0-17-7-17-17 0-9 8-17 17-17h18c28 0 51-23 51-52 0-29-23-52-51-52h-18c-2 0-3 0-5-1-2 1-3 1-5 1h-16c-9 0-17-8-17-17 0-10 8-18 17-18 24 0 44-19 44-43s-24-43-52-43h-251c-65 0-133 12-156 24l-43 21v353h35c5 0 10 2 13 6 8 9 194 231 194 357 0 36 10 52 35 52 27 0 52-9 52-70 0-49-17-169-34-219-2-5-1-11 2-15s9-8 14-8h225c29 0 52-23 52-51 0-29-23-52-52-52h-34c-10 0-18-8-18-18s8-17 18-17h34c29 0 52-23 52-52 0-28-23-52-52-52z" horiz-adv-x="1000" />
<glyph glyph-name="icon_17" unicode="&#x33;" d="m932 435c21 16 35 41 35 69 0 38-24 69-57 81 14 16 22 36 22 58 0 41-28 75-67 84 10 12 15 28 15 45 0 43-38 78-86 78h-251c-65 0-141-12-172-28l-28-14c-4 24-25 42-50 42h-208c-28 0-52-23-52-52v-397c0-29 24-52 52-52h208c22 0 41 14 48 34h30c30-36 181-225 181-328 0-75 43-87 69-87 39 0 86 18 86 104 0 47-13 147-28 208h201c48 0 87 38 87 86 0 28-14 53-35 69z m-622-34c0-10-8-18-17-18h-208c-9 0-17 8-17 18v397c0 10 8 17 17 17h208c9 0 17-7 17-17v-397z m570-87h-224c-6 0-11-2-14-7s-5-10-3-16c17-50 34-169 34-219 0-60-25-69-52-69-24 0-35 15-35 52 0 126-186 347-194 357-3 4-8 6-13 6h-35v352l43 21c23 12 91 24 156 24h251c28 0 52-19 52-43 0-24-20-43-43-43-10 0-18-8-18-17s8-18 18-18h15c2 0 3 1 5 2 2-1 4-2 5-2h18c28 0 52-23 52-51s-24-52-52-52h-18c-9 0-17-8-17-18s8-17 17-17h18c4 0 7 1 11 1 2 0 4-1 6-1h17c29 0 52-23 52-52 0-28-23-52-52-52h-34c-10 0-18-7-18-17s8-17 18-17h34c29 0 52-23 52-52s-23-52-52-52z" horiz-adv-x="1000" />
<glyph glyph-name="icon_18" unicode="&#x34;" d="m705 625l-371 0-28 40c11 12 19 29 19 47 0 38-31 69-70 69-9 0-18-2-26-5l-46 67c-5 7-16 9-24 4-8-5-10-16-4-24l47-68c-10-12-16-27-16-43 0-38 31-69 69-69 8 0 15 1 22 3l15-21-140 0c0 0 0 0 0 0-7 0-13-4-16-10-3-6-2-13 3-18l272-307v-270c0-9 8-17 17-17 52 0 86-29 105-52h-211c10 14 27 30 49 41 9 4 13 14 9 23-5 8-15 12-23 8-57-27-82-80-83-82-2-5-2-12 2-16 3-5 8-8 14-8h277c6 0 11 3 14 8 3 5 4 12 1 17-2 4-46 85-136 95v253l272 306c4 5 5 13 3 19s-9 10-16 10z m-450 52c-19 0-34 16-34 35 0 10 5 20 13 26 0 0 0 0 0 1 1 0 1 0 1 1 6 4 13 6 20 6 19 0 35-15 35-34 0-19-16-35-35-35z m173-354l-146 164h292l-146-164z m176 198c-1 0-2 1-3 1h-346c-1 0-2-1-3-1l-62 70 476-1-62-69z m245 207l-138 52c-7 2-15 0-19-5l-87-104c-6-7-5-18 2-24 4-3 7-4 11-4 5 0 10 2 14 6l78 94 127-47c9-4 19 1 22 10 4 9-1 19-10 22z" horiz-adv-x="1000" />
<glyph glyph-name="icon_19" unicode="&#x35;" d="m861 539h-69c-9 0-17-8-17-17s8-18 17-18h69c27 0 50 10 67 28 38 39 34 109 34 112 0 9-8 16-17 16h-106l-13 40c-2 7-9 12-17 12h-120v121c0 6-4 12-10 15-6 3-13 2-18-1-4-3-92-71-93-168-1 0-1 0-1-1-15-25-30-49-30-49-12-19-21-51-21-73v-52c0-14-10-36-20-46l-300-293c-17 3-59 15-61 39 0 15 12 23 19 27 9 4 12 15 8 23-4 9-15 12-23 8-25-13-40-35-38-59 3-60 89-72 93-73 1 0 1 0 2 0 3 0 5 1 7 2 1 0 1 0 1 0 5 0 9 1 12 5l304 296c5 5 10 11 14 18l155-62-2-12c0-1 0-1 0-2 0-1-2-28 8-55 0-1 1-2 2-4-1-2-1-5 0-8 24-66 80-212 111-294 4-8 12-15 25-26 4-3 11-8 13-10l10-26c-3 0-7-1-12-1h-52c-13 0-30 10-37 22l-83 145c-14 23-46 34-71 23l-49-22c1 3 3 7 4 10 23 49-54 97-62 102-9 5-19 3-24-6s-2-18 6-23c24-15 55-44 48-59 0 0 0-1-1-2-16-49-71-108-71-109-5-5-6-12-4-18 3-7 9-11 16-11h72c6 0 51-1 60-52h-339c-8 10-23 29-48 56-13 15-21 30-25 44-2 6-6 10-11 12-1 2-4 4-6 6-51 25-109 72-95 149 6 31 25 47 40 55 26 13 59 15 86 3 9-4 19 0 23 9 3 9-1 19-9 23-37 16-81 14-116-5-31-16-51-44-58-78-14-77 26-143 113-187 0 0 1 0 1 0 6-19 16-37 32-54 33-37 51-60 51-61 3-4 8-6 14-6 1 0 3 0 4 0 1 0 2 0 3 0h358c10 0 18 7 18 17 0 82-63 104-96 104h-34c7 9 16 21 24 33 2 0 5 1 7 2l82 36c10 4 22 0 27-9l83-145c13-21 42-38 67-38h52c9 0 32 1 43 15 5 6 7 13 5 20 0 1 0 2 0 3l-14 37c-4 8-11 14-24 24-4 3-12 9-14 12-31 81-86 226-110 292-1 1-1 2-2 3 0 3 0 6-1 9-6 17-6 36-6 40l10 58c13 23 42 23 44 23h52c9 0 17 7 17 17s-8 17-17 17h-52c-2 0-53 1-76-44-1-2-1-3-2-5l-2-14-148 59c2 7 3 15 3 21v52c0 16 8 42 16 55 0 0 15 24 30 49 2 3 2 5 3 7 2 3 3 7 3 10 0 49 29 90 52 116v-98c0-10 8-18 17-18h126l13-40c3-7 9-12 17-12h100c-1-19-6-50-24-70-11-11-24-16-42-16z" horiz-adv-x="1000" />
<glyph glyph-name="icon_20" unicode="&#x36;" d="m949-43h-51v86c32 8 59 40 59 77 0 70-58 148-61 152-3 4-8 7-14 6-6 0-11-2-14-7-2-4-60-89-60-151 1-31 22-65 55-76v-87h-69v294c9 0 17 8 17 17 0 10-8 18-17 18v432c0 26-20 53-45 61l-211 66c-21 7-55 7-76 0l-211-66c-25-8-45-35-45-61v-432c-9 0-17-8-17-18 0-9 8-17 17-17v-294h-69v87c32 9 57 40 57 76 0 70-58 148-61 152-3 4-8 7-14 6-6 0-11-2-14-7-2-4-60-89-60-151 1-32 23-67 58-77v-86h-52c-10 0-18-7-18-17 0-10 8-17 18-17h898c10 0 18 7 18 17 0 10-8 17-18 17z m-869 163c0 33 23 79 40 109 16-25 39-70 39-109 0-23-19-44-39-44-22 0-40 24-40 44z m403-163h-87v156h87v-156z m121 0h-87v156h87v-156z m155 0h-121v156h35c9 0 17 8 17 17 0 10-8 18-17 18h-346c-9 0-17-8-17-18 0-9 8-17 17-17h35v-156h-121v294h103v-17c0-10 8-17 18-17h276c10 0 18 7 18 17v17h103v-294z m-380 294v35h242v-35h-242z m380 35h-103v17c0 10-8 17-18 17h-276c-10 0-18-7-18-17v-17h-103v432c0 11 10 25 21 28l210 66c15 5 41 5 56 0l210-66c11-3 21-17 21-28v-432z m84-166c0 33 22 79 40 109 16-25 39-70 39-109 0-23-19-44-39-44-22 0-40 24-40 44z m-153 511h-69c-9 0-17-7-17-17v-69c0-10 7-17 17-17 10 0 17 7 17 17v52h52c10 0 18 8 18 17s-8 17-18 17z m-311 0h-69c-10 0-17-7-17-17v-69c0-10 7-17 17-17 9 0 17 7 17 17v52h52c10 0 17 8 17 17s-7 17-17 17z m0-155h-69c-10 0-17-8-17-17v-70c0-9 7-17 17-17 9 0 17 8 17 17v52h52c10 0 17 8 17 18 0 9-7 17-17 17z m156 155h-70c-9 0-17-7-17-17v-69c0-10 8-17 17-17 10 0 18 7 18 17v52h52c9 0 17 8 17 17s-8 17-17 17z m0-155h-70c-9 0-17-8-17-17v-70c0-9 8-17 17-17 10 0 18 8 18 17v52h52c9 0 17 8 17 18 0 9-8 17-17 17z m155 0h-69c-9 0-17-8-17-17v-70c0-9 7-17 17-17 10 0 17 8 17 17v52h52c10 0 18 8 18 18-1 9-8 17-18 17z" horiz-adv-x="1000" />
<glyph glyph-name="icon_21" unicode="&#x37;" d="m887 357c4 17 6 35 6 52 0 129-105 234-233 234-73 0-142-35-186-92-68 157-171 285-178 293-3 4-8 6-14 6-5 0-10-3-13-7-10-13-237-319-236-539 1-114 102-241 238-248v-122c0-10 8-17 17-17 10 0 17 7 17 17v122c97 9 181 78 214 167 34-25 73-41 115-45v-244c0-10 8-17 17-17 10 0 17 7 17 17v86h104c48 0 87 31 87 70v36c58 8 103 58 103 119 0 51-31 94-75 112z m-603-267c-121 0-216 115-216 214-1 179 166 430 215 500 50-66 216-300 216-500 0-114-100-214-215-214z m376 121c-48 0-94 17-131 48 3 15 5 30 5 45 0 69-18 141-44 209 36 59 101 95 170 95 109 0 199-89 199-199 0-15-2-29-5-44-4 1-9 1-13 1-66 0-121-54-121-121 0-8 1-16 3-24-21-7-42-10-63-10z m164-121c0-19-24-35-52-35h-104v121c23 1 45 5 66 12 18-33 51-57 90-63v-35z m17 69c-47 0-86 38-86 86s39 87 86 87c48 0 87-39 87-87s-39-86-87-86z" horiz-adv-x="1000" />
<glyph glyph-name="icon_22" unicode="&#x38;" d="m315-2l-52-52c-7-7-7-18 0-24 3-4 8-5 12-5 5 0 9 1 12 5l52 52c7 6 7 17 0 24-6 7-17 7-24 0z m370 0c-7 7-18 7-24 0-7-7-7-18 0-24l51-52c4-4 8-5 13-5s8 1 12 5c7 6 7 17 0 24l-52 52z m-10 329c-43 0-78-36-78-79 0-43 35-78 78-78s78 35 78 78c0 43-35 79-78 79z m0-123c-24 0-44 20-44 44s20 44 44 44c24 0 44-20 44-44s-20-44-44-44z m61 595c-30 6-60 10-89 13-5 0-10 1-16 1-18 24-47 37-81 37h-100c-35 0-65-13-83-37-34-4-67-8-104-16-60-14-109-78-109-142v-465c0-65 49-130 110-144 78-17 158-26 237-26 78 0 158 9 237 26 59 14 108 79 108 144v465c0 65-49 129-110 144z m75-609c0-44-33-99-81-110-152-34-307-34-459 0-44 10-82 61-82 110v317c19-29 46-57 76-89 9-9 18-19 27-29 11-11 33-23 52-23h311c19 0 42 12 52 23 10 11 20 21 29 30 30 32 56 59 75 88v-317z m-622 418c1 4 8 11 13 12 113 17 207 24 299 24 91 0 185-7 296-24 6 0 12-8 14-12-3-63-42-103-100-165-9-10-19-20-29-30-5-6-18-12-27-12h-311c-8 0-21 6-26 12-10 10-19 20-28 29-59 62-98 104-101 166z m622 44c-3 1-6 2-8 3-114 16-209 24-302 24-93 0-190-8-304-25-3 0-6-1-8-2v3c0 48 38 98 82 108 37 8 72 13 108 17l8 1 5 7c10 17 32 27 58 27h100c26 0 46-9 57-27l4-7 8-1c9-1 17-2 25-3 29-3 56-6 84-12 45-11 83-61 83-110v-3z m-486-325c-43 0-79-36-79-79 0-43 36-78 79-78 43 0 78 35 78 78 0 43-35 79-78 79z m0-123c-24 0-44 20-44 44s20 44 44 44c24 0 44-20 44-44s-20-44-44-44z" horiz-adv-x="1000" />
<glyph glyph-name="icon_23" unicode="&#x39;" d="m863 647h-18v52c0 47-35 96-78 109-189 56-350 56-539 0-44-13-78-61-78-109v-52h-17c-29 0-52-24-52-52v-157c0-29 23-52 52-52h17v-316c0-37 21-67 52-78v-23c0-29 24-52 52-52h53c28 0 52 23 52 52v17h278v-17c0-29 23-52 52-52h52c29 0 52 23 52 52v24c31 13 52 43 52 77v316h18c28 0 52 23 52 52v157c0 28-23 52-52 52z m-625 128c182 54 337 54 519 0 27-9 50-40 53-70-16 14-38 25-61 28-33 5-67 8-104 11-5 1-9-1-13-3-4-4-8-8-12-12-8-9-12-13-20-13h-208c-7 0-9 2-16 9-5 5-11 11-19 17-3 1-7 2-11 2-36-3-69-7-99-11-24-3-45-14-62-28 3 30 26 61 53 70z m573-705c0-23-16-42-39-48-8-1-14-8-14-16v-37c0-10-7-18-17-18h-52c-10 0-17 8-17 18v35c0 9-8 17-18 17h-313c-9 0-17-8-17-17v-35c0-10-8-18-17-18h-53c-9 0-17 8-17 18v36c0 8-6 15-14 17-23 4-38 23-38 48v262c16-14 37-25 61-28 84-12 167-18 250-18 83 0 166 6 250 18 25 4 47 14 65 30v-264z m69 368c0-9-8-17-17-17h-18v121c0 10-7 18-17 18s-17-8-17-18v-138c0-26-28-59-70-66-165-23-325-23-490 0-41 6-66 39-66 66v138c0 10-8 18-17 18-10 0-18-8-18-18v-121h-17c-10 0-18 8-18 17v157c0 9 8 17 18 17h35c9 0 17 8 17 17v3c0 27 26 60 67 67 28 4 58 7 91 10 3-2 5-5 8-7 8-9 18-21 41-21h208c24 0 36 14 46 24 1 1 2 3 3 4 34-3 65-6 95-10 41-6 67-40 67-67v-3c0-9 7-17 17-17h35c9 0 17-8 17-17v-157z m-158-213l-82-27c-29-10-45-34-44-69 0-23 22-38 52-38h80c30 0 48 17 48 45v34c0 15 0 37-13 49-10 10-26 12-41 6z m19-89c0-7 0-11-13-11h-80c-11 0-17 4-18 5 0 19 6 30 21 35l83 27c3 1 4 2 5 2 2-5 2-18 2-24v-34z m-392 62l-78 27c-17 6-31 5-41-5-12-12-11-31-10-46 0-3 0-5 0-7v-31c0-11 0-45 41-45h80c31 0 52 15 53 38 0 35-16 59-45 69z m-8-73h-80c-3 0-5 1-5 1 0 0-1 0-1 0 0 1-1 3-1 10v31c0 2 0 5 0 8 0 5 0 14 1 18 1 0 2 0 4-1l79-27c10-4 21-11 21-35-1-1-6-5-18-5z" horiz-adv-x="1000" />
<glyph glyph-name="icon_24" unicode="&#x3a;" d="m369 746c9-4 19 0 24 8l27 55c1 3 7 6 10 6h140c3 0 9-3 10-6l27-55c4-6 10-10 16-10 3 0 6 1 8 2 9 5 12 15 8 24l-27 55c-8 14-25 25-42 25h-140c-17 0-34-11-42-25l-27-55c-4-9-1-19 8-24z m254-389h-246c-20 0-37-8-47-22-10-14-12-32-6-51l19-58c12-35 50-62 87-62h140c37 0 75 27 87 62l19 58c6 19 4 37-6 51-10 14-27 22-47 22z m20-62l-20-58c-7-20-31-38-53-38h-140c-22 0-46 18-53 38l-20 58c-2 8-2 15 2 20 3 5 10 7 18 7h246c8 0 15-2 18-7 4-5 4-12 2-20z m261 173c0 8-2 15-5 22l-61 146c-27 67-102 91-162 91h-333c-60 0-134-24-162-90l-61-140c-2-7-4-14-5-21-52-15-86-64-81-120l17-212c2-24 9-47 27-67v-89c0-29 23-53 53-53h87c30 0 53 24 53 53v70h458v-70c0-29 23-53 53-53h88c29 0 52 24 52 53v89c16 20 25 43 27 67l17 212c4 48-20 92-62 112z m-691 155c22 51 82 69 130 69h333c49 0 109-18 130-69l48-116c0 0 0-1 0-1-10-19-53-25-72-25h-546c0 0-53 0-69 35l46 107z m718-264l-17-212c-2-19-10-38-23-53-4-4-5-10-4-15 0-1 0-2 0-3v-88c0-10-8-18-17-18h-88c-10 0-18 8-18 18v88c0 10-8 17-18 17h-492c-10 0-18-7-18-17v-88c0-10-8-18-17-18h-88c-10 0-18 8-18 18v88c0 1 0 2 0 3 1 5 0 11-4 15-13 16-21 34-22 53l-18 212c-4 43 25 79 67 85 9 2 16 11 14 20 0 5 0 10 1 14 32-32 82-33 85-33h545c7 0 58 1 88 25 0-3 0-7 0-11-1-8 4-16 11-19 34-12 54-44 51-81z m-739 16c-44 0-79-36-79-79 0-44 35-79 79-79 44 0 79 35 79 79 0 43-35 79-79 79z m0-123c-24 0-44 20-44 44 0 24 20 44 44 44s44-20 44-44c0-24-20-44-44-44z m616 123c-44 0-79-36-79-79 0-44 35-79 79-79s79 35 79 79c0 43-35 79-79 79z m0-123c-24 0-44 20-44 44 0 24 20 44 44 44s44-20 44-44c0-24-20-44-44-44z" horiz-adv-x="1000" />
<glyph glyph-name="icon_25" unicode="&#x3b;" d="m792 798h-276v35c0 9-8 17-18 17s-17-8-17-17v-35h-276c-48 0-87-39-87-86v-484c0-48 39-87 87-87h276v-121c0-9 8-17 17-17 52 0 86-29 106-52h-212c10 14 27 30 49 41 9 4 13 14 9 23-4 8-15 12-23 8-57-27-82-80-83-82-2-5-2-12 2-16 3-5 8-8 14-8h277c6 0 11 3 14 8s4 12 1 17c-2 4-45 85-136 95v104h276c48 0 87 39 87 87v484c0 47-39 86-87 86z m52-570c0-29-23-52-52-52h-587c-29 0-52 23-52 52v484c0 28 23 52 52 52h587c29 0 52-24 52-52v-484z m-300 397h-149c-10 0-18-7-18-17v-294c0-9 8-17 18-17s17 8 17 17v87h132c48 0 106 29 106 112 0 86-69 111-106 112z m0-190h-132v156h131c7 0 72-5 72-78 0-70-50-78-71-78z" horiz-adv-x="1000" />
<glyph glyph-name="icon_26" unicode="&#x3c;" d="m850 462c-15 43-62 77-108 77h-449c-46 0-94-34-109-77l-57-163c-14-40-14-102 0-142l57-164c15-43 63-76 109-76h449c46 0 93 33 108 76l58 164c14 40 14 102 0 142l-58 163z m-315 25c0 10 7 17 17 17h69c10 0 17-7 17-17v-432c0-10-7-17-17-17h-69c-10 0-17 7-17 17v432z m-139 0c0 10 8 17 18 17h69c9 0 17-7 17-17v-432c0-10-8-17-17-17h-69c-10 0-18 7-18 17v432z m-237-200l58 164c10 29 45 53 76 53h72c-2-5-3-11-3-17v-242h-211c1 16 4 30 8 42z m717-119l-58-163c-10-29-45-54-76-54h-449c-31 0-66 25-76 54l-58 163c-4 12-7 27-8 43h211v-156c0-29 23-52 52-52h69c13 0 25 5 34 14 9-9 22-14 35-14h69c29 0 52 23 52 52v156h210c-1-16-3-31-7-43z m-203 77v242c0 6-1 12-3 17h72c31 0 66-24 76-53l58-164c4-11 6-26 7-42h-210z m293 593c-3 9-13 14-22 11l-406-125-5 12c-3 6-9 10-16 10-6 0-13-4-15-10l-12-27-444-136c-10-3-15-13-12-22 2-7 9-12 17-12 1 0 3 0 5 1l415 127-39-86c-2-6-1-12 2-17 3-5 8-8 14-8h138c6 0 12 3 15 8 3 5 4 11 1 17l-34 76c-4 8-14 12-22 9-9-4-13-15-9-23l23-52h-85l40 90 439 135c10 3 15 13 12 22z" horiz-adv-x="1000" />
<glyph glyph-name="icon_27" unicode="&#x3d;" d="m909 41c-8 27-42 60-102 100v38c0 9-6 16-14 17l-87 18c-5 1-10 0-14-4-2-1-3-2-4-4-4 2-9 5-13 7-6 2-13 1-18-3l-163-130-146 130c-5 4-12 5-18 3-9-3-19-8-30-12-1 3-2 7-5 9-4 4-10 5-15 4l-87-18c-8-1-14-8-14-17v-41c-61-38-94-69-101-97-13-49-18-72-18-73 0-2 0-3 0-4 0-14 4-25 12-33 12-12 29-14 48-14 4 0 8 0 12 0 4 0 8 0 12 0h698c5 0 11 0 16 0 5 0 10 0 15 0 16 0 31 2 41 12 8 8 13 19 13 33 0 18-2 28-18 79z m-730-89h-35c-4 0-8 0-13 0-12 0-30-1-34 4-2 1-2 3-2 6 1 7 6 30 17 70 1 6 11 27 67 64v-144z m87 0h-52v35h52v-35z m0 70h-52v143l52 10v-153z m419-70h-384v211c11 5 22 9 31 13l150-132c3-3 7-4 11-4 4 0 8 1 11 3l166 133c5-2 10-4 15-7v-217z m87 0h-52v35h52v-35z m0 70h-52v153l52-10v-143z m118-68c-3-3-20-3-31-2-5 0-11 0-17 0h-35v146c45-31 65-55 69-67 15-49 16-56 16-69 0-5-1-7-2-8z m-580 464c9-23 20-40 31-58 4-5 7-10 10-15 11-19 22-33 35-43-3-19-11-53-15-70l-1-3c-2-10 3-19 13-21 1-1 2-1 4-1 8 0 15 5 17 13l1 4c8 33 16 69 17 85 0 6-3 12-8 15-12 8-22 21-33 39-4 5-7 10-10 16-12 19-23 35-32 60-2 6-9 11-15 11-2 0-7 3-9 8-18 32-25 82-22 92 0 0 2 1 7 0 4 0 9 2 12 6s6 8 5 13c-3 86 24 128 65 164 6 5 8 13 5 20-1 0-1 1-1 1 15 10 40 10 40 10l1 17 15 10c-2 3 1 9 4 15 10-9 23-14 36-18 35-10 61-20 78-27 79-32 114-93 111-193-1-4 1-9 4-12 4-4 8-6 13-6 3 0 5 0 4 0 4-11-3-60-21-92-2-5-7-8-9-8-6-1-11-5-14-11-9-25-20-42-31-60-4-6-7-11-11-17-11-17-20-29-30-37-5-3-7-8-7-14 0-22 6-66 13-89 2-10 12-15 21-13 10 3 15 12 13 22-5 18-11 51-12 72 11 10 21 23 32 41 3 5 7 11 10 16 11 17 22 35 32 59 10 4 18 12 24 22 20 37 32 97 23 121-3 9-10 16-19 20 0 107-44 176-133 211-17 7-44 18-82 29-17 4-25 12-26 13 0 5-3 9-7 12-4 3-9 4-13 3-15-3-29-24-34-37-2-5-4-10-4-15-23-4-56-15-65-47-1-3-1-6-1-9-31-32-58-78-59-159-14-5-20-16-22-21-8-24 4-84 24-121 6-11 15-19 26-23z" horiz-adv-x="1000" />
<glyph glyph-name="icon_28" unicode="&#x3e;" d="m733 159c-4 13-11 24-21 33l-116 130 35 189c4 34-1 61-17 80-14 17-35 28-63 30-38 4-71-24-75-61l-31-240c-2-21 12-56 29-71l131-146 64-138c0-2 18-48 68-48 5 0 10 0 15 1 14 3 25 9 32 20 11 18 5 42-1 63l-50 158z m21-203c-1-2-6-3-8-4-32-6-44 24-45 27l-65 140c-1 2-2 3-3 5l-134 149c-1 0-1 1-2 1-8 8-18 32-17 42l30 240c2 18 17 31 35 31 1 0 2 0 3 0 18-2 32-8 39-18 10-11 13-29 10-52l-36-197c-1-6 0-11 4-15l122-137c1 0 1-1 2-1 5-5 8-10 10-18l49-152 2-5c3-12 8-30 4-36z m-220 184l-31-58c0-1-1-2-1-2l-99-124c-11-14-35-34-61-34-10 0-21 2-31 10-32 23-28 55-15 76l105 141 26 72c4 9 14 14 23 11s13-14 10-23l-27-74c-1-2-2-3-3-5l-106-141c-6-11-4-21 8-29 18-14 44 17 44 18l98 122 30 56c4 8 15 11 23 7 8-5 12-15 7-23z m266 168c-11-13-25-18-38-18-14 0-27 6-36 13l-94 68c-7 5-9 16-4 24 6 8 17 10 25 4l94-69c5-4 17-11 27 1 3 3 3 5 2 5 0 6-8 15-23 27l-109 103c-7 6-7 17-1 24 7 7 18 7 25 1l20-20 88-82c17-14 33-30 35-50 1-7-1-19-11-31z m-207 333c16 0 31 3 44 11 47 26 63 89 35 140-20 36-55 58-93 58-16 0-31-4-44-11-47-26-63-89-35-140 20-36 55-58 93-58z m-42 168c9 4 18 6 28 6 25 0 49-15 62-39 19-35 10-77-21-94-8-4-17-7-27-7-25 0-49 16-63 40-19 35-9 77 21 94z m-232-515c44 0 82 33 88 77l29 205c3 23-3 46-17 64-14 18-34 30-58 33-48 6-90-28-95-76-3-37-20-69-30-75-25-16-43-64-47-101l-3-26c-2-23 4-46 19-64s35-29 58-32l47-4c3-1 6-1 9-1z m-87 59c-9 11-13 24-11 38l3 26c4 37 20 69 30 75 25 16 43 64 47 102 2 26 24 45 49 45 2 0 5 0 8 0 13-2 25-9 34-20 8-11 12-24 10-38l-29-206c-4-28-31-49-59-46l-47 5c-14 1-26 8-35 19z" horiz-adv-x="1000" />
<glyph glyph-name="icon_29" unicode="&#x3f;" d="m656 124h34c10 0 17 8 17 17 0 10-7 18-17 18h-34c-10 0-18-8-18-18 0-9 8-17 18-17z m112 527c-38 0-69-31-69-69 0-9 8-17 18-17 9 0 17 8 17 17 0 19 15 34 34 34 10 0 17 8 17 18 0 9-7 17-17 17z m112 199h-224c-48 0-87-39-87-86v-87h-34v87c0 47-39 86-87 86h-328c-48 0-87-39-87-86v-208c0-47 39-86 87-86h328c48 0 87 39 87 86v87h34v-536c0-48 39-87 87-87h224c48 0 87 39 87 87v657c0 47-39 86-87 86z m-760-35h328c23 0 42-14 49-34h-426c7 20 26 34 49 34z m328-311h-328c-23 0-42 15-49 35h426c-7-20-26-35-49-35z m52 70h-432v172h432v-172z m432-467c0-29-23-52-52-52h-224c-29 0-52 23-52 52v138h328v-138z m0 173h-328v484c0 28 23 51 52 51h224c29 0 52-23 52-51v-484z m-164 432c-72 0-130-58-130-130s58-129 130-129 130 58 130 129-59 130-130 130z m0-225c-52 0-95 43-95 95 0 53 43 95 95 95s95-42 95-95c0-52-43-95-95-95z" horiz-adv-x="1000" />
<glyph glyph-name="icon_30" unicode="&#x40;" d="m586 383c48 0 87 39 87 87 0 47-39 86-87 86-47 0-86-39-86-86 0-48 39-87 86-87z m0 139c29 0 52-24 52-52 0-29-23-52-52-52-28 0-51 23-51 52 0 28 23 52 51 52z m21-285c-21 17-54 17-75-1l-65-54-120 120c-20 20-53 21-74 2l-165-150c-7-6-7-17-1-24 6-7 17-8 24-1l165 149c7 7 19 7 26 0l235-235c3-4 8-5 12-5s9 1 12 5c7 7 7 17 0 24l-90 91 63 52c8 7 23 7 31 0l146-117c3-2 7-3 11-3 5 0 10 2 13 6 6 8 5 18-2 24l-146 117z m273 613h-622c-48 0-86-39-86-86v-87h-52c-48 0-87-39-87-86v-588c0-48 39-86 87-86h622c48 0 86 38 86 86v104h52c48 0 87 39 87 86v571c0 47-39 86-87 86z m-86-847c0-29-23-52-52-52h-622c-29 0-52 23-52 52v588c0 28 23 52 52 52h622c29 0 52-24 52-52v-588z m138 190c0-28-23-52-52-52h-52v450c0 47-38 86-86 86h-536v87c0 28 23 51 52 51h622c29 0 52-23 52-51v-571z" horiz-adv-x="1000" />
<glyph glyph-name="icon_32" unicode="&#x41;" d="m532 262h-69c-9 0-17-7-17-17s8-17 17-17h69c10 0 18 7 18 17s-8 17-18 17z m208 294h-484c-10 0-17-8-17-17 0-10 7-17 17-17h17v-35c0-10 8-17 17-17 10 0 18 7 18 17v35h432c9 0 17 7 17 17 0 9-8 17-17 17z m0 87h-138v155c0 6-2 12-4 17h4c9 0 17 8 17 18 0 9-8 17-17 17h-208c-9 0-17-8-17-17 0-10 8-18 17-18h3c-2-5-3-11-3-17v-155h-138c-48 0-87-39-87-87v-501c0-48 39-87 87-87h17v-34c0-10 8-17 17-17 10 0 18 7 18 17v34h380v-34c0-10 8-17 17-17s18 7 18 17v34h17c48 0 86 39 86 87v501c0 48-38 87-86 87z m-311 155c0 10 7 17 17 17h104c9 0 17-7 17-17v-155h-138v155z m173-795h-208v277c0 28 23 52 52 52h104c28 0 52-24 52-52v-277z m190 52c0-29-24-52-52-52h-104v277c0 47-39 86-86 86h-104c-48 0-86-39-86-86v-277h-104c-29 0-52 23-52 52v501c0 29 23 52 52 52h484c28 0 52-23 52-52v-501z" horiz-adv-x="1000" />
<glyph glyph-name="icon_31" unicode="&#x42;" d="m880 729h-147l-46 62c-21 28-44 59-101 59h-241c-57 0-79-30-101-59l-46-62h-78c-48 0-87-39-87-86v-502c0-47 39-86 87-86h760c48 0 87 39 87 86v502c0 47-39 86-87 86z m52-588c0-28-23-51-52-51h-760c-29 0-52 23-52 51v173h153c36-100 132-173 244-173 113 0 209 73 245 173h222v-173z m-691 260c0 124 101 224 224 224s225-100 225-224-101-225-225-225-224 101-224 225z m691-52h-212c3 17 5 34 5 52 0 143-117 259-260 259-142 0-259-116-259-259 0-18 2-35 5-52h-143v294c0 28 23 52 52 52h95l57 76c20 27 34 45 73 45h241c40 0 54-19 73-45l57-76h164c29 0 52-24 52-52v-294z m-613-17c2 0 3 0 5 1 9 3 14 13 11 22-5 15-8 30-8 46 0 76 62 138 138 138 10 0 18 8 18 17 0 10-8 18-18 18-95 0-172-78-172-173 0-20 3-39 9-57 3-8 9-12 17-12z m544 293h-86c-10 0-18-7-18-17s8-17 18-17h86c10 0 17 7 17 17s-7 17-17 17z" horiz-adv-x="1000" />
<glyph glyph-name="icon_33" unicode="&#x43;" d="m621 72h-207c-10 0-18-7-18-17 0-10 8-17 18-17h207c10 0 17 7 17 17 0 10-7 17-17 17z m-294 0h-138c-10 0-17-7-17-17 0-10 7-17 17-17h138c10 0 18 7 18 17-1 10-8 17-18 17z m380 329h-172c-10 0-18-8-18-18v-103c0-10 8-18 18-18h172c10 0 18 8 18 18v103c0 10-8 18-18 18z m-17-104h-138v69h138v-69z m190 553h-622c-48 0-86-39-86-86v-260h-52c-48 0-87-38-87-86v-415c0-48 39-86 87-86h622c48 0 86 38 86 86v259h52c48 0 87 39 87 87v415c0 47-39 86-87 86z m-86-847c0-29-23-52-52-52h-622c-29 0-52 23-52 52v415c0 29 23 52 52 52h622c29 0 52-23 52-52v-415z m138 346c0-29-23-52-52-52h-52v121c0 48-38 86-86 86h-536v70h726v-225z m0 259h-726v69h726v-69z m0 104h-726v52c0 28 23 51 52 51h622c29 0 52-23 52-51v-52z" horiz-adv-x="1000" />
<glyph glyph-name="icon_34" unicode="&#x44;" d="m110 532c2 0 3 0 4 0 8 0 15 6 17 14 17 88 79 161 162 194l-30-46c-6-8-3-19 4-24 3-2 7-3 10-3 6 0 11 3 14 8l60 89c3 5 4 11 2 16-2 5-7 9-13 10l-106 24c-10 2-19-4-21-13-2-10 4-19 13-21l49-11c-91-37-159-119-178-217-2-9 4-18 13-20z m260-166c25 0 48-9 67-25 7-6 18-6 24 2 7 7 6 18-2 24-25 22-56 34-89 34-67 0-124-52-141-121h-40c-10 0-17-8-17-18 0-9 7-17 17-17h35c0-3 0-6 0-9 0-8 0-17 2-26h-37c-10 0-17-7-17-17 0-9 7-17 17-17h45c22-61 75-104 136-104 33 0 64 12 89 34 8 6 9 17 2 24-6 7-17 8-24 2-19-16-42-25-67-25-43 0-80 28-99 69h108c10 0 17 8 17 17 0 10-7 17-17 17h-119c-1 9-2 18-2 26 0 3 0 6 0 9h121c10 0 17 8 17 17 0 10-7 18-17 18h-114c15 50 57 86 105 86z m523-123c-9 2-18-4-20-13-17-88-80-162-163-194l31 46c5 8 3 19-5 24-8 5-19 3-24-5l-60-89c-3-4-4-10-2-16 2-5 7-9 13-10l106-24c1 0 2-1 4-1 8 0 15 6 17 14 2 9-4 18-14 21l-48 10c91 38 160 119 179 217 2 9-4 18-14 20z m-180-26c147 31 254 163 254 313 0 177-144 320-320 320-148 0-275-100-311-243-4-17-6-35-8-52-164-13-295-151-295-319 0-176 144-319 320-319 168 0 306 130 319 295 14 1 27 3 41 5z m-360-266c-157 0-285 128-285 285 0 158 128 286 285 286s285-128 285-286c0-157-128-285-285-285z m285 614c-31 9-52 23-59 39-4 9-3 20 4 31 9 18 29 28 55 31v-101z m118-131c8 24 7 46-3 65-12 23-37 40-80 55v110c24-4 46-15 55-30 6-8 16-10 24-5 8 5 11 16 5 24-16 24-48 41-84 46v13c0 9-8 17-17 17-10 0-18-8-18-17v-11c-39-3-70-21-86-49-11-21-13-42-4-62 8-19 29-44 85-60 2 0 3-1 5-1v-123c-3 1-6 1-9 2-2 0-4 0-6 0-55 86-151 144-260 148 1 14 4 29 7 43 31 127 145 216 277 216 157 0 285-127 285-285 0-134-95-251-226-279-11-2-22-4-34-5-1 37-8 71-20 104 1-1 2-1 4-1 9 0 17 8 17 17v6c36 6 70 25 83 62z m-83-27v110c26-10 43-21 50-34 5-10 5-23 0-38-7-21-27-33-50-38z" horiz-adv-x="1000" />
<glyph glyph-name="icon_35" unicode="&#x45;" d="m346 576c-33 4-56-3-58-3-9-3-15-13-12-22 2-7 9-12 17-12 1 0 3 0 5 1 0 0 19 5 44 2 10-1 18 6 19 15 1 10-5 18-15 19z m-140-20c-38 0-69-31-69-69s31-69 69-69 69 31 69 69-31 69-69 69z m0-103c-19 0-34 15-34 34 0 19 15 35 34 35 19 0 35-16 35-35 0-19-16-34-35-34z m549-81c-54 0-99-45-99-99s45-99 99-99c54 0 99 45 99 99s-45 99-99 99z m0-163c-35 0-64 29-64 64s29 64 64 64 64-29 64-64-29-64-64-64z m-325 317c-4 5-8 10-13 15-6 7-17 8-24 2-7-7-8-18-1-25 4-4 7-9 11-13 7-10 15-20 25-28 3-2 7-3 11-3 5 0 10 2 13 6 6 8 5 19-3 25-7 5-13 13-19 21z m139-18c-3 9-14 13-22 9-11-5-23-9-35-13-4-2-8-3-12-4-9-2-14-12-12-21 2-8 9-13 17-13 1 0 3 0 4 1 4 1 9 2 14 4 13 4 25 9 37 14 9 4 13 14 9 23z m45 9c3 0 7 1 10 3 23 17 36 31 42 38 6 8 5 18-3 24-7 7-18 5-24-2-5-6-16-18-35-31-8-6-10-17-4-24 3-5 8-8 14-8z m111 57c38 0 69 31 69 69 0 38-31 69-69 69-38 0-69-31-69-69 0-38 31-69 69-69z m0 103c19 0 34-15 34-34 0-19-15-35-34-35s-35 16-35 35c0 19 16 34 35 34z m172-262c0 1 1 2 1 3v319c0 7-4 13-10 16l-208 95c-4 3-10 3-14 0l-201-92-200 92c-4 3-10 3-14 0l-208-95c-6-3-10-9-10-16v-622c0-6 3-12 8-15 5-3 12-3 17-1l200 92 200-93c3-1 5-1 7-1 3 0 5 0 8 1l114 53c61-121 152-224 156-229 3-3 8-5 13-5 0 0 0 0 0 0 5 0 9 2 13 5 4 6 111 128 170 262 13 28 19 57 19 87 0 56-23 108-61 144z m-431-282l-201 93c-4 2-10 2-14 0l-183-84v584l190 88 200-93c5-2 10-2 15 0l200 93 190-88v-284c-31 19-68 31-108 31-112 0-203-91-203-202 0-31 6-60 19-86 1-1 1-2 2-3l-107-49z m441 66c-45-103-121-202-151-238-31 36-108 134-153 238-11 22-17 47-17 72 0 92 76 167 169 167 93 0 169-75 169-167 0-25-6-49-17-72z" horiz-adv-x="1000" />
<glyph glyph-name="icon_36" unicode="&#x46;" d="m392 764c10 0 17 8 17 18v15c2 3 10 9 21 11 44 10 88 10 131 1 12-3 19-9 21-12v-15c0-10 8-18 18-18 9 0 17 8 17 18v17c0 20-24 38-48 43-49 11-98 11-147 0-23-5-47-23-47-43v-17c0-10 7-18 17-18z m269-244l-225-121c-3-2-6-4-7-7l-121-225c-4-7-3-15 3-20 3-4 7-5 12-5 3 0 5 0 8 2l225 121c3 1 5 4 7 7l121 225c4 6 2 15-3 20-5 6-14 7-20 3z m-296-319l83 154c0 0 1 0 1-1l69-69c0 0 1 0 1-1l-154-83z m178 107c0 1 0 1 0 2l-70 69c0 0 0 0-1 0l154 83-83-154z m-47 353c-181 0-329-148-329-329 0-181 148-329 329-329s328 148 328 329c0 181-147 329-328 329z m0-623c-162 0-294 132-294 294 0 162 132 294 294 294s294-132 294-294c0-162-132-294-294-294z m0 709c-229 0-415-186-415-415 0-229 186-415 415-415 229 0 415 186 415 415 0 229-186 415-415 415z m0-796c-210 0-381 171-381 381 0 210 171 380 381 380 210 0 380-170 380-380 0-210-170-381-380-381z" horiz-adv-x="1000" />
<glyph glyph-name="icon_37" unicode="&#x47;" d="m819 638l-374 171v24c0 9-8 17-17 17-10 0-17-8-17-17v-743c0 0 0 0 0 0 0-1 0-1 0-1v-69c0-9 7-17 17-17 9 0 17 8 17 17v52c146-3 225-40 225-60 0-21-85-61-242-61-157 0-242 40-242 61 0 15 51 47 174 57 10 1 17 10 16 19-1 10-9 17-19 16-99-8-206-37-206-92 0-63 140-95 277-95 137 0 277 32 277 95 0 60-128 92-260 95v300l374 171c20 9 23 24 23 30s-3 21-23 30z m-374-193v326l356-163-356-163z" horiz-adv-x="1000" />
<glyph glyph-name="icon_38" unicode="&#x48;" d="m400 270l41 10c14-22 38-35 65-35 7 0 13 1 20 2 42 11 67 54 56 96-5 22-19 39-37 49l53 218 59-78c-51-44-75-115-58-184 21-82 95-139 179-139 15 0 30 2 45 6 99 25 158 125 133 224-21 81-94 138-178 138-16 0-31-2-46-6-17-4-32-10-46-19l-74 98c-3 6-21 41-12 66 3 10 11 17 23 22 8 1 36 9 49 29 7 10 9 22 6 34-5 21-13 35-26 43-20 11-43 5-63-1-4-1-8-2-11-3l-85-22 8-34 85 22c4 1 8 2 12 3 14 4 29 8 36 4 4-2 8-9 10-20 1-4 0-5-1-7-5-8-21-13-28-14-2 0-3-1-4-1-22-9-37-24-44-43-9-25-3-52 4-71l-325-83-34 27 65 17c10 2 15 12 13 21-3 10-12 15-22 13l-105-27c0 0-30-7-35 9-2 10-12 15-21 13-9-3-15-12-13-22 6-21 23-34 47-36 3-1 5-1 8-1 12 0 21 3 23 3 1-2 2-4 4-6l48-39c0 0 0 0 0 0l-11-112c-14-1-28-2-41-6-48-12-88-42-113-84-25-42-32-92-20-140 21-81 94-138 178-138 16 0 31 2 46 6 90 23 147 108 137 198z m374 106c4-4 9-7 14-7 4 0 8 1 11 4 8 6 9 17 3 24l-95 127c10 6 22 10 34 13 12 4 24 5 37 5 68 0 127-46 144-112 20-80-28-161-107-181-12-3-25-5-37-5-68 0-128 46-145 112-14 56 5 112 45 148l96-128z m-225-41c6-24-9-48-32-54-23-6-47 9-53 32-6 23 8 47 31 53 4 1 8 2 11 2 20 0 38-14 43-33z m15 284l-53-217c-2 0-3 1-5 1-6 0-13-1-19-3-7-2-13-4-19-7l-188 153 284 73z m-308-99l186-151c-11-16-16-36-14-56l-35-9c-20 67-77 116-145 128l8 88z m-12-123c54-10 98-49 115-102l-128-33 13 135z m10-291c-12-3-24-5-37-5-68 0-127 46-144 112-10 39-4 79 16 113 21 34 53 58 92 68 9 3 19 4 28 4l-15-157c-1-6 1-11 6-15 3-3 7-4 11-4 2 0 3 0 4 0l151 39c5-71-41-137-112-155z m695 62h-175c-3 0-6-1-9-3l-84-50h-152c-110 0-183-54-186-56-8-6-9-17-4-24 4-5 9-8 14-8 4 0 8 2 11 4 0 0 67 49 165 49h157c3 0 7 1 9 3l84 50h170c10 0 18 7 18 17 0 10-8 18-18 18z" horiz-adv-x="1000" />
<glyph glyph-name="icon_39" unicode="&#x49;" d="m482 130c4-4 8-6 13-6 0 0 0 0 0 0 5 0 10 2 13 6 6 7 147 168 224 346 17 35 26 73 26 112 0 144-118 262-264 262s-263-118-263-262c0-40 8-77 25-112 78-178 220-339 226-346z m12 685c127 0 229-102 229-227 0-34-7-67-22-98-62-143-169-278-206-322-37 44-145 179-208 322-14 31-22 64-22 98 0 125 103 227 229 227z m0-349c69 0 125 56 125 125 0 69-56 125-125 125-69 0-125-56-125-125 0-69 56-125 125-125z m0 215c50 0 91-40 91-90 0-50-41-91-91-91s-90 41-90 91c0 50 40 90 90 90z m346-345c-1 5-5 10-10 12l-86 34-13-32 78-31 92-353-173 87c-5 3-10 3-15 0l-218-100-217 100c-5 3-10 3-15 0l-173-87 91 353 79 31-13 32-87-34c-5-2-8-7-10-12l-104-398c-1-6 1-13 6-18 6-4 13-5 19-2l200 101 217-101c5-2 10-2 15 0l217 101 200-101c2-1 5-1 7-1 4 0 8 1 11 3 5 5 8 12 6 18l-104 398z" horiz-adv-x="1000" />
<glyph glyph-name="icon_40" unicode="&#x4a;" d="m947 52l-200 200c-19 20-54 20-74 0l-37-37c-9-10-15-23-15-37 0-14 6-27 15-37l200-200c13-12 31-20 50-20 10 0 19 2 26 6l3 1 45 45 1 3c11 24 5 57-14 76z m-16-59l-35-35c-11-4-27 0-35 7l-200 201c-3 3-5 7-5 12 0 5 2 9 5 12l37 37c3 3 8 5 12 5 5 0 9-2 13-5l200-200c8-8 11-23 8-34z m-611 744c-107-28-182-125-182-236 0-42 11-85 33-122 3-5 9-8 15-8 3 0 6 0 8 2 9 5 12 15 7 24-18 32-28 68-28 104 0 95 64 179 156 203 9 2 15 12 12 21-2 9-12 15-21 12z m411-236c0 193-157 349-349 349s-349-156-349-349 157-348 349-348 349 156 349 348z m-349-313c-173 0-314 140-314 313s141 314 314 314 314-141 314-314-141-313-314-313z" horiz-adv-x="1000" />
<glyph glyph-name="icon_41" unicode="&#x4b;" d="m926 209l-245 121c-3 1-6 1-8 1v294c0 85-65 148-156 155v53c0 9-7 17-17 17s-17-8-17-17v-53c-91-7-156-70-156-155v-294c-2 0-5 0-7-1l-246-121c-23-11-41-40-41-65v-176c0-28 24-51 52-51h830c28 0 52 23 52 51v176c0 25-18 54-41 65z m-426 537c73 0 128-42 137-103h-274c9 61 64 103 137 103z m-138-138h276v-344l-130 66c-5 2-11 2-16 0l-130-66v344z m-69-657h-208c-9 0-17 8-17 17v156h225v-173z m0 208h-221c4 8 10 16 17 19l238 117v-48l-42-21c-9-4-12-15-8-23 3-6 9-10 16-10v-34z m242-208h-70v104c0 9 8 17 18 17h34c10 0 18-7 18-17v-104z m138 0h-104v104c0 29-23 52-52 52h-34c-29 0-52-23-52-52v-104h-104v258l173 86 173-86v-258z m0 344l238-117c7-3 13-11 17-19h-221v34c7 0 13 4 16 10 4 8 1 19-8 23l-42 21v48z m259-327c0-9-8-17-17-17h-208v173h225v-156z m-363 502c0 38-31 69-69 69s-69-31-69-69c0-38 31-69 69-69s69 31 69 69z m-104 0c0 19 16 34 35 34 19 0 35-15 35-34 0-19-16-35-35-35-19 0-35 16-35 35z" horiz-adv-x="1000" />
<glyph glyph-name="icon_42" unicode="&#x4c;" d="m164 765l34-17c9-4 19-1 24 8 4 8 0 19-8 23l-25 13v23h622v-23l-25-13c-8-4-12-15-8-23 3-6 10-10 16-10 3 0 5 1 8 2l34 17c6 3 10 9 10 16v52c0 9-8 17-18 17h-656c-10 0-18-8-18-17v-52c0-7 4-13 10-16z m198-382c-10 0-18-7-18-17v-311c0-10 8-17 18-17 9 0 17 7 17 17v311c0 10-8 17-17 17z m276 0c-9 0-17-7-17-17v-311c0-10 8-17 17-17 10 0 18 7 18 17v311c0 10-8 17-18 17z m-138 0c-10 0-17-7-17-17v-311c0-10 7-17 17-17s17 7 17 17v311c0 10-7 17-17 17z m467 191c0 85-70 155-156 155h-622c-86 0-156-70-156-155 0-86 70-156 156-156v-398c0-15-7-39-14-51-8-11-10-24-4-35 6-11 19-17 35-17h588c16 0 29 6 35 17 6 11 4 24-3 35-8 12-15 36-15 51v398c86 0 156 70 156 156z m-173-623h-588c-1 0-1 0-2 0 11 17 20 47 20 69v398c0 1-1 2-1 4 35 8 64 28 83 58 7 13 13 27 16 42h357c2-15 8-29 15-42 19-30 48-50 83-58 0-2 0-3 0-4v-398c0-22 8-52 19-69-1 0-1 0-2 0z m-70 547c-9 15-17 40-11 63 4 17 15 31 32 41 23 14 53 13 74-3 8-6 21-20 15-44-3-13-15-18-25-18-6 0-13 3-15 13-1 10-10 16-20 15-9-2-16-11-14-20 4-25 22-41 48-43 24 0 52 14 60 44 8 32-3 62-29 81-31 23-77 25-112 4-25-14-41-36-48-62-1-4-1-8-2-13h-354c-1 5-1 9-2 13-7 26-23 47-48 62-35 21-81 19-112-4-26-19-37-49-29-81 8-30 36-44 60-44 26 2 44 18 48 43 2 9-5 18-14 20-10 1-18-5-20-15-2-10-9-13-15-13-10 0-22 5-25 18-6 24 7 38 15 44 21 16 51 17 74 3 17-10 28-24 32-41 6-23-2-48-11-63-18-29-49-45-87-45-67 0-121 54-121 120 0 67 54 121 121 121h622c67 0 121-54 121-121 0-66-54-120-121-120-38 0-69 16-87 45z" horiz-adv-x="1000" />
<glyph glyph-name="icon_43" unicode="&#x4d;" d="m626 598c-2 2-3 4-5 6-11 16-27 39-61 39h-144c-33 0-49-22-61-39-1-2-3-4-5-7l-26-41h-42c-34 0-58-21-58-52v-299c0-9 4-16 6-21 1-1 2-2 3-4 2-6 9-10 16-10 2 0 4 0 6 1 9 4 13 14 10 23-2 2-3 5-5 8-1 1-2 3-2 3v299c0 16 18 18 24 18h51c6 0 12 3 15 8l30 47c2 2 4 5 6 7 11 16 17 24 32 24h144c15 0 22-9 33-24 2-2 3-5 4-6l7-10c5-8 16-11 24-6 8 6 10 16 5 24l-7 12z m-91-84c-15 5-31 7-47 7-89 0-161-72-161-161 0-16 2-31 6-46 2-8 9-13 17-13 1 0 3 1 5 1 9 3 14 12 11 22-3 11-5 23-5 36 0 70 57 127 127 127 13 0 25-2 37-6 9-3 19 2 22 12s-3 18-12 21z m-35 336c-257 0-467-209-467-467 0-257 210-466 467-466 257 0 467 209 467 466 0 258-210 467-467 467z m0-899c-108 0-208 40-284 107l86 86c2-2 5-3 8-3h425c35 0 59 34 59 64v299c0 31-24 52-59 52h-20l108 109-24 24-138-138c0 0 0 0 0 0l-470-469c-76 78-123 184-123 301 0 239 194 432 432 432 238 0 432-193 432-432 0-238-194-432-432-432z m-12 247c89 0 162 73 162 162 0 35-12 70-34 98l64 64h55c6 0 24-2 24-18v-299c0-14-12-29-24-29h-401l56 55c28-21 63-33 98-33z m-73 58l176 177c16-21 24-47 24-73 0-70-57-127-127-127-27 0-52 8-73 23z m275 197h35c9 0 17 7 17 17s-8 17-17 17h-35c-9 0-17-8-17-17s8-17 17-17z" horiz-adv-x="1000" />
<glyph glyph-name="icon_44" unicode="&#x4e;" d="m500 522c67 0 121 54 121 121s-54 121-121 121c-31 0-60-12-83-33-3-3-5-8-5-12s2-9 5-13l62-63c6-7 17-7 24 0 7 7 7 18 0 24l-48 50c14 8 29 12 45 12 48 0 86-39 86-86 0-48-38-87-86-87s-86 39-86 87c0 9-8 17-18 17-9 0-17-8-17-17 0-67 54-121 121-121z m465 58c-1 3-30 69-102 136-66 61-183 134-363 134-311 0-463-265-464-268-3-5-3-11-1-16 2-3 153-286 465-286 345 0 464 284 465 287 2 4 2 9 0 13z m-646 200c1 0 1 1 1 1 52 21 112 34 180 34 68 0 126-10 175-27 1-1 1-3 2-4 31-39 48-87 48-138 0-124-101-225-225-225-124 0-225 101-225 225 0 49 16 95 44 134z m181-466c-261 0-402 214-429 259 17 28 81 119 194 182-16-34-24-71-24-109 0-143 116-259 259-259 143 0 259 116 259 259 0 42-10 83-29 120 129-63 187-165 200-193-19-41-137-259-430-259z" horiz-adv-x="1000" />
<glyph glyph-name="icon_45" unicode="&#x4f;" d="m500 314h-35c-9 0-17-7-17-17 0-10 8-17 17-17h35c10 0 17 7 17 17 0 10-7 17-17 17z m-138-17c0 10-8 17-18 17h-69v139h69c10 0 18 7 18 17s-8 17-18 17h-259c-28 0-52-23-52-52v-103c0-29 24-52 52-52h260c9 0 17 7 17 17z m-121 17h-156c-9 0-17 8-17 18v103c0 10 8 18 17 18h156v-139z m224 139h35c10 0 17 7 17 17s-7 17-17 17h-35c-9 0-17-8-17-17s8-17 17-17z m454 250c26 26 39 54 36 81-4 39-37 62-39 63-8 5-19 3-24-5-5-8-3-18 5-24 0 0 21-14 23-37 2-17-7-35-26-54-65-65-28-137 0-166 4-3 8-5 13-5s8 2 12 5c6 7 6 18 0 25-3 2-58 59 0 117z m30-216c-9 0-17-8-17-17v-173c0-10 8-17 17-17 10 0 18 7 18 17v173c0 9-8 17-18 17z m-442-104l247 247c7 7 7 18 0 25s-17 7-24 0l-247-247-247 247c-7 7-18 7-25 0-6-7-6-18 0-25l247-247-247-247c-6-6-6-17 0-24 4-3 8-5 13-5s8 2 12 5l247 247 247-247c3-3 8-5 12-5s9 2 12 5c7 7 7 18 0 24l-247 247z m373 104c-9 0-17-8-17-17v-173c0-10 8-17 17-17s18 7 18 17v173c0 9-8 17-18 17z m-103 0h-156c-9 0-17-8-17-17s7-18 17-18h156c9 0 17-7 17-17v-104c0-9-8-17-17-17h-156c-9 0-17-8-17-17 0-10 7-17 17-17h156c28 0 51 23 51 51v104c0 29-23 52-51 52z" horiz-adv-x="1000" />
<glyph glyph-name="icon_46" unicode="&#x50;" d="m437 746c9 0 17 8 17 18v69c0 9-8 17-17 17s-17-8-17-17v-69c0-10 7-18 17-18z m433-137l-119 95c-18 14-49 25-72 25h-519c-28 0-52-23-52-52v-207c0-29 24-52 52-52h260v-398c0-9 7-17 17-17 51 0 86-29 105-52h-212c11 14 27 30 50 41 8 4 12 14 8 23-4 8-14 12-23 8-56-27-81-80-82-82-3-5-2-12 1-17s9-7 15-7h276c6 0 12 3 15 8 3 5 3 12 0 17-2 4-45 85-136 95v381h225c23 0 54 11 72 25l119 95c11 9 18 22 18 36s-7 26-18 35z m-22-44l-118-95c-12-9-36-17-51-17h-519c-9 0-17 7-17 17v207c0 10 8 18 17 18h519c15 0 39-9 51-18l118-95c3-3 5-6 5-8s-2-6-5-9z" horiz-adv-x="1000" />
<glyph glyph-name="icon_47" unicode="&#x51;" d="m811 366h-276c-10 0-18-8-18-17v-259c0-10 8-18 18-18h276c10 0 17 8 17 18v259c0 9-7 17-17 17z m-17-259h-242v225h242v-225z m-536 17h35c9 0 17 8 17 17 0 10-8 18-17 18h-35c-9 0-17-8-17-18 0-9 8-17 17-17z m709 605c0 67-55 121-121 121h-692c-66 0-121-54-121-121v-155c0-34 14-65 37-87-1-6-2-11-2-17v-467c0-48 39-86 86-86h692c47 0 86 38 86 86v467c0 5 0 10-1 15 0 1-1 1-1 2 23 22 37 53 37 87v155z m-450 86h190v-241c0-48-38-87-86-87h-17c-48 0-87 39-87 87v241z m-224 0h190v-241c0-48-39-87-87-87h-17c-48 0-86 39-86 87v241z m-225-241v155c0 48 39 86 86 86h104v-241c0-48-39-87-86-87h-18c-47 0-86 39-86 87z m328-623h-190v381h190v-381z m502 52c0-29-24-52-52-52h-415v398c0 9-8 17-17 17h-225c-10 0-17-8-17-17v-398h-18c-28 0-51 23-51 52v461c15-7 33-11 51-11h18c44 0 82 23 103 59 22-36 60-59 104-59h17c44 0 83 23 104 59 21-36 60-59 104-59h17c44 0 83 23 104 59 21-36 59-59 103-59h18c18 0 36 4 52 11v-461z m34 571c0-48-39-87-86-87h-18c-47 0-86 39-86 87v241h104c47 0 86-38 86-86v-155z" horiz-adv-x="1000" />
<glyph glyph-name="icon_48" unicode="&#x52;" d="m728 502c-8-4-12-14-7-23 2-5 4-10 4-16 0-19-16-34-35-34s-34 15-34 34c0 6 1 11 3 16 5 8 1 19-7 23-9 4-19 1-24-7-4-10-7-21-7-32 0-38 31-69 69-69s69 31 69 69c0 11-2 22-8 32-4 9-14 12-23 7z m235-532l-62 588c-3 28-28 50-55 50h-139v43c0 112-91 199-207 199-116 0-207-87-207-199v-43h-139c-27 0-52-22-55-50l-62-588c-1-14 3-27 12-38 9-10 22-15 36-15h830c14 0 27 5 36 15 9 10 13 24 12 38z m-636 681c0 92 76 164 173 164 97 0 173-72 173-164v-43h-346v43z m598-695c-2-3-6-5-10-5h-830c-4 0-8 2-10 5-3 2-4 6-4 10l62 589c1 10 11 18 21 18h139v-86c0-9 7-17 17-17s17 8 17 17v87h346v-87c0-9 8-17 17-17s17 8 17 17v87h139c10 0 20-9 21-19l62-588c0-5-1-9-4-11z m-577 546c-9-4-12-14-7-23 2-5 3-10 3-16 0-19-15-34-34-34s-35 15-35 34c0 6 2 11 4 16 4 8 1 19-8 23-8 4-19 1-23-7-5-10-7-21-7-32 0-38 31-69 69-69 38 0 69 31 69 69 0 11-3 22-8 32-4 9-15 12-23 7z" horiz-adv-x="1000" />
<glyph glyph-name="icon_50" unicode="&#x53;" d="m769 739c-49 0-88-39-88-87s39-87 88-87 87 39 87 87-39 87-87 87z m0-140c-29 0-53 24-53 53s24 52 53 52c28 0 52-23 52-52s-24-53-52-53z m168 214c-24 27-60 40-100 36l-259-25c-31-3-70-21-89-40l-428-427c-34-34-37-85-7-115l306-306c13-13 30-20 49-20 23 0 46 9 63 26l427 428c20 20 38 56 41 82l26 269c4 35-7 68-29 92z m-490-846c-10-10-24-16-38-16-7 0-17 1-25 9l-306 307c-15 15-12 45 8 65l69 70 364-363-72-72z m484 757l-26-268c-2-18-16-47-30-61l-332-332-363 364 333 333c14 13 45 27 68 29l260 26c3 0 7 0 10 0 24 0 46-9 61-25 15-17 22-40 19-66z" horiz-adv-x="1000" />
<glyph glyph-name="icon_51" unicode="&#x54;" d="m517 468v278c0 10-7 18-17 18s-17-8-17-18v-278c-34-7-61-34-68-67h-157c-9 0-17-8-17-18s8-17 17-17h157c8-39 43-69 85-69 48 0 86 39 86 86 0 42-29 77-69 85z m-17-136c-29 0-52 23-52 51s23 52 52 52c29 0 52-23 52-52s-23-51-52-51z m0 518c-257 0-467-209-467-467s210-466 467-466 467 209 467 466-210 467-467 467z m0-899c-238 0-432 194-432 432 0 239 194 432 432 432 238 0 432-193 432-432 0-238-194-432-432-432z" horiz-adv-x="1000" />
<glyph glyph-name="icon_52" unicode="&#x55;" d="m431 262h138c10 0 17 8 17 18v138c0 10-7 17-17 17-9 0-17-7-17-17v-121h-121c-10 0-17-8-17-17s7-18 17-18z m0-224h138c10 0 17 7 17 17v138c0 10-7 18-17 18-9 0-17-8-17-18v-121h-121c-10 0-17-7-17-17 0-10 7-17 17-17z m242 224h138c10 0 17 8 17 18v138c0 10-7 17-17 17-9 0-17-7-17-17v-121h-121c-10 0-17-8-17-17s7-18 17-18z m0-224h138c10 0 17 7 17 17v138c0 10-7 18-17 18-9 0-17-8-17-18v-121h-121c-10 0-17-7-17-17 0-10 7-17 17-17z m-484 224h138c10 0 18 8 18 18v138c0 10-8 17-18 17-9 0-17-7-17-17v-121h-121c-10 0-17-8-17-17s7-18 17-18z m691 502h-121v34c0 29-23 52-52 52h-17c-28 0-52-23-52-52v-34h-276v34c0 29-23 52-52 52h-17c-29 0-52-23-52-52v-34h-121c-48 0-87-39-87-87v-674c0-48 39-86 87-86h760c48 0 87 38 87 86v674c0 48-39 87-87 87z m52-761c0-29-23-52-52-52h-760c-29 0-52 23-52 52v501h864v-501z m0 536h-864v138c0 29 23 52 52 52h121v-34c0-29 23-52 52-52h52c9 0 17 7 17 17s-8 17-17 17h-52c-10 0-18 8-18 18v103c0 10 8 17 18 17h17c9 0 17-7 17-17v-34c-9 0-17-8-17-18s8-17 17-17h311v-35c0-28 24-51 52-51h52c10 0 17 7 17 17s-7 17-17 17h-52c-9 0-17 8-17 18v103c0 10 8 17 17 17h18c9 0 17-7 17-17v-34c-10 0-17-8-17-18s7-17 17-17h155c29 0 52-23 52-52v-138z m-743-501h138c10 0 18 7 18 17v138c0 10-8 18-18 18-9 0-17-8-17-18v-121h-121c-10 0-17-7-17-17 0-10 7-17 17-17z" horiz-adv-x="1000" />
<glyph glyph-name="icon_53" unicode="&#x56;" d="m500 781c-219 0-397-178-397-398s178-397 397-397c219 0 398 178 398 397s-179 398-398 398z m0-761c-200 0-363 163-363 363s163 363 363 363c200 0 363-162 363-363s-163-363-363-363z m-9 467c43 0 78 35 78 78s-35 78-78 78-77-35-77-78 35-78 77-78z m0 121c24 0 44-19 44-43 0-24-20-43-44-43s-43 19-43 43c0 24 20 43 43 43z m9 242c-257 0-467-209-467-467s210-466 467-466 467 209 467 466-210 467-467 467z m0-899c-238 0-432 194-432 432 0 239 194 432 432 432 238 0 432-193 432-432 0-238-194-432-432-432z m69 298v204h-190v-35c34 0 48-29 52-38v-133c-5-5-23-14-40-20l-12-4v-64h242v63l-11 4c-17 8-35 18-41 23z m17-56h-172v5c25 10 51 26 51 47v141l0 3c-1 1-5 15-17 29h87v-173c0-6 0-22 51-46v-6z" horiz-adv-x="1000" />
<glyph glyph-name="icon_55" unicode="&#x57;" d="m779 357c-8 0-15 5-17 12-42 135-147 239-282 280-9 3-14 13-11 22 2 9 12 15 21 12 146-45 260-158 305-304 3-9-2-18-11-21-2-1-4-1-5-1z m135-7c-8 0-15 6-17 14-37 204-191 367-393 414-9 3-15 12-13 21 2 10 12 16 21 13 215-51 380-224 420-442 1-9-5-18-15-20-1 0-2 0-3 0z m52-262c-2 17-13 32-33 45l-206 141c-11 8-23 11-36 11-20 0-38-9-50-25l-53-75c-4-6-5-14-6-20-20-4-79-2-177 96-94 93-138 163-132 205 1 1 1 2 2 2 5 2 10 3 13 6l74 56c26 20 32 59 12 86l-148 202c-28 38-62 42-98 12-22-20-60-67-75-95-9-15-13-31-11-46-6-23-17-90 2-183 27-126 100-247 217-360 195-189 366-217 450-217 50 0 85 9 101 16 15-1 30 4 44 12 28 17 73 56 92 79 15 18 21 35 18 52z m-45-30c-16-20-59-57-83-71-9-6-19-8-27-7-4 0-7 0-10-2-8-4-39-14-90-14-79 0-240 27-426 207-266 257-215 487-209 512 1 2 1 5 1 7-2 9 0 18 6 28 14 25 49 68 68 85 9 8 17 12 23 12 3 0 11 0 24-18l147-201c9-12 7-30-4-38l-73-56c0 0-1 0-1 0-19 15-46 37-54 50-5 8-16 10-24 5-8-5-10-16-5-24 11-18 39-41 56-54-14-57 30-132 141-243 88-88 153-107 191-107 17 0 30 4 36 7 4 3 8 8 8 13 1 2 1 6 1 9 0 2 0 6 0 8l53 74c7 11 25 14 37 6l206-141c12-8 18-15 19-22 1-6-3-15-11-25z" horiz-adv-x="1000" />
<glyph glyph-name="icon_54" unicode="&#x58;" d="m500 850c-255 0-465-174-467-389-1-133 50-228 166-309 2-2 3-3 4-5 4-49-26-104-90-165l-4-4c-5-5-7-13-4-19 3-6 9-10 16-10 1 0 1-1 1-1 133 11 268 108 292 126l11 1c15-2 59-6 75-6h0c257 0 467 176 467 391 0 214-210 390-467 390z m-1-744c-15 0-63 4-71 5-2 0-4 0-6 0l-17-3c-3 0-6-1-8-3-1-1-111-86-227-114 50 58 73 113 67 164 0 1 0 3-1 4 0 2-2 8-14 19-1 0-2 1-2 1-108 75-153 160-152 282 2 195 196 355 432 355 238 0 432-160 432-355 0-196-194-355-433-355z" horiz-adv-x="1000" />
<glyph glyph-name="icon_56" unicode="&#x59;" d="m905 39c-11 38-72 69-132 99-15 8-30 16-43 23-9 5-19 2-24-6-5-9-2-19 7-24 13-7 29-15 45-23 45-24 107-55 114-79 15-48 16-55 16-68 0-5-1-7-2-8-3-3-20-3-31-2-5 0-10 0-16 0h-691c-5 0-9 0-13 0-13 0-30-1-34 4-1 1-2 3-2 6 1 7 6 29 16 69 8 30 85 74 228 130 4 1 35 12 52 35 6 7 4 18-3 24-8 6-19 4-24-3-10-13-29-21-37-24-115-45-235-98-249-153-12-48-17-72-17-73-1-1-1-2-1-3 0-14 4-25 12-33 15-14 37-13 54-13h744c17 0 26 1 36 11 8 8 12 19 12 33 0 18-1 28-17 78z m-671 293h35c10 0 18 3 24 9 10 10 10 25 10 40v1c3-1 6-3 9-4 9-23 20-40 31-58 3-5 6-10 10-15 13-22 27-37 41-48 2-1 47-38 99-38 2-1 5-1 9-1 17 0 52 5 94 40 14 11 26 25 39 46 3 6 6 11 10 16 11 17 22 35 31 58 3 1 5 3 7 4v-1c0-15 0-30 11-40 2-2 4-4 7-5-2-41-12-120-50-133-8 5-18 9-29 9-4 0-8-1-12-2l-84-20c-28-6-45-34-39-62 6-23 27-40 51-40 4 0 8 1 12 2l84 20c28 6 45 34 38 62 0 1 0 1 0 2 53 27 62 118 63 158h18c23 0 57 16 69 42 23 50 23 107 0 157-10 20-32 34-52 40-4 154-126 279-277 279-150 0-273-125-276-279-20-5-43-20-53-40-22-50-22-107 1-157 12-26 45-42 69-42z m392-189l-84-20c-9-2-19 4-21 13-2 9 3 19 13 21l84 20c1 0 2 0 4 0 8 0 15-5 17-13 2-9-4-19-13-21z m57 283c-5-1-11-4-14-9-2-5-7-7-8-8-7 0-12-5-14-11-9-24-20-41-31-59-4-5-7-11-11-17-10-17-20-29-30-37-45-37-77-32-78-32-1 0-2 0-3 0-40 0-77 31-79 32-12 8-22 20-33 38-3 6-7 11-10 16-12 19-22 35-31 59-2 7-9 11-16 12-1 0-6 3-8 7-3 5-8 8-14 9v61c0 0 0 0 0 0 10 0 17 5 17 15 0 0 1 53 25 108 30 71 81 106 152 106 172 0 173-202 173-211 0-9 13-17 13-17v-62z m108 91c18-41 18-88 0-128-6-12-26-23-38-23l-35 0c0 4 0 10 0 15v143c0 5 0 11 1 15h34c12 0 32-11 38-22z m-298 298c131 0 237-107 242-241h-17c-8 0-15-3-20-6-14 73-59 184-199 184-140 0-188-116-205-189 0 0-1 1-1 1-6 6-14 10-24 10h-17c4 134 111 241 241 241z m-297-299c6 12 26 23 38 23l34 0c1-4 1-10 1-15v-143c0-5 0-11-1-15h-34c-12 0-32 11-38 22-19 41-19 88 0 128z" horiz-adv-x="1000" />
<glyph glyph-name="icon_58" unicode="&#x5a;" d="m120 542c0-1 0-2 0-3v-156c0-31-12-89-24-152-14-72-28-146-28-193 0-78 41-121 69-121s69 43 69 121c0 54-19 158-35 242-8 47-17 92-17 103v156c0 1 0 2 0 3-6-2-12-3-17-3s-10 1-17 3z m52-504c0-60-28-86-35-87-7 1-34 27-34 87 0 44 14 116 27 187 3 14 6 29 9 43 14-78 33-180 33-230z m480 434c-7 6-18 5-24-2-7-7-6-18 2-24 38-33 60-81 60-132 0-95-77-173-173-173-46 0-89 18-122 51-7 7-18 7-24 0s-7-18 0-24c39-40 91-61 146-61 115 0 208 93 208 207 0 61-27 118-73 158z m308 374c-4 3-9 5-14 4-5-1-118-28-118-311 0-124 27-189 44-218-8-4-14-9-18-15-9-11-9-22-8-28v-102c0-36-5-67-10-96-4-27-8-52-8-77 0-64 45-86 87-86 41 0 52 45 52 69v847c0 5-3 10-7 13z m-28-860c0-1-1-35-17-35-24 0-52 9-52 52 0 23 4 46 8 71 4 30 9 64 9 102v104c0 2 1 0 0 3 0 0 0 1 2 3 2 3 13 11 50 11v-311z m0 346c-9 0-17-1-25-2-11 15-44 74-44 209 0 173 43 239 69 263v-470z m-415 276c-162 0-293-132-293-294 0-162 131-294 293-294 162 0 294 132 294 294 0 162-132 294-294 294z m0-553c-143 0-259 116-259 259 0 143 116 259 259 259 143 0 260-116 260-259 0-143-117-259-260-259z m0 432c10 0 18 8 18 17s-8 18-18 18c-114 0-207-93-207-208 0-9 8-17 17-17 10 0 18 8 18 17-1 96 77 173 172 173z m-317 73c23 11 41 40 41 65v173c0 10-8 17-18 17-9 0-17-7-17-17v-173c0-12-10-29-21-34l-7-4c-8-4-16-7-24-9v220c0 10-7 17-17 17-9 0-17-7-17-17v-220c-7 2-16 5-23 9l-8 4c-11 5-21 22-21 34v173c0 10-8 17-17 17-10 0-18-7-18-17v-173c0-25 18-54 41-65l7-4c12-6 27-11 39-14 1 2 1 4 2 6 3-5 9-9 15-9 6 0 12 4 15 9 1-2 1-4 2-6 13 3 27 8 39 14l7 4z" horiz-adv-x="1000" />
<glyph glyph-name="icon_59" unicode="&#x5b;" d="m334 629c3-3 7-5 12-5 4 0 9 2 12 5 7 7 7 18 0 25 0 0-10 11-15 26-7 19-2 37 15 54 21 20 30 42 28 63-3 31-28 48-30 50-8 5-19 3-24-5-6-7-4-18 4-24 0 0 14-10 16-24 1-11-6-23-18-36-51-51-23-106 0-129z m411-682h-677c-9 0-17-7-17-17s8-17 17-17h677c10 0 18 7 18 17s-8 17-18 17z m-297 712c5-17 16-28 17-30 4-3 8-5 12-5 5 0 9 2 13 5 6 7 7 18 0 25-6 6-22 26 0 47 15 16 22 32 21 48-3 24-22 37-24 38-8 6-19 4-24-4-5-8-3-19 5-24 0 0 7-6 8-13 1-7-5-15-11-20-19-20-25-43-17-67z m-206-521h399c10 0 17 8 17 18s-7 17-17 17h-399c-10 0-18-8-18-17s8-18 18-18z m699 321c-47 56-144 46-161 44v69c0 10-8 18-18 18h-711c-10 0-18-8-18-18v-121c0-202 0-303 40-342 33-33 30-91 30-91 0-5 1-10 5-13 3-4 7-6 12-6h573c5 0 9 2 13 6s5 8 4 13c0 0-3 58 30 91 8 7 14 17 19 29 6-2 18-5 33-5 12 0 26 2 41 8 50 20 90 76 120 165 22 67 18 118-12 153z m-196-8c0-180 0-288-30-318-30-30-37-74-39-99h-539c-1 25-9 69-39 99-30 30-30 138-30 318v104h677v-104z m175-134c-33-98-72-132-99-144-29-12-50-2-51-2 0 1-1 1-2 1 12 57 12 146 12 279v18c1 0 2-1 2-1 26 4 101 6 133-32 21-25 23-65 5-119z" horiz-adv-x="1000" />
<glyph glyph-name="icon_60" unicode="&#x5c;" d="m824 797l-138 52c-9 3-18-1-22-8l-69-139c-4-8-1-19 8-23 2-1 5-2 8-2 6 0 12 4 15 10l62 124 124-46c9-4 19 1 22 10s-1 19-10 22z m-628-172c0 77 62 139 138 139 43 0 84-20 110-55 6-7 17-9 24-3 8 6 9 17 3 24-33 43-83 68-137 68-95 0-173-77-173-173 0-53 24-103 67-136 3-2 7-3 10-3 5 0 10 2 14 6 6 8 4 19-3 24-34 27-53 67-53 109z m449-120c-6 73 16 131 16 131 2 5 2 11-2 16-3 5-8 8-14 8l-335 0h0c-5 0-11-3-14-8s-4-10-2-16c1 0 22-57 16-130-1-16-7-26-16-41-15-24-34-55-38-120-3-40 12-78 41-110 42-44 107-70 158-75v-140c0-9 8-17 17-17 52 0 86-29 105-52h-211c10 14 27 30 49 41 9 4 13 14 9 23-4 8-15 12-23 8-57-27-82-80-83-82-2-5-2-12 1-16 4-5 9-8 15-8h277c6 0 11 3 14 8 3 5 4 12 1 17-2 4-46 85-136 95v122c52 3 124 29 168 76 30 32 44 70 41 110-4 65-22 95-37 120-9 14-16 25-17 40z m-322-58c10 16 20 32 22 56 4 52-4 97-11 122l288 0c-7-26-16-70-11-123 1-24 11-39 21-56 8-12 16-26 23-45h-354c6 19 14 33 22 46z m340-81c1-7 1-15 2-23 2-31-9-60-32-84-42-45-115-66-153-66h-5c-38 0-110 21-153 66-23 24-33 53-32 84 1 8 2 16 3 23h369c0 0 1 0 1 0z" horiz-adv-x="1000" />
<glyph glyph-name="icon_61" unicode="&#x5d;" d="m790 399c-7 10-7 28 0 38l100 150c8 13 10 27 4 38-6 11-19 18-34 18h-259v103c0 29-24 52-52 52h-415v35c0 9-8 17-17 17s-18-8-18-17v-899c0-10 8-17 18-17s17 7 17 17v380h346c9 0 17 8 17 18 0 9-8 17-17 17h-346v415h415c9 0 17-8 17-18v-397c0-14-10-34-21-42l-83-62c-18-14-17-27-15-34 2-7 9-18 33-18h380c15 0 28 7 34 18 6 11 4 25-4 38l-100 150z m70-171h-363l69 52c20 14 35 44 35 69v259h259c1 0 1 0 2 0 0-1-1-1-1-2l-100-150c-15-21-15-55 0-76l100-150c0-1 1-2 1-2-1 0-1 0-2 0z" horiz-adv-x="1000" />
<glyph glyph-name="icon_62" unicode="&#x5e;" d="m460 20h69c10 0 17 8 17 18 0 9-7 17-17 17h-69c-10 0-17-8-17-17 0-10 7-18 17-18z m259 830h-449c-48 0-87-39-87-86v-761c0-48 39-86 87-86h449c48 0 87 38 87 86v761c0 47-39 86-87 86z m52-847c0-29-23-52-52-52h-449c-29 0-52 23-52 52v121h553v-121z m0 156h-553v535h553v-535z m0 570h-553v35c0 28 23 51 52 51h449c29 0 52-23 52-51v-35z" horiz-adv-x="1000" />
<glyph glyph-name="icon_63" unicode="&#x5f;" d="m867 395l-352 217c-7 4-14 4-20-1-6-4-8-11-6-18l115-398c2-7 8-11 15-12 0 0 1 0 1 0 7 0 13 4 16 9l69 142 4 1v-176h-554v535h554v-155c0-10 7-17 17-17s17 7 17 17v225c0 47-39 86-86 86h-450c-47 0-86-39-86-86v-761c0-48 39-86 86-86h450c47 0 86 38 86 86v338l118 22c7 2 12 7 13 14 2 7-1 14-7 18z m-712 369c0 28 24 51 52 51h450c28 0 52-23 52-51v-35h-554v35z m554-761c0-29-24-52-52-52h-450c-28 0-52 23-52 52v121h554v-121z m-18 363c-6-1-10-4-13-9l-54-109-90 311 276-170-119-23z m-294-346h70c9 0 17 8 17 18 0 9-8 17-17 17h-70c-9 0-17-8-17-17 0-10 8-18 17-18z" horiz-adv-x="1000" />
<glyph glyph-name="icon_64" unicode="&#x60;" d="m959 526l-448 321c-7 4-15 4-22 0l-448-321c-8-6-10-18-4-26 6-9 18-11 26-5l83 60v-378c0-11 8-19 18-19h239c10 0 19 8 19 19v253h157v-253c0-11 8-19 18-19h239c10 0 18 8 18 19v378l83-60c4-2 7-3 11-3 6 0 12 3 15 8 6 8 4 20-4 26z m-142 38v-369h-201v254c0 10-9 19-19 19h-194c-10 0-19-9-19-19v-254h-201v369c0 5-2 10-6 13l323 231 323-231c-4-3-6-8-6-13z" horiz-adv-x="1000" />
<glyph glyph-name="icon_65" unicode="&#x61;" d="m553-83h-106c-28 0-50 22-50 49v69c0 8-7 17-14 19l-32 13c-10 5-19 2-24-3l-49-48c-19-19-51-19-70 0l-76 75c-9 9-14 22-14 35 0 14 5 26 14 36l49 48c5 5 7 17 4 23l-14 33c-2 8-12 14-19 14h-69c-27 0-50 23-50 50v107c0 27 23 50 50 50h69c7 0 17 6 19 13l13 32c4 8 2 19-3 24l-49 49c-9 10-14 22-14 35s5 26 14 36l76 75c18 19 52 19 70 0l49-49c5-4 17-6 23-3l32 13c8 3 15 12 15 19v69c0 28 22 50 50 50h106c28 0 50-22 50-50v-69c0-7 7-16 14-18l32-14c10-5 19-1 24 3l49 49c19 19 52 19 70 0l76-75c9-10 14-22 14-36s-5-25-14-35l-49-49c-5-5-7-16-4-22l14-33c3-8 12-15 19-15h69c27 0 50-22 50-49v-107c0-27-23-50-50-50h-69c-7 0-16-6-19-13l-13-33c-4-7-2-19 3-24l49-49c9-9 14-21 14-35 0-13-5-26-14-35l-76-75c-18-19-51-19-70 0l-49 48c-5 5-16 7-22 4l-33-13c-8-3-15-12-15-20v-69c0-27-22-49-50-49l0 0z m-211 194c9 0 18-2 26-6l30-12c22-7 40-32 40-58v-69c0-4 4-8 9-8h106c5 0 9 4 9 8v69c0 26 18 50 41 58l30 13c18 9 52 5 69-12l49-49c4-4 8-4 12 0l75 75c2 3 3 5 3 6s-1 4-3 6l-48 49c-18 18-23 48-12 70l12 30c8 23 33 41 58 41h69c4 0 8 4 8 8v107c0 4-4 8-8 8h-69c-25 0-50 18-58 42l-12 30c-11 21-6 51 12 69l48 49c2 2 3 4 3 5s-1 4-3 6l-75 76c-4 4-8 4-12 0l-49-49c-17-17-48-22-70-11l-30 12c-22 7-40 32-40 57v69c0 5-4 9-9 9h-106c-5 0-9-4-9-9v-69c0-25-18-50-41-58l-30-12c-18-9-52-5-69 12l-49 49c-4 4-8 4-12 0l-75-76c-2-2-3-4-3-6s1-3 3-5l48-49c18-18 23-48 12-71l-12-30c-8-22-33-40-58-40h-69c-4 0-8-4-8-8v-107c0-4 4-8 8-8h69c25 0 50-18 58-42l13-30c10-21 5-51-12-69l-49-49c-2-2-3-4-3-6s1-3 3-5l75-76c4-4 8-4 12 0l49 49c10 11 27 17 44 17l0 0z m158 111c-89 0-161 72-161 161s72 162 161 162c89 0 161-73 161-162s-72-161-161-161l0 0z m0 281c-66 0-120-54-120-120 0-66 54-119 120-119 66 0 120 53 120 119 0 66-54 120-120 120l0 0z" horiz-adv-x="1000" />
<glyph glyph-name="icon_66" unicode="&#x62;" d="m960-63l-230 230c70 72 112 170 112 279 0 223-181 404-404 404-223 0-405-182-405-405 0-223 182-404 405-404 99 0 191 36 261 96l231-231c4-4 10-6 15-6s11 2 15 6c9 9 9 22 0 31z m-522 147c-200 0-362 162-362 361 0 200 162 362 362 362 199 0 362-162 362-361 0-200-163-362-362-362z m-282 362h42c0 132 108 239 240 239v43c-156 0-282-127-282-282z" horiz-adv-x="1000" />
<glyph glyph-name="icon_67" unicode="&#x63;" d="m918 740h-265c-24 65-86 110-157 110-71 0-133-45-157-110h-264c-12 0-21-9-21-20s9-20 21-20h56c-7-4-12-11-11-19l42-705c2-33 29-59 60-59h548c32 0 58 26 61 59l42 705c0 8-4 15-11 19h56c11 0 20 9 20 20s-9 20-20 20z m-422 69c48 0 91-27 113-69h-226c22 42 65 69 113 69z m336-126l-42-704c-1-12-10-22-20-22h-548c-10 0-19 10-20 22l-42 704c0 8-5 14-11 17h695c-7-3-11-9-12-17z m-510-598l-27 484c-1 11 8 21 19 22 11 0 21-8 21-20l27-484c1-11-8-20-19-21 0 0-1 0-1 0-11 0-20 8-20 19z m308 2l27 484c1 12 10 20 21 20 12-1 20-11 19-22l-27-484c0-11-9-19-20-19 0 0-1 0-1 0-11 1-20 10-19 21z m-154-1v484c0 12 9 21 20 21s20-9 20-21v-484c0-11-9-20-20-20s-20 9-20 20z" horiz-adv-x="1000" />
<glyph glyph-name="icon_68" unicode="&#x64;" d="m205 288l-10-180c0-6 2-11 6-15 4-4 9-6 14-6 1 0 1 0 1 0l180 10c5 0 10 3 13 6l536 536c4 4 6 9 6 15 0 5-2 10-6 14l-169 169c-4 4-9 6-14 6-6 0-11-2-15-6l-536-536c-3-3-5-8-6-13z m557 506l140-140-58-58-140 140 58 58z m-516-516l429 429 140-140-429-429-63-4c-1 22-9 43-24 58-15 15-35 23-57 24l4 62z m-6-104c12 0 22-4 30-11 8-8 12-20 12-32l-45-2 3 45z m706 227c-11 0-20-10-20-21v-422h-852v851h423c11 0 20 9 20 21s-9 20-20 20h-443c-11 0-21-9-21-20v-893c0-11 10-20 21-20h892c12 0 21 9 21 20v443c0 11-9 21-21 21z" horiz-adv-x="1000" />
<glyph glyph-name="icon_69" unicode="&#x65;" d="m922 411c-9 8-23 8-31 0l-382-382c-92-92-240-92-332 0-91 91-91 240 0 332l216 216c2 1 3 3 4 5 2 1 4 2 5 4l175 175c61 61 160 61 221 0 30-30 46-69 46-111 0-42-16-81-46-111l-175-174-204-205c-33-32-89-32-121 0-34 33-34 87 0 121l292 292c8 8 8 22 0 31-9 8-23 8-31 0l-292-292c-50-51-50-133 0-183 24-24 57-38 91-38h0c35 0 67 14 91 38l220 220 160 160c38 37 59 88 59 141s-21 104-59 142c-78 78-205 78-283 0l-175-175c-1-2-2-4-3-6-2-1-4-2-6-3l-216-216c-108-109-108-285 0-394 54-54 126-81 197-81 71 0 142 27 197 81l382 382c8 8 8 22 0 31z" horiz-adv-x="1000" />
<glyph glyph-name="icon_70" unicode="&#x66;" d="m502 439c-100 0-181 92-181 205 0 114 81 206 181 206s181-92 181-206c0-113-81-205-181-205l0 0z m0 369c-77 0-139-73-139-164 0-90 62-163 139-163 77 0 139 73 139 163 0 91-62 164-139 164l0 0z m305-891h-617c-11 0-20 8-21 19l-13 199c-5 65 46 140 110 163 150 54 315 54 465 1 71-27 114-106 110-164l-13-199c-1-11-10-19-21-19l0 0z m-597 42h577l12 179c3 42-32 102-83 121-139 50-295 50-436 0-50-19-85-79-82-121l12-179 0 0z" horiz-adv-x="1000" />
<glyph glyph-name="icon_71" unicode="&#x67;" d="m860 469h-85v101c0 155-125 280-279 280-154 0-280-125-280-280v-101h-84c-34 0-61-27-61-60v-432c0-33 27-60 61-60h728c33 0 60 27 60 60v432c0 33-27 60-60 60z m-604 101c0 132 108 240 240 240 132 0 239-108 239-240v-101h-479v101z m624-593c0-11-9-20-20-20h-728c-11 0-20 9-20 20v432c0 11 9 20 20 20h728c11 0 20-9 20-20v-432z m-384 374c-58 0-105-47-105-104 0-34 17-65 44-85v-104h121v104c28 20 44 51 44 85 0 57-47 104-104 104z m30-160l-10-6v-86h-41v86l-10 6c-21 11-33 33-33 56 0 35 28 64 64 64 35 0 64-29 64-64 0-23-13-45-34-56z" horiz-adv-x="1000" />
<glyph glyph-name="icon_72" unicode="&#x68;" d="m520 252c-12-1-20-11-19-22 4-47-12-92-45-125l-101-101c-62-62-162-62-223 0l-12 11c-29 30-46 70-46 112 0 42 17 81 46 111l102 102c33 32 78 49 125 45 11-1 21 7 22 18 1 11-8 21-19 22-58 5-116-15-157-57l-101-101c-38-37-59-87-59-140s21-103 59-141l11-11c39-39 90-58 140-58 51 0 102 19 141 58l101 101c41 42 62 99 57 158-1 11-11 19-22 18z m-218-67c4-4 9-6 14-6 5 0 11 2 15 6l356 356c8 8 8 21 0 29-8 8-21 8-29 0l-356-356c-8-8-8-21 0-29z m607 596l-12 11c-77 77-203 77-280 0l-102-101c-41-42-62-99-57-158 1-11 12-19 23-18 11 1 19 11 18 22-4 47 12 92 45 125l101 101c62 62 162 62 223 0l12-11c61-62 61-162 0-223l-102-102c-32-32-78-49-124-45-11 2-21-7-22-18-1-11 7-21 18-22 6-1 12-1 18-1 52 0 102 20 139 57l102 102c77 77 77 203 0 281z" horiz-adv-x="1000" />
<glyph glyph-name="icon_73" unicode="&#x69;" d="m814 585c-26 150-156 265-314 265s-288-115-314-265c-85-4-153-70-153-150 0-83 73-151 162-151 1 0 2 0 3 1 1-1 2-1 4-1 11 0 20 9 20 20v227c0 153 125 278 278 278 153 0 278-125 278-278v-227c0-2 1-4 1-6 0-2-1-4-1-7 0-3 0-87-112-102-8 26-33 46-63 46-36 0-65-29-65-66s29-65 65-65c29 0 53 18 62 43 133 15 151 112 154 138 82 7 148 71 148 150 0 80-68 146-153 150z m-633-54v-205c-60 7-106 53-106 109 0 56 47 102 107 108-1-4-1-8-1-12z m422-386c-13 0-24 11-24 24 0 14 11 25 24 25s25-11 25-25c0-13-11-24-25-24z m216 181v205c0 4 0 8 0 12 60-6 107-52 107-108 0-56-47-102-107-109z" horiz-adv-x="1000" />
<glyph glyph-name="icon_74" unicode="&#x6a;" d="m516 18c-5 6-12 10-19 13-7 4-15 5-23 5-9 0-17-1-24-5-7-3-13-7-19-13-5-5-9-11-12-19-3-7-5-15-5-23 0-17 6-31 17-42s26-17 43-17c8 0 16 1 23 4 7 3 14 7 19 13 5 5 10 11 13 18s5 15 5 24c0 8-2 16-5 23-3 8-8 14-13 19z m183 718c-12 24-28 45-48 62-20 17-44 29-70 39-27 9-55 13-85 13-24 0-47-2-67-7-21-5-40-12-58-20-17-9-33-18-48-29-14-11-27-22-39-34l16-25c3-6 8-8 14-8 3 0 9 4 17 11 8 8 19 16 34 25 14 10 31 18 52 25 21 8 46 12 74 12 22 0 43-4 63-10 21-7 38-17 54-29s28-29 37-47c9-18 13-39 13-62 0-29-5-54-15-75-11-21-23-40-39-56-15-16-31-30-49-43-18-13-35-26-50-38-15-13-28-26-38-39-11-14-16-29-16-47v-3l3-110h42l8 105c1 15 7 28 18 41 11 12 24 23 40 35 15 12 32 25 50 38 19 14 35 30 51 48 15 17 28 38 38 62 10 24 15 52 15 84 0 31-6 58-17 82z" horiz-adv-x="1000" />
<glyph glyph-name="icon_75" unicode="&#x6b;" d="m470 368c1-18 2-37 3-57 2-20 3-42 4-67h43c1 25 2 47 4 67 1 20 2 39 3 57 0 18 1 36 1 53 1 18 1 36 1 56v373h-61v-373c0-20 0-38 1-56 0-17 1-35 1-53z m82-368c-3 8-8 14-13 20-5 5-12 9-19 13-8 3-16 4-24 4-9 0-16-1-24-4-7-4-13-8-19-13-5-6-9-12-12-20-3-7-5-15-5-23 0-17 6-32 17-43s26-17 43-17c8 0 16 1 24 4 7 3 14 7 19 13 5 5 10 12 13 19 3 7 5 15 5 24 0 8-2 16-5 23z" horiz-adv-x="1000" />
<glyph glyph-name="icon_76" unicode="&#x6c;" d="m332 60c-5 0-11 2-15 7l-278 291c-8 9-7 22 1 30 8 8 22 8 30-1l261-274 599 729c7 9 20 11 29 3 9-7 10-20 3-29l-613-748c-4-5-10-8-16-8 0 0 0 0-1 0l0 0z" horiz-adv-x="1000" />
<glyph glyph-name="icon_79" unicode="&#x6d;" d="m540 383l418 419c11 11 11 29 0 40s-29 11-40 0l-418-418-418 418c-11 11-29 11-40 0s-11-29 0-40l418-419-418-418c-11-11-11-29 0-40 5-5 12-8 20-8s14 3 20 8l418 418 418-418c6-5 13-8 20-8 8 0 15 3 20 8 12 11 12 29 0 40l-418 418z" horiz-adv-x="1000" />
<glyph glyph-name="icon_80" unicode="&#x6e;" d="m951-48l-226 227c68 71 110 167 110 274 0 219-178 397-397 397-219 0-398-178-398-398 0-219 179-397 398-397 98 0 187 36 257 95l227-227c4-4 9-6 14-6s11 2 15 6c8 8 8 21 0 29z m-513 145c-196 0-356 159-356 355 0 196 160 356 356 356 196 0 355-159 355-355 0-197-159-356-355-356z m-278 356h42c0 129 106 235 236 235v42c-153 0-277-124-278-277z" horiz-adv-x="1000" />
<glyph glyph-name="icon_81" unicode="&#x6f;" d="m949-48l-227 227c68 71 111 167 111 273 0 220-179 398-398 398-219 0-397-178-397-398 0-219 178-397 397-397 98 0 188 36 257 95l227-227c4-4 9-6 15-6s10 2 15 6c8 8 8 21 0 29z m-869 500c0 196 159 356 355 356 196 0 356-159 356-355 0-196-160-356-356-356-196 0-355 159-355 355z m520 26h-144v145c0 11-9 21-21 21-11 0-21-10-21-21v-145h-144c-12 0-21-9-21-21s9-21 21-21h144v-144c0-12 10-21 21-21 12 0 21 9 21 21v144h144c12 0 21 10 21 21s-9 21-21 21z" horiz-adv-x="1000" />
<glyph glyph-name="icon_82" unicode="&#x70;" d="m951-48l-226 227c68 71 110 167 110 274 0 219-178 397-397 397-219 0-398-178-398-398 0-219 179-397 398-397 98 0 187 36 257 95l227-227c4-4 9-6 14-6s11 2 15 6c8 8 8 21 0 29z m-513 145c-196 0-356 159-356 355 0 196 160 356 356 356 196 0 355-159 355-355 0-197-159-356-355-356z m165 381h-330c-12 0-21-9-21-21 0-11 9-21 21-21h330c12 0 21 10 21 21 0 12-9 21-21 21z" horiz-adv-x="1000" />
<glyph glyph-name="icon_83" unicode="&#x71;" d="m966 512c-3 8-10 13-19 13h-327l-102 312c-2 8-10 13-18 13-8 0-16-5-18-13l-102-312h-327c-9 0-16-5-19-13s1-17 7-22l266-193-102-311c-2-8 0-17 7-22 7-5 16-5 23 0l265 193 265-193c4-2 8-4 12-4s7 2 11 4c7 5 9 14 7 22l-101 312 265 192c7 5 9 14 7 22z m-306-192c-7-5-10-13-7-21l87-269-229 166c-6 5-15 5-22 0l-229-166 87 269c3 8 0 16-7 21l-228 167h282c9 0 16 5 19 13l87 269 87-269c3-8 10-13 19-13h282l-228-167z" horiz-adv-x="1000" />
<glyph glyph-name="icon_84" unicode="&#x72;" d="m705 726h0c-11 0-20-9-20-20 0-10 9-19 20-19 55 0 98-51 99-116 0-13-2-26-5-38l-3-12c-2-11 4-21 15-23 1-1 3-1 4-1 9 0 17 7 19 16l2 9c5 16 7 32 7 49-1 87-62 155-138 155z m3 124l-5 0c-82-1-157-41-205-107-50 64-124 102-208 102h0c-65 0-128-27-175-75-53-54-83-130-82-209 1-29 5-58 14-84 16-72 110-173 285-310 47-36 119-86 149-107 7-5 12-8 14-9 1-1 2-2 2-2 3-2 7-3 10-3 3 0 7 1 10 3 40 26 95 67 161 122 170 139 263 245 277 316 8 27 12 56 12 86-2 153-118 277-259 277z m209-354c-8-43-61-130-263-295-60-49-109-87-147-112-1 1-2 2-3 3-31 21-102 70-148 106-207 161-262 245-272 289-7 24-11 49-12 75-1 68 25 134 71 180 40 41 92 64 150 64 77 0 148-40 189-108 3-6 9-10 16-10h1c6 0 13 4 16 10 40 70 110 112 188 113l5 0c119 0 218-107 220-239 0-25-3-50-11-76z" horiz-adv-x="1000" />
<glyph glyph-name="icon_85" unicode="&#x73;" d="m173 383c0 11-9 19-19 19l-22 0h-1c-10 0-19-8-19-19 0-10 9-19 19-19l23 0h0c10 0 19 9 19 19z m163-283c-9 5-20 2-26-7l-11-19c-5-10-2-21 7-26 3-2 7-3 10-3 6 0 13 4 16 10l11 19c6 9 2 21-7 26z m-145 127l-20-11c-9-6-12-17-7-26 4-6 10-10 17-10 3 0 6 1 9 3l20 11c9 5 12 16 7 26-5 9-17 12-26 7z m141 485c-5 9-17 12-26 7-9-5-12-17-7-26l12-19c3-6 9-10 16-10 3 0 7 1 10 3 9 5 12 17 6 26l-11 19z m-161-161l20-11c3-2 6-3 9-3 7 0 13 4 17 10 5 9 2 21-7 26l-20 11c-9 5-20 2-26-7-5-9-2-21 7-26z m629-14c3 0 6 1 9 3l20 11c9 5 12 17 7 26-6 9-17 12-26 7l-20-11c-9-5-12-17-7-26 4-6 10-10 17-10z m-300 174c11 0 19 8 19 19v22c0 10-8 19-19 19s-19-9-19-19v-22c0-11 9-19 19-19z m329-495l-20 11c-9 5-20 2-26-7-5-9-2-21 7-26l20-11c3-2 6-3 9-3 7 0 13 4 17 10 5 9 2 20-7 26z m-139-123c-6 9-17 12-26 7-9-5-12-17-7-26l11-19c4-7 10-10 17-10 3 0 6 1 9 3 9 5 12 17 7 26l-11 19z m179 309c0 0 0 0 0 0l-23 0c-10 0-19-8-19-19 0-10 9-19 19-19 0 0 0 0 0 0l23 0c10 0 19 9 19 20 0 10-9 18-19 18z m-369-346c0 0 0 0 0 0-10 0-19-8-19-19l0-22c0-11 8-19 19-19h0c10 0 19 8 19 19l0 22c0 11-8 19-19 19z m0 794c-257 0-467-209-467-467 0-257 210-466 467-466 257 0 467 209 467 466 0 258-210 467-467 467z m0-892c-234 0-425 191-425 425s191 425 425 425c234 0 425-190 425-425s-191-425-425-425z m0 735c-11 0-21-10-21-21v-280l-120-120c-8-8-8-21 0-30 4-4 10-6 15-6s11 2 15 6l121 122c1 0 1 2 2 3 5 3 9 9 9 16v289c0 11-9 21-21 21z m164-26c3-2 6-3 9-3 7 0 13 4 17 10l11 19c5 9 2 21-7 26-9 5-21 2-26-7l-11-19c-6-9-3-21 7-26z" horiz-adv-x="1000" />
<glyph glyph-name="icon_86" unicode="&#x74;" d="m962 798c-1 0-1 1-1 1 0 0 0 0 0 0-1 3-2 5-3 8-1 1-2 3-3 4-1 3-3 5-4 7-1 2-3 3-4 4-2 2-3 4-5 6-1 1-3 2-4 3-4 3-7 6-11 8-2 1-4 3-6 3-2 1-4 2-6 3-3 1-5 2-8 2-2 1-4 1-5 2-5 0-10 1-15 1h-774c-5 0-10-1-14-1-2-1-4-1-6-2-2 0-5-1-8-2-2-1-4-2-6-2-2-1-4-3-6-4-3-2-7-4-10-7-1-1-3-2-5-4-2-2-3-3-5-5-1-2-2-3-4-5-1-2-3-4-4-6-1-2-2-4-3-6-1-2-2-4-3-7 0 0 0 0 0 0 0 0 0-1-1-1-3-9-5-18-5-27v-507c0-10 2-19 5-27 1 0 1-1 1-1 0 0 0-1 0-1 1-2 2-4 3-6 1-2 2-4 3-6 2-2 3-4 4-6 2-2 3-4 4-5 2-2 3-4 5-5 2-2 4-4 6-5 3-3 6-5 9-6 2-2 4-3 7-4 2-1 3-1 5-2 3-1 6-2 8-3 2 0 4-1 6-1 4-1 9-1 14-1h775c4 0 9 0 14 1 1 0 3 1 5 1 3 1 5 2 8 3 2 1 4 1 6 2 2 1 4 2 6 4 3 2 6 4 9 6 2 1 4 3 6 5 2 1 3 3 5 5 1 2 3 3 4 5 1 2 3 4 4 6 1 2 2 3 3 5 1 3 2 5 3 8l0 0c0 0 0 0 1 1 3 8 5 17 5 27v507c0 10-2 19-5 27z m-876-2c3 3 7 5 11 7 0 1 1 1 1 1 5 2 10 3 15 3h774c6 0 11-1 15-3 0 0 1 0 1 0 4-2 8-5 11-8 0 0 0 0 0-1l-414-369-414 369c0 1 0 1 0 1z m-10-508v459l258-230-258-229z m838-49c-3-3-7-6-11-8 0 0-1 0-1-1-4-2-9-3-14-3h-775c-5 0-10 1-15 3 0 1-1 1-1 1-4 2-8 5-11 8 0 0 0 0 0 0l280 250 120-107c4-4 9-6 14-6s10 2 14 6l120 107 280-250c0 0 0 0 0 0z m10 49l-258 229 258 230v-459z" horiz-adv-x="1000" />
<glyph glyph-name="icon_87" unicode="&#x75;" d="m908 850h-507c-32 0-59-26-59-58v-225h-250c-32 0-59-26-59-58v-341c0-33 27-59 59-59h56v-127c0-7 4-14 11-17 3-2 6-2 8-2 5 0 9 1 13 4l179 142h240c32 0 59 26 59 59v210l162-128c4-3 8-4 13-4 2 0 5 0 8 2 7 3 11 10 11 17v127h56c32 0 59 26 59 58v342c0 32-27 58-59 58z m-289-682c0-11-9-20-20-20h-246c-5 0-9-1-12-4l-154-122v107c0 10-9 19-19 19h-76c-11 0-20 9-20 20v341c0 10 9 19 20 19h507c11 0 20-9 20-19v-341z m309 283c0-11-9-20-20-20h-75c-11 0-20-9-20-19v-107l-153 122c-1 0-2 0-2 1v81c0 32-27 58-59 58h-218v225c0 10 9 19 20 19h507c11 0 20-9 20-19v-341z" horiz-adv-x="1000" />
<glyph glyph-name="icon_88" unicode="&#x76;" d="m53 626c-5 0-10 2-14 6-8 7-8 20 0 27 254 255 668 255 922 1 8-8 8-21 0-28s-20-8-28 0c-239 239-627 239-866 0-4-4-9-6-14-6l0 0z m131-131c-5 0-10 2-14 5-7 8-7 20 0 28 88 88 206 137 330 137 0 0 0 0 0 0 125 0 242-49 330-137 7-7 7-20 0-27-8-8-20-8-28 0-81 80-188 125-302 125 0 0 0 0 0 0-114 0-221-45-302-126-4-3-9-5-14-5l0 0z m139-139c-5 0-10 2-14 6-8 8-8 20 0 28 105 105 277 105 382 0 8-8 8-20 0-28s-20-7-27 0c-91 90-237 90-328 0-3-4-8-6-13-6l0 0z m177-104l0 0c14 0 27-5 37-15 10-10 15-23 15-37 0-14-5-27-15-37-10-9-23-15-37-15s-27 6-37 16c-9 9-15 22-15 36 0 14 6 27 15 37 10 10 23 15 37 15m0 39c-23 0-47-9-64-26-36-36-36-94 0-129 17-18 41-27 64-27s47 9 64 27c36 35 36 93 0 129-17 17-41 26-64 26l0 0z" horiz-adv-x="1000" />
<glyph glyph-name="icon_49" unicode="&#x77;" d="m460 245h-173c-9 0-17-8-17-17v-173c0-10 8-17 17-17h173c10 0 17 7 17 17v173c0 9-7 17-17 17z m-17-173h-138v139h138v-139z m259 381h-138c-10 0-17-8-17-18s7-17 17-17h138c10 0 17 8 17 17s-7 18-17 18z m-242 86h-173c-9 0-17-8-17-17v-173c0-10 8-17 17-17h173c10 0 17 7 17 17v173c0 9-7 17-17 17z m-17-173h-138v138h138v-138z m363 363h-138c-1 0-2 0-3 0-6 20-22 35-41 35-5 0-17 9-22 21l-9 22c-10 24-38 43-64 43h-52c-25 0-53-19-63-43l-9-22c-5-12-17-21-23-21-18 0-34-15-40-35h-158c-48 0-87-39-87-86v-640c0-48 39-86 87-86h622c48 0 86 38 86 86v640c0 47-38 86-86 86z m-432-17c0 10 5 17 8 17 22 0 45 19 55 43l9 22c5 11 20 21 31 21h52c12 0 27-10 32-21l9-22c1-3 2-6 4-8h-27c-10 0-18-8-18-18s8-17 18-17h69c1 0 2 0 3 1 2-1 3-1 5-1 3 0 9-7 9-17v-18c0-9-8-17-17-17h-225c-9 0-17 8-17 17v18z m484-709c0-29-24-52-52-52h-622c-29 0-52 23-52 52v640c0 28 23 52 52 52h155c0-29 23-52 52-52h225c28 0 52 23 52 52h138c28 0 52-24 52-52v-640z m-156 156h-138c-10 0-17-8-17-18 0-9 7-17 17-17h138c10 0 17 8 17 17 0 10-7 18-17 18z" horiz-adv-x="1000" />
<glyph glyph-name="icon_89" unicode="&#x78;" d="m807 181c-44 0-83-22-107-55l-388 224c2 11 4 22 4 33 0 12-2 23-4 33l388 225c24-33 63-55 107-55 73 0 133 59 133 132 0 73-60 132-133 132s-132-59-132-132c0-15 3-29 8-42-1 0-1 0-1-1l-386-222c-23 37-64 63-112 63-73 0-132-60-132-133s59-132 132-132c48 0 89 26 112 63l386-223c0 0 1 0 1 0-5-13-8-27-8-42 0-73 60-132 132-132s133 59 133 132-60 132-133 132z m0 630c52 0 93-42 93-93 0-51-41-93-93-93-51 0-93 42-93 93 0 51 42 93 93 93z m-623-521c-51 0-93 42-93 93 0 52 42 93 93 93 51 0 93-41 93-93 0-51-42-93-93-93z m623-334c-51 0-93 42-93 93 0 51 42 93 93 93 52 0 93-42 93-93 0-51-41-93-93-93z" horiz-adv-x="1000" />
<glyph glyph-name="icon_90" unicode="&#x79;" d="m811 181c-63 28-112 44-195 63-3 0-6 1-10 1-1 0-40-1-53-21l-41-64c-4-6-12-7-16-7-9 0-20 4-30 11-34 25-67 54-101 86-32 34-62 68-87 102-9 14-11 27-10 36 1 3 2 7 6 10l64 40c19 12 23 51 20 64-18 68-43 139-63 194-7 19-38 29-59 29-6 0-12-1-17-3-56-21-105-54-148-96-11-11-22-23-33-38l-4-5 0-7c-4-160 68-326 197-455l3-4c126-126 288-198 445-198l18 0 5 4c14 11 27 22 39 34 42 42 74 92 95 147 10 24-5 68-25 77z m-11-62c-20-51-49-96-87-134-9-9-19-18-30-27l-4 0c-146 0-298 69-417 187l-1 1-1 2c-119 119-189 275-187 421 9 11 17 21 26 30 39 38 84 67 137 87 9 0 19-4 24-7 19-53 43-122 60-186 0-5-2-20-3-22l-64-40c-12-8-20-20-23-36-4-21 2-45 17-66 26-36 56-71 90-106 35-35 70-64 106-91 36-25 84-22 102 7l39 62c2 1 12 3 23 4 80-18 128-33 185-59 5-4 10-22 8-27z m-34 536c-6 0-11-2-16-6-4-4-9-10-16-19l-100-134c-3-4-5-7-7-10-2-2-4-5-5-7-2-3-4-6-4-8s-2-5-2-7c0-10 3-17 9-23 6-5 15-8 27-8h95v-35c0-9 2-16 7-21 4-5 10-8 17-8 7 0 13 3 17 8 4 4 6 11 6 21v35h12c10 0 17 2 21 5 5 4 8 9 8 16 0 9-3 15-9 18-6 2-14 4-23 4h-9v146c0 22-9 33-28 33z m-19-179h-81l81 110v-110z m-188 374c-73 0-145-19-208-56-9-6-12-18-6-27 5-10 17-13 26-7 57 33 122 51 188 51 203 0 368-166 368-369 0-64-16-128-48-183-6-10-2-22 7-27 3-2 6-3 10-3 7 0 13 4 17 10 35 62 54 132 54 203 0 225-183 408-408 408z m-20-323c-7-7-16-14-26-22-6-4-16-12-29-24-14-13-29-27-46-45-4-4-7-10-11-17s-5-14-5-19c0-7 3-13 8-18 5-5 13-8 22-8h139c9 0 15 2 19 7 4 4 6 9 6 15 0 7-2 13-8 17-5 4-12 6-22 6h-99c3 5 7 9 10 12 7 9 20 21 39 36 19 16 32 27 40 34 8 8 16 18 24 30 8 13 11 27 11 43 0 10-1 20-5 29-4 9-9 17-16 24-6 7-14 13-23 17-14 6-30 9-49 9-16 0-30-2-42-7-12-5-22-11-30-19-7-7-13-16-17-25-4-10-6-19-6-28 0-7 2-12 6-17 4-4 10-6 16-6 7 0 13 2 16 7 4 4 7 11 10 19 3 9 5 14 7 16 9 14 22 22 39 22 7 0 15-2 21-6s12-8 16-14c4-7 6-14 6-22 0-8-2-15-6-23-3-8-9-15-15-23z" horiz-adv-x="1000" />
<glyph glyph-name="icon_91" unicode="&#x7a;" d="m763-83c-176 0-360 81-502 224-150 150-232 338-227 519l0 7 4 5c12 16 25 30 38 43 48 48 104 85 167 109 5 2 12 3 19 3 22 0 57-11 65-32 22-62 50-142 71-219 4-16-2-59-22-71l-72-46c-5-3-7-9-8-13-2-12 2-28 12-41 28-39 62-78 99-116 37-36 76-69 115-98 19-14 47-16 54-4l46 73c14 22 58 22 58 22 5 0 8 0 12-1 94-21 149-39 221-71 22-10 38-58 27-84-24-63-60-119-108-167-13-13-28-26-43-38l-5-4-21 0 0 0z m-689 735c-1-168 76-342 213-479l3-3c135-135 307-212 473-212l6 0c12 9 24 20 34 30 44 44 77 95 99 153 3 6-3 28-9 33-66 29-119 47-210 67-13 0-26-3-29-6l-44-70c-19-32-73-35-113-7-40 30-80 64-119 102-39 40-74 80-103 121-17 22-24 50-19 73 3 17 12 31 26 40l72 46c2 3 5 20 4 26-20 75-48 154-69 215-2-1-16 5-27 5-3 0-5 0-5 0-57-23-108-56-152-99-11-11-21-23-31-35l0 0z m867-280c-11 0-20 9-20 21 0 229-187 416-417 416-11 0-20 9-20 21 0 11 9 20 20 20 252 0 458-205 458-457 0-12-10-21-21-21l0 0z m-128 0c-12 0-21 9-21 21 0 159-129 288-288 288-11 0-20 9-20 20 0 12 9 21 20 21 182 0 329-148 329-329 0-12-9-21-20-21l0 0z m-135 0c-12 0-21 9-21 21 0 84-69 153-153 153-11 0-20 9-20 20s9 21 20 21c107 0 194-87 194-194 0-12-9-21-20-21l0 0z" horiz-adv-x="1000" />
<glyph glyph-name="icon_92" unicode="&#x7b;" d="m935 217c-73 33-130 52-227 73-3 1-7 1-11 1-13 0-48-4-60-23l-48-75c-7-11-35-10-55 5-40 29-80 63-118 101-38 38-72 78-101 118-10 14-15 30-12 43 1 4 3 9 8 13l74 47c21 13 26 57 22 72-21 79-50 162-73 225-7 21-44 33-66 33-8 0-14-1-20-3-65-25-122-63-171-112-13-13-26-27-39-44l-4-5 0-7c-5-186 79-379 232-532 147-147 335-231 516-231l21 1 5 4c16 12 31 25 44 39 49 49 87 107 111 171 11 27-5 76-28 86z m-11-71c-23-59-57-111-101-156-11-11-23-22-35-32l-6 0c-170 0-348 80-486 218l-3 3c-140 141-220 320-218 492 11 13 21 24 32 35 44 44 97 79 156 102 0 0 1 0 5 0 11 0 25-5 27-6 22-62 51-143 71-220 1-6-2-24-4-27l-74-47c-14-8-23-23-26-40-5-25 2-52 19-76 31-42 66-83 105-123 40-39 82-75 123-105 40-29 96-25 116 7l45 72c3 3 16 6 29 6 93-21 148-39 216-69 5-5 12-27 9-34z" horiz-adv-x="1000" />
<glyph glyph-name="icon_93" unicode="&#x7c;" d="m288 537h422c12 0 22 10 22 22s-10 22-22 22h-422c-12 0-22-10-22-22s10-22 22-22z m0 105h254c12 0 22 10 22 22 0 12-10 22-22 22h-254c-12 0-22-10-22-22 0-12 10-22 22-22z m0-209h422c12 0 22 9 22 21s-10 22-22 22h-422c-12 0-22-10-22-22s10-21 22-21z m561 417h-708c-12 0-21-10-21-22v-890c0-12 9-21 21-21h448c3 0 6 0 9 1s5 3 7 5l260 260c2 2 3 5 4 7 2 3 2 6 2 9v629c0 12-10 22-22 22z m-238-859v186h186l-186-186z m217 229h-239c-12 0-21-9-21-21v-239h-405v847h665v-587z m-540 108h177c12 0 21 10 21 22s-9 21-21 21h-177c-12 0-22-9-22-21s10-22 22-22z" horiz-adv-x="1000" />
<glyph glyph-name="icon_94" unicode="&#x7d;" d="m947 810c-11 0-20-9-20-20v-784h-415c6 3 10 10 10 17 0 1 0 2 0 2 1 28 23 50 51 50h265c11 0 20 9 20 20v734c0 0 0 0 0 0 0 1 0 1 0 1 0 11-9 20-20 20h-265c-29 0-54-14-71-35-17 21-42 35-71 35h-265c-4 0-7-1-9-2-9-3-15-10-15-19v-734c0-11 9-20 20-20 1 0 1 0 2 1 0-1 1-1 2-1h265c27 0 50-22 51-50 0 0 0-1 0-2 0-7 4-14 10-17h-419v784c0 11-9 20-20 20-11 0-20-9-20-20v-795c0-16 14-29 30-29h874c17 0 30 13 30 29v795c0 11-9 20-20 20z m-425-54c0 1 0 1 0 2 0 1 0 2 0 2 1 28 23 50 51 50h245v-695h-245c-19 0-37-6-51-16v657z m-40-657c-15 10-32 16-51 16h-249v695h249c27 0 49-22 51-49v-662z" horiz-adv-x="1000" />
<glyph glyph-name="icon_95" unicode="&#x7e;" d="m324 416c51 0 92 46 92 102 0 57-41 103-92 103-51 0-92-46-92-103 0-56 41-102 92-102z m0 162c27 0 49-27 49-60 0-32-22-59-49-59-27 0-49 27-49 59 0 33 22 60 49 60z m621 216h-200c-8 32-38 56-73 56h-325c-35 0-64-24-73-56h-219c-12 0-22-10-22-22v-708c0-12 10-21 22-21h890c12 0 22 9 22 21v708c0 12-10 22-22 22z m-598 13h325c18 0 33-15 33-33s-15-32-33-32h-325c-18 0-32 14-32 32s14 33 32 33z m576-721h-846v665h199c9-31 38-53 71-53h325c34 0 62 22 72 53h179v-665z m-352 414c0-12 10-22 22-22h181c12 0 21 10 21 22s-9 21-21 21h-181c-12 0-22-9-22-21z m-140-133c-69 25-144 25-213 0-34-12-59-50-57-84l6-87c1-12 10-21 22-21h271c11 0 21 9 21 21 3 29 5 58 6 87 3 34-22 72-56 84z m9-148h-231l-5 67c-1 13 12 34 29 41 59 21 124 21 183 0 16-6 29-28 28-41-1-22-3-45-4-67z m334 165h-181c-12 0-22-10-22-22s10-21 22-21h181c12 0 21 9 21 21s-9 22-21 22z" horiz-adv-x="1000" />
<glyph glyph-name="icon_96" unicode="&#xe800;" d="m163 723h686c11 0 21 9 21 21 0 12-10 21-21 21h-686c-12 0-22-9-22-21 0-12 10-21 22-21z m40 85h605c12 0 21 9 21 21s-9 21-21 21h-605c-11 0-21-9-21-21s10-21 21-21z m742-495h-26v325c0 12-9 21-21 21h-785c-12 0-21-9-21-21v-325h-37c-12 0-22-9-22-21v-300c0-12 10-22 22-22h890c12 0 22 10 22 22v300c0 12-10 21-22 21z m-811 304h743v-304h-207c-12 0-21-9-21-21v-60c0-12-10-21-22-21h-254c-12 0-21 9-21 21v60c0 12-10 21-22 21h-196v304z m790-604h-848v258h233v-39c0-35 29-64 64-64h254c35 0 64 29 64 64v39h233v-258z" horiz-adv-x="1000" />
<glyph glyph-name="icon_97" unicode="&#xe801;" d="m419 848c-8 3-17 3-23-3l-208-166h-133c-12 0-22-10-22-22v-390c0-13 10-23 22-23h133l208-166c4-3 8-5 13-5 4 0 7 1 10 2 8 4 12 12 12 20v733c0 9-4 16-12 20z m-32-707l-178 143c-4 3-9 5-14 5h-118v346h118c5 0 10 1 14 4l178 143v-641z m573 149l-171 172 169 174c8 9 8 23-1 31-8 9-22 8-31 0l-169-174-171 171c-9 9-23 9-31 0-9-8-9-22 0-31l172-172-170-174c-8-8-8-22 1-31 4-4 10-6 15-6 6 0 12 2 16 7l169 173 171-171c4-4 10-7 16-7 5 0 11 3 15 7 9 9 9 23 0 31z" horiz-adv-x="1000" />
<glyph glyph-name="icon_98" unicode="&#xe802;" d="m548 615c-8 8-21 8-29 0-8-8-8-21 0-29 54-53 83-125 83-200s-29-147-83-201c-8-8-8-21 0-29 4-4 10-6 15-6 5 0 10 2 14 6 62 61 95 143 95 230s-33 168-95 229z m-155 131c-7 3-16 2-22-3l-194-155h-123c-11 0-21-9-21-21v-363c0-11 10-21 21-21h123l194-155c4-3 8-4 13-4 3 0 6 0 9 2 7 3 11 10 11 18v683c0 8-4 15-11 19z m-30-659l-166 133c-3 3-8 4-13 4h-110v323h110c5 0 9 1 13 4l166 133v-597z m304 647c-8 8-21 8-29 0-8-8-8-21 0-29 86-85 133-199 133-319s-47-235-133-320c-8-8-8-21 0-29 4-4 10-6 15-6 5 0 10 2 14 6 192 192 192 505 0 697z m110 110c-8 8-21 8-29 0-8-8-8-21 0-29 237-237 237-622 0-859-8-8-8-21 0-29 4-4 9-6 15-6 5 0 10 2 14 6 253 253 253 664 0 917z" horiz-adv-x="1000" />
<glyph glyph-name="icon_99" unicode="&#xe803;" d="m795 507c-10 0-18-7-21-17-2 1-4 2-7 2h-109v199c0 88-71 159-159 159s-159-71-159-159v-199h-102c-5 0-9-2-13-5-1 11-10 20-22 20-12 0-22-10-22-22v-139c0-157 128-285 285-285h13v-101h-168c-12 0-22-9-22-21s10-22 22-22h380c12 0 22 9 22 22s-10 21-22 21h-168v101h9c157 0 285 128 285 285v139c0 12-10 22-22 22z m-411 184c0 64 52 115 115 115s115-51 115-115v-307c0-63-51-115-115-115s-115 52-115 115v307z m389-345c0-133-108-241-241-241h-66c-133 0-241 108-241 241v107c4-3 8-5 13-5h102v-64c0-87 72-159 159-159s159 72 159 159v64h109c2 0 4 1 6 1v-103z" horiz-adv-x="1000" />
<glyph glyph-name="icon_100" unicode="&#xe804;" d="m861 813c8 9 8 23-1 31-8 8-22 8-31-1l-170-177v24c0 87-72 158-159 158-87 0-159-71-159-158v-199h-102c-5 0-9-2-13-5-1 11-10 19-21 19-12 0-22-9-22-21v-139c0-49 12-95 34-135l-78-82c-8-8-8-22 1-31 4-4 9-6 15-6 6 0 11 2 16 7l71 74c52-67 134-111 225-111h13v-101h-168c-12 0-22-9-22-22 0-12 10-21 22-21h379c12 0 22 9 22 21 0 13-10 22-22 22h-167v101h9c157 0 284 127 284 284v139c0 12-10 21-22 21-10 0-18-7-20-16-3 1-5 2-8 2h-108v112l202 210z m-476-430v307c0 63 52 114 115 114 63 0 115-51 115-114v-69l-230-238c0 0 0 0 0 0z m230 175v-175c0-63-52-114-115-114-45 0-84 26-103 64l218 225z m-365-315c-15 31-23 66-23 102v107c3-3 8-5 12-5h102v-64c0-13 3-27 6-39l-97-101z m517 204c2 0 4 1 6 1v-103c0-133-108-241-240-241h-66c-80 0-150 40-194 100l93 96c28-45 77-75 134-75 87 0 159 71 159 158v64h108z" horiz-adv-x="1000" />
<glyph glyph-name="icon_101" unicode="&#xe805;" d="m520 727c-11 0-19-9-19-20s8-19 19-19c153 0 277-124 277-277 0-11 9-20 20-20 10 0 19 9 19 20 0 174-142 316-316 316z m-162-26c-4 3-10 4-15 2-6-2-10-5-13-10l-168-351c-5-9-2-20 6-25 3-1 4-3 7-4l-87-86c-31-32-49-75-49-120s18-87 49-119c32-32 74-49 120-49 36 0 71 12 100 34 1-3 2-6 4-8 31-31 70-48 107-48h0c26 0 49 9 66 25 7 8 7 20 0 28-8 7-20 7-27 0-12-12-28-15-39-15h0c-26 0-56 14-79 37-2 2-4 3-6 4l79 78c1-2 3-4 4-6 4-5 10-8 17-8 2 0 5 0 8 1l351 169c5 3 9 7 10 12 2 6 1 12-2 16-117 177-266 326-443 443z m-59-685c-49-50-134-50-183 0-25 24-39 57-39 91s14 68 39 92l90 91c70-52 132-114 184-184l-91-90z m141 88c-64 93-143 172-236 236l151 316c159-107 294-242 401-401l-316-151z m80 746c-11 0-19-9-19-19s8-20 19-20c221 0 401-179 401-400 0-11 8-20 19-20 11 0 19 9 19 20 0 242-197 439-439 439z" horiz-adv-x="1000" />
</font>
</defs>
</svg>
